<svg xmlns="http://www.w3.org/2000/svg" xmlns:xlink="http://www.w3.org/1999/xlink" viewBox="0 0 300 150">
  <defs>
    <style>
      .cls-1, .cls-34 {
        fill: none;
      }

      .cls-2 {
        isolation: isolate;
      }

      .cls-3 {
        clip-path: url(#clip-path);
      }

      .cls-4 {
        fill: #da9e4e;
      }

      .cls-5 {
        clip-path: url(#clip-path-2);
      }

      .cls-6 {
        opacity: 0.5;
      }

      .cls-7 {
        fill: #c08130;
      }

      .cls-8 {
        fill: #c0812e;
      }

      .cls-9 {
        fill: #9a5b44;
      }

      .cls-10 {
        fill: #f0f1f1;
      }

      .cls-10, .cls-11 {
        mix-blend-mode: multiply;
      }

      .cls-11 {
        fill: #e5e5e6;
      }

      .cls-12 {
        fill: #fff;
      }

      .cls-13 {
        fill: #e2584d;
      }

      .cls-14 {
        fill: #fbad2d;
      }

      .cls-15 {
        fill: #e59f29;
      }

      .cls-16 {
        fill: #d15046;
      }

      .cls-17 {
        fill: #c34a61;
      }

      .cls-18 {
        fill: #f8f3e0;
      }

      .cls-19 {
        fill: #642f1b;
      }

      .cls-20 {
        fill: #4b578d;
      }

      .cls-21 {
        fill: #f6bb34;
      }

      .cls-22 {
        fill: #dcd5bd;
      }

      .cls-23 {
        fill: #f5d38a;
      }

      .cls-24 {
        fill: #d89357;
      }

      .cls-25 {
        fill: #ffebca;
      }

      .cls-26 {
        fill: #ee2e55;
      }

      .cls-27 {
        fill: #16b58a;
      }

      .cls-28 {
        fill: #1576a4;
      }

      .cls-29 {
        fill: #f4772f;
      }

      .cls-30 {
        fill: #ec4c53;
      }

      .cls-31 {
        fill: #603e71;
      }

      .cls-32 {
        fill: #e1dccb;
      }

      .cls-33 {
        clip-path: url(#clip-path-3);
      }

      .cls-34 {
        stroke: #0090cf;
        stroke-miterlimit: 10;
      }
    </style>
    <clipPath id="clip-path">
      <rect class="cls-1" width="300" height="150"/>
    </clipPath>
    <clipPath id="clip-path-2">
      <polygon class="cls-1" points="302 150 0 150 -2 0 300 0 302 150"/>
    </clipPath>
    <clipPath id="clip-path-3">
      <rect class="cls-1" x="425.14" y="947.91" width="300" height="150"/>
    </clipPath>
  </defs>
  <title>Arts and Culture</title>
  <g class="cls-2">
    <g id="Layer_1" data-name="Layer 1">
      <g class="cls-3">
        <g>
          <rect class="cls-4" width="300" height="150"/>
          <g class="cls-5">
            <g class="cls-6">
              <path class="cls-7" d="M2.37-51.67H4.06C5.61-43,8.22-34.59,5.31-25.58c-.88,2.73-2.16,5.43-2.39,8.22-.24,3,.74,6,1.61,8.89C20.7,46.5-.23,103.26,7.3,159c.62,4.57,1.4,9.28,1,13.85H5.72c1.93-9.19-1.46-18.78-2.7-28.16-1-7.88-.55-16.27-.63-24.27A283.58,283.58,0,0,1,3.87,92.05C5.62,73.16,8.1,54.23,6.44,35.3,6,30.36,5.3,25.42,5.34,20.47c.07-7.37,1.84-14.8,0-22.07C4-6.74.8-11.75,1.06-17c.22-4.29,2.74-8.38,3.65-12.63,1-4.59.06-9.26-.93-13.85C3.21-46.09,2.91-48.89,2.37-51.67Z"/>
              <path class="cls-7" d="M11.08-51.67h2.76l3.5,35.86c.77,7.85.39,15.5.2,23.36a82.84,82.84,0,0,0,1.2,13.14,339.59,339.59,0,0,1,3,38.4,8.72,8.72,0,0,1-1.09,5.21c-.8,1.23-2.14,2.29-2.95,3.52-1.43,2.17-1,4.63-.69,7a176.76,176.76,0,0,1,1.69,37.36c-.34,5.5-1.62,11.1-.88,16.6.72,5.31,3.3,10.56,2.31,15.93-.57,3-2.29,6-2.9,9-1.3,6.4,2.39,12.77,3.78,19.16H15.11a39.55,39.55,0,0,0-.06-6.12c-.65-4.29-1-8.58-1.24-12.88-.21-3.43,1.87-5.47,2.79-8.72.74-2.6-1.41-5.18-1.57-7.82a19.66,19.66,0,0,1,.58-4.08c.53-3.49-.56-6.92-.92-10.39-.32-3.15.7-6,1.08-9,.81-6.65,1.44-13.77.37-20.43-1-6.44.91-12.79-1.37-19.25-.63-1.79-1.46-3.67-.59-5.41a13.27,13.27,0,0,1,2-2.5C20.94,60.73,18.73,54.81,17.8,49s-.15-11.75-.26-17.54c-.11-5-.28-10-.7-15-.28-3.48-2.28-6.37-1.39-9.87A19.07,19.07,0,0,0,15.74,1c-.27-5.95-.55-11.92-2.24-17.77C11.26-24.55,11-31.58,11.39-39.49A61.19,61.19,0,0,0,11.08-51.67Z"/>
              <path class="cls-7" d="M103.28-51.67H106l3.5,35.86c.77,7.85.4,15.5.2,23.36a83.92,83.92,0,0,0,1.2,13.14,339.57,339.57,0,0,1,3,38.4,8.72,8.72,0,0,1-1.09,5.21c-.8,1.23-2.14,2.29-2.95,3.52-1.42,2.17-1,4.63-.69,7a176.76,176.76,0,0,1,1.69,37.36c-.34,5.5-1.61,11.1-.87,16.6.72,5.31,3.29,10.56,2.3,15.93-.57,3-2.29,6-2.9,9-1.3,6.4,2.39,12.77,3.78,19.16H107.3a39.55,39.55,0,0,0-.06-6.12c-.65-4.29-1-8.58-1.24-12.88-.21-3.43,1.87-5.47,2.79-8.72.75-2.6-1.41-5.18-1.57-7.82a19.65,19.65,0,0,1,.58-4.08c.53-3.49-.56-6.92-.91-10.39-.33-3.15.69-6,1.08-9,.81-6.65,1.43-13.77.36-20.43-1-6.44.91-12.79-1.37-19.25-.63-1.79-1.46-3.67-.59-5.41a13.65,13.65,0,0,1,2-2.5c4.74-5.45,2.54-11.37,1.61-17.19s-.14-11.75-.26-17.54c-.11-5-.28-10-.7-15-.28-3.48-2.27-6.37-1.39-9.87A18.76,18.76,0,0,0,107.93,1c-.27-5.95-.55-11.92-2.24-17.77-2.24-7.78-2.46-14.81-2.12-22.72A61.18,61.18,0,0,0,103.28-51.67Z"/>
              <path class="cls-7" d="M23.88-51.67h2.38c1.58,5.06,6.29,10,6.12,15.18C32.3-34.23,31.3-32,30.57-29.8c-2.31,7-1.87,14.26-.56,21.34C31.19-2.13,34.37,4,34.43,10.4c.18,20-11.44,38.81-2.38,57.91a31.6,31.6,0,0,1-.33,28.27,39,39,0,0,0-2.95,6.34,18.78,18.78,0,0,0-.41,6.46c.87,13.65,5.18,27.23,3.85,40.86-.3,3.13-.9,6.26-1,9.39-.09,4.4.88,8.81,1.09,13.2H28.89q-.11-14.15-.23-28.29c0-5.31-.09-10.65-1.33-15.91-.63-2.68-1.58-5.37-1.23-8.07.23-1.74,1-3.48.58-5.21-.36-1.55-1.62-2.94-2.3-4.45a3.16,3.16,0,0,1,1.21-4.37c1.5-4.46,1.81-8.43,3.31-12.9,1.41-4.22,2.84-8.49,2.52-12.8-.25-3.36-1.55-6.65-2.25-10a56.38,56.38,0,0,1-.85-11.34c0-5.8-.07-11.59,0-17.39q.3-16.53,2.2-33a11.77,11.77,0,0,0-.18-5.23C29.8,2.17,28.46.62,27.68-1a15.86,15.86,0,0,1-1.11-5.84l-.66-10.75a27.87,27.87,0,0,1,.4-8.83c.48-1.86,1.35-3.69,1.55-5.57.26-2.51-.68-5-1.47-7.47C25.12-43.48,24.76-47.63,23.88-51.67Z"/>
              <path class="cls-7" d="M37.64-51.67h3.8l1.86,6A27.52,27.52,0,0,1,45-37.44c0,2.7-.88,5.37-1.46,8a58.91,58.91,0,0,0-1,15.12c.17,3.7.52,7.4.77,11.1A208.84,208.84,0,0,1,39.94,50.7c-.74,3.82-1.66,7.75-.91,11.6.61,3.11,2.78,5.61,3.23,8.8a220.64,220.64,0,0,1,2,23.47,48.13,48.13,0,0,1-.52,10.49c-.56,2.94-1.59,5.85-2.12,8.79a51.51,51.51,0,0,0-.26,12q1,18.71,2.09,37.42a43.22,43.22,0,0,1-.18,9.59H41.51c.79-1.19,1.39-2.37.64-3.48a21.22,21.22,0,0,0-1.66-1.65c-2.06-2.4,1.17-5.3.82-8a8.8,8.8,0,0,0-.78-2.2,13.83,13.83,0,0,1-.79-8.49c.87-3.85.57-5.93-.45-9.77C37.12,131,36,122.66,37.74,114.43c.5-2.35,1.23-4.68,1.73-7,1.25-5.83,1.11-11.73,1-17.61l-.19-7.71A44.18,44.18,0,0,0,39,70.64c-1.37-4.72-4.31-9.39-3.4-14.15a34.93,34.93,0,0,1,2.34-6.12c4.21-10.45.69-21.28,2.78-31.85.57-2.85,1.6-5.71,1.06-8.56C41.37,7.87,40.15,5.87,40,3.78,39.72.37,41.33-3,41.07-6.44c-.24-3-1.94-6-1-9a13.62,13.62,0,0,0,1-3.46,9.86,9.86,0,0,0-.85-3.26,13.25,13.25,0,0,1,0-8.67,17.69,17.69,0,0,0,1.2-4,11.23,11.23,0,0,0-.87-4.31A70.19,70.19,0,0,1,37.64-51.67Z"/>
              <path class="cls-7" d="M46.78-51.67H53c.05,1.45.26,2.91.35,4.36.52,8.23-2.81,16.31-3,24.52C50.22-15.14,52.27-7.33,52.57.38q.3,7.87.62,15.75a85.72,85.72,0,0,1-.09,12c-.7,6.9-3.09,13.73-3,20.67.07,6.25,4.26,11.86,3.26,18.14-.68,4.27-2.49,8.44-3,12.72-1.12,8.88,3.25,17.7,3,26.6-.11,4.07-1.2,8.1-1.68,12.16-1.33,11.09,1.77,22.17,2.62,33.28a130.36,130.36,0,0,1-.47,21.17H51.91a4.48,4.48,0,0,0,.07-.6c.11-1.92-1.09-3.77-1.47-5.67-.45-2.3.8-4.39.95-6.64.21-3.51-.95-7.28-1.4-10.79q-1.4-10.77-2.78-21.55a31.37,31.37,0,0,1-.3-8.76c.3-1.94,1-3.84,1.36-5.76,2-10-3.22-20-1.92-30C47.3,76.4,51,69.86,49.92,63.23c-.59-3.5-2.64-6.82-2.55-10.3.1-3.8.83-7.71,1.13-11.53a114.08,114.08,0,0,0,.46-17c-.13-1.78-.35-3.57-.46-5.36-.15-2.39-.11-4.78-.07-7.18l.22-14.56c0-9.56.28-19.12.43-28.68C49.18-38.42,47.86-44.9,46.78-51.67Z"/>
              <path class="cls-7" d="M64.21-51.67h2.68c-.56,1.49-1.18,3-1.84,4.45a13.76,13.76,0,0,0-1.47,4.38c-.2,2.44,1.16,4.81,2.08,7.18,3.64,9.41.4,19.26-1.42,28.89C62,5.12,62,17.15,62.66,29.11c.33,5.61,1.81,11.53,1,17.11-.66,4.71,1.29,9.36.53,14.1-.9,5.58-5.95,10.59-7.12,16.15-1.58,7.42,3.9,14.78,3.56,22.27-.22,4.58-2.61,9.09-2,13.65.38,3.08,2.12,6,2.9,9.09,1.73,6.7-1.1,13.55-.58,20.33.45,5.84,3.38,11.55,3.24,17.4-.11,4.56-2.1,9.08-1.94,13.62h-1c0-.06,0-.13,0-.19q.51-7.95,1-15.9c.35-5.53-2.76-10.07-3-15.45a32.7,32.7,0,0,1,.16-6.19c.26-1.7.8-3.39.89-5.11.16-2.89-1-5.74-1.77-8.58a41.39,41.39,0,0,1-.78-19.69c1-4.71-.73-8-2.5-12.57-1.84-4.71-.88-9.65.11-14.45.52-2.56.84-5.34,2.16-7.79,1.2-2.21,3.49-3.77,4.27-6.09,1.77-5.33-2.12-10.89-2.26-16.22-.1-3.78,1.51-7.5,1.8-11.28a38.42,38.42,0,0,0-.5-7.71c-.68-5.78-.9-11.57-1.12-17.36C59.46,1,59.2-6.35,61.52-13.47c.94-2.87,2.31-5.74,2.13-8.67-.16-2.64-1.57-5.31-.53-7.87a6.43,6.43,0,0,0,.95-2.61c-.07-1.33-1.6-2.41-2.49-3.61-3.33-4.49.12-9.08,2.07-13.34A6.79,6.79,0,0,0,64.21-51.67Z"/>
              <path class="cls-7" d="M74.76-51.67h1.65q-.15.51-.27,1a33.46,33.46,0,0,0-.53,7.44q0,12.23,0,24.46c0,6.57-1.15,13.83-.49,20.27.54,5.28,2.13,9.38,1.76,15.11-.42,6.73-2.36,13.29-1.9,20,.42,6,2.74,11.64,2.4,17.66C77.22,58,76,61.44,75.28,65c-.93,4.63-1,9.54-1.88,14.21-.36,2.06-.88,4.07-1.1,6.17a47.46,47.46,0,0,0-.08,6.54q.62,18.09,1.21,36.17c.19,5.78.39,11.55.76,17.3a73.62,73.62,0,0,1,.25,8.74c-.22,3.86-1.14,7.71-.72,11.54a56.41,56.41,0,0,0,1.67,7.15h-.77a.13.13,0,0,0,0-.06,11.41,11.41,0,0,0-1.25-2.45c-1-2-.26-9-.35-11.72s-.38-5.77-.2-8.55.86-4.92.3-7.64c-.19-1-.52-1.84-.77-2.77a18.06,18.06,0,0,1-.27-7.75,9.48,9.48,0,0,0,.32-3.27,14,14,0,0,0-.55-1.76c-.77-2.48.22-6.8.08-9.64-.17-3.83-.59-7.63-.57-11.47,0-4.6,1.2-9.59-.39-13.54a7.82,7.82,0,0,1-.82-2.56A6.11,6.11,0,0,1,70.37,88c1.34-5.88,1.55-11.24,2.2-17.36a36.62,36.62,0,0,1,1.21-6.82c.52-1.69,1.27-3.24,1.67-5,1.26-5.43-.32-14.39-1.42-19.76-1.3-6.26-.5-10.93.58-17.28.88-5.12,1.45-10.78-.18-15.47a18.88,18.88,0,0,1-.76-2.28A14.21,14.21,0,0,1,73.6-.27q.49-5.67,1-11.35A68.8,68.8,0,0,0,75-20.39c-.23-5.85-.3-11.61-.57-17.46C74.19-42.46,73.87-47.21,74.76-51.67Z"/>
              <path class="cls-8" d="M83.17-51.67h2.68c0,.81-.08,1.62-.12,2.42-.21,4.34-.42,8.69-.51,13a234.32,234.32,0,0,0,1.3,29.7q.82,7.6,2.14,15.18c.66,3.8,3.12,7.24,3.57,11,.61,5.16,2.32,11.9-.34,16.9-.49.93-1.2,1.84-1.67,2.77-2.12,4.27-.88,9.5-1,13.88l-.9,38.09c-.13,5,1.75,9.58-.47,14.5-2.44,5.39-5.17,10.79-2.3,16.28,1.56,3,4.21,6.09,2.26,9-.71,1.06-2,2-2.85,3.05-2.15,2.61-1.5,5.52-1.92,8.32-.4,2.56-1.73,5.1-1.65,7.68.06,2.32,1.28,4.6,2.18,6.88a41.08,41.08,0,0,1,2.46,15.78H81.53c-.05-3.88,2.52-7.85,2-11.77-.58-4.65-5.46-9.07-5-13.73.36-3.92,4.47-7.73,3.27-11.62-.54-1.73-2-3.67,0-5.1.9-.62,2.34-1,3.27-1.63,2.35-1.55.66-3.68-.65-5.49-5.7-7.9-.41-14.86.13-22.64C85.83,82.92,87.09,65,85.71,47.06c-.25-3.15-.57-6.31.08-9.44.57-2.82,1.93-5.59,2.58-8.4C90,22,87,14.84,85,7.69,80.49-8,80.5-23.81,81.62-39.6A77.87,77.87,0,0,1,83.17-51.67Z"/>
              <path class="cls-8" d="M92.7-51.67h3.65a12.2,12.2,0,0,0,2.95,5.92c4.45,5.17,4.32,6.71.95,11.76-4.31,6.44,1,13.35,1.51,20.11.21,2.66-.34,5.33-.57,8-.53,5.78.39,11.56,1.3,17.33q1.44,9.12,2.88,18.24c1.51,9.49,2.75,19.4-1.5,28.79C102.3,61.95,99.95,65.4,100,69c0,2.56,1.33,5.08,1.92,7.63,1.42,6.18-3.37,11.92-3.11,17.92.23,5.6,4,11.14,3.86,16.82-.08,3.1-1.06,6.17-1.65,9.25a76.07,76.07,0,0,0-.85,15.36q.25,18.45.47,36.89H96.57a9.71,9.71,0,0,0-1.35-4.66,8.4,8.4,0,0,1-1.44-2.84c-.19-1.48,1.1-2.9,1.76-4.35a10.85,10.85,0,0,0,.78-3.78l1-11.88a16.1,16.1,0,0,0-.34-6.4c-.47-1.43-1.31-2.82-1.69-4.26a13.14,13.14,0,0,1,0-5.17l2.38-16.86c.57-4.07,1.14-8.18-.32-12.2-.7-1.95-1.88-3.88-1.72-5.86s1.53-3.74,2.46-5.6a12.44,12.44,0,0,0-.36-12.13c-2.47-4.39-2.55-6.06,1.12-9.94s.29-8.23,2.24-12.41c.66-1.41,2-2.73,2.58-4.14,1-2.42-.07-4.92-.6-7.38-1.6-7.42,2.09-15.17-2.86-22.24-1.08-1.55-2.58-3.06-2.91-4.69-.41-2,1-4,1.24-6,.55-4.4-4.42-8.7-3.23-13.08.48-1.78,2-3.49,2.31-5.28.75-4-4.43-7.84-4.75-11.9-.17-2.2,1.09-4.36,2-6.52a20.86,20.86,0,0,0,.38-15.74C94.17-45.54,92.32-48.61,92.7-51.67Z"/>
            </g>
            <g class="cls-6">
              <path class="cls-7" d="M118.37-51.67h1.69c1.55,8.67,4.16,17.08,1.26,26.1-.88,2.73-2.16,5.43-2.39,8.22-.24,3,.74,6,1.61,8.89,16.16,55-4.76,111.72,2.77,167.45.62,4.57,1.4,9.28,1,13.85h-2.56c1.93-9.19-1.46-18.78-2.7-28.16-1-7.88-.55-16.27-.63-24.27a283.58,283.58,0,0,1,1.49-28.35c1.74-18.89,4.22-37.82,2.56-56.75-.43-4.94-1.14-9.88-1.09-14.83.07-7.37,1.84-14.8,0-22.07C120-6.74,116.8-11.75,117.06-17c.22-4.29,2.74-8.38,3.65-12.63,1-4.59.06-9.26-.93-13.85C119.21-46.09,118.91-48.89,118.37-51.67Z"/>
              <path class="cls-7" d="M127.08-51.67h2.76l3.5,35.86c.77,7.85.39,15.5.2,23.36a82.84,82.84,0,0,0,1.2,13.14,339.59,339.59,0,0,1,3,38.4,8.72,8.72,0,0,1-1.09,5.21c-.8,1.23-2.14,2.29-2.95,3.52-1.43,2.17-1,4.63-.69,7a176.76,176.76,0,0,1,1.69,37.36c-.34,5.5-1.62,11.1-.88,16.6.72,5.31,3.3,10.56,2.31,15.93-.57,3-2.29,6-2.9,9-1.3,6.4,2.39,12.77,3.78,19.16h-5.89a39.55,39.55,0,0,0-.06-6.12c-.65-4.29-1-8.58-1.24-12.88-.21-3.43,1.87-5.47,2.79-8.72.74-2.6-1.41-5.18-1.57-7.82a19.66,19.66,0,0,1,.58-4.08c.53-3.49-.56-6.92-.92-10.39-.32-3.15.7-6,1.08-9,.81-6.65,1.44-13.77.37-20.43-1-6.44.91-12.79-1.37-19.25-.63-1.79-1.46-3.67-.59-5.41a13.27,13.27,0,0,1,2-2.5c4.74-5.45,2.54-11.37,1.61-17.19s-.15-11.75-.26-17.54c-.11-5-.28-10-.7-15-.28-3.48-2.28-6.37-1.39-9.87A19.07,19.07,0,0,0,131.74,1c-.27-5.95-.55-11.92-2.24-17.77-2.24-7.78-2.46-14.81-2.12-22.72A61.19,61.19,0,0,0,127.08-51.67Z"/>
              <path class="cls-7" d="M219.28-51.67H222l3.5,35.86c.77,7.85.4,15.5.2,23.36a83.92,83.92,0,0,0,1.2,13.14,339.57,339.57,0,0,1,3,38.4,8.72,8.72,0,0,1-1.09,5.21c-.8,1.23-2.14,2.29-2.95,3.52-1.42,2.17-1,4.63-.69,7a176.76,176.76,0,0,1,1.69,37.36c-.34,5.5-1.61,11.1-.87,16.6.72,5.31,3.29,10.56,2.3,15.93-.57,3-2.29,6-2.9,9-1.3,6.4,2.39,12.77,3.78,19.16H223.3a39.55,39.55,0,0,0-.06-6.12c-.65-4.29-1-8.58-1.24-12.88-.21-3.43,1.87-5.47,2.79-8.72.75-2.6-1.41-5.18-1.57-7.82a19.65,19.65,0,0,1,.58-4.08c.53-3.49-.56-6.92-.91-10.39-.33-3.15.69-6,1.08-9,.81-6.65,1.43-13.77.36-20.43-1-6.44.91-12.79-1.37-19.25-.63-1.79-1.46-3.67-.59-5.41a13.65,13.65,0,0,1,2-2.5c4.74-5.45,2.54-11.37,1.61-17.19s-.14-11.75-.26-17.54c-.11-5-.28-10-.7-15-.28-3.48-2.27-6.37-1.39-9.87A18.76,18.76,0,0,0,223.93,1c-.27-5.95-.55-11.92-2.24-17.77-2.24-7.78-2.46-14.81-2.12-22.72A61.18,61.18,0,0,0,219.28-51.67Z"/>
              <path class="cls-7" d="M139.88-51.67h2.38c1.58,5.06,6.29,10,6.12,15.18-.08,2.27-1.08,4.47-1.81,6.69-2.31,7-1.87,14.26-.56,21.34,1.18,6.33,4.35,12.5,4.42,18.86.18,20-11.44,38.81-2.38,57.91a31.6,31.6,0,0,1-.33,28.27,39,39,0,0,0-2.95,6.34,18.78,18.78,0,0,0-.41,6.46c.87,13.65,5.18,27.23,3.85,40.86-.3,3.13-.9,6.26-1,9.39-.09,4.4.88,8.81,1.09,13.2h-3.45q-.11-14.15-.23-28.29c0-5.31-.09-10.65-1.33-15.91-.63-2.68-1.58-5.37-1.23-8.07.23-1.74,1-3.48.58-5.21-.36-1.55-1.62-2.94-2.3-4.45a3.16,3.16,0,0,1,1.21-4.37c1.5-4.46,1.81-8.43,3.31-12.9,1.41-4.22,2.84-8.49,2.52-12.8-.25-3.36-1.55-6.65-2.25-10a56.38,56.38,0,0,1-.85-11.34c0-5.8-.07-11.59,0-17.39q.3-16.53,2.2-33a11.77,11.77,0,0,0-.18-5.23c-.57-1.7-1.92-3.25-2.69-4.92a15.86,15.86,0,0,1-1.11-5.84l-.66-10.75a27.87,27.87,0,0,1,.4-8.83c.48-1.86,1.35-3.69,1.55-5.57.26-2.51-.68-5-1.47-7.47C141.12-43.48,140.76-47.63,139.88-51.67Z"/>
              <path class="cls-7" d="M153.64-51.67h3.8l1.86,6A27.52,27.52,0,0,1,161-37.44c0,2.7-.88,5.37-1.46,8a58.91,58.91,0,0,0-1,15.12c.17,3.7.52,7.4.77,11.1a208.84,208.84,0,0,1-3.38,53.87c-.74,3.82-1.66,7.75-.91,11.6.61,3.11,2.78,5.61,3.23,8.8a220.64,220.64,0,0,1,2,23.47,48.13,48.13,0,0,1-.52,10.49c-.56,2.94-1.59,5.85-2.12,8.79a51.51,51.51,0,0,0-.26,12q1,18.71,2.09,37.42a43.22,43.22,0,0,1-.18,9.59h-1.72c.79-1.19,1.39-2.37.64-3.48a21.22,21.22,0,0,0-1.66-1.65c-2.06-2.4,1.17-5.3.82-8a8.8,8.8,0,0,0-.78-2.2,13.83,13.83,0,0,1-.79-8.49c.87-3.85.57-5.93-.45-9.77-2.18-8.19-3.29-16.56-1.56-24.79.5-2.35,1.23-4.68,1.73-7,1.25-5.83,1.11-11.73,1-17.61l-.19-7.71A44.18,44.18,0,0,0,155,70.64c-1.37-4.72-4.31-9.39-3.4-14.15a34.93,34.93,0,0,1,2.34-6.12c4.21-10.45.69-21.28,2.78-31.85.57-2.85,1.6-5.71,1.06-8.56-.39-2.08-1.61-4.08-1.78-6.17C155.72.37,157.33-3,157.07-6.44c-.24-3-1.94-6-1-9a13.62,13.62,0,0,0,1-3.46,9.86,9.86,0,0,0-.85-3.26,13.25,13.25,0,0,1,0-8.67,17.69,17.69,0,0,0,1.19-4,11.23,11.23,0,0,0-.87-4.31A70.19,70.19,0,0,1,153.64-51.67Z"/>
              <path class="cls-7" d="M162.78-51.67H169c.05,1.45.26,2.91.35,4.36.52,8.23-2.81,16.31-3,24.52-.16,7.65,1.88,15.47,2.18,23.18q.3,7.87.62,15.75a85.72,85.72,0,0,1-.09,12c-.7,6.9-3.09,13.73-3,20.67.07,6.25,4.26,11.86,3.26,18.14-.68,4.27-2.49,8.44-3,12.72-1.12,8.88,3.25,17.7,3,26.6-.11,4.07-1.2,8.1-1.68,12.16-1.33,11.09,1.77,22.17,2.62,33.28a130.36,130.36,0,0,1-.47,21.17h-1.86a4.48,4.48,0,0,0,.07-.6c.11-1.92-1.09-3.77-1.47-5.67-.45-2.3.8-4.39.95-6.64.21-3.51-.95-7.28-1.4-10.79q-1.4-10.77-2.78-21.55a31.37,31.37,0,0,1-.3-8.76c.3-1.94,1-3.84,1.36-5.76,2-10-3.22-20-1.92-30,.87-6.65,4.62-13.19,3.49-19.82-.59-3.5-2.64-6.82-2.55-10.3.1-3.8.83-7.71,1.13-11.53a114.08,114.08,0,0,0,.46-17c-.13-1.78-.35-3.57-.46-5.36-.15-2.39-.11-4.78-.07-7.18l.22-14.56c0-9.56.28-19.12.43-28.68C165.18-38.42,163.86-44.9,162.78-51.67Z"/>
              <path class="cls-7" d="M180.21-51.67h2.68c-.56,1.49-1.18,3-1.84,4.45a13.76,13.76,0,0,0-1.47,4.38c-.2,2.44,1.16,4.81,2.08,7.18,3.64,9.41.4,19.26-1.42,28.89C178,5.12,178,17.15,178.66,29.11c.33,5.61,1.81,11.53,1,17.11-.66,4.71,1.29,9.36.53,14.1-.9,5.58-5.95,10.59-7.12,16.15-1.58,7.42,3.9,14.78,3.56,22.27-.22,4.58-2.61,9.09-2,13.65.38,3.08,2.12,6,2.9,9.09,1.73,6.7-1.1,13.55-.58,20.33.45,5.84,3.38,11.55,3.24,17.4-.11,4.56-2.1,9.08-1.94,13.62h-1c0-.06,0-.13,0-.19q.51-7.95,1-15.9c.35-5.53-2.76-10.07-3-15.45a32.7,32.7,0,0,1,.16-6.19c.26-1.7.8-3.39.89-5.11.16-2.89-1-5.74-1.77-8.58a41.39,41.39,0,0,1-.78-19.69c1-4.71-.73-8-2.5-12.57-1.84-4.71-.88-9.65.11-14.45.52-2.56.84-5.34,2.16-7.79,1.19-2.21,3.49-3.77,4.27-6.09,1.77-5.33-2.12-10.89-2.26-16.22-.1-3.78,1.51-7.5,1.8-11.28a38.42,38.42,0,0,0-.5-7.71c-.68-5.78-.9-11.57-1.12-17.36-.27-7.27-.53-14.6,1.79-21.72.94-2.87,2.31-5.74,2.13-8.67-.16-2.64-1.57-5.31-.53-7.87a6.43,6.43,0,0,0,.95-2.61c-.07-1.33-1.6-2.41-2.49-3.61-3.33-4.49.12-9.08,2.07-13.34A6.79,6.79,0,0,0,180.21-51.67Z"/>
              <path class="cls-7" d="M190.76-51.67h1.65q-.15.51-.27,1a33.46,33.46,0,0,0-.53,7.44q0,12.23,0,24.46c0,6.57-1.15,13.83-.49,20.27.54,5.28,2.13,9.38,1.76,15.11-.42,6.73-2.36,13.29-1.9,20,.42,6,2.74,11.64,2.4,17.66C193.22,58,192,61.44,191.28,65c-.93,4.63-1,9.54-1.88,14.21-.37,2.06-.88,4.07-1.1,6.17a47.46,47.46,0,0,0-.08,6.54q.62,18.09,1.21,36.17c.19,5.78.39,11.55.76,17.3a73.62,73.62,0,0,1,.25,8.74c-.22,3.86-1.14,7.71-.72,11.54a56.41,56.41,0,0,0,1.67,7.15h-.77a.13.13,0,0,0,0-.06,11.41,11.41,0,0,0-1.25-2.45c-1-2-.26-9-.35-11.72s-.38-5.77-.2-8.55.86-4.92.3-7.64c-.19-1-.52-1.84-.77-2.77a18.06,18.06,0,0,1-.27-7.75,9.48,9.48,0,0,0,.32-3.27,14,14,0,0,0-.55-1.76c-.77-2.48.22-6.8.08-9.64-.17-3.83-.59-7.63-.57-11.47,0-4.6,1.2-9.59-.39-13.54a7.82,7.82,0,0,1-.82-2.56,6.11,6.11,0,0,1,.22-1.63c1.34-5.88,1.55-11.24,2.2-17.36a36.62,36.62,0,0,1,1.21-6.82c.52-1.69,1.27-3.24,1.67-5,1.26-5.43-.32-14.39-1.42-19.76-1.3-6.26-.5-10.93.58-17.28.88-5.12,1.45-10.78-.18-15.47a18.88,18.88,0,0,1-.76-2.28,14.21,14.21,0,0,1-.07-4.36q.49-5.67,1-11.35a68.8,68.8,0,0,0,.38-8.78c-.23-5.85-.3-11.61-.57-17.46C190.19-42.46,189.87-47.21,190.76-51.67Z"/>
              <path class="cls-8" d="M199.17-51.67h2.68c0,.81-.08,1.62-.12,2.42-.21,4.34-.42,8.69-.51,13a234.32,234.32,0,0,0,1.3,29.7q.82,7.6,2.14,15.18c.66,3.8,3.12,7.24,3.57,11,.61,5.16,2.32,11.9-.34,16.9-.49.93-1.2,1.84-1.67,2.77-2.12,4.27-.88,9.5-1,13.88l-.9,38.09c-.13,5,1.75,9.58-.47,14.5-2.44,5.39-5.17,10.79-2.3,16.28,1.56,3,4.21,6.09,2.26,9-.71,1.06-2,2-2.85,3.05-2.15,2.61-1.5,5.52-1.92,8.32-.4,2.56-1.73,5.1-1.65,7.68.06,2.32,1.28,4.6,2.18,6.88a41.08,41.08,0,0,1,2.46,15.78h-4.52c-.05-3.88,2.52-7.85,2-11.77-.58-4.65-5.46-9.07-5-13.73.36-3.92,4.47-7.73,3.27-11.62-.54-1.73-2-3.67,0-5.1.9-.62,2.34-1,3.27-1.63,2.35-1.55.66-3.68-.65-5.49-5.7-7.9-.41-14.86.13-22.64,1.25-17.92,2.51-35.87,1.13-53.79-.25-3.15-.57-6.31.08-9.44.57-2.82,1.93-5.59,2.58-8.4C206,22,203,14.84,201,7.69,196.49-8,196.5-23.81,197.62-39.6A77.87,77.87,0,0,1,199.17-51.67Z"/>
              <path class="cls-8" d="M208.7-51.67h3.65a12.2,12.2,0,0,0,2.95,5.92c4.45,5.17,4.32,6.71.95,11.76-4.31,6.44,1,13.35,1.51,20.11.21,2.66-.34,5.33-.57,8-.53,5.78.39,11.56,1.3,17.33q1.44,9.12,2.88,18.24c1.51,9.49,2.75,19.4-1.5,28.79C218.3,61.95,215.95,65.4,216,69c0,2.56,1.33,5.08,1.92,7.63,1.42,6.18-3.37,11.92-3.11,17.92.23,5.6,4,11.14,3.86,16.82-.08,3.1-1.06,6.17-1.65,9.25a76.07,76.07,0,0,0-.85,15.36q.25,18.45.47,36.89h-4.07a9.71,9.71,0,0,0-1.35-4.66,8.4,8.4,0,0,1-1.44-2.84c-.19-1.48,1.1-2.9,1.76-4.35a10.85,10.85,0,0,0,.78-3.78l1-11.88a16.1,16.1,0,0,0-.34-6.4c-.47-1.43-1.31-2.82-1.69-4.26a13.14,13.14,0,0,1,0-5.17l2.38-16.86c.57-4.07,1.14-8.18-.32-12.2-.7-1.95-1.88-3.88-1.72-5.86s1.53-3.74,2.46-5.6a12.44,12.44,0,0,0-.36-12.13c-2.47-4.39-2.55-6.06,1.12-9.94s.29-8.23,2.24-12.41c.66-1.41,2-2.73,2.58-4.14,1-2.42-.07-4.92-.6-7.38-1.6-7.42,2.09-15.17-2.86-22.24-1.08-1.55-2.58-3.06-2.91-4.69-.41-2,1-4,1.24-6,.55-4.4-4.42-8.7-3.23-13.08.48-1.78,2-3.49,2.31-5.28.75-4-4.43-7.84-4.75-11.9-.17-2.2,1.09-4.36,2-6.52a20.86,20.86,0,0,0,.38-15.74C210.17-45.54,208.32-48.61,208.7-51.67Z"/>
            </g>
            <g class="cls-6">
              <path class="cls-7" d="M232.47-70.51h1.69c1.55,8.67,4.16,17.08,1.26,26.1-.88,2.73-2.16,5.43-2.39,8.22-.24,3,.74,6,1.61,8.89,16.16,55-4.76,111.72,2.77,167.45.62,4.57,1.4,9.28,1,13.85h-2.56c1.93-9.19-1.46-18.78-2.7-28.16-1-7.88-.55-16.27-.63-24.27A283.58,283.58,0,0,1,234,73.22c1.74-18.89,4.22-37.82,2.56-56.75-.43-4.94-1.14-9.88-1.09-14.83.07-7.37,1.84-14.8,0-22.07-1.34-5.15-4.5-10.16-4.23-15.37.22-4.29,2.74-8.38,3.65-12.63,1-4.59.06-9.26-.93-13.85C233.31-64.92,233-67.72,232.47-70.51Z"/>
              <path class="cls-7" d="M241.18-70.51h2.76l3.5,35.86c.77,7.85.39,15.5.2,23.36a82.84,82.84,0,0,0,1.2,13.14,339.59,339.59,0,0,1,3,38.4,8.72,8.72,0,0,1-1.09,5.21c-.8,1.23-2.14,2.29-2.95,3.52-1.43,2.17-1,4.63-.69,7A176.76,176.76,0,0,1,248.8,93.3c-.34,5.5-1.62,11.1-.88,16.6.72,5.31,3.3,10.56,2.31,15.93-.57,3-2.29,6-2.9,9-1.3,6.4,2.39,12.77,3.78,19.16h-5.89a39.55,39.55,0,0,0-.06-6.12c-.65-4.29-1-8.58-1.24-12.88-.21-3.43,1.87-5.47,2.79-8.72.74-2.6-1.41-5.18-1.57-7.82a19.66,19.66,0,0,1,.58-4.08c.53-3.49-.56-6.92-.92-10.39-.32-3.15.7-6,1.08-9,.81-6.65,1.44-13.77.37-20.43-1-6.44.91-12.79-1.37-19.25-.63-1.79-1.46-3.67-.59-5.41a13.27,13.27,0,0,1,2-2.5C251,41.9,248.83,36,247.9,30.16s-.15-11.75-.26-17.54c-.11-5-.28-10-.7-15-.28-3.48-2.28-6.37-1.39-9.87a19.07,19.07,0,0,0,.29-5.57c-.27-5.95-.55-11.92-2.24-17.77-2.24-7.78-2.46-14.81-2.12-22.72A61.19,61.19,0,0,0,241.18-70.51Z"/>
              <path class="cls-7" d="M254-70.51h2.38c1.58,5.06,6.29,10,6.12,15.18-.08,2.27-1.08,4.47-1.81,6.69-2.31,7-1.87,14.26-.56,21.34,1.18,6.33,4.35,12.5,4.42,18.86.18,20-11.44,38.81-2.38,57.91a31.6,31.6,0,0,1-.33,28.27,39,39,0,0,0-2.95,6.34,18.78,18.78,0,0,0-.41,6.46c.87,13.65,5.18,27.23,3.85,40.86-.3,3.13-.9,6.26-1,9.39-.09,4.4.88,8.81,1.09,13.2H259q-.11-14.15-.23-28.29c0-5.31-.09-10.65-1.33-15.91-.63-2.68-1.58-5.37-1.23-8.07.23-1.74,1-3.48.58-5.21-.36-1.55-1.62-2.94-2.3-4.45a3.16,3.16,0,0,1,1.21-4.37c1.5-4.46,1.81-8.43,3.31-12.9,1.41-4.22,2.84-8.49,2.52-12.8-.25-3.36-1.55-6.65-2.25-10a56.38,56.38,0,0,1-.85-11.34c0-5.8-.07-11.59,0-17.39q.3-16.53,2.2-33a11.77,11.77,0,0,0-.18-5.23c-.57-1.7-1.92-3.25-2.69-4.92a15.86,15.86,0,0,1-1.11-5.84L256-36.47a27.87,27.87,0,0,1,.4-8.83c.48-1.86,1.35-3.69,1.55-5.57.26-2.51-.68-5-1.47-7.47C255.22-62.31,254.86-66.46,254-70.51Z"/>
              <path class="cls-7" d="M267.74-70.51h3.8l1.86,6a27.52,27.52,0,0,1,1.67,8.23c0,2.7-.88,5.37-1.46,8a58.91,58.91,0,0,0-1,15.12c.17,3.7.52,7.4.77,11.1A208.84,208.84,0,0,1,270,31.87c-.74,3.82-1.66,7.75-.91,11.6.61,3.11,2.78,5.61,3.23,8.8a220.64,220.64,0,0,1,2,23.47,48.13,48.13,0,0,1-.52,10.49c-.56,2.94-1.59,5.85-2.12,8.79a51.51,51.51,0,0,0-.26,12q1,18.71,2.09,37.42a43.22,43.22,0,0,1-.18,9.59h-1.72c.79-1.19,1.39-2.37.64-3.48a21.22,21.22,0,0,0-1.66-1.65c-2.06-2.4,1.17-5.3.82-8a8.8,8.8,0,0,0-.78-2.2,13.83,13.83,0,0,1-.79-8.49c.87-3.85.57-5.93-.45-9.77-2.18-8.19-3.29-16.56-1.56-24.79.5-2.35,1.23-4.68,1.73-7,1.25-5.83,1.11-11.73,1-17.61l-.19-7.71a44.18,44.18,0,0,0-1.28-11.44c-1.37-4.72-4.31-9.39-3.4-14.15A34.93,34.93,0,0,1,268,31.53c4.21-10.45.69-21.28,2.78-31.85.57-2.85,1.6-5.71,1.06-8.56-.39-2.08-1.61-4.08-1.78-6.17-.26-3.41,1.35-6.76,1.09-10.22-.24-3-1.94-6-1-9a13.62,13.62,0,0,0,1-3.46,9.86,9.86,0,0,0-.85-3.26,13.25,13.25,0,0,1,0-8.67,17.69,17.69,0,0,0,1.19-4,11.23,11.23,0,0,0-.87-4.31A70.19,70.19,0,0,1,267.74-70.51Z"/>
              <path class="cls-7" d="M276.88-70.51h6.26c.05,1.45.26,2.91.35,4.36.52,8.23-2.81,16.31-3,24.52-.16,7.65,1.88,15.47,2.18,23.18q.3,7.87.62,15.75a85.72,85.72,0,0,1-.09,12c-.7,6.9-3.09,13.73-3,20.67.07,6.25,4.26,11.86,3.26,18.14-.68,4.27-2.49,8.44-3,12.72-1.12,8.88,3.25,17.7,3,26.6-.11,4.07-1.2,8.1-1.68,12.16-1.33,11.09,1.77,22.17,2.62,33.28a130.36,130.36,0,0,1-.47,21.17H282a4.48,4.48,0,0,0,.07-.6c.11-1.92-1.09-3.77-1.47-5.67-.45-2.3.8-4.39.95-6.64.21-3.51-.95-7.28-1.4-10.79q-1.4-10.77-2.78-21.55a31.37,31.37,0,0,1-.3-8.76c.3-1.94,1-3.84,1.36-5.76,2-10-3.22-20-1.92-30,.87-6.65,4.62-13.19,3.49-19.82-.59-3.5-2.64-6.82-2.54-10.3.1-3.8.83-7.71,1.13-11.53a114.08,114.08,0,0,0,.46-17c-.13-1.78-.35-3.57-.46-5.36-.15-2.39-.11-4.78-.07-7.18l.22-14.56c0-9.56.28-19.12.43-28.68C279.28-57.25,278-63.73,276.88-70.51Z"/>
              <path class="cls-7" d="M294.31-70.51H297c-.56,1.49-1.18,3-1.84,4.45a13.76,13.76,0,0,0-1.47,4.38c-.2,2.44,1.16,4.81,2.08,7.18,3.64,9.41.4,19.26-1.42,28.89-2.25,11.9-2.28,23.93-1.58,35.89.33,5.61,1.81,11.53,1,17.11-.66,4.71,1.29,9.36.53,14.1-.9,5.58-5.95,10.59-7.12,16.15-1.58,7.42,3.9,14.78,3.56,22.27-.22,4.58-2.61,9.09-2,13.65.38,3.08,2.12,6,2.9,9.09,1.73,6.7-1.1,13.55-.58,20.33.45,5.84,3.38,11.55,3.24,17.4-.11,4.56-2.1,9.08-1.94,13.62h-1c0-.06,0-.13,0-.19q.51-7.95,1-15.9c.35-5.53-2.76-10.07-3-15.45a32.7,32.7,0,0,1,.16-6.19c.26-1.7.8-3.39.89-5.11.16-2.89-1-5.74-1.77-8.58a41.39,41.39,0,0,1-.78-19.69c1-4.71-.73-8-2.5-12.57-1.84-4.71-.88-9.65.11-14.45.52-2.56.84-5.34,2.16-7.79,1.19-2.21,3.49-3.77,4.27-6.09,1.77-5.33-2.12-10.89-2.26-16.22-.1-3.78,1.51-7.5,1.8-11.28a38.42,38.42,0,0,0-.5-7.71c-.68-5.78-.9-11.57-1.12-17.36-.27-7.27-.53-14.6,1.79-21.72.94-2.87,2.31-5.74,2.13-8.67-.16-2.64-1.57-5.31-.53-7.87a6.43,6.43,0,0,0,.95-2.61c-.07-1.33-1.6-2.41-2.49-3.61-3.33-4.49.12-9.08,2.07-13.34A6.79,6.79,0,0,0,294.31-70.51Z"/>
            </g>
          </g>
          <g>
            <rect class="cls-9" x="8.46" y="-14.65" width="101.7" height="126.2" transform="translate(-13.16 23.68) rotate(-20.38)"/>
            <polygon class="cls-10" points="80.65 -18.56 -0.61 11.63 -10.33 7.01 85 -28.41 80.65 -18.56"/>
            <polygon class="cls-10" points="37.96 115.46 119.22 85.28 128.95 89.9 33.61 125.31 37.96 115.46"/>
            <polygon class="cls-11" points="37.96 115.46 33.61 125.31 -10.33 7.01 -0.61 11.63 37.96 115.46"/>
            <polygon class="cls-11" points="82.83 -23.48 -5.47 9.32 -10.33 7.01 85 -28.41 82.83 -23.48"/>
            <polygon class="cls-10" points="119.22 85.28 123.6 87.36 82.83 -23.48 80.65 -18.56 119.22 85.28"/>
            <polygon class="cls-11" points="35.78 120.39 124.09 87.59 128.95 89.9 33.61 125.31 35.78 120.39"/>
            <polygon class="cls-10" points="-0.61 11.63 -4.99 9.55 35.89 120.17 37.96 115.46 -0.61 11.63"/>
          </g>
          <polygon class="cls-12" points="63.85 -24.98 76.4 -29.68 118.9 84.07 37.3 114.56 -5.2 0.81 7.36 -3.88 63.85 -24.98"/>
          <g>
            <path class="cls-13" d="M46.91,58.62V53.49l-14.29,4s1-6.11,8.49-8.24a12.85,12.85,0,0,1,5.8-.31V27.85H54a51.86,51.86,0,0,0-2.14-5.56c-1-2.14-2.14-.73-4.52,1.34a33.57,33.57,0,0,1-12.58,6.23,33.76,33.76,0,0,1-14,.92c-3.11-.55-4.76-1.22-4.58,1.16A50.64,50.64,0,0,0,18,41.58c2.44,9.28,10.56,27.17,25.95,23a15.48,15.48,0,0,0,8.85-6H46.91Zm-23-16.91,10.93-2.87a6.15,6.15,0,0,1-4.4,5.31A6.39,6.39,0,0,1,23.89,41.71Z"/>
            <path class="cls-14" d="M88.24,28.27a44.68,44.68,0,0,1-18.5-1.16,44.81,44.81,0,0,1-16.61-8.24c-3.24-2.69-4.64-4.52-6-1.71a70.1,70.1,0,0,0-4.33,12.21C39.52,41.64,37.08,67.53,57.41,73S88.6,54.77,91.9,42.5a69.14,69.14,0,0,0,2.38-12.7C94.53,26.63,92.39,27.54,88.24,28.27Zm-40.9,10.2S50.57,33.4,56.06,35,62,42.62,62,42.62ZM60.64,60.75c-9.58-2.81-11-10.44-11-10.44l25.7,7.14C75.29,57.52,70.11,63.5,60.64,60.75Zm9.28-15.57s3.11-5,8.36-3.48S84,49.34,84,49.34Z"/>
            <path class="cls-15" d="M61.38,60.94l-.73-.18c-9.58-2.81-11-10.44-11-10.44L63.15,54.1l7-26.92a.77.77,0,0,0-.37-.06,44.81,44.81,0,0,1-16.61-8.24c-3.24-2.69-4.64-4.52-6-1.71a70.1,70.1,0,0,0-4.33,12.21c-3.17,11.78-5.56,36.08,12.33,42.86l3.05.92,3.17-12.21Zm-14-22.47S50.57,33.4,56.06,35,62,42.62,62,42.62Z"/>
            <path class="cls-16" d="M41.84,55l-9.22,2.63a11.15,11.15,0,0,1,7.75-8L35.12,29.86a3.89,3.89,0,0,1-.43.12,33.76,33.76,0,0,1-14,.92c-3.11-.55-4.76-1.22-4.58,1.16a50.64,50.64,0,0,0,1.77,9.65c2.56,9.16,10.68,27,26.07,22.89l.37-.12ZM23.89,41.71l10.93-2.87a6.15,6.15,0,0,1-4.4,5.31A6.39,6.39,0,0,1,23.89,41.71Z"/>
          </g>
          <g id="_Group_" data-name="&lt;Group&gt;">
            <g id="_Group_2" data-name="&lt;Group&gt;">
              <g id="_Group_3" data-name="&lt;Group&gt;">
                <path class="cls-17" d="M210.15,158.32a3.37,3.37,0,0,1-3.92-2.74L193.61,83.8l6.67-1.17L212.9,154.4A3.39,3.39,0,0,1,210.15,158.32Z"/>
                <polygon class="cls-18" points="200.28 82.63 193.61 83.8 193.01 80.4 191.14 69.78 191.73 69.68 194.48 69.19 197.22 68.71 197.81 68.61 199.68 79.23 200.28 82.63"/>
              </g>
              <g id="_Group_4" data-name="&lt;Group&gt;">
                <path class="cls-19" d="M197.22,68.71l-2.74.48-2.75.49c-4.24-2.53-5.81-6.69-4.15-10.81.15-.36.3-.72.43-1.09l2.94-8.61,5.71,7.09c.25.31.51.59.78.88C200.4,60.44,200.34,64.9,197.22,68.71Z"/>
              </g>
            </g>
            <g id="_Group_5" data-name="&lt;Group&gt;">
              <g id="_Group_6" data-name="&lt;Group&gt;">
                <g id="_Group_7" data-name="&lt;Group&gt;">
                  <path id="_Path_" data-name="&lt;Path&gt;" class="cls-20" d="M220.37,81.71l-16.32,83.48a1.84,1.84,0,0,1-3.63-.64l13.26-84Z"/>
                </g>
                <polygon class="cls-18" points="221.54 65.34 220.37 81.71 220.41 81.72 220.1 83.45 213.38 82.26 213.69 80.53 218.2 64.75 218.5 63.05 221.84 63.64 221.54 65.34"/>
              </g>
              <path id="_Path_2" data-name="&lt;Path&gt;" class="cls-19" d="M233.59,51.64l-11.75,12L218.5,63l-6.93-15.29a21.09,21.09,0,0,1,22,3.89Z"/>
            </g>
          </g>
          <g id="_Group_8" data-name="&lt;Group&gt;">
            <g id="_Group_9" data-name="&lt;Group&gt;">
              <rect id="_Rectangle_" data-name="&lt;Rectangle&gt;" class="cls-21" x="175.33" y="78.02" width="9.73" height="8.92" transform="translate(65.32 -79) rotate(29.98)"/>
            </g>
            <g id="_Group_10" data-name="&lt;Group&gt;">
              <g id="_Group_11" data-name="&lt;Group&gt;">
                <polygon id="_Path_3" data-name="&lt;Path&gt;" class="cls-22" points="183.63 102.96 160.75 89.76 173.75 83.91 182.18 88.78 183.63 102.96"/>
              </g>
              <g id="_Group_12" data-name="&lt;Group&gt;">
                <g id="_Group_13" data-name="&lt;Group&gt;">
                  <rect id="_Rectangle_2" data-name="&lt;Rectangle&gt;" class="cls-18" x="145.44" y="92.73" width="26.42" height="54.19" transform="translate(81.1 -63.24) rotate(29.98)"/>
                </g>
              </g>
            </g>
            <g id="_Group_14" data-name="&lt;Group&gt;">
              <g id="_Group_15" data-name="&lt;Group&gt;">
                <rect id="_Rectangle_3" data-name="&lt;Rectangle&gt;" class="cls-21" x="145.37" y="112.73" width="26.42" height="14.46" transform="translate(81.15 -63.19) rotate(29.98)"/>
              </g>
            </g>
            <g id="_Group_16" data-name="&lt;Group&gt;">
              <polygon id="_Path_4" data-name="&lt;Path&gt;" class="cls-18" points="155.67 156.88 128.08 140.96 133.67 136.7 156.56 149.9 155.67 156.88"/>
            </g>
            <g id="_Group_17" data-name="&lt;Group&gt;">
              <rect id="_Rectangle_4" data-name="&lt;Rectangle&gt;" class="cls-22" x="120.85" y="148.45" width="38.53" height="7.05" transform="translate(94.68 -49.68) rotate(29.98)"/>
            </g>
            <g id="_Group_18" data-name="&lt;Group&gt;">
              <rect id="_Rectangle_5" data-name="&lt;Rectangle&gt;" class="cls-23" x="150.36" y="108.54" width="13.21" height="1.99" transform="translate(75.73 -63.78) rotate(29.98)"/>
              <rect id="_Rectangle_6" data-name="&lt;Rectangle&gt;" class="cls-24" x="161.81" y="115.14" width="13.21" height="1.99" transform="translate(80.56 -68.61) rotate(29.98)"/>
            </g>
            <g id="_Group_19" data-name="&lt;Group&gt;">
              <rect id="_Rectangle_7" data-name="&lt;Rectangle&gt;" class="cls-23" x="142.14" y="122.79" width="13.21" height="1.99" transform="translate(81.75 -57.76) rotate(29.98)"/>
              <rect id="_Rectangle_8" data-name="&lt;Rectangle&gt;" class="cls-24" x="153.59" y="129.39" width="13.21" height="1.99" transform="translate(86.58 -62.6) rotate(29.98)"/>
            </g>
          </g>
          <g>
            <path class="cls-25" d="M143.44,109.78c-10.74-6-17.64,8.44-24.06,9.57s-13.46-5.57-4.93-13.5S129.35,93.06,122,78.4C119,72.27,97.56,53.39,69,70.84S27.7,153.35,84.81,169.15,154.18,115.78,143.44,109.78Zm-34.6-13c-3.83,1.75-8.84-1-11.19-6.11S96.51,80,100.34,78.23s8.84,1,11.19,6.11S112.67,95,108.84,96.8Z"/>
            <path class="cls-26" d="M90.9,96.24A5,5,0,0,0,86.48,95a7.24,7.24,0,0,0-.51-.66,3.6,3.6,0,0,0-3.8-1l-.33,0c-2.76-.18-6.39,1.23-6.16,4.63a8,8,0,0,0,.85,3l-.17.23a5.13,5.13,0,0,0-.78,3.46,5.37,5.37,0,0,0,4.09,4.89,17.9,17.9,0,0,0,5.19.11,8.91,8.91,0,0,0,6.23-2.43C93.65,104.53,93.57,98.86,90.9,96.24Z"/>
            <path class="cls-27" d="M70.35,116.28a7.22,7.22,0,0,0,.12-1.35,3.88,3.88,0,0,0-4.82-3.71,5.06,5.06,0,0,0-2.8,1.73,4.31,4.31,0,0,0-3.34,1.86,6.13,6.13,0,0,0-1.09,4.85,6.41,6.41,0,0,0,2.81,3.85,9.91,9.91,0,0,0,7.7,1.28,3.75,3.75,0,0,0,2.71-2.69A7.49,7.49,0,0,0,70.35,116.28Z"/>
            <path class="cls-14" d="M86.69,141.49c-.08-.21-.17-.41-.26-.6a8.33,8.33,0,0,0,.78-8.56A3.39,3.39,0,0,0,85,129.24c-4.15-3.56-7.87,3.78-11.63,5-2.58.85-5.33.49-7.51,2.45a5.72,5.72,0,0,0-1.64,2.41c-2.79,5.17,3.69,11.41,8.78,12.61a13.25,13.25,0,0,0,9.86-1.81C85.41,148.34,87.92,144.67,86.69,141.49Z"/>
            <path class="cls-28" d="M137.1,131.76a4.11,4.11,0,0,0-2.54-.48,6.58,6.58,0,0,0-.63-.94,5.55,5.55,0,0,0-.49-.52,5,5,0,0,0-1.91-1.8c-3.46-1.85-7,1.2-7.2,4.7a4.5,4.5,0,0,0,0,.7,6.47,6.47,0,0,0-.51.47c-3.26,3.37,1.37,8.48,4.79,6a3.56,3.56,0,0,0,.87.22c3.29,1.21,7.35.54,8.92-3.05C139.26,135.1,139.06,132.93,137.1,131.76Z"/>
            <path class="cls-29" d="M112.15,145.89c-2.28,1-3.89,2.73-5.87,4.16-1,.72-2.47.07-3.58.71a3.94,3.94,0,0,0-2,3.41c0,3.39,2.68,4,5.46,3.62a8.62,8.62,0,0,0,3.56,1.28,7.3,7.3,0,0,0,7.41-3.73C119.44,151.59,117.91,143.32,112.15,145.89Z"/>
          </g>
          <g>
            <path class="cls-19" d="M100.78,118.75a6.34,6.34,0,0,0-6.68,5.11c-1.52,5.69-4.63,5.65-7.29,6.81,0,0,20-.66,15.88-10.74Z"/>
            <path class="cls-30" d="M102,125.79C98.48,130,88.36,130.6,87,130.66h-.16l.21-.09c2.61-1.08,5.61-1.18,7.08-6.72a8.56,8.56,0,0,1,.53-1.46,3.33,3.33,0,0,1,2.13,1.11c.19.22.36.44.52.66a5,5,0,0,1,4.42,1.25A3.8,3.8,0,0,1,102,125.79Z"/>
            <g id="_Group_20" data-name="&lt;Group&gt;">
              <path id="_Path_5" data-name="&lt;Path&gt;" class="cls-31" d="M106.15,108,136.88,60.5A1.22,1.22,0,0,1,139,61.8l-29,48.55Z"/>
            </g>
            <polygon id="_Path_6" data-name="&lt;Path&gt;" class="cls-18" points="101.38 117.78 103.3 118.96 109.98 110.35 106.15 107.96 101.38 117.78"/>
            <rect id="_Rectangle_9" data-name="&lt;Rectangle&gt;" class="cls-32" x="100.91" y="118.28" width="2.25" height="1.15" transform="translate(125.93 273.67) rotate(-148.13)"/>
            <g id="_Group_21" data-name="&lt;Group&gt;">
              <rect id="_Rectangle_10" data-name="&lt;Rectangle&gt;" class="cls-23" x="106.12" y="108.07" width="4.51" height="1.17" transform="translate(143.04 258.16) rotate(-148.13)"/>
            </g>
            <path class="cls-14" d="M102.52,125.57c-3.82,4.6-14.71,5.28-16.2,5.35a.61.61,0,0,1,.05-.09c2.81-1.19,6-1.3,7.62-7.38a9.53,9.53,0,0,1,.57-1.6,3.56,3.56,0,0,1,2.29,1.22c.2.24.39.48.56.72a5.29,5.29,0,0,1,4.76,1.37A4.15,4.15,0,0,1,102.52,125.57Z"/>
          </g>
        </g>
      </g>
      <g class="cls-33">
        <g>
          <g class="cls-33">
            <path class="cls-34" d="M0,74.5c15,0,15,1,30,1s15-1,30-1,15,1,30,1,15-1,30-1,15,1,30,1,15-1,30-1,15,1,30,1,15-1,30-1,15,1,30,1,15-1,30-1"/>
          </g>
          <path class="cls-34" d="M0,74.5c15,0,15,1,30,1s15-1,30-1,15,1,30,1,15-1,30-1,15,1,30,1,15-1,30-1,15,1,30,1,15-1,30-1,15,1,30,1,15-1,30-1"/>
        </g>
      </g>
    </g>
  </g>
</svg>
