<svg id="Layer_1" data-name="Layer 1" xmlns="http://www.w3.org/2000/svg" xmlns:xlink="http://www.w3.org/1999/xlink" viewBox="0 0 300 150">
  <defs>
    <style>
      .cls-1 {
        fill: none;
      }

      .cls-2 {
        clip-path: url(#clip-path);
      }

      .cls-3 {
        fill: #b8682c;
      }

      .cls-4 {
        fill: #a85f26;
      }

      .cls-5 {
        fill: #eeeeef;
      }

      .cls-6 {
        fill: #abcb57;
      }

      .cls-7, .cls-9 {
        fill: #5c5c60;
        isolation: isolate;
      }

      .cls-7 {
        opacity: 0.4;
      }

      .cls-8 {
        fill: #babbbc;
      }

      .cls-9 {
        opacity: 0.3;
      }

      .cls-10 {
        fill: #c9523c;
      }

      .cls-11 {
        fill: #49c1ba;
      }

      .cls-12 {
        fill: #e0e1e3;
      }

      .cls-13 {
        fill: #fff;
      }

      .cls-14 {
        fill: #edf0f1;
      }

      .cls-15 {
        fill: #fbb426;
      }

      .cls-16 {
        fill: #c3cccf;
      }

      .cls-17 {
        fill: #e5e1da;
      }

      .cls-18 {
        fill: #8dbbb5;
      }

      .cls-19 {
        fill: #83603b;
      }

      .cls-20 {
        fill: #705231;
      }

      .cls-21 {
        fill: #7483bf;
      }

      .cls-22 {
        fill: #444d6e;
      }

      .cls-23 {
        fill: #3a5069;
      }

      .cls-24 {
        fill: #47607d;
      }

      .cls-25 {
        fill: #3f3b33;
      }

      .cls-26 {
        fill: #231f18;
      }

      .cls-27 {
        fill: #cfded8;
      }

      .cls-28 {
        fill: #dfece7;
      }

      .cls-29 {
        fill: #302d25;
      }

      .cls-30 {
        fill: #262262;
      }
    </style>
    <clipPath id="clip-path">
      <rect class="cls-1" width="300" height="150"/>
    </clipPath>
  </defs>
  <title>Books and Reading</title>
  <g class="cls-2">
    <g>
      <rect class="cls-3" width="300" height="150"/>
      <g>
        <g>
          <path class="cls-4" d="M303.28,15l-5.08-.13c-16.35-.41-32.93-1.19-49.2-1.48-16-.29-31.7.43-47.8-.66-7.83-.52-15.71-1.28-23.6-.95-5,.22-9.81.87-14.75,1.24-5.11.37-10.32.44-15.52.5L61.06,14.57c-15.26.18-70.5.37-85.76.46.74-.49,1.49-1,2.26-1.46,4.24-.17,8.65-.47,13.5-.88,17.11-1.43,74.52.95,91.79-.21,21.63-1.45,42.06,1.74,64-.68,4.76-.53,9.45-1.23,14.35-1.44,6.81-.29,13.59.39,20.34.8,14.15.86,28.54.57,42.81.27,14.72-.31,30.75-1.43,45.41-.95,9.63.32,21.59,1,31.26,1.39C302.65,12.88,301.72,13.95,303.28,15Z"/>
          <path class="cls-4" d="M314.91,23.49l-2.45.1c-30,1.16-60.22.63-90.19-.46C208,22.6,192.31,21,178,21.41c-10.8.31-21.46,1.15-32.54,1.29-13.49.16-27.21.32-40.32-1-4.7-.49-9.33-1.17-14.14-1.4-4.41-.22-8.86-.05-13.28.11C61.93,21,5.83,22-10,21.93c-7.85,0-15.65-.33-23.46-.65l1.38-1.06C-11.8,21.4,49,21,69,19.08c16.85-1.63,31.2,0,47.63.94,16,.89,31.94-2.53,48.07-2,9.1.29,17.55,1.76,26.45,2.18,20.88,1,43.1.34,64,.68,4.21.07,8.36-.45,12.57-.53,12-.23,23.78,3.1,35.41,1.85,3.08-.33,6.11-.59,9.14-.78Q313.64,22.44,314.91,23.49Z"/>
          <path class="cls-4" d="M304.11,34.64s-18.86-.35-25.92,0H216.59a48.58,48.58,0,0,0-11.67-2c-11-.62-23.17-.14-34.26-.18q-36.18-.14-72.36.22C63,33,27.67,33.61-7.64,34.25a103.6,103.6,0,0,1,8.76-8.54c61.16-.18,122.38-.3,183.46,1.07,46.47,1,70.25,2.95,116.59,4.72Q302.69,33,304.11,34.64Z"/>
          <path class="cls-4" d="M304.36,6.28c-7.9.63-31.85,1.11-40.26.82-5.2-.18-10.31-.61-15.45-.95-13.52-.89-26.66-1-40.12-1.68-4.54-.23-9.11.11-13.67.26-15,.5-30.75-.73-45.76-1a86,86,0,0,0-15.19.64C130,5,126.74,6.24,122.71,6.75c-7.92,1-14.78-.94-22.46-1.12-6.35-.15-9.62.67-15.55,1.2-14.44,1.3-32.47,2.81-47,1.08-3-.35-45.8-.71-48.53-1.05C-9.06,6-7.29,5.07-5.49,4.2c10.43,1.25,61,2.34,70.15,1.13C74.48,4,79.85.48,91.72.9c9.19.32,17.36,3.07,26.58,2.89,7.35-.14,13.62-2.1,20.2-3.47,18.89-3.93,41.53-3,62.07-.9S241.3,4.68,262.45,5c7.42.1,30.84-.15,38.22-.54C301.91,5,303.15,5.66,304.36,6.28Z"/>
        </g>
        <g>
          <path class="cls-4" d="M304,44.11c-8.74.65,12.5,1.22,3.63,1.37-34.09.58-61.31-7.52-93.72-3.12-56.73,7.69-118.17,1-177.81-.23C19.44,41.8,2.74,41.9-14,42.08c.71-1,1.48-2,2.27-3,23.94-.64,47.87-1.23,71.84-1,51.72.44,103.64,4.53,154.91,1.65,13.83-.78,27.7-2.07,41.61-1.64,14.61.46,28.56,2.8,43.15,3.32,10.55.37-8.92-.21,1.57-.95Q302.77,42.24,304,44.11Z"/>
          <path class="cls-4" d="M314.58,77c0,1.37,0,2.74-.16,4.1-13.58,1.71,2.94,3.37-10.43,4.54-48.93,4.29-99.6,3.05-149.54,1.79l-37.73-.95c-23.26-.58-46.86-1.7-70-2.11-22.8-.41-45.09.61-68-.94l-4.28-.3c0-.37-.09-.74-.12-1.11,12.41.12,24.88-.14,37.28-.4,20.93-.44,43.76-2,64.61-1.35,19,.63,37.37,2.45,56.9,2.37,18-.08,36.18-.85,53.7.77C215,86,246.12,84,274.58,83.13c7.71-.24,15.45-.49,22.88-1.37,9.32-1.1-12.23-3.16-3.38-4.8,6.67-1.25,13.49-2.24,20.42-3Q314.58,75.44,314.58,77Z"/>
          <path class="cls-4" d="M312.49,91.8c-.43,1.52-.94,3-1.49,4.53-33,4.3-45,2.78-78.64,1.66-12.59-.43-25.15-1-37.79-1-19.27,0-38.38,1.18-57.58,1.91-42.69,1.65-85.66.89-128.3-.66-10-.37-20.49-1.11-31-1.69-.25-.67-.49-1.33-.71-2,25.93.72,52.9.09,78.51.5,6,.09,11.89-.64,17.87-.75,17.06-.33,33.83,4.4,50.38,2.62,23.87-2.57,46.4-2,71.35-1.91,8.54,0,17.13.08,25.63.43,11.93.51,23.82,1.66,35.76,1.29,21.27-.66,38.34-3.7,59.1-3.24C325.21,93.67,304,92.94,312.49,91.8Z"/>
          <path class="cls-4" d="M302.61,111.86c-.66.92-1.33,1.83-2,2.73H120.11c-10.53-.24-21.81-.5-31.84,0H.61a68,68,0,0,0-14.5-2.66,69.45,69.45,0,0,1-4.92-7.87c92.47,2.5,184.58,7,277,9.72,23.57.68,17.69,1.22,40.41-1.43C300,112.2,301.29,112,302.61,111.86Z"/>
          <path class="cls-4" d="M313.73,67.49c-25.52,2-21.07,4-47.09,5.36l-49.9,2.61a67.34,67.34,0,0,1-9.15.06c-12.3-1.05-19.19-4-32.67-4.22-15.19-.29-30.68.06-45.74.93-20.66,1.18-39.7,3.93-61,3.18-7.4-.26-14.67-.86-22-1.35C27,72.8,8.32,72.66-10.85,71.67c-4.93-.26-9.89,0-14.83.18a54.8,54.8,0,0,1,1.28-7.59l2.23.23c29.22,3,57.94,7.49,88,7.9,36.32.5,72.27-5,108.4-3.47,15.44.66,30.51,2.6,46,2.68,12.77.06,25.34-1.15,37.79-2.29,21.76-2,13.61-3.89,35.54-5.56q9.46-.72,19-1.39Q313.26,64.9,313.73,67.49Z"/>
          <path class="cls-4" d="M310.9,57.36c-62.41,2.84-94.81,4.35-158.35,2.86-.68,2.63-9.43,1.83-14.69.69-14.59-3.31-31.56-5.42-46.86-8a86.67,86.67,0,0,0-12.62-1.48c-13.82-.29-25,4.88-38.58,5.53-17,.81-37.62-1.44-54.21-2.94l-6.18-.57q1.11-2.45,2.48-4.84c9.42.26,18.83.76,28.22,1.55,8.15.69,16.44,1.59,24.6,1s15.47-2.75,23.52-3.69c18.39-2.14,37.05,2.09,55,5,49.21,7.86,103.11,5.53,155,3,23.46-1.13,16.92-2.27,40.38-3.42Q309.87,54.65,310.9,57.36Z"/>
        </g>
        <g>
          <path class="cls-4" d="M302.78,122.44q-1.2,1.24-2.46,2.45c-3.67-.24-14.26-.61-16.53-.7a964.94,964.94,0,0,0-106.86,2.1c-13.74,1-27.45,2.26-41.38,2.5-34.08.58-61.31-7.51-93.72-3.12-13.08,1.77-33,2.23-46.51,2.72q-2.85-2.43-5.44-5c15.54.11,37.66.42,53.1-.44,13.83-.78,27.69-2.07,41.61-1.64,14.6.46,28.56,2.8,43.14,3.32,15,.53,29.94-.86,44.77-1.92a924.88,924.88,0,0,1,109.56-1.43C284.61,121.45,298.11,122.39,302.78,122.44Z"/>
          <path class="cls-4" d="M303.63,138.72c-2.82,1.86,1.09,4.16-2,5.91-2.87.11-12.64-.34-15.53-.29-65.56,1.09-127.09,8.43-191.58,11.81l-39.86,2.09q-4.43-1.61-8.67-3.36l2.17,0c12.76.06,25.34-1.15,37.79-2.29q32.64-3,65.54-5.56Q227,141.3,303.63,138.72Z"/>
          <path class="cls-4" d="M318.19,127.64c-1.9,1.69-3.91,3.35-6,5l-2.76.17C213.58,138.67,89.69,144.41-6.21,144.1c-1.74-1-3.42-2-5.07-3,25.75.05,81.81-1.13,107.36-2.36Q207.19,133.39,318.19,127.64Z"/>
        </g>
      </g>
      <g>
        <rect class="cls-5" x="49.52" y="24.48" width="37.84" height="49.33" transform="translate(-10.93 20.87) rotate(-16.07)"/>
        <rect class="cls-6" x="43.96" y="25.26" width="37.84" height="9.11" transform="translate(-5.8 18.57) rotate(-16.07)"/>
        <rect class="cls-7" x="44.94" y="32.2" width="37.84" height="2.03" transform="matrix(0.96, -0.28, 0.28, 0.96, -6.7, 18.97)"/>
        <rect class="cls-8" x="46.36" y="37.88" width="37.84" height="0.54" transform="translate(-8.01 19.56) rotate(-16.07)"/>
        <rect class="cls-8" x="47.35" y="41.32" width="37.84" height="0.54" transform="translate(-8.92 19.97) rotate(-16.07)"/>
        <rect class="cls-8" x="48.34" y="44.75" width="37.84" height="0.54" transform="translate(-9.83 20.38) rotate(-16.07)"/>
        <rect class="cls-8" x="49.33" y="48.19" width="37.84" height="0.54" transform="translate(-10.75 20.78) rotate(-16.07)"/>
        <rect class="cls-8" x="50.32" y="51.62" width="37.84" height="0.54" transform="translate(-11.66 21.19) rotate(-16.07)"/>
        <rect class="cls-8" x="51.31" y="55.06" width="37.84" height="0.54" transform="matrix(0.96, -0.28, 0.28, 0.96, -12.57, 21.6)"/>
        <rect class="cls-8" x="52.29" y="58.49" width="37.84" height="0.54" transform="translate(-13.48 22.01) rotate(-16.07)"/>
        <rect class="cls-8" x="53.28" y="61.93" width="37.84" height="0.54" transform="translate(-14.39 22.42) rotate(-16.07)"/>
        <rect class="cls-8" x="54.27" y="65.36" width="37.84" height="0.54" transform="translate(-15.31 22.82) rotate(-16.07)"/>
        <rect class="cls-9" x="55.91" y="69.69" width="37.84" height="3.22" transform="translate(-16.81 23.5) rotate(-16.07)"/>
        <rect class="cls-10" x="56.36" y="37.03" width="1.07" height="37" transform="translate(-13.15 17.92) rotate(-16.07)"/>
      </g>
      <g>
        <path class="cls-11" d="M42.48,94.53,161.63,66.06l18.64,78L61.12,172.54Z"/>
        <path class="cls-12" d="M159.29,66.62,102.06,80.29l17.87,74.81,57.23-13.67Z"/>
        <path class="cls-13" d="M157.26,67.1c-18.4,4.4-37.85.75-55.21,13.19l16.74,70.08L174,137.18Z"/>
        <path class="cls-12" d="M44.82,94l57.23-13.67,17.87,74.81L62.7,168.78Z"/>
        <path class="cls-13" d="M46.85,93.48C65.25,89.09,90,75,102.06,80.29l16.74,70.08L63.59,163.56Z"/>
        <path class="cls-14" d="M101.12,80.52l1.87-.45,16.74,70.08-1.87.45L101.12,80.52Z"/>
        <path class="cls-15" d="M52.49,96.24l29.48-7,1,4-29.48,7Z"/>
        <path class="cls-16" d="M60.94,130l42.67-9.94.31,1.33-42.67,9.94Zm58-8.36h0l42.67-9.94.31,1.33L119.22,123Zm-7.18-31.13h0l42.67-9.94.31,1.33L112,91.83Zm6,26h0l18.68-4.35.31,1.32L118,117.87Zm-1.29-5.6h0L159.11,101l.31,1.32-42.67,9.94Zm-1.29-5.6h0l42.67-9.94.31,1.32-42.67,9.94Zm-1.29-5.6h0l18.68-4.35.31,1.32-18.68,4.35Zm-1.07-4.62h0l42.67-9.94.31,1.33-42.67,9.94ZM120,126.26h0l28.62-6.66.31,1.32-28.62,6.66ZM54.87,103.75h0l42.67-9.94.31,1.33-42.67,9.94ZM60,125.88h0l18.68-4.35.31,1.32-18.68,4.35Zm-1.07-4.62h0l42.67-9.94.31,1.32-42.67,9.94Zm-1.07-4.62h0l42.67-9.94.31,1.32L58.15,118ZM56.78,112h0l42.67-9.94.31,1.32-42.67,9.94Zm-.84-3.65h0l42.67-9.94.31,1.33-42.67,9.94Zm10.55,45.72h0l14.69-3.42.31,1.33L66.8,155.41Zm-1.07-4.62h0l42.67-9.94.31,1.32-42.67,9.94Zm-1.07-4.62h0L107,134.91l.31,1.32-42.67,9.94Zm-1.07-4.62h0L106,130.29l.31,1.32L63.6,141.54ZM62,134.62h0l42.67-9.94L105,126l-42.67,9.94Z"/>
      </g>
      <g>
        <g>
          <circle class="cls-17" cx="131.1" cy="33.17" r="26.55"/>
          <circle class="cls-18" cx="131.1" cy="33.17" r="16.92"/>
          <circle class="cls-19" cx="131.1" cy="33.17" r="14.36"/>
          <path class="cls-20" d="M118.14,34.78a14.36,14.36,0,0,1,24.45-10.22A14.36,14.36,0,1,0,121,43.4,14.3,14.3,0,0,1,118.14,34.78Z"/>
          <path class="cls-18" d="M157.17,33.17a2.8,2.8,0,0,1-2.8,2.8h-8.06V30.37h8.06a2.8,2.8,0,0,1,2.8,2.8Z"/>
        </g>
        <circle class="cls-20" cx="130.45" cy="23.1" r="1.38"/>
        <circle class="cls-20" cx="127.67" cy="23.26" r="0.58"/>
        <circle class="cls-20" cx="125.85" cy="25.38" r="1.04"/>
        <circle class="cls-20" cx="126.19" cy="23.18" r="0.5"/>
        <circle class="cls-20" cx="123.59" cy="25.99" r="0.84"/>
      </g>
      <g>
        <path class="cls-21" d="M95.25,40.8a.41.41,0,0,1-.29-.12l-.87-.87a.41.41,0,1,1,.58-.58l.87.87a.41.41,0,0,1-.29.7"/>
        <polygon class="cls-22" points="78.44 50.82 94.09 35.17 96.41 37.49 80.76 53.14 78.44 50.82"/>
        <g>
          <path class="cls-21" d="M75,57a.41.41,0,0,1-.29-.7l.58-.58a.41.41,0,1,1,.58.58l-.58.58A.41.41,0,0,1,75,57"/>
          <polygon class="cls-21" points="97.28 36.04 96.12 37.2 94.37 35.45 95.53 34.29 97.28 36.04"/>
          <polygon class="cls-21" points="89.45 47.92 88.58 47.05 96.7 38.94 97.57 39.81 89.45 47.92"/>
          <polygon class="cls-21" points="79.02 54.88 76.7 52.56 78.44 50.82 80.76 53.14 79.02 54.88"/>
        </g>
        <g>
          <path class="cls-22" d="M77,52.85h0l1.74,1.74h0A3,3,0,0,1,76.17,56h-.63v-.63A3,3,0,0,1,77,52.85"/>
          <polygon class="cls-22" points="97.28 36.04 95.54 34.3 96.7 33.15 98.44 34.88 97.28 36.04"/>
        </g>
        <polygon class="cls-21" points="81.92 49.66 80.76 48.5 91.77 37.49 92.93 38.65 81.92 49.66"/>
      </g>
      <g id="_Group_" data-name="&lt;Group&gt;">
        <path class="cls-23" d="M191.93,75.44a1.51,1.51,0,0,0-1.21-1.2l-.47-.09-1.49-.27-1.49-.27-1.49-.27-4.47-.82-1.51-.28a2.06,2.06,0,0,0-2.39,1.65l-.14.78a1.52,1.52,0,0,0,1.44,1.83l1.86.11,8.82.5,6.49,33.47,3,.55Z"/>
        <path class="cls-24" d="M184.69,61.23l-2.25,2L194.5,95.15l-7.24,5.06-1.52,1.07a1.52,1.52,0,0,0-.26,2.31l.53.59a2.06,2.06,0,0,0,2.91.15l1.14-1,3.37-3,1.12-1,1.12-1,1.12-1,.36-.32a1.51,1.51,0,0,0,.4-1.66Z"/>
        <path class="cls-25" d="M179.8,72.24l6,1.1,1.49.27h0A2.22,2.22,0,0,1,189,75.37l0,.11.32,1.64L188.17,77,186.65,77l-7.95-.45a1.52,1.52,0,0,1-1.44-1.83l.14-.78A2.06,2.06,0,0,1,179.8,72.24Z"/>
        <path id="_Path_" data-name="&lt;Path&gt;" class="cls-26" d="M186.9,92.76l-.61-2.16a2.81,2.81,0,1,0-1.53-5.41L184.14,83a5.06,5.06,0,1,1,2.76,9.74Z"/>
        <path id="_Compound_Path_" data-name="&lt;Compound Path&gt;" class="cls-27" d="M188.57,89.34h0a2.08,2.08,0,0,1,1.84,0c2.75,1.41,5.37,5,6.68,9.62a18.09,18.09,0,0,1,.37,9.24,2.11,2.11,0,0,1-1.64,1.53L189.26,111a2.1,2.1,0,0,1-1.95-.62,18.68,18.68,0,0,1-4-7.52,17,17,0,0,1,0-10.45,2.13,2.13,0,0,1,1.07-1.14Zm-1.22-4.29h0a2.08,2.08,0,0,0,1.54-1c1.6-2.65,1.94-7.08.63-11.69A18.09,18.09,0,0,0,185,64.3a2.11,2.11,0,0,0-2.2-.44l-6.25,2.35a2.1,2.1,0,0,0-1.33,1.55,18.68,18.68,0,0,0,.53,8.5,17,17,0,0,0,5.51,8.88,2.13,2.13,0,0,0,1.51.41Z"/>
        <path id="_Compound_Path_2" data-name="&lt;Compound Path&gt;" class="cls-28" d="M197,109l-2.32.45a2.1,2.1,0,0,1-1.95-.62,18.68,18.68,0,0,1-4-7.52,17,17,0,0,1,0-10.45,2.13,2.13,0,0,1,1.07-1.14l.68-.32c2.71,1.45,5.27,5,6.56,9.55a18.09,18.09,0,0,1,.37,9.24A2.07,2.07,0,0,1,197,109ZM184.21,63.83l-2.21.83a2.1,2.1,0,0,0-1.33,1.55,18.68,18.68,0,0,0,.53,8.5,17,17,0,0,0,5.51,8.88,2.13,2.13,0,0,0,1.51.41l.75-.08c1.54-2.66,1.86-7,.57-11.57A18.09,18.09,0,0,0,185,64.3,2.07,2.07,0,0,0,184.21,63.83Z"/>
        <path id="_Compound_Path_3" data-name="&lt;Compound Path&gt;" class="cls-29" d="M198.52,111.09a.22.22,0,0,0,.16-.18,32.88,32.88,0,0,0-.55-12.21c-1.32-4.75-4.11-8.68-7.22-10.28a3.18,3.18,0,0,0-2.79-.06h0l-4.17,2A3.16,3.16,0,0,0,182.34,92c-1.21,3-1.24,7.1-.08,11.18a19.85,19.85,0,0,0,4.26,8,3.2,3.2,0,0,0,2.95.95l5.33-1a.52.52,0,0,1,.6.37h0a.52.52,0,0,0,.65.36Zm-2.91-2.38-6.9,1.38a1,1,0,0,1-1-.3,17.67,17.67,0,0,1-3.77-7.08c-1-3.56-1-7.21,0-9.76a1,1,0,0,1,.53-.56L189,90.31h0a1,1,0,0,1,.89,0c2.6,1.33,4.95,4.76,6.13,9a17.2,17.2,0,0,1,.36,8.67A1,1,0,0,1,195.61,108.71ZM181.93,62a.52.52,0,0,0-.36.65h0a.52.52,0,0,1-.32.63l-5.09,1.91a3.2,3.2,0,0,0-2,2.35,19.85,19.85,0,0,0,.55,9c1.16,4.08,3.32,7.54,5.94,9.48a3.16,3.16,0,0,0,2.24.59l4.59-.51h0a3.18,3.18,0,0,0,2.34-1.51c1.81-3,2.12-7.8.75-12.54a32.88,32.88,0,0,0-5.94-10.68.22.22,0,0,0-.23-.07Zm2.32,3.07a17.2,17.2,0,0,1,4.25,7.57c1.19,4.19,1,8.34-.52,10.84a1,1,0,0,1-.74.49h0l-4.94.61a1,1,0,0,1-.75-.2c-2.2-1.64-4.11-4.75-5.12-8.31a17.67,17.67,0,0,1-.51-8,1,1,0,0,1,.65-.75l6.6-2.45A1,1,0,0,1,184.25,65.08Z"/>
      </g>
      <path class="cls-30" d="M56.31,43.4c1.19.43,2.23-.62,2.67-1.63.37-.84.79-2.78-.16-3.38a.22.22,0,0,0-.31.13c-.46,1.23.24,2.78.54,4,.21.87.62,2.11.14,2.95-.3.53-2.33,2-2.28.58,0-.73.93-1.5,1.48-1.86a8,8,0,0,1,2.27-.93c1.21-.34,2.54-.53,3.44-1.48.19-.2-.11-.5-.3-.3a6,6,0,0,1-3,1.29,9.1,9.1,0,0,0-2.65,1,4.07,4.07,0,0,0-1.54,1.72c-.17.39-.44,1.13,0,1.48s1.4-.1,1.84-.34a2.41,2.41,0,0,0,1.32-1.56,6.8,6.8,0,0,0-.34-2.85c-.27-1.08-.91-2.51-.5-3.61l-.31.13c.71.45.25,2.21,0,2.8-.35.84-1.16,1.8-2.18,1.43-.26-.09-.37.32-.11.41Z"/>
      <path class="cls-30" d="M63.26,40.21a16.35,16.35,0,0,0,.48,1.94c.08.24.16.71.44.85.63.31,1-.92,1.14-1.26l-.4-.11c0,.38-.27,4-.64,4l.11.4a3.73,3.73,0,0,0,1.75-3.84l-.21.27c.83.08,1-.9,1.29-1.52h-.41c.11.39.32.84.8.78s.68-.62.79-1a19.58,19.58,0,0,0,.45-5.91l-.4.11a51.68,51.68,0,0,0,2.61,4.9.22.22,0,0,0,.37,0,1.65,1.65,0,0,0,.18-.71l-.4.11a2,2,0,0,1,.22.62.22.22,0,0,0,.31.13,1.71,1.71,0,0,0,1.07-1.68l-.21.21a3.45,3.45,0,0,0,2.8-1.76l-.34,0a1.21,1.21,0,0,0,1.48.34A2.68,2.68,0,0,0,77.78,35l-.42-.06a.91.91,0,0,0,.19.76.22.22,0,0,0,.21.06c.38-.07.58-.55.76-.84l-.4-.11c0,.53-.19,2,.85,1.46.24-.13,0-.49-.22-.37s-.2-.93-.21-1.09a.22.22,0,0,0-.4-.11s-.4.75-.36.25a.21.21,0,0,0-.42-.06c-.15.72-.92,2.9-2,1.58a.22.22,0,0,0-.34,0A3,3,0,0,1,72.61,38a.22.22,0,0,0-.21.21,1.31,1.31,0,0,1-.85,1.31l.31.13a3.37,3.37,0,0,0-.27-.73c-.1-.2-.39-.09-.4.11l-.13.5h.37a51.68,51.68,0,0,1-2.61-4.9.22.22,0,0,0-.4.11,24.7,24.7,0,0,1,0,3.19,16.67,16.67,0,0,1-.22,1.68,4,4,0,0,1-.16.78c-.16.38-.59,1.19-.81.41a.22.22,0,0,0-.41,0c-.15.37-.31,1.26-.88,1.2-.15,0-.23.15-.21.27a3.29,3.29,0,0,1-1.55,3.35.22.22,0,0,0,.11.4c.56.06.65-.42.7-.88.14-1.18.24-2.36.36-3.54,0-.21-.31-.29-.4-.11a4.57,4.57,0,0,1-.39.75q-.1.46-.24.08a.94.94,0,0,1-.21-.47,11.12,11.12,0,0,1-.44-1.79c-.05-.27-.46-.16-.41.11Z"/>
      <path class="cls-30" d="M62.74,51.69l1.49,3.95c.1.26.51.14.41-.11l-1.49-3.95c-.1-.26-.51-.14-.41.11Z"/>
      <path class="cls-30" d="M61.89,51.69c.36-.66,1.47-.84,2.15-1a2.17,2.17,0,0,1,2.71,1,1.89,1.89,0,0,1-.43,2.76,3.76,3.76,0,0,1-1.29.49q-.36.08-.73.12-.23-1,.39-1.06c.53-.24,1.16-.29,1.71-.52a6.47,6.47,0,0,0,1.48-.85A4.83,4.83,0,0,0,69.63,50L69.21,50a9.69,9.69,0,0,0,.55,2.35.22.22,0,0,0,.41,0A8.54,8.54,0,0,0,70.54,50l-.37.15a.5.5,0,0,0,.72.09c.34-.26.23-.84.36-1.18l-.31.13c.36.18.53.09.88-.05a1.36,1.36,0,0,1,1.66.32.22.22,0,0,0,.37,0c.23-.41.72-.09.93-.56a4.51,4.51,0,0,0-.11-2.13,16.93,16.93,0,0,0-1.81-5.45.22.22,0,0,0-.4.11,29.9,29.9,0,0,0,0,4,16.71,16.71,0,0,0,.19,1.92c.06.31.06.47.35.62a.22.22,0,0,0,.26,0c.34-.27.34-.87.43-1.25l-.39.05c.26.45,1,1.58,1.68,1.09.45-.34.35-1.05.82-1.4.08-.06.24,0,.33-.08s.22-.15.38-.4h-.37c.48.78,1.32.2,2,.63a.21.21,0,0,0,.29-.08,6.4,6.4,0,0,0,.6-2.65l-.37.15.6.54a.22.22,0,0,0,.34,0l.71-1.64c.11-.25-.26-.47-.37-.22l-.71,1.64.34,0-.6-.54a.22.22,0,0,0-.37.15A5.84,5.84,0,0,1,78,46.3l.29-.08c-.5-.33-1.51,0-1.82-.47a.22.22,0,0,0-.37,0c-.16.25-.65.25-.86.5s-.14.41-.26.59c-.55.8-1.05.25-1.36-.28a.22.22,0,0,0-.39.05,5.84,5.84,0,0,1-.23.94c.09,0,0-.73-.05-.8q-.1-.88-.14-1.76a30,30,0,0,1,0-3.53l-.4.11a16.61,16.61,0,0,1,1.69,4.89q.13.73.19,1.48,0,.31,0,.62t-.25.24c-.34.15-.46.11-.67.49h.37a1.52,1.52,0,0,0-1.16-.65,3.05,3.05,0,0,0-.88,0c-.23,0-.35.38-.66.23a.22.22,0,0,0-.31.13c0,.09-.26,1-.36.91a.22.22,0,0,0-.37.15,8.14,8.14,0,0,1-.35,2.17h.41A9.19,9.19,0,0,1,69.64,50c0-.23-.35-.31-.42-.06a4.68,4.68,0,0,1-2.5,2.94,8.71,8.71,0,0,1-1.77.63,2.63,2.63,0,0,0-1.11.44.91.91,0,0,0-.06,1.43c.57.38,1.74-.06,2.28-.29,1.9-.83,1.92-2.91.54-4.29a2.6,2.6,0,0,0-2.66-.47c-.8.18-2,.4-2.4,1.18-.13.24.24.46.37.22Z"/>
    </g>
  </g>
</svg>
