<svg id="Layer_1" data-name="Layer 1" xmlns="http://www.w3.org/2000/svg" xmlns:xlink="http://www.w3.org/1999/xlink" viewBox="0 0 300 150">
  <defs>
    <style>
      .cls-1 {
        fill: none;
      }

      .cls-2 {
        clip-path: url(#clip-path);
      }

      .cls-3 {
        fill: #497894;
      }

      .cls-4 {
        fill: #406982;
      }

      .cls-5 {
        fill: #385e74;
      }

      .cls-6 {
        fill: #3c647c;
      }

      .cls-7 {
        fill: #636262;
      }

      .cls-8 {
        fill: #49c1ba;
      }

      .cls-9 {
        fill: #c8cacb;
      }

      .cls-10 {
        fill: #817e7e;
      }

      .cls-11 {
        fill: #edf0f1;
      }

      .cls-12 {
        fill: #f3d55b;
      }

      .cls-13 {
        fill: #8797ca;
      }

      .cls-14 {
        fill: #71c386;
      }

      .cls-15 {
        fill: #d1d4d1;
      }

      .cls-16 {
        fill: #29b99a;
      }

      .cls-17 {
        fill: #6c4943;
      }

      .cls-18 {
        fill: #bfa480;
      }

      .cls-19 {
        fill: #bf6f41;
      }

      .cls-20 {
        fill: #d8a851;
      }

      .cls-21 {
        fill: #a47f46;
      }

      .cls-22 {
        fill: #e7ecec;
      }

      .cls-23 {
        fill: #434b60;
      }

      .cls-24 {
        fill: #fff;
      }

      .cls-25 {
        fill: #384650;
      }

      .cls-26 {
        fill: #afb7bc;
      }

      .cls-27 {
        fill: #7483bf;
      }

      .cls-28 {
        fill: #e0e1e3;
      }

      .cls-29 {
        fill: #fbb426;
      }

      .cls-30 {
        fill: #f15d63;
      }
    </style>
    <clipPath id="clip-path">
      <rect class="cls-1" width="300" height="150"/>
    </clipPath>
  </defs>
  <title>Business</title>
  <g class="cls-2">
    <g>
      <rect class="cls-3" width="300" height="150"/>
      <g>
        <path class="cls-4" d="M303.13,84v36.51l-4.1-.32c-10.51-.82-21.32-1.65-31.85-.82-2,.16-4,.38-6,.63-5.16.66-10.21,1.5-15.49,2-3.87.35-7.8.5-11.75.56-7.45.11-15-.11-22.45.11-1.76,0-3.5.13-5.24.22-6.73.37-13.34,1-19.93,1.82-15.53,1.84-30.85,4.27-46.91,4.69-32,.84-60.83-6.25-90.44-12.22-5.33-1.08-10.7-2.11-16.11-3.06a303.94,303.94,0,0,0-36.16-4.39,44,44,0,0,1-4.93-.55V104.5l2.94-.82,1.88-.52,27.94-7.74c13.39-3.71,30.8-2.88,45.41-5.14,4.45-.69,8.66-1.66,13.2-2.23a161,161,0,0,1,19.29-.9l28.5-.22,21.93-.16,39.7-.3a86.62,86.62,0,0,1,14.09.66c4.3.7,7.87,2,12.07,2.85,13.39,2.58,28.42-.77,42.43-2.75l.51-.07c5.63-.77,11.4-1.32,17.24-1.75H279c5.08-.37,10.21-.66,15.32-.94Z"/>
        <path class="cls-4" d="M303.13,12.17V30.25q-1.32-.11-2.67-.17c-12.84-.66-26.41.56-38.64-1-6.14-.79-11.46-2.23-17.29-3.28-15.74-2.85-34.08-2.72-51.41-3.74-20.09-1.19-39.18-4-58.51-6.31A950.62,950.62,0,0,0,29.86,8.51c-12.6-.12-25.19.07-37.71.57.08-.35.17-.69.28-1,0-.1.07-.2.1-.3l0-.08q.1-.32.23-.61c.07-.18.14-.35.23-.53l.08-.19c.08-.18.17-.37.27-.54A14.74,14.74,0,0,1-3.46,1.72,15.66,15.66,0,0,1,.48-.91c.27-.13.55-.25.84-.37l1.11-.4.17,0,.14,0c.2-.06.39-.11.6-.16L3.64-2,4-2.08l.27-.06.68-.11.5-.07h.14l.66-.06.4,0H186.7l6.74.68q19.42,2,39,3.88,5.6.53,11.2,1,8.36.77,16.74,1.45l4.78.39c12.3,1,24.68,1.8,37.15,2.42,0,.11.08.21.12.32s.17.5.24.76.08.3.12.46.07.31.1.46,0,.16.05.25.06.33.08.51h0s0,0,0,0a.51.51,0,0,1,0,.11c0,.15,0,.3.05.45a1,1,0,0,1,0,.15c0,.12,0,.25,0,.37s0,.11,0,.17a.56.56,0,0,1,0,.11C303.13,11.78,303.13,12,303.13,12.17Z"/>
        <path class="cls-5" d="M303.13,27.91V31.6c-14.7.19-29.71,1.56-43.1-.51-5.93-.92-11-2.44-16.75-3.48-9.08-1.63-19.41-2-29.43-2.46-45.92-2.25-89.74-8.23-134.51-12.57-20.1-2-40.78-3.6-61.54-3.11-9.38.22-17.86.89-26,1.79l0-.31a.24.24,0,0,1,0-.08c0-.12,0-.24,0-.35s0-.25.05-.36.05-.33.08-.5.08-.38.12-.57c.08-.35.17-.69.28-1,0-.1.07-.2.1-.3l0-.08q.1-.32.23-.61c.07-.18.14-.35.23-.53l.08-.19c26-1.21,53.09.65,79.16,2.52,33.62,2.42,67.38,4.85,99.65,9.07,12.47,1.63,24.87,3.53,38,4,11.35.4,23.31-.26,33.81,1.37,8.22,1.28,15.09,3.9,24,4.22,4.72.17,9.41-.35,14.12-.51A150.73,150.73,0,0,1,303.13,27.91Z"/>
        <path class="cls-6" d="M303.13,36.63v1.85c-3,.06-6.09.12-9.14.13-20.55.08-40.63-2-60.37-4.1C189.28,29.85,146.14,24,100.1,22.69c-36-1-72.43-2.08-108.31-1V19.81c32.12-1.15,64.66-.53,96.8.69,25.82,1,51.61,2.35,76.73,4.75,11.26,1.08,22.38,2.36,33.49,3.64,15,1.74,27.72,4.29,43.23,5.14,18.9,1,38,2.25,57.08,2.63C300.51,36.7,301.85,36.68,303.13,36.63Z"/>
        <path class="cls-5" d="M303.13,18.94v3.45A150.32,150.32,0,0,1,283,20.81c-6.86-1.13-12.72-3-19.89-3.84-10.14-1.14-21.13.06-31.67-.34-9-.35-21.33-1.65-28.92-3.52-8.92-2.22-11.94-5-24.05-5.67-10.61-.61-21.41.08-32.16.11-32.18.1-62.71-5.8-94.89-6-8.23,0-16.46.29-24.69.2-10.64-.11-20.47-.21-30.16,0A15.66,15.66,0,0,1,.48-.91c.27-.13.55-.25.84-.37l1.11-.4.17,0C34.76-2,66.88-.3,98.76,1.44l69.59,3.78c7.28.39,14.77.82,21.11,2.2,4.33,1,7.92,2.3,12.19,3.3,17.53,4.1,40.85,1.21,61.13,2.91,12.24,1,23,3.71,35.16,4.89C299.65,18.69,301.39,18.83,303.13,18.94Z"/>
        <path class="cls-6" d="M303.13,53.52v2.81c-12.37.22-24.65-.77-36.73-1.76l-69.75-5.69c-25.21-2.06-46.28-2.44-72-3.41-11.36-.43-23.07-.85-34,.29-9.81,1-18.87,3.25-29.09,3.18-3.81,0-7.7-.39-11.37,0-4.69.45-7.84,1.94-11.52,3.05C26.2,55.72,8.69,55.15-8.21,55.45V52.29a123.83,123.83,0,0,0,19.09-.68C17,50.75,21.79,49.1,27.45,48c12.74-2.59,28.36-2.44,42.69-3.63,16-1.33,28.17-3.11,45.22-2.9,25.11.3,50.06,1.58,74.62,3.42,36.11,2.7,75.19,9.88,112.68,8.7Z"/>
        <path class="cls-6" d="M303.13,43.33V46.4q-16.42,0-32.81.52a116.27,116.27,0,0,1-15.6-.17c-23.54-2.49-46.24-7-70.42-9.26-27.17-2.51-54.85-4-82.63-4.53a138.27,138.27,0,0,1-17.43-1c-4.47-.66-8.56-1.78-13.17-2.22a92.71,92.71,0,0,0-16.59.42L-8.21,35.63v-4c9.66-.56,20.49.51,29.73-1C25.06,30,28.31,29,32,28.73c11.68-1,35.8-3.9,46.63-1.51,2.58.57,4.79,1.41,7.41,1.94,7.36,1.5,16,.31,24.17.42,8.65.12,17,1.74,25.66,1.47,3.11-.1,6.16-.44,9.28-.52,8.61-.2,15.69,1.85,23.92,2.32,6.71.39,12.4,0,19.16.73C201.65,35,211,37.63,223,40a61.79,61.79,0,0,0,8.87.68c11.91.56,22,4.11,33.84,4.43,8.16.23,16-1.35,24.15-1.56C294.17,43.45,298.61,43.38,303.13,43.33Z"/>
        <path class="cls-6" d="M303.13,61.61v2.66q-16.63.61-33.19,1.54c-16.13.92-32.17,2.12-48.28,3.11-25.08,1.53-50.69,2.55-75.63.7-21.25-1.58-41.66-5.23-63.19-5.73-14.46-.33-28.86.77-43.14,1.8Q15.8,67.42-8.21,68.88v-4.5C-4.59,64.18-1,64,2.65,63.87c17.89-.77,35.8-1.55,53.77-1.93,18.53-.39,37.35-.33,55.27,1.7C126.19,65.28,140,68.22,155,68.7s30-1.56,45.17-1.63c9.19,0,18.5.67,27.52-.12,6.43-.56,12.37-1.85,18.62-2.7a269.32,269.32,0,0,1,27.38-1.75Z"/>
        <path class="cls-5" d="M303.13,80.92v3.32l-8.58.37c-5.19.23-10.41.46-15.58.8h-.05c-5.86.39-11.65.92-17.24,1.75l-.51.07-1.77.27c-10.83,1.78-21.32,4.78-32.86,4.32-9.46-.38-17.55-3-26.71-4.1-13-1.51-26.67.35-40,1.28a290,290,0,0,1-46-.44c-6.06-.55-12.2-1.3-18.35-1-8.28.43-15.35,2.71-23.34,3.74-11.41,1.47-24.07.28-35.34,1.94-14.77,2.18-25.08,8.94-40.26,9.9-.6,0-1.2.07-1.81.09a1.25,1.25,0,0,0-.07.43c.08,1.6,4,2.82,7.4,3.64q15.07,3.59,30.75,6.73,8,1.6,16.11,3.06,15.5,2.81,31.43,5.15c28.35,4.16,59.67,7.17,87.92,2.9,11.43-1.73,22.22-4.62,34.32-4.9,8.25-.19,16.45.87,24.72.75,15.26-.23,29.25-4.45,44.51-4.21,7.66.11,15,1.36,22.5,2,2.89.23,5.8.35,8.74.42v3.2c-4.67.08-9.33.08-14-.16-9.37-.49-18.69-2-28-2.23a83.21,83.21,0,0,0-9.74.25c-4.92.44-9.49,1.42-14.34,2-1.06.12-2.1.22-3.16.3-9,.72-18.44.21-27.68.32-3,0-6.07.15-9.05.39-3.75.3-7.35.81-10.88,1.42-6.34,1.09-12.43,2.52-18.69,3.72-9.74,1.86-20,1.85-30.61,2.4a153.44,153.44,0,0,1-39.36-3c-4.51-1-8.83-2.19-13.71-2.78-6-.73-12.38-.47-18.6-.66-11.5-.35-22.7-2.3-31.53-5.47-12.17-4.37-20.58-8.21-37.62-8.42-1.47,0-2.95,0-4.42,0V100.5c6.28-1,13.23-1.55,18.89-3.07,5.11-1.37,8.93-3.47,13.73-5,14.1-4.6,31.93-1.92,48-4C79.16,87.56,85.14,85.78,92,85c12.81-1.43,25.84.88,39,1.91,3.84.3,7.7.49,11.55.44,3.49,0,6.94-.27,10.38-.61,13.47-1.3,26.61-4.11,40-2.89,12.39,1.13,23.15,5.66,35.72,5,6.79-.37,12.61-2.25,19.19-3.08,16.61-2.06,31.63-.06,47.77-3.65A64.06,64.06,0,0,1,303.13,80.92Z"/>
        <path class="cls-6" d="M303.13,70.69v3.43l-49.52,3.72c-16.56,1.25-33.41,2.49-50.09,1.63-9.2-.49-18.38-1.61-27.59-1.15-4.29.21-8.44.77-12.69,1.1-21.87,1.7-44.2-2.56-66.33-1.6A261.48,261.48,0,0,0,69,81L43.46,84.89c-5.18.78-10.37,1.57-15.27,2.65-4.5,1-8.76,2.2-13.58,2.85C7.84,91.28.53,91-6.44,91.5c-.6,0-1.18.1-1.76.15V89c5.28-.09,10.65.17,15.66-.51,6.87-.93,12.07-3.48,18.94-4.4,5.89-.78,12.36-.27,18.34-.93s11-2.44,16.31-3.84c16.47-4.34,36.13-4.95,55-4.68,9.29.13,19.21.18,28.39.63,7.89.39,17.55,2.68,25.42,1.45,2.27-.35,4.24-1,6.56-1.3,8.7-1.13,16.6,3,25.68,3.13,8,.11,15.13-2.94,23.07-2.47,4.42.27,8.71,1.61,13,1A35.64,35.64,0,0,0,243,75.89c9-2.42,19.2-.35,28.82-1.21,7.67-.68,13.69-2.73,21.58-3.35Q298.26,70.93,303.13,70.69Z"/>
        <path class="cls-6" d="M303.13,135.13V140c-9.17,1-18.37,1.82-27.56,2.24-20.45.93-41.28-.37-61.61.94-12.09.78-23.81,2.48-36,3-35.49,1.6-69-6.58-103.87-9.72-27.95-2.51-58.81-2-82.32-8.9v-2.18c20.94,6.34,48.93,6.14,74.49,7.7,39.59,2.42,78.27,9.74,118,7.88,17.06-.8,33.62-3.29,50.78-3.48,11.76-.12,23.51.84,35.21.4,7.78-.29,15.35-1.18,23-1.92Q298.18,135.52,303.13,135.13Z"/>
        <path class="cls-6" d="M302.93,149.43a13.71,13.71,0,0,1-1.38,4.06c-47.63,1.41-95.54.92-143.19-.53-13.51-.41-27-.9-40.42-1.85-9.24-.66-18.57-1.54-27.88-1.13-7.24.32-14.58,1.42-21.62.63-5.72-.63-10.33-2.42-15.7-3.47-14.12-2.77-31.05-.2-46-2-4.82-.58-9.31-1.6-14.2-2.06l-.75-.06v-2.68c7.45.32,14.44,2,21.94,2.4,11.09.59,22.17-1.66,33.3-1.18,12.63.54,23.25,4.48,35.78,5.39,10.7.77,21.78-.74,32.46.08,6.69.52,12.82,1.93,19.35,2.75A214.19,214.19,0,0,0,158.18,151c16.82.2,37,3.18,53.37,1.28,4.11-.47,8.06-1.3,12.31-1.35,6.78-.09,12.87,1.76,19.54,2.25,9.75.72,19.53-1.51,29.4-1.2,2,.06,4,.23,6,.1,3.08-.21,5.62-1.1,8.4-1.68A72.58,72.58,0,0,1,302.93,149.43Z"/>
        <path class="cls-5" d="M40.43,104.56c-.59.94,3.09,1.66,6.32,2.13,21.58,3.11,44.23,5.72,67.6,7.79,24.47,2.18,51.51,3.74,75.91,1.51,9.87-.9,19.18-2.41,29.62-2.56,7.13-.1,14.21.45,21.35.39,13.18-.12,25.24-2.32,38.41-2.2,6.63.07,12.93.71,19.44,1q2,.1,4,.15v1.76c-2.86,0-5.71,0-8.56-.1-10.93-.35-21.78-1.62-32.55-1-4.25.23-8.19.74-12.38,1-11.13.78-23.11,0-34.44.54-9.05.44-17.12,1.71-25.52,2.68s-17.28,1-26.43,1.25a216.28,216.28,0,0,1-34-1.56c-3.9-.51-7.64-1.13-11.84-1.44-5.18-.38-10.68-.25-16.05-.35a147,147,0,0,1-27.23-2.85c-10.51-2.28-17.77-4.28-32.49-4.4-3.06,0-6.17,0-9.14-.15s-5.89-.7-6.7-1.46.72-1.61,2.9-2.18c6.57-1.73,17.48-1.7,25.43-3,4.42-.72,7.72-1.81,11.86-2.63,12.18-2.4,27.56-1,41.44-2.07,5.83-.46,11-1.38,16.87-1.78,14.28-1,28.89,1.33,43.64,1.23s29-2.63,43.48-1.82c10.7.6,20,3,30.84,2.59,5.86-.2,10.88-1.18,16.57-1.61,14.33-1.08,27.29,0,41.24-1.9,1-.14,2.05-.25,3.06-.35v1.56l-3.9.1c-10.29.27-20.71.56-30.36,1.51-9.35.92-18.41,2.49-28.38,2.25-8.16-.19-15.14-1.58-23.06-2.13-11.24-.79-23,.18-34.51.67-13.13.56-26.66.48-39.68-.23-5.23-.29-10.53-.68-15.84-.51-7.15.23-13.26,1.42-20.15,2-9.86.76-20.79.14-30.52,1C63.51,100.53,54.42,104.3,40.43,104.56Z"/>
        <path class="cls-5" d="M76.7,105.31c-.53.45,2.78.8,5.68,1,19.4,1.49,39.77,2.73,60.77,3.73,22,1,46.33,1.78,68.26.73,8.87-.43,17.24-1.16,26.63-1.23,6.41,0,12.78.22,19.2.18,11.84-.06,22.7-1.11,34.54-1,3.85,0,7.59.15,11.34.29v1c-9.13-.2-18.18-.7-27.2-.44-3.82.11-7.36.35-11.14.49-10,.37-20.77,0-31,.26-8.13.21-15.38.82-22.94,1.28s-15.53.46-23.76.6c-10.42.18-21.2-.08-30.56-.74-3.51-.25-6.86-.55-10.64-.69-4.66-.18-9.62-.12-14.45-.17A244.08,244.08,0,0,1,107,109.21c-9.44-1.09-16-2-29.21-2.1-2.75,0-5.56,0-8.22-.08s-5.29-.33-6-.7.64-.77,2.6-1c5.9-.82,15.72-.81,22.87-1.43,4-.34,6.93-.86,10.66-1.25,10.94-1.15,24.79-.48,37.27-1,5.23-.22,9.88-.66,15.17-.85,12.83-.46,26,.64,39.23.58s26.08-1.25,39.1-.87c9.61.28,18,1.42,27.72,1.23,5.28-.08,9.8-.56,14.91-.76,10.46-.42,20.1-.17,30.06-.54v.34c-7.18.12-14.31.28-21,.63-8.4.44-16.55,1.19-25.51,1.08-7.33-.1-13.61-.76-20.72-1-10.1-.38-20.7.08-31,.32-11.8.27-24,.23-35.67-.11-4.71-.14-9.47-.32-14.25-.25-6.42.11-11.92.68-18.11.93-8.86.37-18.69.07-27.43.49C97.45,103.39,89.27,105.18,76.7,105.31Z"/>
      </g>
      <g>
        <g>
          <path class="cls-7" d="M47.42,57.12H106a3.15,3.15,0,0,1,3.14,3.14V138a3.15,3.15,0,0,1-3.14,3.14H47.42A3.15,3.15,0,0,1,44.28,138V60.26A3.15,3.15,0,0,1,47.42,57.12Z"/>
          <path class="cls-8" d="M46.88,64.14h59.62v70H46.88Z"/>
          <path class="cls-9" d="M76.69,135.13a2.39,2.39,0,1,1-2.39,2.39A2.39,2.39,0,0,1,76.69,135.13Z"/>
          <path class="cls-9" d="M69.31,60.13H84.08a.88.88,0,1,1,0,1.77H69.31a.88.88,0,1,1,0-1.77Z"/>
          <path class="cls-9" d="M51.28,59.53A1.49,1.49,0,1,1,49.79,61,1.49,1.49,0,0,1,51.28,59.53Z"/>
          <path class="cls-10" d="M51.28,59.73A1.29,1.29,0,1,1,50,61,1.29,1.29,0,0,1,51.28,59.73Z"/>
          <path class="cls-9" d="M51.28,60.63a.38.38,0,1,1-.38.38A.38.38,0,0,1,51.28,60.63Z"/>
        </g>
        <g>
          <rect class="cls-11" x="46.55" y="64.33" width="60.44" height="69.77"/>
          <path class="cls-12" d="M88,130.91a1.12,1.12,0,0,1-1.12-1.12V122a1.12,1.12,0,0,1,2.24,0v7.83A1.12,1.12,0,0,1,88,130.91Z"/>
          <path class="cls-13" d="M92.44,130.91a1.12,1.12,0,0,1-1.12-1.12v-5.6a1.12,1.12,0,1,1,2.24,0v5.6A1.12,1.12,0,0,1,92.44,130.91Z"/>
          <path class="cls-14" d="M96.92,130.91a1.12,1.12,0,0,1-1.12-1.12V116.36a1.12,1.12,0,1,1,2.24,0v13.43A1.12,1.12,0,0,1,96.92,130.91Z"/>
          <path class="cls-13" d="M101.4,130.91a1.12,1.12,0,0,1-1.12-1.12v-9a1.12,1.12,0,1,1,2.24,0v9A1.12,1.12,0,0,1,101.4,130.91Z"/>
          <path class="cls-15" d="M74.58,99.27H63.39a1.12,1.12,0,1,1,0-2.24H74.58a1.12,1.12,0,1,1,0,2.24Z"/>
          <path class="cls-15" d="M80.18,103.75H63.39a1.12,1.12,0,1,1,0-2.24H80.18a1.12,1.12,0,1,1,0,2.24Z"/>
          <path class="cls-15" d="M74.58,108.44H63.39a1.12,1.12,0,1,1,0-2.24H74.58a1.12,1.12,0,1,1,0,2.24Z"/>
          <path class="cls-15" d="M81.18,114.92H64.39a1.12,1.12,0,1,1,0-2.24H81.18a1.12,1.12,0,1,1,0,2.24Z"/>
          <path class="cls-15" d="M75.58,120.82H64.39a1.12,1.12,0,1,1,0-2.24H75.58a1.12,1.12,0,1,1,0,2.24Z"/>
          <path class="cls-15" d="M81.18,125.29H64.39a1.12,1.12,0,0,1,0-2.24H81.18a1.12,1.12,0,0,1,0,2.24Z"/>
          <circle class="cls-16" cx="65.02" cy="81.68" r="11.75"/>
          <path class="cls-12" d="M64.48,69.94l0,0V82.2a0,0,0,0,0,0,0H76.74l0,0A11.75,11.75,0,0,0,64.48,69.94Z"/>
          <path class="cls-15" d="M95.8,77.77h-9a1.12,1.12,0,0,1,0-2.24h9a1.12,1.12,0,1,1,0,2.24Z"/>
          <path class="cls-15" d="M101.4,77.77a1.11,1.11,0,1,1,.79-.32A1.17,1.17,0,0,1,101.4,77.77Z"/>
          <path class="cls-15" d="M101.4,72.17H98a1.12,1.12,0,0,1,0-2.24h3.36a1.12,1.12,0,1,1,0,2.24Z"/>
          <path class="cls-15" d="M89.08,72.17H86.85a1.12,1.12,0,0,1,0-2.24h2.24a1.12,1.12,0,0,1,0,2.24Z"/>
          <path class="cls-15" d="M93.56,72.17a1.12,1.12,0,1,1,.79-1.91,1.15,1.15,0,0,1,.32.79,1.11,1.11,0,0,1-1.12,1.12Z"/>
          <path class="cls-15" d="M95.8,89.57h-9a1.12,1.12,0,0,1,0-2.24h9a1.12,1.12,0,1,1,0,2.24Z"/>
          <path class="cls-15" d="M101.4,89.57a1.11,1.11,0,1,1,.79-.32A1.17,1.17,0,0,1,101.4,89.57Z"/>
          <path class="cls-15" d="M101.4,84H98a1.12,1.12,0,0,1,0-2.24h3.36a1.12,1.12,0,1,1,0,2.24Z"/>
          <path class="cls-15" d="M89.08,84H86.85a1.12,1.12,0,0,1,0-2.24h2.24a1.12,1.12,0,0,1,0,2.24Z"/>
          <path class="cls-15" d="M93.56,84a1.12,1.12,0,1,1,.79-1.91,1.15,1.15,0,0,1,.32.79A1.11,1.11,0,0,1,93.56,84Z"/>
          <path class="cls-15" d="M95.8,101.57h-9a1.12,1.12,0,0,1,0-2.24h9a1.12,1.12,0,0,1,0,2.24Z"/>
          <path class="cls-15" d="M101.4,101.57a1.11,1.11,0,1,1,.79-.32A1.17,1.17,0,0,1,101.4,101.57Z"/>
          <path class="cls-15" d="M101.4,96H98a1.12,1.12,0,1,1,0-2.24h3.36a1.12,1.12,0,1,1,0,2.24Z"/>
          <path class="cls-15" d="M89.08,96H86.85a1.12,1.12,0,0,1,0-2.24h2.24a1.12,1.12,0,1,1,0,2.24Z"/>
          <path class="cls-15" d="M93.56,96a1.12,1.12,0,1,1,.79-1.91,1.15,1.15,0,0,1,.32.79A1.11,1.11,0,0,1,93.56,96Z"/>
        </g>
      </g>
      <g>
        <path class="cls-17" d="M173.83,112.2h-39V47.93h39a3.44,3.44,0,0,1,3.44,3.44v57.39A3.44,3.44,0,0,1,173.83,112.2Z"/>
        <rect class="cls-18" x="164.65" y="47.93" width="5.74" height="64.26"/>
        <rect class="cls-19" x="122.19" y="47.93" width="12.62" height="64.27"/>
        <circle class="cls-17" cx="126.78" cy="99.57" r="2.3"/>
        <circle class="cls-17" cx="126.78" cy="92.69" r="2.3"/>
        <circle class="cls-17" cx="126.78" cy="85.8" r="2.3"/>
        <circle class="cls-17" cx="126.78" cy="78.91" r="2.3"/>
        <path class="cls-20" d="M116.45,78.91a5.69,5.69,0,0,0,1.18,3.44,5.75,5.75,0,0,1,1.72-1.51,3.44,3.44,0,1,1,6.29-1.93,1.15,1.15,0,1,0,2.3,0,5.74,5.74,0,1,0-11.48,0Z"/>
        <path class="cls-21" d="M119.34,83.87a5.67,5.67,0,0,0,2.85.79v-2.3A3.44,3.44,0,0,0,119.34,83.87Z"/>
        <path class="cls-21" d="M119.34,90.75a5.67,5.67,0,0,0,2.85.79v-2.3A3.44,3.44,0,0,0,119.34,90.75Z"/>
        <path class="cls-20" d="M119.34,80.85a5.75,5.75,0,0,0-1.72,1.51,5.63,5.63,0,0,0,0,6.89,5.75,5.75,0,0,1,1.72-1.51,3.44,3.44,0,1,1,6.29-1.93,1.15,1.15,0,1,0,2.3,0,5.74,5.74,0,0,0-5.74-5.74A5.67,5.67,0,0,0,119.34,80.85Z"/>
        <path class="cls-21" d="M119.34,97.64a5.67,5.67,0,0,0,2.85.79v-2.3A3.44,3.44,0,0,0,119.34,97.64Z"/>
        <path class="cls-20" d="M119.34,87.73a5.75,5.75,0,0,0-1.72,1.51,5.63,5.63,0,0,0,0,6.89,5.75,5.75,0,0,1,1.72-1.51,3.44,3.44,0,1,1,6.29-1.93,1.15,1.15,0,1,0,2.3,0,5.74,5.74,0,0,0-5.74-5.74A5.67,5.67,0,0,0,119.34,87.73Z"/>
        <circle class="cls-17" cx="126.78" cy="72.03" r="2.3"/>
        <circle class="cls-17" cx="126.78" cy="65.14" r="2.3"/>
        <circle class="cls-17" cx="126.78" cy="58.26" r="2.3"/>
        <path class="cls-20" d="M116.45,58.26a5.69,5.69,0,0,0,1.18,3.44,5.75,5.75,0,0,1,1.72-1.51,3.44,3.44,0,1,1,6.29-1.93,1.15,1.15,0,1,0,2.3,0,5.74,5.74,0,1,0-11.48,0Z"/>
        <path class="cls-21" d="M119.34,63.21a5.67,5.67,0,0,0,2.85.79V61.7A3.44,3.44,0,0,0,119.34,63.21Z"/>
        <path class="cls-21" d="M119.34,70.09a5.67,5.67,0,0,0,2.85.79v-2.3A3.44,3.44,0,0,0,119.34,70.09Z"/>
        <path class="cls-20" d="M119.34,60.19a5.75,5.75,0,0,0-1.72,1.51,5.63,5.63,0,0,0,0,6.89,5.75,5.75,0,0,1,1.72-1.51,3.44,3.44,0,1,1,6.29-1.93,1.15,1.15,0,1,0,2.3,0,5.74,5.74,0,0,0-5.74-5.74A5.67,5.67,0,0,0,119.34,60.19Z"/>
        <path class="cls-21" d="M119.34,77a5.67,5.67,0,0,0,2.85.79v-2.3A3.44,3.44,0,0,0,119.34,77Z"/>
        <path class="cls-20" d="M119.34,67.08a5.75,5.75,0,0,0-1.72,1.51,5.63,5.63,0,0,0,0,6.89A5.75,5.75,0,0,1,119.34,74,3.44,3.44,0,1,1,125.63,72a1.15,1.15,0,1,0,2.3,0,5.74,5.74,0,0,0-5.74-5.74A5.67,5.67,0,0,0,119.34,67.08Z"/>
        <path class="cls-20" d="M119.34,94.62a5.75,5.75,0,0,0-1.72,1.51,5.69,5.69,0,0,0-1.18,3.44,5.74,5.74,0,0,0,5.74,5.74V103a3.44,3.44,0,1,1,3.44-3.44,1.15,1.15,0,0,0,2.3,0,5.74,5.74,0,0,0-5.74-5.74A5.67,5.67,0,0,0,119.34,94.62Z"/>
      </g>
      <g>
        <g>
          <path class="cls-22" d="M227.11,55.4l-25.78-.64a1.61,1.61,0,0,1-1.57-1.65l.44-17.78a1.61,1.61,0,0,1,1.65-1.57l25.78.64a1.61,1.61,0,0,1,1.57,1.65l-.44,17.78A1.61,1.61,0,0,1,227.11,55.4Z"/>
          <rect class="cls-23" x="216.4" y="42.75" width="10" height="10" transform="translate(168.19 267.91) rotate(-88.58)"/>
          <path class="cls-24" d="M223.71,51.36l-1.24-.67a.26.26,0,0,1-.13-.23v-.38a2.11,2.11,0,0,0,1.23-1.46.67.67,0,0,0,.49-.62v-.33a.67.67,0,0,0-.34-.6c-.12-1.26-.93-1.78-2.26-1.82h-.19a2,2,0,0,1-1.28-.33,1.68,1.68,0,0,1-.37-.34.07.07,0,0,0-.12,0c0,.12,0,.25.05.4.1.56,0,.47-.19,1a3.44,3.44,0,0,0-.25.94.67.67,0,0,0-.37.58v.33a.67.67,0,0,0,.46.65A2.11,2.11,0,0,0,220.35,50v.38a.26.26,0,0,1-.15.23l-1.3.6a1.09,1.09,0,0,0-.59.95v.44a.15.15,0,0,0,0,.06l6,.15a.18.18,0,0,0,0-.06v-.41A1.09,1.09,0,0,0,223.71,51.36Z"/>
          <rect class="cls-25" x="212.63" y="24.08" width="4" height="29" transform="translate(170.75 252.19) rotate(-88.58)"/>
          <g>
            <path class="cls-26" d="M207,42.9l-4.5-.11a.5.5,0,0,0,0,1l4.5.11a.5.5,0,0,0,0-1Z"/>
            <path class="cls-26" d="M214,43.57a.5.5,0,0,0-.49-.51l-4.5-.11a.5.5,0,1,0,0,1l4.5.11A.5.5,0,0,0,214,43.57Z"/>
            <path class="cls-26" d="M203,45.3h-.5a.5.5,0,1,0,0,1h.5a.5.5,0,0,0,0-1Z"/>
            <path class="cls-26" d="M206,45.37l-1,0a.5.5,0,1,0,0,1l1,0a.5.5,0,1,0,0-1Z"/>
            <path class="cls-26" d="M208.46,45.43H208a.5.5,0,0,0,0,1h.5a.5.5,0,1,0,0-1Z"/>
            <path class="cls-26" d="M211.46,45.51l-1,0a.5.5,0,0,0,0,1l1,0a.5.5,0,0,0,0-1Z"/>
            <path class="cls-26" d="M213.1,45.69a.51.51,0,0,0,0,.71.5.5,0,1,0,0-.71Z"/>
          </g>
          <g>
            <path class="cls-27" d="M205.22,48.05a3.31,3.31,0,0,0-1.67,2.75l-.61-.54c-.48-.42-1.21.26-.72.69l1.37,1.21a.51.51,0,0,0,.86-.33c.06-1.08.15-2.37,1.25-2.91C206.28,48.65,205.8,47.77,205.22,48.05Z"/>
            <path class="cls-27" d="M212.74,50.3a1.1,1.1,0,0,0-.8-.58c-.73-.07-2,.94-2.5,0a.5.5,0,0,0-.68-.2c-.72.42-1.66,1-2.38.19-.43-.49-1.15.21-.72.69.91,1,2.12.76,3.2.21a2.05,2.05,0,0,0,.84.55c.45.18,2.06-.56,2.18-.39C212.23,51.31,213.11,50.83,212.74,50.3Z"/>
          </g>
        </g>
        <path class="cls-23" d="M216.21,28.64l-3.65.12a.51.51,0,0,0-.49.53l.18,5.2a.51.51,0,0,0,.53.49l3.65-.12a.51.51,0,0,0,.49-.53l-.18-5.2A.51.51,0,0,0,216.21,28.64Zm-1.7,3.56A1.17,1.17,0,1,1,215.63,31,1.17,1.17,0,0,1,214.5,32.2Z"/>
      </g>
      <g>
        <path class="cls-28" d="M236.86,63.29H182.64v68.06h54.22Z"/>
        <path class="cls-24" d="M235,63.29c-16.74,0-32.73-7.14-50.22,0V127H235Z"/>
        <path class="cls-28" d="M132.73,63.29h49.91v68.06H132.73Z"/>
        <path class="cls-24" d="M134.57,63.29c16.74,0,40.93-7,50.22,0V127H134.57Z"/>
        <path class="cls-11" d="M183.94,63.29h1.7V127h-1.7Z"/>
        <path class="cls-29" d="M138.86,68.67h19.38v2.66H138.86Z"/>
        <g>
          <path class="cls-28" d="M138.86,111.93h38.77v1.26H138.86Zm0-2.54h38.77v1.26H138.86Zm0-16.61h38.77V94H138.86Zm0,12.7h17v1.26h-17Zm0-2.54h38.77v1.26H138.86Zm0-2.54h38.77v1.26H138.86Zm0-2.54h38.77v1.26H138.86Zm0-2.54h38.77v1.26H138.86Zm0,26.77h13.34v1.26H138.86Zm0-2.54h38.77v1.26H138.86Zm0-2.54h38.77v1.26H138.86Zm0-2.54h38.77v1.26H138.86Z"/>
          <path class="cls-28" d="M190.52,94h38.77V95.3H190.52Zm0-2.54h38.77v1.26H190.52Zm0-16.61h38.77v1.26H190.52Zm0,12.7h17v1.26h-17V87.59Zm0-2.54h38.77v1.26H190.52Zm0-2.54h38.77v1.26H190.52Zm0-2.54h17v1.26h-17V80Zm0-2.54h38.77v1.26H190.52Zm0,26.77h13.34v1.26H190.52Zm0-2.54h38.77v1.26H190.52Zm0-2.54h38.77v1.26H190.52Zm0-2.54h38.77v1.26H190.52Z"/>
        </g>
        <path class="cls-30" d="M194.52,60.51l5.24-.45V87.28l-2.64-1.92-2.61,1.92V60.51h0Z"/>
        <path class="cls-11" d="M138.86,73.76h38.67V90.43H138.86Z"/>
      </g>
      <path class="cls-15" d="M59.7,100.17l-2.18.35a2.33,2.33,0,0,0-.3-.58,1.46,1.46,0,0,0-.44-.33v1.7a6.33,6.33,0,0,1,2.38,1,2.31,2.31,0,0,1,.79,1.8,2.46,2.46,0,0,1-.28,1.17,2.87,2.87,0,0,1-.73.89,2.92,2.92,0,0,1-.94.52,4.61,4.61,0,0,1-1.22.19V108h-.86v-1.11a5.39,5.39,0,0,1-1.4-.28,2.83,2.83,0,0,1-.93-.56,2.74,2.74,0,0,1-.6-.77,3.6,3.6,0,0,1-.32-1l2.37-.28a2.23,2.23,0,0,0,.28.84,1.49,1.49,0,0,0,.59.46v-2.07a11,11,0,0,1-1.68-.57A2.24,2.24,0,0,1,53,100.6a2.32,2.32,0,0,1,.73-1.74,3.28,3.28,0,0,1,2.17-.78V97.5h.86v.58a3.6,3.6,0,0,1,2,.62A2.49,2.49,0,0,1,59.7,100.17Zm-3.77-.59a1.09,1.09,0,0,0-.52.31.66.66,0,0,0-.15.43.71.71,0,0,0,.15.45,1.1,1.1,0,0,0,.52.32Zm.86,5.77a1.36,1.36,0,0,0,.73-.37.83.83,0,0,0,.23-.57.77.77,0,0,0-.2-.51,1.8,1.8,0,0,0-.77-.43Z"/>
      <path class="cls-15" d="M59.7,115.79l-2.18.35a2.33,2.33,0,0,0-.3-.58,1.46,1.46,0,0,0-.44-.33v1.7a6.33,6.33,0,0,1,2.38,1,2.31,2.31,0,0,1,.79,1.8,2.46,2.46,0,0,1-.28,1.17,2.87,2.87,0,0,1-.73.89,2.92,2.92,0,0,1-.94.52,4.61,4.61,0,0,1-1.22.19v1.11h-.86V122.5a5.39,5.39,0,0,1-1.4-.28,2.83,2.83,0,0,1-.93-.56,2.74,2.74,0,0,1-.6-.77,3.6,3.6,0,0,1-.32-1l2.37-.28a2.23,2.23,0,0,0,.28.84,1.49,1.49,0,0,0,.59.46v-2.07a11,11,0,0,1-1.68-.57A2.24,2.24,0,0,1,53,116.21a2.32,2.32,0,0,1,.73-1.74,3.28,3.28,0,0,1,2.17-.78v-.58h.86v.58a3.6,3.6,0,0,1,2,.62A2.49,2.49,0,0,1,59.7,115.79Zm-3.77-.59a1.09,1.09,0,0,0-.52.31.66.66,0,0,0-.15.43.71.71,0,0,0,.15.45,1.1,1.1,0,0,0,.52.32Zm.86,5.77a1.36,1.36,0,0,0,.73-.37.83.83,0,0,0,.23-.57.77.77,0,0,0-.2-.51,1.8,1.8,0,0,0-.77-.43Z"/>
    </g>
  </g>
</svg>
