<svg id="Layer_1" data-name="Layer 1" xmlns="http://www.w3.org/2000/svg" xmlns:xlink="http://www.w3.org/1999/xlink" viewBox="0 0 300 150">
  <defs>
    <style>
      .cls-1 {
        fill: none;
      }

      .cls-2 {
        clip-path: url(#clip-path);
      }

      .cls-3 {
        fill: #d1d3d4;
      }

      .cls-10, .cls-11, .cls-12, .cls-13, .cls-14, .cls-15, .cls-16, .cls-17, .cls-18, .cls-19, .cls-20, .cls-21, .cls-23, .cls-4, .cls-5, .cls-6, .cls-7, .cls-8, .cls-9 {
        fill-rule: evenodd;
      }

      .cls-4 {
        fill: url(#radial-gradient);
      }

      .cls-5 {
        fill: #f1f2f2;
      }

      .cls-6 {
        fill: url(#radial-gradient-2);
      }

      .cls-7 {
        fill: url(#radial-gradient-3);
      }

      .cls-8 {
        fill: url(#radial-gradient-4);
      }

      .cls-9 {
        fill: url(#radial-gradient-5);
      }

      .cls-10 {
        fill: url(#radial-gradient-6);
      }

      .cls-11 {
        fill: url(#radial-gradient-7);
      }

      .cls-12 {
        fill: url(#radial-gradient-8);
      }

      .cls-13 {
        fill: url(#radial-gradient-9);
      }

      .cls-14 {
        fill: url(#radial-gradient-10);
      }

      .cls-15 {
        fill: url(#radial-gradient-11);
      }

      .cls-16 {
        fill: url(#radial-gradient-12);
      }

      .cls-17 {
        fill: url(#radial-gradient-13);
      }

      .cls-18 {
        fill: url(#radial-gradient-14);
      }

      .cls-19 {
        fill: url(#radial-gradient-15);
      }

      .cls-20 {
        fill: url(#radial-gradient-16);
      }

      .cls-21 {
        fill: url(#radial-gradient-17);
      }

      .cls-22 {
        fill: #fafbfc;
      }

      .cls-23 {
        fill: #ed2024;
      }
    </style>
    <clipPath id="clip-path">
      <rect class="cls-1" width="300" height="150"/>
    </clipPath>
    <radialGradient id="radial-gradient" cx="-487.44" cy="-750.39" r="67.41" gradientTransform="translate(1300.18 359.24) rotate(-41.06) scale(1.47)" gradientUnits="userSpaceOnUse">
      <stop offset="0.32" stop-color="#f6f7fa"/>
      <stop offset="0.42" stop-color="#f2f4f8"/>
      <stop offset="0.51" stop-color="#e6ebf3"/>
      <stop offset="0.61" stop-color="#d2dce9"/>
      <stop offset="0.7" stop-color="#b7c7dc"/>
      <stop offset="0.72" stop-color="#b0c2d9"/>
      <stop offset="1" stop-color="#e7ecf3"/>
    </radialGradient>
    <radialGradient id="radial-gradient-2" cx="1516.9" cy="40.42" r="67.41" gradientTransform="translate(-542.16 -694.55) rotate(39.47) scale(0.73)" xlink:href="#radial-gradient"/>
    <radialGradient id="radial-gradient-3" cx="-757.88" cy="1142.63" r="81.15" gradientTransform="translate(406.44 -620.2) rotate(-23.41) scale(0.56)" xlink:href="#radial-gradient"/>
    <radialGradient id="radial-gradient-4" cx="-1816.12" cy="352.51" r="95.4" gradientTransform="translate(685.27 -750.96) rotate(-46.42) scale(0.56)" xlink:href="#radial-gradient"/>
    <radialGradient id="radial-gradient-5" cx="-512.35" cy="866.99" r="87.62" gradientTransform="matrix(0.59, -0.21, 0.21, 0.59, 377.17, -517.64)" xlink:href="#radial-gradient"/>
    <radialGradient id="radial-gradient-6" cx="1340.23" cy="-2417.91" r="67.41" gradientTransform="translate(-492.56 -2493.27) rotate(139.12) scale(0.96)" xlink:href="#radial-gradient"/>
    <radialGradient id="radial-gradient-7" cx="965.75" cy="-1135.3" r="67.41" gradientTransform="matrix(0.42, 1.88, -1.88, 0.42, -2445.45, -1191.59)" xlink:href="#radial-gradient"/>
    <radialGradient id="radial-gradient-8" cx="-233.73" cy="-827.16" r="67.41" gradientTransform="translate(1400.57 1118.3) rotate(-34.42) scale(1.99)" xlink:href="#radial-gradient"/>
    <radialGradient id="radial-gradient-9" cx="-728.14" cy="-3419.64" r="67.41" gradientTransform="matrix(-0.6, -0.24, 0.24, -0.6, 672.81, -2128.7)" xlink:href="#radial-gradient"/>
    <radialGradient id="radial-gradient-10" cx="653.81" cy="-819.04" r="67.41" gradientTransform="matrix(1.51, 1.26, -1.26, 1.51, -1822.83, 422.64)" xlink:href="#radial-gradient"/>
    <radialGradient id="radial-gradient-11" cx="264.54" cy="-2961.53" r="67.4" gradientTransform="matrix(-0.87, 0.05, -0.05, -0.87, 324.96, -2567.01)" xlink:href="#radial-gradient"/>
    <radialGradient id="radial-gradient-12" cx="-205.25" cy="-619.54" r="67.41" gradientTransform="translate(965.93 666.49) rotate(-29.2) scale(1.57)" xlink:href="#radial-gradient"/>
    <radialGradient id="radial-gradient-13" cx="-1099.59" cy="-1418.1" r="67.41" gradientTransform="translate(1673.31 -980.69) rotate(-84.07) scale(1.09)" xlink:href="#radial-gradient"/>
    <radialGradient id="radial-gradient-14" cx="1057.9" cy="-1579.14" r="67.41" gradientTransform="translate(-1928.87 -2197.7) rotate(102.37) scale(1.66)" gradientUnits="userSpaceOnUse">
      <stop offset="0.32" stop-color="#f6f7fa"/>
      <stop offset="0.38" stop-color="#f5f3f6"/>
      <stop offset="0.43" stop-color="#f2e7eb"/>
      <stop offset="0.49" stop-color="#edd3d8"/>
      <stop offset="0.54" stop-color="#e6b7be"/>
      <stop offset="0.59" stop-color="#dc949c"/>
      <stop offset="0.65" stop-color="#d16873"/>
      <stop offset="0.7" stop-color="#c43542"/>
      <stop offset="0.72" stop-color="#be1e2d"/>
      <stop offset="1" stop-color="#e7ecf3"/>
    </radialGradient>
    <radialGradient id="radial-gradient-15" cx="2374.23" cy="-2551.53" r="86.58" gradientTransform="translate(-366.74 -1878.24) rotate(122.6) scale(0.56)" xlink:href="#radial-gradient"/>
    <radialGradient id="radial-gradient-16" cx="1030.17" cy="-1663.26" r="67.41" gradientTransform="translate(-1928.5 -2534.82) rotate(109.78) scale(1.77)" xlink:href="#radial-gradient"/>
    <radialGradient id="radial-gradient-17" cx="973.77" cy="-2606.13" r="67.41" gradientTransform="matrix(-0.88, 0.53, -0.53, -0.88, -321.9, -2678.13)" xlink:href="#radial-gradient"/>
  </defs>
  <title>Canadian</title>
  <g class="cls-2">
    <g>
      <g>
        <rect class="cls-3" x="-0.62" width="300.62" height="152.58"/>
        <g>
          <g>
            <path class="cls-4" d="M57.51,37.53l-1.36,1.18c-.9-1.16-5-6.32-7.1-8.92a1,1,0,0,0-1.55-.07c-1.89,2.12-5.71,6.54-7.14,8.18-1-2.23-1.11-2.44-1.26-2.8a1.54,1.54,0,0,0-1.62-1c-.38,0-13.41.47-14,.47.34-.77.65-1.49,1-2.2s.29-1-.45-1.53c-2.88-1.94-5-3.28-6-4,3.13-1.78,1.5-.85,5.43-3a1.1,1.1,0,0,0,.54-1.71,25.66,25.66,0,0,1-1.06-2.5c.6.12,1.75.33,7.4,1,.71.09,1.26-.09,1.41-.5.21-.6-.16-1-.58-1.33-1.56-1.25-2.57-2-9.36-7.41.73-.28-.37.08,3.22-.83,1.16-.29,1.46-.78,1.19-1.94C24.21.07,24.52,1.44,24.36.73,25,1,23.66.45,32,3.6a1.3,1.3,0,0,0,2-.85c.61-1.45,1-2.66,1.29-3.18C37.71,3.72,38.45,5,41.16,9.63c.63,1.07,1.52,1.44,1.93.47.28-.67.11-2.5.25-8.32.65.42,1.26.78,1.84,1.19,1.32,1,1.66.64,2.46-.44.18-.24,3.15-4.24,3.46-4.54.55,1.07,1.47,3,3.1,6.39.45.92.65,1,1.62.7L58,4.45c-.1,1-2.32,13.37-2.4,14a1.41,1.41,0,0,0,.69,1.45c2.06,1.31,1.88,1.17,2.71,1.73-6.38,4.16-7.45,4.86-8.91,5.83a1,1,0,0,0-.2,1.69C58.49,38.6,56.29,36.13,57.51,37.53Z"/>
            <path class="cls-5" d="M57.67,37.85,56.31,39c-.89-1.16-5-6.32-7.1-8.92A1,1,0,0,0,47.66,30c-1.89,2.12-5.71,6.54-7.14,8.18-1-2.23-1.11-2.44-1.26-2.81a1.54,1.54,0,0,0-1.62-1c-.38,0-13.41.47-14,.47.34-.77.65-1.49,1-2.2s.29-1-.44-1.53c-2.88-1.94-5-3.28-6-4,3.13-1.78,1.5-.85,5.43-3a1.1,1.1,0,0,0,.54-1.71A25.09,25.09,0,0,1,23,19.89c.6.12,1.75.33,7.4,1,.71.09,1.26-.09,1.41-.5.21-.6-.17-1-.58-1.33-1.56-1.25-2.57-2.05-9.36-7.41.73-.27-.37.08,3.22-.83,1.16-.29,1.46-.78,1.19-1.94C24.37.39,24.68,1.76,24.52,1c.68.24-.7-.28,7.63,2.87a1.31,1.31,0,0,0,2-.85c.6-1.45,1-2.66,1.29-3.18C37.88,4,38.61,5.36,41.32,9.95c.63,1.07,1.52,1.44,1.93.47.28-.67.11-2.5.26-8.32.65.42,1.26.78,1.83,1.19,1.32,1,1.66.63,2.46-.44C48,2.6,51-1.4,51.26-1.7c.55,1.07,1.47,3,3.1,6.39.45.92.65,1,1.62.71l2.18-.62c-.1,1-2.32,13.37-2.4,14a1.41,1.41,0,0,0,.69,1.45c2.06,1.31,1.88,1.17,2.71,1.73-6.38,4.16-7.45,4.86-8.92,5.82A1,1,0,0,0,50,29.5C58.65,38.92,56.45,36.45,57.67,37.85Z"/>
          </g>
          <g>
            <path class="cls-6" d="M276.95,49.09l-.69-.57c.49-.53,2.68-3,3.78-4.2a.49.49,0,0,0-.09-.77c-1.19-.75-3.66-2.26-4.58-2.82l1.27-.85A.76.76,0,0,0,277,39c0-.18-1.32-6.52-1.37-6.81l1.16.3c.4.11.53.06.71-.34.71-1.56,1.2-2.69,1.47-3.26,1.13,1.38.54.66,1.93,2.4a.55.55,0,0,0,.88.13,12.68,12.68,0,0,1,1.14-.72c0,.3,0,.88.1,3.7,0,.35.14.61.36.65s.48-.16.6-.39c.48-.86.79-1.42,2.86-5.18a10.14,10.14,0,0,1,.67,1.51c.24.54.5.65,1,.43l3.7-1.51c-.06.35.08-.36-.78,4-.1.51.06.77.58.89.76.18,1.39.29,1.66.37-1.83,1.55-2.42,2-4.44,3.71-.47.39-.58.86-.07,1a30.31,30.31,0,0,0,4.09-.55c-.15.35-.28.68-.43,1-.36.72-.17.86.42,1.16.13.07,2.33,1.19,2.5,1.32-.48.35-1.37,1-2.87,2-.41.29-.43.4-.21.85l.48,1c-.5,0-6.72,0-7.06,0a.7.7,0,0,0-.65.45c-.47,1.11-.42,1-.62,1.47l-3.57-3.88a.5.5,0,0,0-.84,0C276.51,49.65,277.53,48.37,276.95,49.09Z"/>
            <path class="cls-5" d="M276.81,49.19l-.69-.57c.49-.53,2.68-3,3.78-4.2a.49.49,0,0,0-.09-.77c-1.19-.75-3.66-2.26-4.58-2.82l1.27-.85a.76.76,0,0,0,.36-.88c0-.18-1.32-6.52-1.37-6.81l1.16.3c.4.11.53.06.71-.34.71-1.57,1.2-2.69,1.47-3.26,1.13,1.38.54.66,1.92,2.4a.55.55,0,0,0,.88.13,12.53,12.53,0,0,1,1.14-.72c0,.3,0,.88.1,3.7,0,.35.15.61.36.65s.48-.16.6-.39c.48-.86.79-1.42,2.86-5.18a10.67,10.67,0,0,1,.67,1.51c.24.54.5.65,1,.43l3.7-1.51c-.06.35.08-.36-.78,4-.1.51.05.77.58.89.76.18,1.39.29,1.66.37-1.83,1.55-2.42,2-4.44,3.71-.47.39-.58.86-.07,1a30.56,30.56,0,0,0,4.09-.55c-.15.35-.28.68-.43,1-.36.72-.17.86.42,1.17.13.07,2.33,1.19,2.5,1.32-.48.35-1.37,1-2.87,2-.41.29-.43.4-.21.85s.31.66.48,1c-.5,0-6.72,0-7.06,0a.7.7,0,0,0-.65.45c-.47,1.11-.42,1-.62,1.47l-3.57-3.88a.5.5,0,0,0-.84,0C276.37,49.76,277.39,48.48,276.81,49.19Z"/>
          </g>
          <g>
            <path class="cls-7" d="M277.76,153.35l-.75.33c-.23-.63-1.31-3.44-1.85-4.84a.45.45,0,0,0-.67-.25c-1.11.66-3.38,2-4.22,2.56-.13-1.11-.15-1.21-.16-1.39a.7.7,0,0,0-.56-.66c-.16,0-5.88-1.65-6.14-1.73l.73-.82c.26-.28.27-.41,0-.72-1-1.24-1.69-2.11-2.05-2.57,1.6-.34.77-.16,2.77-.57.4-.08.52-.26.47-.67a11.32,11.32,0,0,1-.11-1.23c.24.13.71.38,3.06,1.47.3.14.56.14.68,0s.07-.46-.07-.66c-.5-.76-.83-1.24-3-4.51a9.15,9.15,0,0,1,1.51.08c.55,0,.74-.14.79-.67.34-4,.28-3.32.31-3.65l2.91,2.3a.59.59,0,0,0,1-.1c.46-.54.82-1,1-1.2.5,2.15.64,2.82,1.18,5.18.13.55.46.83.77.47a27.56,27.56,0,0,0,1.26-3.57c.23.27.44.51.63.77.44.6.63.5,1.13.15.11-.08,2-1.4,2.13-1.49.09.54.22,1.52.46,3.2.07.46.14.52.6.53l1,0c-.18.42-2.85,5.48-3,5.76a.64.64,0,0,0,.1.72c.71.85.66.77.94,1.12l-4.67,1.3a.46.46,0,0,0-.32.71C278,153.94,277.43,152.57,277.76,153.35Z"/>
            <path class="cls-5" d="M277.79,153.51l-.75.33c-.23-.63-1.31-3.44-1.85-4.84a.45.45,0,0,0-.66-.25c-1.11.66-3.38,2-4.22,2.56-.13-1.11-.14-1.21-.16-1.39a.7.7,0,0,0-.56-.66c-.17,0-5.88-1.64-6.14-1.73l.72-.82c.26-.28.27-.41,0-.72-1-1.24-1.7-2.11-2.05-2.57,1.6-.34.77-.16,2.77-.57.4-.08.52-.26.47-.67a11.81,11.81,0,0,1-.12-1.23c.24.13.71.38,3.06,1.47.3.14.56.14.68,0s.07-.46-.07-.66c-.5-.76-.83-1.24-3-4.51a9.64,9.64,0,0,1,1.51.08c.54,0,.74-.14.78-.67.34-4,.28-3.32.31-3.65.26.2-.26-.22,2.91,2.3a.59.59,0,0,0,1-.1c.46-.54.82-1,1-1.2.5,2.15.64,2.82,1.18,5.18.12.55.46.83.77.47a27.56,27.56,0,0,0,1.26-3.57c.22.27.44.51.63.77.44.6.63.5,1.13.15.11-.08,1.95-1.4,2.12-1.49.09.54.22,1.52.46,3.2.07.46.15.52.6.53l1,0c-.18.42-2.85,5.47-3,5.76a.64.64,0,0,0,.1.72c.71.85.66.77.94,1.12l-4.67,1.3a.45.45,0,0,0-.32.71C278.07,154.11,277.45,152.73,277.79,153.51Z"/>
          </g>
          <g>
            <path class="cls-8" d="M142.28,143.85l-.67.7c-.54-.58-3-3.14-4.25-4.42a.53.53,0,0,0-.84,0c-.91,1.23-2.73,3.79-3.42,4.74-.66-1.14-.72-1.25-.82-1.44a.83.83,0,0,0-.92-.46c-.2,0-7.17.93-7.49,1,.14-.43.27-.83.41-1.23s.1-.57-.32-.8c-1.64-.89-2.82-1.51-3.42-1.85,1.59-1.11.76-.53,2.76-1.9a.59.59,0,0,0,.2-.94,13.74,13.74,0,0,1-.7-1.29c.33,0,1,.09,4,.18.39,0,.67-.11.73-.34s-.14-.53-.38-.69l-5.39-3.5a11.1,11.1,0,0,1,1.68-.61c.61-.22.74-.49.54-1.1-1.47-4.47-1.23-3.75-1.35-4.12l4.23,1.16a.7.7,0,0,0,1-.56c.25-.81.42-1.48.53-1.77,1.54,2.11,2,2.78,3.68,5.1.39.54.89.69,1.06.16a33.51,33.51,0,0,0-.28-4.47c.37.19.71.35,1,.54.76.45.92.26,1.29-.36.08-.14,1.48-2.43,1.62-2.61.35.54.94,1.56,2,3.27.29.47.4.5.9.3l1.14-.44c0,.54-.57,7.28-.58,7.65a.76.76,0,0,0,.44.74c1.17.6,1.07.53,1.54.79l-4.49,3.57a.54.54,0,0,0,0,.92C142.86,144.37,141.56,143.16,142.28,143.85Z"/>
            <path class="cls-5" d="M142.39,144l-.67.7c-.54-.58-3-3.14-4.25-4.42a.53.53,0,0,0-.84,0c-.91,1.23-2.73,3.79-3.42,4.74-.65-1.14-.72-1.25-.82-1.44a.83.83,0,0,0-.92-.46c-.2,0-7.16.93-7.49,1,.14-.43.27-.83.41-1.23s.1-.57-.32-.8c-1.64-.89-2.82-1.51-3.42-1.85,1.59-1.11.76-.53,2.76-1.9a.59.59,0,0,0,.2-.94,13.83,13.83,0,0,1-.7-1.29c.33,0,1,.09,4,.18.38,0,.67-.11.73-.34s-.14-.53-.37-.69l-5.39-3.5a11.28,11.28,0,0,1,1.68-.61c.61-.22.74-.49.54-1.1-1.47-4.47-1.23-3.75-1.35-4.12L127,127.1a.7.7,0,0,0,1-.56c.25-.81.42-1.48.53-1.77,1.54,2.11,2,2.78,3.68,5.1.39.54.89.69,1.06.15a33.22,33.22,0,0,0-.28-4.47c.37.19.72.35,1,.54.76.44.92.26,1.3-.36.08-.14,1.48-2.43,1.63-2.61.35.54.94,1.56,2,3.27.29.47.4.5.9.3l1.14-.44c0,.55-.57,7.28-.58,7.65a.76.76,0,0,0,.44.74c1.17.6,1.07.53,1.54.79L137.9,139a.54.54,0,0,0,0,.92C143,144.53,141.66,143.32,142.39,144Z"/>
          </g>
          <g>
            <path class="cls-9" d="M264.62,126.63l-.93.34c-.23-.77-1.32-4.25-1.86-6a.54.54,0,0,0-.78-.35c-1.39.71-4.24,2.21-5.3,2.77-.07-1.35-.08-1.48-.09-1.69a.85.85,0,0,0-.63-.85c-.2-.07-7-2.44-7.29-2.56l.94-.94c.33-.32.36-.47.08-.87-1.09-1.57-1.89-2.67-2.28-3.26,2-.29.94-.14,3.39-.47.49-.07.65-.27.62-.77a14.52,14.52,0,0,1,0-1.5c.28.18.83.52,3.59,2,.34.19.67.21.82,0s.12-.55,0-.8c-.55-1-.91-1.57-3.32-5.68a11.22,11.22,0,0,1,1.82.22c.65.08.91-.11,1-.75.71-4.76.59-4,.66-4.39.3.26-.3-.28,3.34,3a.72.72,0,0,0,1.18,0c.6-.62,1.06-1.16,1.3-1.38.44,2.63.55,3.46,1,6.35.11.67.49,1,.9.63s.56-1.26,1.8-4.22c.25.34.49.65.71,1,.49.75.72.66,1.35.26.14-.09,2.47-1.55,2.68-1.64.07.66.14,1.85.31,3.9,0,.56.13.64.69.68l1.24.12c-.25.5-3.86,6.39-4,6.73a.78.78,0,0,0,.06.88c.79,1.08.73,1,1,1.43L262.82,120a.55.55,0,0,0-.44.83C264.91,127.38,264.27,125.67,264.62,126.63Z"/>
            <path class="cls-5" d="M264.64,126.83l-.93.34c-.23-.78-1.32-4.25-1.86-6a.54.54,0,0,0-.78-.35c-1.39.71-4.24,2.21-5.3,2.77-.07-1.35-.08-1.48-.09-1.69a.85.85,0,0,0-.63-.85c-.2-.07-7-2.44-7.29-2.56l.94-.94c.33-.32.36-.47.08-.87-1.09-1.57-1.89-2.67-2.28-3.26,2-.29.94-.14,3.39-.47.49-.07.65-.27.62-.77a13.71,13.71,0,0,1,0-1.5c.28.18.83.52,3.59,2,.35.19.67.21.82,0s.11-.55,0-.8c-.55-1-.91-1.57-3.32-5.68a11.61,11.61,0,0,1,1.82.22c.65.08.9-.11,1-.76.71-4.76.59-4,.66-4.39.3.26-.3-.28,3.34,3a.72.72,0,0,0,1.18,0c.6-.62,1.06-1.16,1.3-1.38.44,2.63.55,3.46,1,6.35.11.67.49,1,.9.63s.56-1.26,1.8-4.22c.25.34.49.65.7,1,.49.75.72.66,1.35.26.14-.09,2.47-1.55,2.68-1.64.07.66.14,1.85.31,3.9,0,.56.13.64.69.69l1.24.12c-.25.5-3.87,6.39-4,6.73a.78.78,0,0,0,.06.88c.8,1.08.73,1,1,1.43l-5.74,1.21a.55.55,0,0,0-.44.83C264.93,127.58,264.29,125.87,264.64,126.83Z"/>
          </g>
          <g>
            <path class="cls-10" d="M38.14,83.72l.89-.77c.58.76,3.27,4.14,4.61,5.83a.64.64,0,0,0,1,.05c1.24-1.38,3.74-4.25,4.68-5.32.66,1.46.72,1.6.82,1.83a1,1,0,0,0,1.06.67c.25,0,8.75-.28,9.15-.28-.22.5-.42,1-.64,1.44s-.19.67.29,1c1.88,1.27,3.22,2.15,3.91,2.63-2,1.16-1,.55-3.55,2A.72.72,0,0,0,60,93.87a16.81,16.81,0,0,1,.69,1.63c-.39-.08-1.14-.22-4.82-.69-.46-.06-.82.05-.92.32s.11.65.37.87l6.09,4.86a13.47,13.47,0,0,1-2.1.54c-.76.19-1,.51-.78,1.26,1.25,5.56,1,4.67,1.15,5.13-.44-.16.46.18-5-1.89a.85.85,0,0,0-1.28.55c-.4.94-.68,1.74-.85,2.08C51,105.82,50.51,105,48.75,102c-.41-.7-1-.94-1.26-.31-.19.44-.08,1.63-.18,5.43-.42-.27-.82-.51-1.2-.78-.86-.63-1.08-.42-1.6.28-.12.16-2.07,2.76-2.27,3-.36-.7-1-2-2-4.17-.29-.6-.42-.65-1.05-.46l-1.42.4c.07-.66,1.54-8.72,1.59-9.16a.92.92,0,0,0-.45-.94c-1.34-.86-1.23-.77-1.77-1.13L43,90.28a.65.65,0,0,0,.13-1.1C37.5,83,38.94,84.63,38.14,83.72Z"/>
            <path class="cls-5" d="M38,83.51l.89-.77c.58.76,3.27,4.14,4.61,5.83a.64.64,0,0,0,1,.05c1.24-1.38,3.74-4.25,4.68-5.32.65,1.46.72,1.6.82,1.83a1,1,0,0,0,1.06.67c.25,0,8.75-.28,9.15-.28-.22.5-.42,1-.64,1.44s-.19.67.29,1c1.88,1.27,3.22,2.15,3.91,2.63-2,1.16-1,.55-3.55,2a.72.72,0,0,0-.36,1.11,16.17,16.17,0,0,1,.69,1.63c-.39-.08-1.14-.22-4.82-.69-.46-.06-.83.05-.92.32s.11.65.37.87l6.09,4.86a13.74,13.74,0,0,1-2.1.54c-.76.19-1,.51-.78,1.26,1.25,5.57,1,4.67,1.15,5.13-.44-.16.46.18-5-1.89a.85.85,0,0,0-1.28.55c-.4.94-.68,1.74-.85,2.08-1.61-2.72-2.08-3.58-3.84-6.58-.41-.7-1-.94-1.26-.31-.19.44-.08,1.63-.19,5.43-.42-.27-.82-.51-1.19-.78-.86-.62-1.08-.42-1.61.29-.12.16-2.06,2.76-2.26,3-.36-.7-1-2-2-4.17-.29-.6-.42-.65-1.05-.46l-1.42.4c.07-.66,1.54-8.72,1.59-9.16A.93.93,0,0,0,38.8,95c-1.34-.86-1.23-.77-1.77-1.13l5.83-3.78A.65.65,0,0,0,43,89C37.39,82.81,38.83,84.42,38,83.51Z"/>
          </g>
          <g>
            <path class="cls-11" d="M33,152.05l-.51-2.3c1.89-.31,10.39-1.84,14.66-2.61a1.29,1.29,0,0,0,1.05-1.74c-1.25-3.49-4-10.63-5-13.3,3.19.22,3.5.25,4,.3a2,2,0,0,0,2.18-1.23c.22-.44,7.8-15.7,8.19-16.4.67.86,1.31,1.67,1.93,2.49s1,1,2,.44c4-2.1,6.85-3.65,8.35-4.41.1,4.71,0,2.25.11,8.12,0,1.17.44,1.61,1.63,1.69a33.68,33.68,0,0,1,3.54.33c-.51.62-1.47,1.81-5.79,7.86-.55.76-.69,1.51-.31,1.93.56.62,1.25.44,1.89.17,2.4-1,4-1.68,14.34-6.14-.14,1,.14-.48-1,4.22-.38,1.52,0,2.16,1.48,2.57,11,3.08,9.22,2.58,10.14,2.85-.7.63.75-.63-8,7a1.7,1.7,0,0,0-.24,2.79c1.29,1.6,2.42,2.85,2.86,3.46-6.32.25-8.3.28-15.25.54-1.62.06-2.6.85-1.74,1.92.59.74,2.8,1.68,9.4,5.47-.88.49-1.68,1-2.51,1.37-1.92.92-1.76,1.51-1,3.1.17.36,2.91,6.26,3.06,6.8-1.57,0-4.41-.21-9.27-.41-1.34-.06-1.55.13-1.82,1.42-.2.94-.42,1.87-.64,2.89-1.09-.75-13.91-11-14.64-11.49a1.84,1.84,0,0,0-2.09-.11c-2.78,1.55-2.51,1.44-3.67,2-.81-9.91-.94-11.58-1.14-13.87a1.31,1.31,0,0,0-1.82-1.28C31.12,152.53,35.33,151.53,33,152.05Z"/>
            <path class="cls-5" d="M32.49,152l-.51-2.3c1.89-.31,10.39-1.84,14.66-2.61a1.29,1.29,0,0,0,1.05-1.74c-1.25-3.49-4-10.63-5-13.3,3.19.22,3.5.25,4,.3a2,2,0,0,0,2.18-1.24c.22-.44,7.8-15.7,8.19-16.4.67.86,1.31,1.67,1.92,2.49s1,1,2,.44c4-2.1,6.85-3.65,8.35-4.41.1,4.71,0,2.25.11,8.12,0,1.17.44,1.61,1.63,1.68a33.2,33.2,0,0,1,3.54.33c-.51.62-1.47,1.81-5.79,7.86-.54.76-.69,1.51-.31,1.93.56.62,1.25.43,1.89.17,2.4-1,4-1.68,14.35-6.14-.14,1,.14-.48-1,4.22-.38,1.51,0,2.16,1.48,2.57l10.14,2.85c-.7.63.75-.63-8,7a1.71,1.71,0,0,0-.24,2.79c1.29,1.59,2.42,2.85,2.86,3.46-6.32.25-8.3.28-15.25.53-1.62.06-2.6.86-1.74,1.92.59.74,2.8,1.68,9.4,5.48-.88.48-1.68,1-2.51,1.36-1.92.93-1.76,1.51-1,3.1.17.36,2.91,6.26,3.06,6.8-1.57,0-4.41-.21-9.27-.41-1.34-.06-1.55.13-1.82,1.42-.2.94-.42,1.87-.64,2.89-1.09-.75-13.91-11-14.64-11.49a1.85,1.85,0,0,0-2.09-.11c-2.78,1.55-2.51,1.44-3.67,2-.81-9.91-.94-11.59-1.14-13.87a1.31,1.31,0,0,0-1.82-1.28C30.65,152.51,34.86,151.51,32.49,152Z"/>
          </g>
          <g>
            <path class="cls-12" d="M114.5,80.91l-2,1.38c-1-1.7-5.76-9.27-8.13-13.07a1.34,1.34,0,0,0-2.07-.34c-2.87,2.54-8.68,7.87-10.86,9.86-1-3.15-1.11-3.45-1.25-4a2.08,2.08,0,0,0-2-1.62c-.51,0-18.06-1.46-18.88-1.56.57-1,1.1-1.89,1.65-2.8s.55-1.34-.36-2.12c-3.56-3-6.13-5.18-7.44-6.32,4.48-1.9,2.14-.91,7.75-3.22,1.12-.46,1.38-1,1-2.21a34.52,34.52,0,0,1-1-3.52c.79.25,2.3.71,9.76,2.54.94.23,1.71.08,2-.45.38-.77-.06-1.37-.56-1.88-1.89-1.92-3.13-3.15-11.4-11.41,1-.26-.51,0,4.45-.61,1.6-.21,2.08-.82,1.9-2.41-1.27-11.73-1.07-9.84-1.16-10.82.87.43-.89-.48,9.78,5a1.76,1.76,0,0,0,2.77-.84c1-1.85,1.81-3.41,2.22-4.07,2.67,6,3.45,7.85,6.37,14.43.67,1.53,1.81,2.16,2.51.93.48-.85.54-3.34,1.64-11.13.8.66,1.57,1.24,2.28,1.88,1.62,1.49,2.12,1.11,3.37-.21.28-.3,4.89-5.2,5.34-5.55.57,1.52,1.49,4.31,3.16,9.05.46,1.31.72,1.44,2.06,1.2,1-.17,2-.32,3-.49-.3,1.33-5.2,17.57-5.41,18.46a1.91,1.91,0,0,0,.69,2C118.16,59.18,118,59,119,59.85c-9.2,4.58-10.75,5.35-12.87,6.42a1.35,1.35,0,0,0-.53,2.24C115.66,82.49,113.08,78.84,114.5,80.91Z"/>
            <path class="cls-5" d="M114.67,81.36l-2,1.38c-1-1.7-5.75-9.27-8.13-13.07a1.33,1.33,0,0,0-2.07-.34c-2.86,2.54-8.68,7.87-10.86,9.86-1-3.15-1.11-3.45-1.25-4a2.08,2.08,0,0,0-2-1.61c-.51,0-18.06-1.46-18.88-1.56.57-1,1.1-1.9,1.65-2.8s.55-1.34-.36-2.12c-3.56-3-6.13-5.18-7.44-6.32,4.48-1.9,2.14-.91,7.75-3.22,1.11-.46,1.38-1,1-2.21a34.22,34.22,0,0,1-1-3.52c.79.25,2.3.71,9.76,2.54.94.23,1.71.08,2-.45.38-.78-.07-1.37-.56-1.88-1.89-1.92-3.13-3.15-11.4-11.41,1-.25-.51,0,4.45-.61,1.6-.21,2.08-.83,1.9-2.41C75.86,25.9,76.06,27.8,76,26.82c.88.42-.89-.48,9.78,5,1.27.66,2.05.44,2.77-.84,1-1.85,1.81-3.41,2.22-4.07,2.67,6,3.45,7.86,6.37,14.43.68,1.53,1.82,2.16,2.51.93.48-.85.54-3.34,1.64-11.12.8.66,1.57,1.24,2.27,1.88,1.63,1.49,2.13,1.11,3.37-.21.28-.3,4.89-5.19,5.35-5.55.57,1.52,1.49,4.31,3.16,9.05.46,1.31.72,1.44,2.06,1.2,1-.17,2-.32,3-.49-.3,1.33-5.2,17.57-5.41,18.46a1.91,1.91,0,0,0,.69,2c2.56,2.07,2.34,1.86,3.37,2.74-9.2,4.58-10.76,5.35-12.87,6.42a1.35,1.35,0,0,0-.53,2.24C115.83,82.94,113.25,79.29,114.67,81.36Z"/>
          </g>
          <g>
            <path class="cls-13" d="M284.83,72.31l.73.3c-.28.58-1.48,3.21-2.09,4.53a.43.43,0,0,0,.28.62c1.2.32,3.68.94,4.6,1.18l-.85,1a.67.67,0,0,0-.08.83c.08.14,2.82,5.14,2.94,5.38l-1.05.05c-.37,0-.46.09-.51.47-.19,1.51-.31,2.58-.39,3.14-1.31-.87-.63-.42-2.25-1.52a.48.48,0,0,0-.77.12,11.26,11.26,0,0,1-.77.91c-.07-.26-.22-.75-1.05-3.09-.11-.3-.28-.48-.47-.45s-.36.26-.41.49c-.18.85-.29,1.41-1.05,5.11-.25-.23.1.13-1-1.09-.34-.4-.59-.41-1-.09L277,92.49c0-.31,0,.33-.38-3.54,0-.46-.25-.63-.72-.6-.68,0-1.24.12-1.5.12,1.14-1.79,1.51-2.33,2.77-4.29.29-.45.26-.88-.2-.85a26.76,26.76,0,0,0-3.3,1.54c0-.34.05-.65.1-1,.11-.7-.08-.77-.66-.87-.13,0-2.28-.4-2.45-.46.31-.42.9-1.17,1.88-2.47.27-.36.26-.45,0-.77l-.67-.73c.41-.16,5.68-1.72,6-1.83a.62.62,0,0,0,.43-.55c.11-1.06.09-1,.14-1.4l4,2.34a.44.44,0,0,0,.7-.25C285,71.71,284.52,73.06,284.83,72.31Z"/>
            <path class="cls-5" d="M284.92,72.18l.73.3c-.28.58-1.48,3.21-2.09,4.53a.43.43,0,0,0,.28.62c1.2.32,3.68.95,4.6,1.18l-.85,1a.67.67,0,0,0-.08.83c.08.14,2.82,5.15,2.94,5.38l-1.05.05c-.37,0-.46.09-.51.47-.19,1.51-.31,2.58-.39,3.14-1.31-.87-.63-.42-2.25-1.52a.48.48,0,0,0-.77.12,11.08,11.08,0,0,1-.77.91c-.07-.26-.22-.75-1.05-3.09-.11-.3-.28-.48-.47-.45s-.36.26-.41.49c-.18.85-.29,1.41-1.05,5.12-.25-.23.1.13-1-1.09-.34-.39-.59-.41-1-.09l-2.72,2.24c0-.31,0,.33-.38-3.54,0-.46-.25-.63-.72-.6-.68,0-1.25.12-1.5.12,1.14-1.79,1.51-2.33,2.77-4.29.29-.46.26-.88-.2-.85a27,27,0,0,0-3.3,1.54c0-.34.05-.64.1-.95.11-.71-.08-.77-.66-.87-.13,0-2.28-.4-2.45-.46.31-.42.9-1.17,1.89-2.47.27-.36.26-.45,0-.77l-.67-.73c.41-.16,5.68-1.72,6-1.83a.62.62,0,0,0,.43-.55c.1-1.06.08-1,.14-1.4l4,2.34a.44.44,0,0,0,.7-.25C285.14,71.59,284.61,72.93,284.92,72.18Z"/>
          </g>
          <g>
            <path class="cls-14" d="M142.39,54.55,140.56,53c1.33-1.42,7.24-7.93,10.21-11.19a1.31,1.31,0,0,0-.23-2.06c-3.17-2-9.78-6.12-12.24-7.66,2.71-1.8,3-2,3.41-2.25a2,2,0,0,0,1-2.34c-.1-.49-3.43-17.5-3.56-18.31,1.08.28,2.09.54,3.1.82s1.42.16,1.91-.91c1.94-4.19,3.27-7.19,4-8.73,3,3.74,1.43,1.79,5.12,6.48a1.46,1.46,0,0,0,2.35.35,34.3,34.3,0,0,1,3.06-1.92c0,.81-.06,2.37.2,9.93,0,1,.38,1.64.95,1.75.83.15,1.28-.43,1.63-1,1.31-2.3,2.15-3.81,7.76-13.84.52.9-.18-.47,1.77,4.05.63,1.46,1.33,1.75,2.79,1.16,10.78-4.33,9-3.64,9.95-4-.17.94.22-1-2.17,10.61-.28,1.38.13,2.06,1.53,2.4,2,.49,3.71.8,4.45,1-4.94,4.12-6.52,5.37-12,9.89-1.27,1-1.56,2.3-.21,2.63.94.23,3.31-.38,11-1.41-.41.94-.75,1.82-1.17,2.66-1,1.94-.49,2.31,1.1,3.13.36.18,6.23,3.25,6.68,3.58-1.29.94-3.68,2.57-7.73,5.41-1.12.78-1.17,1.06-.58,2.27.42.88.82,1.77,1.27,2.73-1.34.08-18-.24-18.93-.2a1.88,1.88,0,0,0-1.75,1.2c-1.28,3-1.14,2.72-1.7,3.92-6.79-7.5-7.94-8.76-9.52-10.48a1.33,1.33,0,0,0-2.26.09C141.2,56.07,144,52.65,142.39,54.55Z"/>
            <path class="cls-5" d="M142,54.83l-1.84-1.53c1.34-1.42,7.25-7.92,10.21-11.19a1.31,1.31,0,0,0-.23-2.05c-3.17-2-9.78-6.13-12.24-7.66,2.71-1.8,3-2,3.42-2.24a2,2,0,0,0,1-2.35c-.1-.49-3.43-17.5-3.56-18.31,1.08.28,2.09.54,3.09.81s1.42.16,1.91-.9c1.94-4.19,3.27-7.19,4-8.73,3,3.73,1.43,1.79,5.12,6.48a1.46,1.46,0,0,0,2.35.35,34,34,0,0,1,3.06-1.92c0,.81-.06,2.37.2,9.92,0,1,.38,1.64,1,1.75.84.15,1.28-.43,1.63-1,1.31-2.3,2.15-3.81,7.77-13.84.51.9-.18-.47,1.77,4.05.63,1.46,1.34,1.75,2.79,1.16,10.78-4.33,9-3.64,9.94-4-.17.94.22-1-2.16,10.61-.28,1.38.13,2.06,1.53,2.4,2,.49,3.72.8,4.45,1-4.94,4.12-6.52,5.37-12,9.88-1.27,1-1.56,2.3-.21,2.63.94.23,3.3-.38,11-1.41-.41.94-.75,1.82-1.17,2.65-1,1.94-.48,2.31,1.1,3.13.36.18,6.23,3.25,6.68,3.58-1.29.94-3.68,2.56-7.73,5.41-1.12.78-1.17,1.06-.59,2.27.42.88.83,1.77,1.27,2.73-1.34.08-18-.24-18.93-.2a1.88,1.88,0,0,0-1.75,1.2c-1.28,3-1.14,2.72-1.7,3.92-6.8-7.5-7.94-8.76-9.52-10.48a1.33,1.33,0,0,0-2.26.09C140.82,56.35,143.59,52.93,142,54.83Z"/>
          </g>
          <g>
            <path class="cls-15" d="M254.25-1.4l1.06-.06c0,.87.08,4.78.11,6.74a.59.59,0,0,0,.7.6c1.65-.31,5-1,6.3-1.26-.33,1.41-.36,1.55-.42,1.77a.91.91,0,0,0,.39,1.06c.18.13,6.46,4.62,6.75,4.84L267.9,13c-.44.23-.51.38-.34.88.65,1.95,1.14,3.33,1.37,4.05-2.11-.29-1-.14-3.64-.53-.52-.08-.75.08-.87.61a15.26,15.26,0,0,1-.4,1.56c-.24-.27-.7-.79-3.1-3.15-.3-.3-.62-.42-.84-.28s-.29.53-.21.83c.28,1.15.47,1.89,1.72,6.86a12.21,12.21,0,0,1-1.81-.77c-.65-.28-1-.16-1.26.48-2.17,4.7-1.82,3.94-2,4.33-.23-.36.23.38-2.54-4.1a.77.77,0,0,0-1.23-.31c-.81.46-1.45.88-1.75,1,.34-2.85.47-3.73.86-6.86.09-.73-.19-1.22-.73-.92-.37.21-1,1.13-3.12,3.81-.15-.43-.31-.82-.43-1.22-.28-.93-.55-.9-1.31-.68-.17,0-3,.85-3.26.88.13-.7.41-2,.85-4.12.12-.59.05-.7-.51-.91l-1.25-.5c.41-.44,5.91-5.43,6.19-5.72a.83.83,0,0,0,.2-.93c-.49-1.35-.46-1.23-.65-1.79L254.1,6a.59.59,0,0,0,.7-.72C254.17-2.26,254.31-.3,254.25-1.4Z"/>
            <path class="cls-5" d="M254.28-1.61l1.06-.06c0,.87.07,4.78.11,6.74a.58.58,0,0,0,.7.6c1.65-.31,5-1,6.3-1.26-.33,1.41-.36,1.55-.42,1.77a.91.91,0,0,0,.4,1.06c.18.13,6.46,4.62,6.75,4.84l-1.25.68c-.44.23-.51.38-.34.88.65,1.95,1.14,3.33,1.37,4.05-2.11-.29-1-.14-3.64-.54-.52-.08-.75.08-.87.61a14.79,14.79,0,0,1-.4,1.56c-.24-.27-.7-.79-3.1-3.15-.3-.3-.62-.41-.84-.27s-.29.53-.21.83c.28,1.15.47,1.89,1.72,6.86a12.38,12.38,0,0,1-1.81-.77c-.65-.28-1-.16-1.26.48-2.17,4.7-1.82,3.94-2,4.33-.23-.36.23.38-2.54-4.1a.77.77,0,0,0-1.23-.31c-.8.46-1.45.88-1.75,1,.34-2.85.47-3.73.86-6.86.09-.73-.2-1.22-.74-.92-.37.21-1,1.13-3.12,3.81-.15-.43-.31-.82-.43-1.22-.28-.93-.55-.9-1.31-.68-.17,0-3,.85-3.26.88.13-.7.41-2,.85-4.11.12-.59.05-.7-.5-.91l-1.25-.5c.41-.44,5.91-5.43,6.19-5.72a.84.84,0,0,0,.2-.93c-.49-1.35-.46-1.23-.65-1.79l6.28.49a.59.59,0,0,0,.71-.72C254.2-2.46,254.35-.51,254.28-1.61Z"/>
          </g>
          <g>
            <path class="cls-16" d="M229.88,23.5l-1.67.93c-.68-1.4-3.85-7.68-5.44-10.83a1.05,1.05,0,0,0-1.6-.42c-2.43,1.79-7.37,5.55-9.22,7-.57-2.54-.62-2.78-.7-3.19a1.64,1.64,0,0,0-1.47-1.41c-.4-.07-14.05-2.44-14.69-2.58.52-.72,1-1.41,1.49-2.08s.53-1-.13-1.69c-2.57-2.64-4.43-4.5-5.37-5.49,3.65-1.17,1.74-.56,6.31-2,.91-.28,1.16-.72.94-1.66a27.3,27.3,0,0,1-.56-2.83c.6.25,1.75.72,7.47,2.69.72.25,1.33.19,1.58-.21.35-.58,0-1.08-.31-1.51-1.35-1.64-2.23-2.69-8.12-9.76.82-.13-.4,0,3.53-.16,1.27-.05,1.69-.5,1.66-1.75-.15-9.29-.13-7.79-.13-8.57.65.4-.67-.44,7.3,4.65a1.39,1.39,0,0,0,2.23-.46c.95-1.37,1.66-2.55,2-3,1.67,4.87,2.14,6.4,4,11.77.42,1.25,1.27,1.83,1.9.91.44-.63.66-2.58,2.08-8.6.58.58,1.14,1.08,1.65,1.64,1.17,1.28,1.58,1,2.65.08.24-.21,4.21-3.72,4.59-4,.34,1.23.86,3.49,1.83,7.32.27,1.06.46,1.18,1.53,1.09l2.4-.17c-.33,1-5.33,13.4-5.56,14.08a1.5,1.5,0,0,0,.4,1.65c1.86,1.81,1.7,1.63,2.44,2.39-7.54,2.93-8.81,3.42-10.55,4.11a1.06,1.06,0,0,0-.58,1.71C230.67,24.82,228.92,21.77,229.88,23.5Z"/>
            <path class="cls-5" d="M230,23.86l-1.67.93c-.68-1.4-3.85-7.68-5.44-10.83a1,1,0,0,0-1.6-.42c-2.43,1.79-7.37,5.55-9.22,7-.56-2.54-.62-2.78-.7-3.19a1.64,1.64,0,0,0-1.47-1.41c-.4-.07-14.05-2.44-14.69-2.58.52-.72,1-1.41,1.49-2.08s.53-1-.13-1.69c-2.57-2.64-4.43-4.5-5.38-5.49,3.65-1.17,1.75-.56,6.31-2,.91-.28,1.15-.72.94-1.66a27,27,0,0,1-.56-2.83c.6.25,1.75.72,7.47,2.69.72.25,1.33.19,1.58-.21.35-.58,0-1.08-.31-1.51-1.35-1.64-2.23-2.69-8.12-9.76.82-.13-.4,0,3.53-.16,1.27-.05,1.69-.5,1.66-1.75-.15-9.29-.13-7.79-.14-8.57.66.39-.66-.44,7.31,4.65a1.39,1.39,0,0,0,2.23-.46c.95-1.37,1.66-2.55,2-3,1.67,4.87,2.14,6.41,4,11.77.42,1.25,1.27,1.83,1.91.91.44-.63.66-2.58,2.08-8.6.58.58,1.14,1.08,1.65,1.64,1.17,1.28,1.59,1,2.66.08.24-.21,4.2-3.72,4.59-4,.34,1.23.86,3.48,1.83,7.32.26,1.06.46,1.18,1.53,1.09l2.4-.17c-.33,1-5.33,13.4-5.56,14.08a1.5,1.5,0,0,0,.4,1.65c1.86,1.81,1.71,1.63,2.45,2.39-7.54,2.93-8.82,3.42-10.55,4.11a1.06,1.06,0,0,0-.58,1.72C230.77,25.19,229,22.14,230,23.86Z"/>
          </g>
          <g>
            <path class="cls-17" d="M42.51,63l-.14,1.33c-1.07-.18-5.92-.89-8.35-1.24a.73.73,0,0,0-.88.75c0,2.1.21,6.43.27,8L31.3,71a1.14,1.14,0,0,0-1.39.27c-.2.2-7,7-7.36,7.34-.21-.59-.4-1.13-.59-1.69s-.37-.71-1-.6c-2.54.41-4.34.73-5.29.86.8-2.55.38-1.22,1.41-4.39.2-.63.05-.95-.57-1.2a19,19,0,0,1-1.84-.82c.38-.24,1.12-.71,4.53-3.18.43-.31.64-.69.51-1s-.6-.46-1-.43l-8.82.71a15.16,15.16,0,0,1,1.32-2.08c.48-.75.39-1.16-.33-1.65L6,59.84c.49-.21-.52.2,5.58-2.3a1,1,0,0,0,.63-1.45c-.4-1.09-.79-2-.91-2.38,3.45,1,4.51,1.35,8.3,2.46.88.26,1.55,0,1.28-.72-.18-.51-1.21-1.41-4.07-4.64.56-.1,1.08-.22,1.59-.28,1.2-.15,1.22-.49,1.11-1.48,0-.22-.44-3.89-.42-4.21.84.3,2.33.91,4.91,1.89.71.27.85.21,1.23-.44.28-.47.56-.93.87-1.44.45.6,5.5,8.41,5.8,8.82a1,1,0,0,0,1.1.44c1.77-.33,1.61-.32,2.34-.43-1.35,5.48-1.59,6.4-1.89,7.66a.74.74,0,0,0,.75,1C43.58,63.11,41.14,62.89,42.51,63Z"/>
            <path class="cls-5" d="M42.76,63.13l-.14,1.33c-1.07-.18-5.92-.89-8.35-1.24a.73.73,0,0,0-.88.74c0,2.1.21,6.43.27,8l-2.1-.88a1.14,1.14,0,0,0-1.39.27c-.2.2-7,7-7.36,7.34-.2-.58-.4-1.13-.59-1.68s-.37-.71-1-.6c-2.54.41-4.34.72-5.29.86.8-2.55.38-1.22,1.41-4.39.2-.63.05-.95-.57-1.2a18.71,18.71,0,0,1-1.84-.82c.38-.24,1.11-.71,4.53-3.18.43-.31.64-.69.51-1s-.59-.46-1-.43L10.15,67a15.57,15.57,0,0,1,1.33-2.08c.48-.75.39-1.16-.33-1.65L6.2,59.93c.49-.22-.52.2,5.58-2.3a1,1,0,0,0,.63-1.46c-.4-1.09-.79-2-.91-2.38,3.44,1,4.51,1.35,8.3,2.46.88.26,1.55,0,1.28-.72-.18-.5-1.2-1.41-4.07-4.64.56-.1,1.08-.22,1.59-.28,1.2-.15,1.22-.49,1.11-1.48,0-.22-.44-3.89-.42-4.21.84.3,2.33.91,4.91,1.89.71.27.85.21,1.23-.43.27-.47.56-.93.87-1.44.45.6,5.5,8.41,5.8,8.82a1,1,0,0,0,1.1.44c1.77-.33,1.61-.32,2.34-.43-1.35,5.47-1.58,6.4-1.89,7.66a.74.74,0,0,0,.75,1C43.83,63.21,41.39,63,42.76,63.13Z"/>
          </g>
          <g>
            <path class="cls-18" d="M207,62.81l.44-2c1.59.45,8.8,2.35,12.41,3.3a1.11,1.11,0,0,0,1.46-1c.29-3.18.78-9.75,1-12.2,2.41,1.34,2.64,1.46,3,1.69a1.73,1.73,0,0,0,2.15-.17c.33-.27,11.82-9.43,12.38-9.84.21.92.41,1.78.6,2.65s.43,1.13,1.43,1.08c3.91-.18,6.68-.36,8.13-.4-1.64,3.72-.79,1.78-2.87,6.39a1.24,1.24,0,0,0,.66,1.91,29.16,29.16,0,0,1,2.64,1.55c-.62.3-1.81.88-7.39,4-.7.4-1.09.93-.94,1.4.21.69.82.8,1.41.82,2.25.08,3.71.13,13.45.42-.48.74.28-.32-2.35,2.91-.85,1-.79,1.69.22,2.55,7.48,6.41,6.27,5.38,6.89,5.92-.77.24.82-.22-8.83,2.52a1.47,1.47,0,0,0-1.2,2.09c.42,1.72.85,3.11,1,3.75-5-2.1-6.59-2.8-12.12-5.14-1.29-.55-2.34-.28-2.06.87.19.8,1.58,2.34,5.36,7.7-.87.06-1.66.15-2.46.16-1.84,0-1.92.54-1.93,2,0,.34,0,6-.08,6.43-1.21-.6-3.37-1.77-7.1-3.7-1-.53-1.26-.46-1.94.45-.5.66-1,1.31-1.56,2-.58-1-6.87-13.65-7.26-14.32a1.59,1.59,0,0,0-1.59-.85c-2.74.2-2.49.21-3.62.26,3-8,3.48-9.4,4.16-11.26a1.13,1.13,0,0,0-1-1.66C205.44,62.51,209.09,63.26,207,62.81Z"/>
            <path class="cls-5" d="M206.69,62.63l.44-2c1.59.45,8.79,2.35,12.41,3.3A1.11,1.11,0,0,0,221,63c.29-3.18.78-9.75,1-12.2,2.41,1.34,2.64,1.47,3,1.69a1.73,1.73,0,0,0,2.15-.17c.33-.27,11.82-9.43,12.38-9.84.21.92.42,1.78.6,2.65s.43,1.13,1.43,1.09c3.91-.18,6.69-.36,8.13-.4-1.64,3.71-.79,1.77-2.87,6.39a1.24,1.24,0,0,0,.66,1.91,28.49,28.49,0,0,1,2.64,1.55c-.62.3-1.8.88-7.39,4-.7.4-1.09.93-.94,1.4.21.69.82.79,1.41.82,2.25.08,3.71.13,13.45.42-.48.74.28-.32-2.36,2.91-.85,1-.79,1.69.22,2.55,7.48,6.41,6.27,5.37,6.89,5.92-.77.24.82-.22-8.83,2.52-1.15.32-1.5.91-1.2,2.09.43,1.71.85,3.11,1,3.75-5-2.1-6.59-2.81-12.12-5.14-1.29-.54-2.34-.28-2.06.87.19.79,1.58,2.33,5.36,7.7-.87.06-1.66.14-2.46.15-1.84,0-1.93.54-1.93,2.05,0,.34,0,6-.08,6.43-1.21-.6-3.37-1.77-7.09-3.7-1-.53-1.26-.46-1.94.45-.5.66-1,1.31-1.56,2-.58-1-6.87-13.65-7.26-14.32a1.59,1.59,0,0,0-1.59-.85c-2.74.2-2.49.21-3.62.26,3-8,3.48-9.4,4.16-11.26a1.13,1.13,0,0,0-1-1.66C205.08,62.33,208.73,63.08,206.69,62.63Z"/>
          </g>
          <g>
            <path class="cls-19" d="M102-5.78l.47-.74c.58.42,3.22,2.27,4.54,3.19a.48.48,0,0,0,.74-.18c.59-1.25,1.77-3.84,2.22-4.8l1,1.14a.75.75,0,0,0,.9.25C112-7,118.07-9,118.36-9.06c-.05.4-.1.78-.15,1.16s0,.52.42.65c1.61.51,2.76.85,3.36,1.05-1.22,1.26-.58.6-2.12,2.16a.54.54,0,0,0,0,.87,12.38,12.38,0,0,1,.84,1c-.3,0-.86.09-3.6.53-.34.06-.58.21-.59.43s.21.45.45.54l5.39,2.18a9.93,9.93,0,0,1-1.39.83c-.5.3-.57.57-.29,1.07,2.08,3.72,1.74,3.12,1.91,3.43l-4-.3c-.51,0-.74.15-.8.67-.08.76-.12,1.39-.16,1.67-1.73-1.61-2.25-2.12-4.15-3.9-.44-.41-.91-.46-1,0a30,30,0,0,0,1,3.93c-.36-.11-.7-.19-1-.3-.75-.27-.86-.07-1.09.54,0,.14-.89,2.41-1,2.6-.4-.42-1.1-1.22-2.33-2.56-.34-.37-.44-.37-.85-.11l-.93.59c-.09-.48-.75-6.57-.8-6.89a.69.69,0,0,0-.52-.58c-1.14-.33-1-.29-1.5-.44l3.37-3.94a.49.49,0,0,0-.14-.82C101.42-6.15,102.79-5.3,102-5.78Z"/>
            <path class="cls-5" d="M101.91-5.91l.47-.74c.58.42,3.22,2.27,4.54,3.2a.48.48,0,0,0,.74-.18c.59-1.25,1.77-3.84,2.22-4.8l1,1.14a.75.75,0,0,0,.9.25c.17-.06,6.2-2.06,6.49-2.14-.05.4-.1.78-.15,1.16s0,.52.42.65c1.61.51,2.76.86,3.36,1.05-1.22,1.26-.58.6-2.12,2.16a.54.54,0,0,0,0,.87,12.48,12.48,0,0,1,.84,1c-.3,0-.86.09-3.6.53-.34.06-.58.21-.59.43s.21.44.45.54l5.39,2.18a10.37,10.37,0,0,1-1.39.83c-.5.3-.57.57-.29,1.07l1.91,3.43-4-.3c-.51,0-.74.14-.8.67-.08.76-.12,1.39-.16,1.66-1.73-1.61-2.25-2.12-4.15-3.9-.44-.41-.91-.46-1,0a30.09,30.09,0,0,0,1,3.93c-.36-.11-.7-.19-1-.3-.75-.26-.86-.07-1.09.54,0,.14-.89,2.41-1,2.6-.4-.42-1.1-1.22-2.33-2.56-.33-.37-.44-.38-.85-.11l-.93.59c-.09-.48-.75-6.56-.8-6.89a.69.69,0,0,0-.52-.58c-1.14-.33-1-.29-1.5-.44l3.37-3.94a.49.49,0,0,0-.14-.82C101.3-6.27,102.67-5.42,101.91-5.91Z"/>
          </g>
          <g>
            <path class="cls-20" d="M167.9,143l.73-2c1.61.69,8.94,3.68,12.62,5.18a1.18,1.18,0,0,0,1.67-.83c.74-3.31,2.16-10.16,2.69-12.72,2.36,1.74,2.59,1.91,3,2.19a1.84,1.84,0,0,0,2.29.11c.39-.24,13.74-8.32,14.38-8.67.09,1,.19,1.93.27,2.87s.3,1.25,1.36,1.34c4.14.34,7.09.54,8.62.69-2.23,3.69-1.07,1.76-3.9,6.33a1.32,1.32,0,0,0,.43,2.1,30.88,30.88,0,0,1,2.57,2c-.7.23-2,.68-8.33,3.24-.79.32-1.27.83-1.18,1.34.13.75.76,1,1.38,1.06,2.35.4,3.88.64,14.11,2.29-.61.72.34-.3-2.88,2.75-1,1-1.07,1.67-.12,2.72,7,7.78,5.87,6.52,6.45,7.18-.85.15.89-.12-9.64,1.45-1.25.19-1.7.75-1.55,2,.21,1.87.47,3.39.51,4.08-5-2.91-6.56-3.86-12.06-7.07-1.28-.75-2.43-.61-2.29.63.09.87,1.34,2.68,4.59,8.85-.92-.06-1.77-.07-2.61-.17-1.94-.23-2.1.3-2.31,1.9,0,.36-.82,6.27-1,6.76-1.2-.8-3.31-2.32-7-4.87-1-.7-1.26-.66-2.1.21-.61.63-1.24,1.24-1.92,1.92-.48-1.11-5.37-15.32-5.68-16.07a1.69,1.69,0,0,0-1.56-1.11c-2.91-.16-2.65-.12-3.84-.22,4.24-8.06,5-9.42,5.92-11.29a1.2,1.2,0,0,0-.78-1.88C166.24,142.5,170,143.79,167.9,143Z"/>
            <path class="cls-5" d="M167.54,142.8l.73-2c1.61.69,8.94,3.68,12.62,5.18a1.18,1.18,0,0,0,1.67-.83c.74-3.31,2.16-10.16,2.69-12.72,2.36,1.74,2.58,1.91,3,2.2a1.84,1.84,0,0,0,2.29.11c.39-.23,13.74-8.31,14.38-8.67.09,1,.19,1.93.27,2.87s.3,1.25,1.36,1.34c4.14.34,7.09.54,8.63.69-2.23,3.69-1.07,1.76-3.9,6.34a1.32,1.32,0,0,0,.43,2.1,30.68,30.68,0,0,1,2.57,2c-.7.23-2,.68-8.33,3.24-.8.32-1.27.83-1.18,1.34.13.75.76,1,1.38,1.06,2.35.4,3.88.64,14.11,2.29-.61.71.34-.3-2.88,2.75-1,1-1.06,1.67-.12,2.72,7,7.78,5.87,6.52,6.45,7.18-.85.15.89-.12-9.65,1.45-1.25.19-1.7.75-1.55,2,.21,1.86.47,3.39.51,4.08-5-2.91-6.55-3.86-12.06-7.07-1.28-.75-2.43-.61-2.29.63.09.86,1.34,2.68,4.59,8.85-.92-.06-1.77-.08-2.61-.17-1.94-.22-2.1.31-2.31,1.9,0,.36-.82,6.27-1,6.76-1.19-.8-3.31-2.32-7-4.87-1-.7-1.26-.66-2.1.21-.61.63-1.24,1.25-1.92,1.92-.48-1.11-5.37-15.32-5.68-16.07a1.69,1.69,0,0,0-1.56-1.11c-2.91-.16-2.65-.12-3.84-.22,4.24-8.06,5-9.42,5.92-11.29a1.2,1.2,0,0,0-.78-1.88C165.89,142.26,169.63,143.55,167.54,142.8Z"/>
          </g>
          <g>
            <path class="cls-21" d="M185.71,95.54l1.07-.64c.47.9,2.67,4.94,3.78,7a.69.69,0,0,0,1.06.24c1.55-1.22,4.7-3.78,5.88-4.73.42,1.65.46,1.81.52,2.07a1.07,1.07,0,0,0,1,.89c.26,0,9.24,1.3,9.66,1.38-.32.48-.62.94-.93,1.39s-.32.67.12,1.1c1.74,1.67,3,2.85,3.63,3.48-2.36.84-1.13.4-4.08,1.42-.59.2-.74.49-.58,1.1a17.87,17.87,0,0,1,.42,1.84c-.4-.15-1.16-.44-4.94-1.6-.48-.15-.88-.09-1,.17s0,.71.23,1c.91,1,1.51,1.72,5.51,6.21a14.3,14.3,0,0,1-2.3.18c-.83.06-1.09.36-1.05,1.18.29,6.07.25,5.09.26,5.6-.43-.25.45.27-4.87-2.89a.91.91,0,0,0-1.45.35c-.59.92-1,1.7-1.27,2-1.19-3.15-1.53-4.14-2.83-7.61-.3-.81-.87-1.17-1.26-.56-.28.42-.38,1.7-1.19,5.67-.39-.37-.77-.68-1.11-1-.79-.81-1.06-.64-1.74,0-.15.14-2.67,2.52-2.92,2.69-.25-.8-.64-2.26-1.35-4.75-.2-.69-.32-.76-1-.68l-1.57.16c.19-.68,3.21-8.87,3.34-9.32a1,1,0,0,0-.29-1.07c-1.25-1.14-1.15-1-1.65-1.51l6.81-2.91a.7.7,0,0,0,.34-1.13C185.16,94.69,186.38,96.64,185.71,95.54Z"/>
            <path class="cls-5" d="M185.64,95.3l1.07-.64c.47.9,2.67,4.94,3.78,7a.69.69,0,0,0,1.05.24c1.55-1.22,4.7-3.78,5.88-4.73.42,1.65.46,1.81.52,2.07a1.07,1.07,0,0,0,1,.89c.26,0,9.24,1.3,9.66,1.38-.32.48-.62.94-.93,1.39s-.32.67.12,1.1c1.74,1.67,3,2.85,3.63,3.48-2.36.84-1.13.4-4.08,1.42-.59.2-.74.49-.58,1.1a17.63,17.63,0,0,1,.42,1.84c-.4-.15-1.16-.44-4.94-1.6-.48-.15-.88-.09-1,.17s0,.71.23,1c.91,1,1.51,1.72,5.51,6.21a14.59,14.59,0,0,1-2.31.18c-.83.06-1.09.36-1.05,1.18.29,6.07.25,5.09.27,5.6-.44-.24.44.28-4.87-2.89a.91.91,0,0,0-1.45.35c-.59.92-1,1.7-1.27,2-1.19-3.15-1.53-4.14-2.83-7.61-.3-.81-.87-1.17-1.26-.56-.28.42-.38,1.7-1.19,5.67-.39-.36-.77-.68-1.11-1-.79-.81-1.06-.64-1.74,0-.15.14-2.67,2.52-2.92,2.69-.25-.8-.64-2.26-1.35-4.75-.2-.69-.32-.76-1-.68l-1.57.16c.19-.68,3.21-8.87,3.35-9.32a1,1,0,0,0-.29-1.07c-1.25-1.14-1.15-1-1.65-1.51l6.81-2.9a.7.7,0,0,0,.34-1.13C185.09,94.45,186.3,96.4,185.64,95.3Z"/>
          </g>
        </g>
      </g>
      <g>
        <circle class="cls-22" cx="151.74" cy="80.79" r="47.8" transform="translate(-2.79 5.47) rotate(-2.05)"/>
        <path class="cls-23" d="M154,113.61l-2.39.08c0-1.94.1-10.73.13-15.13a1.31,1.31,0,0,0-1.54-1.38c-3.72.6-11.36,2-14.21,2.47.82-3.15.9-3.45,1-3.95a2,2,0,0,0-.83-2.4c-.4-.3-14.23-10.72-14.86-11.24,1-.51,1.91-1,2.84-1.46s1.16-.82.82-2c-1.35-4.4-2.37-7.52-2.85-9.16,4.72.78,2.26.37,8.13,1.4,1.17.21,1.69-.14,2-1.31a34.06,34.06,0,0,1,1-3.47c.52.62,1.53,1.8,6.77,7.25.66.69,1.38,1,1.87.67.73-.44.67-1.17.52-1.86-.56-2.59-.94-4.26-3.46-15.47,1,.33-.45-.23,4,1.83,1.44.67,2.16.41,2.85-1,5.12-10.41,4.29-8.73,4.73-9.6.5.81-.49-.87,5.47,9.33a1.74,1.74,0,0,0,2.74.76c1.83-1,3.29-1.88,4-2.21-.92,6.36-1.27,8.34-2.31,15.34-.24,1.63.37,2.75,1.6,2.1.85-.45,2.2-2.49,7.22-8.37.32,1,.65,1.85.9,2.76.57,2.09,1.18,2,2.91,1.6.39-.1,6.8-1.74,7.36-1.79-.32,1.56-1,4.36-2.14,9.18-.31,1.33-.16,1.57,1.08,2.08.9.37,1.79.76,2.77,1.18-.95,1-13.56,11.85-14.21,12.48a1.88,1.88,0,0,0-.5,2.06c1,3.07,1,2.78,1.36,4.05-10.05-1-11.75-1.22-14.07-1.44a1.33,1.33,0,0,0-1.62,1.58C154.12,115.53,153.91,111.14,154,113.61Z"/>
      </g>
    </g>
  </g>
</svg>
