<svg id="Layer_1" data-name="Layer 1" xmlns="http://www.w3.org/2000/svg" xmlns:xlink="http://www.w3.org/1999/xlink" viewBox="0 0 300 150">
  <defs>
    <style>
      .cls-1, .cls-23 {
        fill: none;
      }

      .cls-2 {
        clip-path: url(#clip-path);
      }

      .cls-3 {
        fill: #6d9781;
      }

      .cls-4 {
        clip-path: url(#clip-path-2);
      }

      .cls-5 {
        fill: #5c816d;
      }

      .cls-6 {
        fill: #e9ebea;
      }

      .cls-7 {
        fill: #343030;
      }

      .cls-8 {
        fill: #45494c;
      }

      .cls-12, .cls-16, .cls-9 {
        fill: #fff;
      }

      .cls-15, .cls-9 {
        opacity: 0.1;
      }

      .cls-10 {
        fill: #595758;
      }

      .cls-11 {
        fill: #cbccce;
      }

      .cls-13 {
        fill: #a4a5a8;
      }

      .cls-14 {
        fill: url(#linear-gradient);
      }

      .cls-16, .cls-17, .cls-18, .cls-19, .cls-21 {
        fill-rule: evenodd;
      }

      .cls-17 {
        fill: #b4b4b4;
      }

      .cls-18 {
        fill: #d2d3d4;
      }

      .cls-19 {
        fill: #576774;
      }

      .cls-20, .cls-21 {
        fill: #ccc;
      }

      .cls-22 {
        clip-path: url(#clip-path-3);
      }

      .cls-23 {
        stroke: #0090cf;
        stroke-miterlimit: 10;
      }
    </style>
    <clipPath id="clip-path">
      <rect class="cls-1" width="300" height="150"/>
    </clipPath>
    <clipPath id="clip-path-2">
      <polygon class="cls-1" points="300 150 0 150 0 0 300.34 0 300 150"/>
    </clipPath>
    <linearGradient id="linear-gradient" x1="-508.84" y1="94.91" x2="-508.84" y2="95.34" gradientTransform="translate(739.71 -17.76)" gradientUnits="userSpaceOnUse">
      <stop offset="0" stop-color="#b6b7b7"/>
      <stop offset="0.41" stop-color="#b4b5b5"/>
      <stop offset="0.62" stop-color="#acadae"/>
      <stop offset="0.77" stop-color="#9fa0a1"/>
      <stop offset="0.91" stop-color="#8d8e90"/>
      <stop offset="1" stop-color="#7a7c7e"/>
    </linearGradient>
    <clipPath id="clip-path-3">
      <rect class="cls-1" x="-1737.28" y="951.91" width="300" height="150"/>
    </clipPath>
  </defs>
  <title>Computer and Tech</title>
  <g class="cls-2">
    <g>
      <polygon class="cls-3" points="300 150 0 150 0 0 300.34 0 300 150"/>
      <g class="cls-4">
        <g>
          <path class="cls-5" d="M4.8-57.56H6.49C8-48.82,10.66-40.34,7.75-31.25,6.87-28.5,5.59-25.77,5.36-23,5.12-20,6.1-17,7-14,23.18,41.4,2.19,98.62,9.75,154.78c.62,4.61,1.4,9.36,1,14H8.16c1.94-9.26-1.46-18.93-2.71-28.39C4.4,132.41,4.9,124,4.82,115.9c-.08-9.53.62-19.06,1.49-28.58,1.75-19,4.24-38.12,2.57-57.2-.43-5-1.14-10-1.1-14.95C7.85,7.74,9.63.25,7.74-7.08,6.39-12.26,3.22-17.31,3.49-22.57,3.71-26.89,6.23-31,7.15-35.29c1-4.63.06-9.33-.93-14C5.64-51.93,5.34-54.75,4.8-57.56Z"/>
          <path class="cls-5" d="M13.54-57.56h2.77l3.51,36.15c.77,7.91.39,15.62.2,23.55a83.9,83.9,0,0,0,1.21,13.24,344,344,0,0,1,3,38.71,8.82,8.82,0,0,1-1.09,5.25c-.81,1.24-2.15,2.31-3,3.54-1.44,2.18-1.05,4.66-.7,7a179,179,0,0,1,1.69,37.66c-.34,5.55-1.63,11.19-.88,16.73.72,5.35,3.31,10.64,2.31,16.06-.57,3.07-2.3,6-2.91,9.08-1.3,6.45,2.4,12.88,3.79,19.31H17.58a40.06,40.06,0,0,0-.06-6.17c-.65-4.32-1-8.64-1.24-13-.21-3.46,1.88-5.51,2.8-8.79.74-2.62-1.42-5.22-1.57-7.88a19.91,19.91,0,0,1,.59-4.12c.53-3.51-.56-7-.92-10.47-.32-3.18.7-6,1.08-9.11.81-6.71,1.45-13.88.38-20.6-1-6.49.92-12.89-1.37-19.4-.63-1.8-1.46-3.69-.59-5.46a13.37,13.37,0,0,1,2-2.52c4.76-5.49,2.54-11.46,1.61-17.32S20.13,32.07,20,26.23c-.11-5-.28-10.1-.7-15.14C19,7.59,17,4.68,17.92,1.15a19.31,19.31,0,0,0,.29-5.62c-.27-6-.55-12-2.24-17.91-2.25-7.84-2.47-14.93-2.12-22.9A62,62,0,0,0,13.54-57.56Z"/>
          <path class="cls-5" d="M106-57.56h2.76l3.51,36.15c.77,7.91.4,15.62.2,23.55a85,85,0,0,0,1.21,13.24,343.94,343.94,0,0,1,3,38.71,8.82,8.82,0,0,1-1.09,5.25c-.81,1.24-2.15,2.31-3,3.54-1.43,2.18-1.05,4.66-.7,7a179,179,0,0,1,1.69,37.66c-.34,5.55-1.62,11.19-.87,16.73.72,5.35,3.3,10.64,2.31,16.06-.57,3.07-2.3,6-2.91,9.08-1.3,6.45,2.4,12.88,3.79,19.31h-5.91a40.06,40.06,0,0,0-.06-6.17c-.65-4.32-1-8.64-1.24-13-.21-3.46,1.88-5.51,2.8-8.79.75-2.62-1.42-5.22-1.57-7.88a19.9,19.9,0,0,1,.59-4.12c.53-3.51-.56-7-.91-10.47-.33-3.18.7-6,1.08-9.11.81-6.71,1.44-13.88.37-20.6-1-6.49.92-12.89-1.37-19.4-.63-1.8-1.46-3.69-.59-5.46a13.75,13.75,0,0,1,2-2.52c4.76-5.49,2.54-11.46,1.61-17.32s-.14-11.84-.27-17.68c-.11-5-.28-10.1-.7-15.14-.28-3.51-2.28-6.42-1.39-9.95a19,19,0,0,0,.29-5.62c-.27-6-.55-12-2.24-17.91-2.25-7.84-2.47-14.93-2.12-22.9A62,62,0,0,0,106-57.56Z"/>
          <path class="cls-5" d="M26.37-57.56h2.39c1.58,5.1,6.31,10,6.14,15.3-.08,2.29-1.08,4.51-1.81,6.75-2.31,7.08-1.88,14.37-.56,21.51C33.71-7.62,36.9-1.4,37,5c.18,20.12-11.47,39.12-2.39,58.37a32,32,0,0,1-.33,28.5,39.4,39.4,0,0,0-3,6.39,19,19,0,0,0-.41,6.51c.87,13.76,5.2,27.45,3.86,41.19-.3,3.16-.91,6.31-1,9.47-.09,4.44.89,8.88,1.09,13.31H31.4q-.11-14.26-.23-28.52c0-5.35-.09-10.74-1.34-16-.63-2.7-1.58-5.41-1.24-8.13.23-1.75,1-3.51.59-5.25-.36-1.56-1.63-3-2.31-4.48a3.19,3.19,0,0,1,1.22-4.41c1.5-4.5,1.81-8.49,3.32-13,1.42-4.25,2.85-8.56,2.53-12.91-.25-3.39-1.56-6.71-2.26-10.07a57.1,57.1,0,0,1-.85-11.43c0-5.84-.07-11.69,0-17.53q.3-16.66,2.21-33.28a11.92,11.92,0,0,0-.18-5.27c-.58-1.71-1.92-3.28-2.7-5a16.06,16.06,0,0,1-1.12-5.89l-.66-10.83a28.23,28.23,0,0,1,.4-8.9c.48-1.88,1.35-3.72,1.56-5.61.27-2.53-.68-5-1.47-7.53C27.62-49.3,27.26-53.49,26.37-57.56Z"/>
          <path class="cls-5" d="M40.17-57.56H44l1.87,6.05a27.86,27.86,0,0,1,1.67,8.3c0,2.72-.89,5.41-1.46,8.11a59.67,59.67,0,0,0-1,15.25c.17,3.73.52,7.46.77,11.19a211.53,211.53,0,0,1-3.39,54.3c-.74,3.85-1.67,7.81-.91,11.69.61,3.14,2.79,5.66,3.24,8.87a223.48,223.48,0,0,1,2,23.66,48.75,48.75,0,0,1-.52,10.58c-.56,3-1.59,5.89-2.12,8.86a52.18,52.18,0,0,0-.27,12.07q1,18.86,2.1,37.72a43.78,43.78,0,0,1-.18,9.67H44.06c.8-1.2,1.39-2.39.64-3.51A21.34,21.34,0,0,0,43,163.57c-2.07-2.42,1.17-5.35.82-8.09a8.9,8.9,0,0,0-.78-2.22,14,14,0,0,1-.8-8.56c.87-3.88.58-6-.45-9.85-2.19-8.25-3.3-16.69-1.56-25,.5-2.37,1.24-4.72,1.74-7.09C43.27,96.91,43.13,91,43,85l-.19-7.77a44.75,44.75,0,0,0-1.28-11.53C40.15,61,37.19,56.26,38.1,51.46c.4-2.1,1.53-4.12,2.35-6.17,4.22-10.53.7-21.45,2.79-32.11.57-2.87,1.6-5.76,1.06-8.63-.39-2.1-1.61-4.11-1.78-6.22C42.26-5.1,43.88-8.48,43.61-12c-.24-3-1.95-6-1-9.1a13.78,13.78,0,0,0,1-3.49,10,10,0,0,0-.85-3.29,13.42,13.42,0,0,1,0-8.74,17.9,17.9,0,0,0,1.2-4,11.37,11.37,0,0,0-.87-4.34A71,71,0,0,1,40.17-57.56Z"/>
          <path class="cls-5" d="M49.34-57.56h6.28c.05,1.46.26,2.93.35,4.39.52,8.3-2.82,16.44-3,24.71-.16,7.72,1.88,15.59,2.19,23.37q.3,7.93.62,15.88a86.83,86.83,0,0,1-.09,12.05c-.7,7-3.1,13.84-3,20.83.07,6.3,4.27,12,3.27,18.29-.69,4.3-2.5,8.51-3,12.82-1.13,8.95,3.26,17.84,3,26.81-.11,4.1-1.2,8.17-1.68,12.26C52.87,125,56,136.21,56.84,147.4a132,132,0,0,1-.48,21.34H54.49a4.53,4.53,0,0,0,.07-.6c.11-1.94-1.1-3.8-1.47-5.72-.45-2.32.81-4.43,1-6.69.21-3.54-1-7.34-1.4-10.88q-1.4-10.86-2.79-21.72a31.77,31.77,0,0,1-.3-8.83c.3-2,1-3.87,1.36-5.81,2-10-3.23-20.17-1.92-30.25.87-6.7,4.63-13.3,3.5-20-.59-3.53-2.64-6.88-2.55-10.38.1-3.83.83-7.77,1.13-11.63a115.56,115.56,0,0,0,.46-17.16c-.13-1.8-.35-3.6-.46-5.4C50.93,11.29,51,8.87,51,6.46l.22-14.68c0-9.64.28-19.27.43-28.91C51.76-44.2,50.43-50.73,49.34-57.56Z"/>
          <path class="cls-5" d="M66.83-57.56h2.69c-.56,1.51-1.18,3-1.85,4.49a13.92,13.92,0,0,0-1.47,4.41c-.2,2.46,1.16,4.84,2.09,7.24,3.65,9.49.4,19.42-1.43,29.12-2.26,12-2.29,24.12-1.58,36.18.33,5.65,1.81,11.62,1,17.24-.66,4.75,1.29,9.43.53,14.21C65.93,61,60.87,66,59.69,71.6c-1.58,7.48,3.92,14.9,3.57,22.45-.22,4.62-2.62,9.16-2,13.76.38,3.11,2.12,6.09,2.91,9.16,1.74,6.76-1.11,13.66-.59,20.49.45,5.89,3.39,11.64,3.25,17.54-.11,4.6-2.1,9.15-1.95,13.73h-1c0-.06,0-.13,0-.19q.51-8,1-16c.35-5.58-2.77-10.15-3-15.57a33.13,33.13,0,0,1,.16-6.24c.27-1.72.81-3.42.9-5.15.16-2.92-1-5.78-1.78-8.65a41.92,41.92,0,0,1-.78-19.85c1-4.74-.73-8.08-2.51-12.67C56,79.65,57,74.67,58,69.83c.52-2.58.84-5.38,2.17-7.86,1.2-2.23,3.5-3.8,4.28-6.14,1.78-5.37-2.12-11-2.27-16.35-.1-3.81,1.51-7.56,1.8-11.37a38.91,38.91,0,0,0-.5-7.77c-.69-5.82-.91-11.66-1.13-17.5C62.06-4.48,61.8-11.88,64.13-19c.94-2.89,2.32-5.78,2.13-8.74-.16-2.66-1.57-5.35-.53-7.93a6.5,6.5,0,0,0,1-2.63c-.07-1.34-1.6-2.43-2.5-3.64-3.34-4.52.12-9.15,2.08-13.45A6.87,6.87,0,0,0,66.83-57.56Z"/>
          <path class="cls-5" d="M233.09-57.56h2.39c1.58,5.1,6.31,10,6.14,15.3-.08,2.29-1.08,4.51-1.81,6.75-2.31,7.08-1.88,14.37-.56,21.51,1.18,6.39,4.36,12.6,4.43,19,.18,20.12-11.47,39.12-2.39,58.37a32,32,0,0,1-.33,28.5,39.4,39.4,0,0,0-3,6.39,19,19,0,0,0-.41,6.51c.87,13.76,5.2,27.45,3.86,41.19-.3,3.16-.91,6.31-1,9.47-.09,4.44.89,8.88,1.09,13.31h-3.46q-.11-14.26-.23-28.52c0-5.35-.09-10.74-1.34-16-.63-2.7-1.58-5.41-1.24-8.13.23-1.75,1-3.51.59-5.25-.36-1.56-1.63-3-2.31-4.48a3.19,3.19,0,0,1,1.22-4.41c1.5-4.5,1.81-8.49,3.32-13,1.42-4.25,2.85-8.56,2.53-12.91-.25-3.39-1.56-6.71-2.26-10.07a57.1,57.1,0,0,1-.85-11.43c0-5.84-.07-11.69,0-17.53q.3-16.66,2.21-33.28a11.92,11.92,0,0,0-.18-5.27c-.58-1.71-1.92-3.28-2.7-5a16.06,16.06,0,0,1-1.12-5.89l-.66-10.83a28.23,28.23,0,0,1,.4-8.9c.48-1.88,1.35-3.72,1.56-5.61.27-2.53-.68-5-1.47-7.53C234.34-49.3,234-53.49,233.09-57.56Z"/>
          <path class="cls-5" d="M246.89-57.56h3.82l1.87,6.05a27.86,27.86,0,0,1,1.67,8.3c0,2.72-.89,5.41-1.46,8.11a59.67,59.67,0,0,0-1,15.25c.17,3.73.52,7.46.77,11.19a211.53,211.53,0,0,1-3.39,54.3c-.74,3.85-1.67,7.81-.91,11.69.61,3.14,2.79,5.66,3.24,8.87a223.48,223.48,0,0,1,2,23.66,48.75,48.75,0,0,1-.52,10.58c-.56,3-1.59,5.89-2.12,8.86a52.18,52.18,0,0,0-.27,12.07q1,18.86,2.1,37.72a43.78,43.78,0,0,1-.18,9.67h-1.73c.8-1.2,1.39-2.39.64-3.51a21.34,21.34,0,0,0-1.67-1.66c-2.07-2.42,1.17-5.35.82-8.09a8.9,8.9,0,0,0-.78-2.22,14,14,0,0,1-.8-8.56c.87-3.88.58-6-.45-9.85-2.19-8.25-3.3-16.69-1.56-25,.5-2.37,1.24-4.72,1.74-7.09,1.25-5.87,1.12-11.82,1-17.75l-.19-7.77a44.75,44.75,0,0,0-1.28-11.53c-1.37-4.76-4.33-9.47-3.41-14.27.4-2.1,1.53-4.12,2.35-6.17,4.22-10.53.7-21.45,2.79-32.11.57-2.87,1.6-5.76,1.06-8.63-.39-2.1-1.61-4.11-1.78-6.22C249-5.1,250.6-8.48,250.33-12c-.24-3-1.95-6-1-9.1a13.78,13.78,0,0,0,1-3.49,10,10,0,0,0-.85-3.29,13.42,13.42,0,0,1,0-8.74,17.9,17.9,0,0,0,1.2-4,11.37,11.37,0,0,0-.87-4.34A71,71,0,0,1,246.89-57.56Z"/>
          <path class="cls-5" d="M256.06-57.56h6.28c.05,1.46.26,2.93.35,4.39.52,8.3-2.82,16.44-3,24.71-.16,7.72,1.88,15.59,2.19,23.37q.3,7.93.62,15.88a86.83,86.83,0,0,1-.09,12.05c-.7,7-3.1,13.84-3,20.83.07,6.3,4.27,12,3.27,18.29-.69,4.3-2.5,8.51-3,12.82-1.13,8.95,3.26,17.84,3,26.81-.11,4.1-1.2,8.17-1.68,12.26-1.34,11.18,1.78,22.35,2.63,33.54a132,132,0,0,1-.48,21.34h-1.87a4.53,4.53,0,0,0,.07-.6c.11-1.94-1.1-3.8-1.47-5.72-.45-2.32.81-4.43,1-6.69.21-3.54-1-7.34-1.4-10.88Q258,134,256.57,123.13a31.77,31.77,0,0,1-.3-8.83c.3-2,1-3.87,1.36-5.81,2-10-3.23-20.17-1.92-30.25.87-6.7,4.63-13.3,3.5-20-.59-3.53-2.64-6.88-2.55-10.38.1-3.83.83-7.77,1.13-11.63a115.56,115.56,0,0,0,.46-17.16c-.13-1.8-.35-3.6-.46-5.4-.15-2.41-.11-4.82-.07-7.24l.22-14.68c0-9.64.28-19.27.43-28.91C258.47-44.2,257.15-50.73,256.06-57.56Z"/>
          <path class="cls-5" d="M273.54-57.56h2.69c-.56,1.51-1.18,3-1.85,4.49a13.92,13.92,0,0,0-1.47,4.41c-.2,2.46,1.16,4.84,2.09,7.24,3.65,9.49.4,19.42-1.43,29.12-2.26,12-2.29,24.12-1.58,36.18.33,5.65,1.81,11.62,1,17.24-.66,4.75,1.29,9.43.53,14.21-.91,5.62-6,10.68-7.15,16.28-1.58,7.48,3.92,14.9,3.57,22.45-.22,4.62-2.62,9.16-2,13.76.38,3.11,2.12,6.09,2.91,9.16,1.74,6.76-1.11,13.66-.59,20.49.45,5.89,3.39,11.64,3.25,17.54-.11,4.6-2.1,9.15-1.95,13.73h-1c0-.06,0-.13,0-.19q.51-8,1-16c.35-5.58-2.77-10.15-3-15.57a33.13,33.13,0,0,1,.16-6.24c.27-1.72.81-3.42.9-5.15.16-2.92-1-5.78-1.78-8.65a41.92,41.92,0,0,1-.78-19.85c1-4.74-.73-8.08-2.51-12.67-1.85-4.74-.88-9.72.11-14.57.52-2.58.84-5.38,2.17-7.86,1.2-2.23,3.5-3.8,4.28-6.14,1.78-5.37-2.12-11-2.27-16.35-.1-3.81,1.51-7.56,1.8-11.37a38.91,38.91,0,0,0-.5-7.77c-.69-5.82-.91-11.66-1.13-17.5-.27-7.32-.53-14.72,1.79-21.89.94-2.89,2.32-5.78,2.13-8.74-.16-2.66-1.57-5.35-.53-7.93a6.5,6.5,0,0,0,1-2.63c-.07-1.34-1.6-2.43-2.5-3.64-3.34-4.52.12-9.15,2.08-13.45A6.87,6.87,0,0,0,273.54-57.56Z"/>
          <path class="cls-5" d="M77.41-57.56h1.66q-.15.52-.27,1a33.89,33.89,0,0,0-.53,7.5q0,12.33,0,24.65c0,6.62-1.15,13.94-.49,20.43.54,5.32,2.13,9.46,1.77,15.23-.42,6.79-2.37,13.4-1.9,20.18.42,6.05,2.75,11.74,2.41,17.8-.21,3.75-1.42,7.19-2.15,10.79-.93,4.66-1.05,9.61-1.88,14.32-.37,2.07-.88,4.1-1.11,6.22a48.07,48.07,0,0,0-.08,6.6q.62,18.23,1.22,36.46c.19,5.82.39,11.64.76,17.44a74.58,74.58,0,0,1,.25,8.81c-.22,3.89-1.14,7.77-.72,11.63A57.09,57.09,0,0,0,78,168.74h-.77a.13.13,0,0,0,0-.06A11.53,11.53,0,0,0,76,166.22c-1-2-.26-9.07-.35-11.81s-.38-5.82-.2-8.62.86-5,.3-7.7c-.19-1-.52-1.85-.77-2.79a18.29,18.29,0,0,1-.27-7.82,9.6,9.6,0,0,0,.32-3.29,14.16,14.16,0,0,0-.55-1.78c-.77-2.5.22-6.86.08-9.71-.17-3.86-.59-7.69-.57-11.56,0-4.63,1.2-9.67-.39-13.65a7.91,7.91,0,0,1-.82-2.58A6.19,6.19,0,0,1,73,83.26c1.34-5.92,1.56-11.33,2.21-17.5a37.08,37.08,0,0,1,1.22-6.87c.52-1.7,1.27-3.26,1.67-5,1.26-5.47-.32-14.51-1.43-19.91-1.3-6.31-.5-11,.59-17.42.88-5.16,1.45-10.87-.18-15.59a19.09,19.09,0,0,1-.76-2.29,14.39,14.39,0,0,1-.07-4.39q.49-5.72,1-11.44A69.69,69.69,0,0,0,77.61-26c-.23-5.89-.3-11.7-.57-17.6C76.84-48.27,76.52-53.06,77.41-57.56Z"/>
          <path class="cls-5" d="M85.85-57.56h2.69c0,.81-.08,1.63-.12,2.44-.21,4.38-.42,8.76-.51,13.14A237.35,237.35,0,0,0,89.22-12Q90-4.38,91.37,3.26c.66,3.83,3.13,7.3,3.58,11.11.61,5.2,2.32,12-.34,17-.49.94-1.21,1.85-1.67,2.8-2.12,4.31-.89,9.57-1,14L91,86.59c-.13,5.07,1.76,9.65-.48,14.61-2.45,5.43-5.19,10.87-2.31,16.41,1.56,3,4.22,6.14,2.27,9.09-.71,1.07-2,2-2.85,3.08-2.16,2.63-1.5,5.57-1.93,8.38-.4,2.58-1.74,5.14-1.66,7.74.06,2.34,1.28,4.64,2.19,6.94a41.6,41.6,0,0,1,2.47,15.91H84.2c-.05-3.91,2.53-7.91,2-11.87-.59-4.69-5.47-9.14-5.05-13.84.36-4,4.48-7.79,3.28-11.71-.54-1.74-2-3.69,0-5.14.91-.63,2.34-1,3.28-1.65,2.36-1.56.66-3.71-.65-5.53-5.72-8-.41-15,.13-22.82C88.51,78.12,89.78,60,88.39,42c-.25-3.18-.57-6.36.08-9.52.58-2.84,1.94-5.63,2.59-8.47,1.66-7.23-1.34-14.49-3.4-21.7-4.5-15.77-4.49-31.76-3.37-47.67A78.86,78.86,0,0,1,85.85-57.56Z"/>
          <path class="cls-5" d="M95.4-57.56h3.66a12.32,12.32,0,0,0,3,6c4.47,5.21,4.34,6.76,1,11.86-4.32,6.49,1,13.46,1.52,20.27.21,2.68-.34,5.37-.58,8-.53,5.83.39,11.65,1.31,17.46q1.44,9.19,2.89,18.39c1.51,9.57,2.75,19.55-1.5,29-1.57,3.51-3.93,7-3.88,10.58,0,2.58,1.34,5.12,1.92,7.69,1.43,6.23-3.38,12-3.12,18.06.23,5.65,4,11.23,3.87,17-.08,3.12-1.06,6.22-1.66,9.33a77,77,0,0,0-.85,15.48q.25,18.59.48,37.19H99.29a9.83,9.83,0,0,0-1.35-4.7,8.49,8.49,0,0,1-1.45-2.87c-.19-1.49,1.11-2.92,1.77-4.38A11,11,0,0,0,99,153l1-12a16.31,16.31,0,0,0-.34-6.45c-.47-1.44-1.32-2.84-1.69-4.29a13.31,13.31,0,0,1,0-5.21l2.39-17c.57-4.1,1.14-8.25-.32-12.3-.7-2-1.88-3.91-1.73-5.91s1.54-3.77,2.47-5.65A12.6,12.6,0,0,0,100.48,72c-2.48-4.43-2.55-6.11,1.13-10s.29-8.3,2.25-12.51c.66-1.42,2-2.75,2.59-4.17,1-2.44-.07-5-.6-7.44-1.6-7.48,2.1-15.29-2.87-22.42-1.08-1.56-2.59-3.09-2.92-4.73-.41-2,1-4,1.24-6.07.55-4.44-4.43-8.77-3.24-13.18.48-1.8,2-3.51,2.31-5.32.75-4.08-4.45-7.9-4.77-12-.17-2.22,1.1-4.39,2-6.57A21.12,21.12,0,0,0,98-48.31C96.88-51.38,95-54.47,95.4-57.56Z"/>
        </g>
        <g>
          <path class="cls-5" d="M121.15-57.56h1.69c1.56,8.74,4.17,17.22,1.26,26.31-.89,2.75-2.17,5.48-2.4,8.29-.24,3,.74,6,1.61,9,16.21,55.41-4.78,112.62,2.78,168.79.62,4.61,1.4,9.36,1,14h-2.57c1.94-9.26-1.46-18.93-2.71-28.39-1.05-7.94-.55-16.4-.63-24.46-.08-9.53.62-19.06,1.49-28.58,1.75-19,4.24-38.12,2.57-57.2-.43-5-1.14-10-1.1-14.95.07-7.43,1.85-14.92,0-22.24-1.34-5.19-4.51-10.24-4.25-15.49.22-4.32,2.75-8.45,3.66-12.73,1-4.63.06-9.33-.93-14C122-51.93,121.69-54.75,121.15-57.56Z"/>
          <path class="cls-5" d="M129.89-57.56h2.77l3.51,36.15c.77,7.91.39,15.62.2,23.55a83.9,83.9,0,0,0,1.21,13.24,344,344,0,0,1,3,38.71,8.82,8.82,0,0,1-1.09,5.25c-.81,1.24-2.15,2.31-3,3.54-1.44,2.18-1.05,4.66-.7,7a179,179,0,0,1,1.69,37.66c-.34,5.55-1.63,11.19-.88,16.73.72,5.35,3.31,10.64,2.31,16.06-.57,3.07-2.3,6-2.91,9.08-1.3,6.45,2.4,12.88,3.79,19.31h-5.91a40.06,40.06,0,0,0-.06-6.17c-.65-4.32-1-8.64-1.24-13-.21-3.46,1.88-5.51,2.8-8.79.74-2.62-1.42-5.22-1.57-7.88a19.91,19.91,0,0,1,.59-4.12c.53-3.51-.56-7-.92-10.47-.32-3.18.7-6,1.08-9.11.81-6.71,1.45-13.88.38-20.6-1-6.49.92-12.89-1.37-19.4-.63-1.8-1.46-3.69-.59-5.46a13.37,13.37,0,0,1,2-2.52c4.76-5.49,2.54-11.46,1.61-17.32s-.15-11.84-.27-17.68c-.11-5-.28-10.1-.7-15.14-.28-3.51-2.29-6.42-1.39-9.95a19.31,19.31,0,0,0,.29-5.62c-.27-6-.55-12-2.24-17.91-2.25-7.84-2.47-14.93-2.12-22.9A62,62,0,0,0,129.89-57.56Z"/>
          <path class="cls-5" d="M222.37-57.56h2.76l3.51,36.15c.77,7.91.4,15.62.2,23.55a85,85,0,0,0,1.21,13.24,343.94,343.94,0,0,1,3,38.71A8.82,8.82,0,0,1,232,59.33c-.81,1.24-2.15,2.31-3,3.54-1.43,2.18-1.05,4.66-.7,7A179,179,0,0,1,230,107.56c-.34,5.55-1.62,11.19-.87,16.73.72,5.35,3.3,10.64,2.31,16.06-.57,3.07-2.3,6-2.91,9.08-1.3,6.45,2.4,12.88,3.79,19.31h-5.91a40.06,40.06,0,0,0-.06-6.17c-.65-4.32-1-8.64-1.24-13-.21-3.46,1.88-5.51,2.8-8.79.75-2.62-1.42-5.22-1.57-7.88a19.9,19.9,0,0,1,.59-4.12c.53-3.51-.56-7-.91-10.47-.33-3.18.7-6,1.08-9.11.81-6.71,1.44-13.88.37-20.6-1-6.49.92-12.89-1.37-19.4-.63-1.8-1.46-3.69-.59-5.46a13.75,13.75,0,0,1,2-2.52c4.76-5.49,2.54-11.46,1.61-17.32s-.14-11.84-.27-17.68c-.11-5-.28-10.1-.7-15.14-.28-3.51-2.28-6.42-1.39-9.95A19,19,0,0,0,227-4.47c-.27-6-.55-12-2.24-17.91-2.25-7.84-2.47-14.93-2.12-22.9A62,62,0,0,0,222.37-57.56Z"/>
          <path class="cls-5" d="M142.73-57.56h2.39c1.58,5.1,6.31,10,6.14,15.3-.08,2.29-1.08,4.51-1.81,6.75-2.31,7.08-1.88,14.37-.56,21.51,1.18,6.39,4.36,12.6,4.43,19,.18,20.12-11.47,39.12-2.39,58.37a32,32,0,0,1-.33,28.5,39.4,39.4,0,0,0-3,6.39,19,19,0,0,0-.41,6.51c.87,13.76,5.2,27.45,3.86,41.19-.3,3.16-.91,6.31-1,9.47-.09,4.44.89,8.88,1.09,13.31h-3.46q-.11-14.26-.23-28.52c0-5.35-.09-10.74-1.34-16-.63-2.7-1.58-5.41-1.24-8.13.23-1.75,1-3.51.59-5.25-.36-1.56-1.63-3-2.31-4.48a3.19,3.19,0,0,1,1.22-4.41c1.5-4.5,1.81-8.49,3.32-13,1.42-4.25,2.85-8.56,2.53-12.91-.25-3.39-1.56-6.71-2.26-10.07a57.1,57.1,0,0,1-.85-11.43c0-5.84-.07-11.69,0-17.53q.3-16.66,2.21-33.28a11.92,11.92,0,0,0-.18-5.27c-.58-1.71-1.92-3.28-2.7-5a16.06,16.06,0,0,1-1.12-5.89l-.66-10.83a28.23,28.23,0,0,1,.4-8.9c.48-1.88,1.35-3.72,1.56-5.61.27-2.53-.68-5-1.47-7.53C144-49.3,143.62-53.49,142.73-57.56Z"/>
          <path class="cls-5" d="M156.53-57.56h3.82l1.87,6.05a27.86,27.86,0,0,1,1.67,8.3c0,2.72-.89,5.41-1.46,8.11a59.67,59.67,0,0,0-1,15.25c.17,3.73.52,7.46.77,11.19a211.53,211.53,0,0,1-3.39,54.3c-.74,3.85-1.67,7.81-.91,11.69.61,3.14,2.79,5.66,3.24,8.87a223.48,223.48,0,0,1,2,23.66,48.75,48.75,0,0,1-.52,10.58c-.56,3-1.59,5.89-2.12,8.86a52.18,52.18,0,0,0-.27,12.07q1,18.86,2.1,37.72a43.78,43.78,0,0,1-.18,9.67h-1.73c.8-1.2,1.39-2.39.64-3.51a21.34,21.34,0,0,0-1.67-1.66c-2.07-2.42,1.17-5.35.82-8.09a8.9,8.9,0,0,0-.78-2.22,14,14,0,0,1-.8-8.56c.87-3.88.58-6-.45-9.85-2.19-8.25-3.3-16.69-1.56-25,.5-2.37,1.24-4.72,1.74-7.09,1.25-5.87,1.12-11.82,1-17.75l-.19-7.77a44.75,44.75,0,0,0-1.28-11.53c-1.37-4.76-4.33-9.47-3.41-14.27.4-2.1,1.53-4.12,2.35-6.17,4.22-10.53.7-21.45,2.79-32.11.57-2.87,1.6-5.76,1.06-8.63-.39-2.1-1.61-4.11-1.78-6.22C158.61-5.1,160.23-8.48,160-12c-.24-3-1.95-6-1-9.1a13.78,13.78,0,0,0,1-3.49,10,10,0,0,0-.85-3.29,13.42,13.42,0,0,1,0-8.74,17.9,17.9,0,0,0,1.2-4,11.37,11.37,0,0,0-.87-4.34A71,71,0,0,1,156.53-57.56Z"/>
          <path class="cls-5" d="M165.69-57.56H172c.05,1.46.26,2.93.35,4.39.52,8.3-2.82,16.44-3,24.71-.16,7.72,1.88,15.59,2.19,23.37q.3,7.93.62,15.88A86.83,86.83,0,0,1,172,22.84c-.7,7-3.1,13.84-3,20.83.07,6.3,4.27,12,3.27,18.29-.69,4.3-2.5,8.51-3,12.82-1.13,8.95,3.26,17.84,3,26.81-.11,4.1-1.2,8.17-1.68,12.26-1.34,11.18,1.78,22.35,2.63,33.54a132,132,0,0,1-.48,21.34h-1.87a4.53,4.53,0,0,0,.07-.6c.11-1.94-1.1-3.8-1.47-5.72-.45-2.32.81-4.43,1-6.69.21-3.54-1-7.34-1.4-10.88q-1.4-10.86-2.79-21.72a31.77,31.77,0,0,1-.3-8.83c.3-2,1-3.87,1.36-5.81,2-10-3.23-20.17-1.92-30.25.87-6.7,4.63-13.3,3.5-20-.59-3.53-2.64-6.88-2.55-10.38.1-3.83.83-7.77,1.13-11.63a115.56,115.56,0,0,0,.46-17.16c-.13-1.8-.35-3.6-.46-5.4-.15-2.41-.11-4.82-.07-7.24l.22-14.68c0-9.64.28-19.27.43-28.91C168.11-44.2,166.78-50.73,165.69-57.56Z"/>
          <path class="cls-5" d="M183.18-57.56h2.69c-.56,1.51-1.18,3-1.85,4.49a13.92,13.92,0,0,0-1.47,4.41c-.2,2.46,1.16,4.84,2.09,7.24,3.65,9.49.4,19.42-1.43,29.12-2.26,12-2.29,24.12-1.58,36.18.33,5.65,1.81,11.62,1,17.24-.66,4.75,1.29,9.43.53,14.21C182.28,61,177.22,66,176,71.6c-1.58,7.48,3.92,14.9,3.57,22.45-.22,4.62-2.62,9.16-2,13.76.38,3.11,2.12,6.09,2.91,9.16,1.74,6.76-1.11,13.66-.59,20.49.45,5.89,3.39,11.64,3.25,17.54-.11,4.6-2.1,9.15-1.95,13.73h-1c0-.06,0-.13,0-.19q.51-8,1-16c.35-5.58-2.77-10.15-3-15.57a33.13,33.13,0,0,1,.16-6.24c.27-1.72.81-3.42.9-5.15.16-2.92-1-5.78-1.78-8.65a41.92,41.92,0,0,1-.78-19.85c1-4.74-.73-8.08-2.51-12.67-1.85-4.74-.88-9.72.11-14.57.52-2.58.84-5.38,2.17-7.86,1.2-2.23,3.5-3.8,4.28-6.14,1.78-5.37-2.12-11-2.27-16.35-.1-3.81,1.51-7.56,1.8-11.37a38.91,38.91,0,0,0-.5-7.77c-.69-5.82-.91-11.66-1.13-17.5-.27-7.32-.53-14.72,1.79-21.89.94-2.89,2.32-5.78,2.13-8.74-.16-2.66-1.57-5.35-.53-7.93a6.5,6.5,0,0,0,1-2.63c-.07-1.34-1.6-2.43-2.5-3.64-3.34-4.52.12-9.15,2.08-13.45A6.87,6.87,0,0,0,183.18-57.56Z"/>
          <path class="cls-5" d="M193.77-57.56h1.66q-.15.52-.27,1a33.89,33.89,0,0,0-.53,7.5q0,12.33,0,24.65c0,6.62-1.15,13.94-.49,20.43.54,5.32,2.13,9.46,1.77,15.23-.42,6.79-2.37,13.4-1.9,20.18.42,6.05,2.75,11.74,2.41,17.8-.21,3.75-1.42,7.19-2.15,10.79-.93,4.66-1.05,9.61-1.88,14.32-.37,2.07-.88,4.1-1.11,6.22a48.07,48.07,0,0,0-.08,6.6q.62,18.23,1.22,36.46c.19,5.82.39,11.64.76,17.44a74.58,74.58,0,0,1,.25,8.81c-.22,3.89-1.14,7.77-.72,11.63a57.09,57.09,0,0,0,1.67,7.21h-.77a.13.13,0,0,0,0-.06,11.53,11.53,0,0,0-1.25-2.47c-1-2-.26-9.07-.35-11.81s-.38-5.82-.2-8.62.86-5,.3-7.7c-.19-1-.52-1.85-.77-2.79a18.29,18.29,0,0,1-.27-7.82,9.6,9.6,0,0,0,.32-3.29,14.16,14.16,0,0,0-.55-1.78c-.77-2.5.22-6.86.08-9.71-.17-3.86-.59-7.69-.57-11.56,0-4.63,1.2-9.67-.39-13.65a7.91,7.91,0,0,1-.82-2.58,6.19,6.19,0,0,1,.22-1.64c1.34-5.92,1.56-11.33,2.21-17.5a37.08,37.08,0,0,1,1.22-6.87c.52-1.7,1.27-3.26,1.67-5,1.26-5.47-.32-14.51-1.43-19.91-1.3-6.31-.5-11,.59-17.42.88-5.16,1.45-10.87-.18-15.59a19.09,19.09,0,0,1-.76-2.29,14.39,14.39,0,0,1-.07-4.39q.49-5.72,1-11.44A69.69,69.69,0,0,0,194-26c-.23-5.89-.3-11.7-.57-17.6C193.19-48.27,192.87-53.06,193.77-57.56Z"/>
          <path class="cls-5" d="M202.2-57.56h2.69c0,.81-.08,1.63-.12,2.44-.21,4.38-.42,8.76-.51,13.14A237.35,237.35,0,0,0,205.57-12q.82,7.66,2.15,15.3c.66,3.83,3.13,7.3,3.58,11.11.61,5.2,2.32,12-.34,17-.49.94-1.21,1.85-1.67,2.8-2.12,4.31-.89,9.57-1,14l-.91,38.39c-.13,5.07,1.76,9.65-.48,14.61-2.45,5.43-5.19,10.87-2.31,16.41,1.56,3,4.22,6.14,2.27,9.09-.71,1.07-2,2-2.85,3.08-2.16,2.63-1.5,5.57-1.93,8.38-.4,2.58-1.74,5.14-1.66,7.74.06,2.34,1.28,4.64,2.19,6.94a41.6,41.6,0,0,1,2.47,15.91h-4.54c-.05-3.91,2.53-7.91,2-11.87-.59-4.69-5.47-9.14-5.05-13.84.36-4,4.48-7.79,3.28-11.71-.54-1.74-2-3.69,0-5.14.91-.63,2.34-1,3.28-1.65,2.36-1.56.66-3.71-.65-5.53-5.72-8-.41-15,.13-22.82C204.87,78.12,206.13,60,204.75,42c-.25-3.18-.57-6.36.08-9.52.58-2.84,1.94-5.63,2.59-8.47,1.66-7.23-1.34-14.49-3.4-21.7-4.5-15.77-4.49-31.76-3.37-47.67A78.86,78.86,0,0,1,202.2-57.56Z"/>
          <path class="cls-5" d="M211.76-57.56h3.66a12.32,12.32,0,0,0,3,6c4.47,5.21,4.34,6.76,1,11.86-4.32,6.49,1,13.46,1.52,20.27.21,2.68-.34,5.37-.58,8-.53,5.83.39,11.65,1.31,17.46q1.44,9.19,2.89,18.39C226,34,227.22,44,223,53.46c-1.57,3.51-3.93,7-3.88,10.58,0,2.58,1.34,5.12,1.92,7.69,1.43,6.23-3.38,12-3.12,18.06.23,5.65,4,11.23,3.87,17-.08,3.12-1.06,6.22-1.66,9.33a77,77,0,0,0-.85,15.48q.25,18.59.48,37.19h-4.08a9.83,9.83,0,0,0-1.35-4.7,8.49,8.49,0,0,1-1.45-2.87c-.19-1.49,1.11-2.92,1.77-4.38a11,11,0,0,0,.78-3.81l1-12a16.31,16.31,0,0,0-.34-6.45c-.47-1.44-1.32-2.84-1.69-4.29a13.31,13.31,0,0,1,0-5.21l2.39-17c.57-4.1,1.14-8.25-.32-12.3-.7-2-1.88-3.91-1.73-5.91s1.54-3.77,2.47-5.65A12.6,12.6,0,0,0,216.83,72c-2.48-4.43-2.55-6.11,1.13-10s.29-8.3,2.25-12.51c.66-1.42,2-2.75,2.59-4.17,1-2.44-.07-5-.6-7.44-1.6-7.48,2.1-15.29-2.87-22.42-1.08-1.56-2.59-3.09-2.92-4.73-.41-2,1-4,1.24-6.07.55-4.44-4.43-8.77-3.24-13.18.48-1.8,2-3.51,2.31-5.32.75-4.08-4.45-7.9-4.77-12-.17-2.22,1.1-4.39,2-6.57a21.12,21.12,0,0,0,.38-15.87C213.23-51.38,211.38-54.47,211.76-57.56Z"/>
          <path class="cls-5" d="M285-57.56h2.76l3.51,36.15c.77,7.91.4,15.62.2,23.55a85,85,0,0,0,1.21,13.24,343.94,343.94,0,0,1,3,38.71,8.82,8.82,0,0,1-1.09,5.25c-.81,1.24-2.15,2.31-3,3.54-1.43,2.18-1.05,4.66-.7,7a179,179,0,0,1,1.69,37.66c-.34,5.55-1.62,11.19-.87,16.73.72,5.35,3.3,10.64,2.31,16.06-.57,3.07-2.3,6-2.91,9.08-1.3,6.45,2.4,12.88,3.79,19.31h-5.91a40.06,40.06,0,0,0-.06-6.17c-.65-4.32-1-8.64-1.24-13-.21-3.46,1.88-5.51,2.8-8.79.75-2.62-1.42-5.22-1.57-7.88a19.9,19.9,0,0,1,.59-4.12c.53-3.51-.56-7-.91-10.47-.33-3.18.7-6,1.08-9.11.81-6.71,1.44-13.88.37-20.6-1-6.49.92-12.89-1.37-19.4-.63-1.8-1.46-3.69-.59-5.46a13.75,13.75,0,0,1,2-2.52c4.76-5.49,2.54-11.46,1.61-17.32s-.14-11.84-.27-17.68c-.11-5-.28-10.1-.7-15.14-.28-3.51-2.28-6.42-1.39-9.95a19,19,0,0,0,.29-5.62c-.27-6-.55-12-2.24-17.91-2.25-7.84-2.47-14.93-2.12-22.9A62,62,0,0,0,285-57.56Z"/>
          <path class="cls-5" d="M272.42-57.56h3.66a12.32,12.32,0,0,0,3,6c4.47,5.21,4.34,6.76,1,11.86-4.32,6.49,1,13.46,1.52,20.27.21,2.68-.34,5.37-.58,8-.53,5.83.39,11.65,1.31,17.46q1.44,9.19,2.89,18.39c1.51,9.57,2.75,19.55-1.5,29-1.57,3.51-3.93,7-3.88,10.58,0,2.58,1.34,5.12,1.92,7.69,1.43,6.23-3.38,12-3.12,18.06.23,5.65,4,11.23,3.87,17-.08,3.12-1.06,6.22-1.66,9.33a77,77,0,0,0-.85,15.48q.25,18.59.48,37.19h-4.08A9.83,9.83,0,0,0,275,164a8.49,8.49,0,0,1-1.45-2.87c-.19-1.49,1.11-2.92,1.77-4.38a11,11,0,0,0,.78-3.81l1-12a16.31,16.31,0,0,0-.34-6.45c-.47-1.44-1.32-2.84-1.69-4.29a13.31,13.31,0,0,1,0-5.21l2.39-17c.57-4.1,1.14-8.25-.32-12.3-.7-2-1.88-3.91-1.73-5.91s1.54-3.77,2.47-5.65A12.6,12.6,0,0,0,277.5,72c-2.48-4.43-2.55-6.11,1.13-10s.29-8.3,2.25-12.51c.66-1.42,2-2.75,2.59-4.17,1-2.44-.07-5-.6-7.44-1.6-7.48,2.1-15.29-2.87-22.42-1.08-1.56-2.59-3.09-2.92-4.73-.41-2,1-4,1.24-6.07.55-4.44-4.43-8.77-3.24-13.18.48-1.8,2-3.51,2.31-5.32.75-4.08-4.45-7.9-4.77-12-.17-2.22,1.1-4.39,2-6.57A21.12,21.12,0,0,0,275-48.31C273.9-51.38,272-54.47,272.42-57.56Z"/>
        </g>
      </g>
      <g>
        <path class="cls-6" d="M230.87,116.06a3.13,3.13,0,0,1-3.14,3.13H188a3.13,3.13,0,0,1-3.14-3.13V58.81A3.13,3.13,0,0,1,188,55.68h39.69a3.13,3.13,0,0,1,3.14,3.13Z"/>
        <path class="cls-7" d="M188,119a2.93,2.93,0,0,1-2.93-2.93V58.81A2.93,2.93,0,0,1,188,55.89h39.69a2.93,2.93,0,0,1,2.93,2.92v57.24a2.93,2.93,0,0,1-2.93,2.93Z"/>
        <rect class="cls-8" x="189.33" y="61.74" width="37.1" height="51.39"/>
        <path class="cls-9" d="M227.73,55.89H188a2.93,2.93,0,0,0-2.93,2.92v45L228.38,56A2.93,2.93,0,0,0,227.73,55.89Z"/>
        <g>
          <polygon class="cls-7" points="210.06 117.11 205.71 117.11 205.71 115.06 210.06 115.07 210.06 117.11"/>
          <path class="cls-10" d="M205.89,117v-1.68h4V117Zm.12-1.54v1.44l3.76,0v-1.44Z"/>
          <polygon class="cls-9" points="210.06 115.08 205.71 115.07 205.71 115.1 210.06 117.11 210.06 115.08"/>
        </g>
      </g>
      <g>
        <g>
          <path class="cls-11" d="M243,74H218.71a2.5,2.5,0,0,0-2.35,2.62v45.52a2.5,2.5,0,0,0,2.35,2.62H243a2.5,2.5,0,0,0,2.35-2.62V76.63A2.5,2.5,0,0,0,243,74Zm1.66,48.14a1.81,1.81,0,0,1-1.66,1.93H218.71a1.81,1.81,0,0,1-1.66-1.93V76.63a1.81,1.81,0,0,1,1.66-1.93H243a1.81,1.81,0,0,1,1.66,1.93Z"/>
          <path class="cls-12" d="M243,74.71H218.58a1.7,1.7,0,0,0-1.66,1.81V122a2.09,2.09,0,0,0,.48,1.36,2.22,2.22,0,0,1-.11-.24,1.63,1.63,0,0,0,1.42.92H243a1.81,1.81,0,0,0,1.66-1.93V76.63A1.81,1.81,0,0,0,243,74.71Zm-.15,43h-24V79.38h24Z"/>
          <path class="cls-11" d="M230.87,119.43a1.81,1.81,0,0,0-1.81,1.81s0,0,0,.07a1.8,1.8,0,0,1,1.81-1.84,1.77,1.77,0,0,1,1.81,1.84.56.56,0,0,0,0-.07A1.81,1.81,0,0,0,230.87,119.43Z"/>
          <path class="cls-11" d="M230.87,119.73a1.58,1.58,0,0,0-1.58,1.58,1.69,1.69,0,0,0,0,.27,2,2,0,0,0,1.56.53,2.35,2.35,0,0,0,1.56-.54,1.55,1.55,0,0,0,0-.27A1.59,1.59,0,0,0,230.87,119.73Z"/>
          <path class="cls-13" d="M232.43,121.58a2.35,2.35,0,0,1-1.56.54,2,2,0,0,1-1.56-.53h0v0a1.18,1.18,0,0,0,0,.11,1.65,1.65,0,0,0,.05.17l0,.11.08.16.06.09.12.14.07.07.15.13.07.05.19.1.07,0,.23.07.06,0a1.55,1.55,0,0,0,.31,0h0a1.5,1.5,0,0,0,1.53-1.25v-.07Z"/>
          <path class="cls-14" d="M233.68,77.23h-5.63a.33.33,0,0,1-.2-.07c.06.25.21.42.38.42h5.26c.18,0,.33-.18.38-.42A.33.33,0,0,1,233.68,77.23Z"/>
        </g>
        <rect class="cls-8" x="218.31" y="78.51" width="25.11" height="40.08"/>
        <g class="cls-15">
          <polygon class="cls-12" points="243.36 78.51 218.25 78.51 218.25 106.64 243.36 78.87 243.36 78.51"/>
        </g>
      </g>
      <g id="laptop">
        <g>
          <path class="cls-16" d="M59.25,51H173a2.66,2.66,0,0,1,2.65,2.65v73.56a2.66,2.66,0,0,1-2.65,2.64H59.25a2.66,2.66,0,0,1-2.65-2.64V53.62A2.66,2.66,0,0,1,59.25,51Z"/>
          <path class="cls-17" d="M64.42,51H71v3.76a.62.62,0,0,1-.62.62H65a.62.62,0,0,1-.62-.62Z"/>
          <path class="cls-17" d="M161.25,51h6.6v3.76a.62.62,0,0,1-.62.62h-5.36a.62.62,0,0,1-.62-.62Z"/>
          <path class="cls-18" d="M48.26,16.08H183.78c3.26,0,4.25,1.52,2.91,3.61L175.35,49.63H56.6L46.5,21.51C44.23,17.94,44.67,16.08,48.26,16.08Z"/>
          <polygon class="cls-19" points="179.76 21.49 171.51 47.24 60.54 47.24 52.21 21.49 179.76 21.49"/>
          <path class="cls-16" d="M47.51,16.58H184.86a.53.53,0,0,1,.53.53h0a.53.53,0,0,1-.53.53H47.51a.53.53,0,0,1-.53-.53h0A.53.53,0,0,1,47.51,16.58Z"/>
          <rect class="cls-12" x="64.81" y="47.57" width="5.82" height="6.65" rx="0.55" ry="0.55"/>
          <rect class="cls-12" x="161.64" y="47.57" width="5.82" height="6.65" rx="0.55" ry="0.55"/>
          <rect class="cls-20" x="163.32" y="61.48" width="5.19" height="4.24" rx="0.76" ry="0.76"/>
          <path class="cls-20" d="M164.25,66.67h3.34a.93.93,0,0,1,.93.93v3.69a.93.93,0,0,1-.93.93h-3.34a.93.93,0,0,1-.93-.93V67.6A.92.92,0,0,1,164.25,66.67Z"/>
          <path class="cls-20" d="M164.24,73.17h3.34a.93.93,0,0,1,.93.93v3.68a.93.93,0,0,1-.93.93h-3.34a.93.93,0,0,1-.93-.93V74.09A.92.92,0,0,1,164.24,73.17Z"/>
          <path class="cls-20" d="M164.24,79.66h3.34a.93.93,0,0,1,.93.93v3.68a.92.92,0,0,1-.92.92h-3.34a.93.93,0,0,1-.93-.93V80.59A.92.92,0,0,1,164.24,79.66Z"/>
          <path class="cls-21" d="M164.25,86.16h3.34a.93.93,0,0,1,.93.92v3.69a.93.93,0,0,1-.93.92h-3.34a.93.93,0,0,1-.93-.92V87.08A.93.93,0,0,1,164.25,86.16Z"/>
          <path class="cls-21" d="M164.25,92.65h3.34a.93.93,0,0,1,.93.92v3.69a.93.93,0,0,1-.93.92h-3.34a.93.93,0,0,1-.93-.92V93.58A.93.93,0,0,1,164.25,92.65Z"/>
          <rect class="cls-20" x="156.83" y="61.48" width="5.19" height="4.24" rx="0.76" ry="0.76"/>
          <rect class="cls-20" x="150.84" y="66.67" width="11.19" height="5.54" rx="0.99" ry="0.99"/>
          <path class="cls-21" d="M156.05,73.17h5a1,1,0,0,1,1,1v3.56a1,1,0,0,1-1,1h-5a1,1,0,0,1-1-1V74.16A1,1,0,0,1,156.05,73.17Z"/>
          <path class="cls-21" d="M151.1,79.66H161a1,1,0,0,1,1,1v3.56a1,1,0,0,1-1,1H151.1a1,1,0,0,1-1-1V80.65A1,1,0,0,1,151.1,79.66Z"/>
          <path class="cls-20" d="M157.75,86.16h3.35a.92.92,0,0,1,.92.92v3.69a.92.92,0,0,1-.92.92h-3.34a.93.93,0,0,1-.93-.93V87.08A.92.92,0,0,1,157.75,86.16Z"/>
          <path class="cls-21" d="M157.76,92.65h3.34a.93.93,0,0,1,.93.92v3.69a.93.93,0,0,1-.93.92h-3.34a.93.93,0,0,1-.93-.92V93.58A.93.93,0,0,1,157.76,92.65Z"/>
          <rect class="cls-20" x="150.84" y="61.48" width="4.7" height="4.24" rx="0.76" ry="0.76"/>
          <rect class="cls-20" x="144.74" y="61.48" width="4.7" height="4.24" rx="0.76" ry="0.76"/>
          <rect class="cls-20" x="138.65" y="61.48" width="4.7" height="4.24" rx="0.76" ry="0.76"/>
          <rect class="cls-20" x="132.56" y="61.48" width="4.7" height="4.24" rx="0.76" ry="0.76"/>
          <path class="cls-21" d="M127.23,61.48h3.18a.76.76,0,0,1,.76.76V65a.76.76,0,0,1-.76.76h-3.18a.76.76,0,0,1-.76-.76V62.24A.76.76,0,0,1,127.23,61.48Z"/>
          <rect class="cls-20" x="120.37" y="61.48" width="4.7" height="4.24" rx="0.76" ry="0.76"/>
          <rect class="cls-20" x="114.28" y="61.48" width="4.7" height="4.24" rx="0.76" ry="0.76"/>
          <rect class="cls-20" x="108.19" y="61.48" width="4.7" height="4.24" rx="0.76" ry="0.76"/>
          <rect class="cls-20" x="102.09" y="61.48" width="4.7" height="4.24" rx="0.76" ry="0.76"/>
          <rect class="cls-20" x="96" y="61.48" width="4.7" height="4.24" rx="0.76" ry="0.76"/>
          <rect class="cls-20" x="89.91" y="61.48" width="4.7" height="4.24" rx="0.76" ry="0.76"/>
          <rect class="cls-20" x="83.82" y="61.48" width="4.7" height="4.24" rx="0.76" ry="0.76"/>
          <rect class="cls-20" x="77.72" y="61.48" width="4.7" height="4.24" rx="0.76" ry="0.76"/>
          <rect class="cls-20" x="71.63" y="61.48" width="4.7" height="4.24" rx="0.76" ry="0.76"/>
          <rect class="cls-20" x="64.79" y="61.48" width="5.19" height="4.24" rx="0.76" ry="0.76"/>
          <rect class="cls-20" x="144.34" y="66.67" width="5.1" height="5.54" rx="0.91" ry="0.91"/>
          <rect class="cls-20" x="137.73" y="66.67" width="5.1" height="5.54" rx="0.91" ry="0.91"/>
          <rect class="cls-20" x="131.12" y="66.67" width="5.09" height="5.54" rx="0.91" ry="0.91"/>
          <rect class="cls-20" x="124.51" y="66.67" width="5.1" height="5.54" rx="0.91" ry="0.91"/>
          <rect class="cls-20" x="117.9" y="66.67" width="5.09" height="5.54" rx="0.91" ry="0.91"/>
          <rect class="cls-20" x="111.29" y="66.67" width="5.1" height="5.54" rx="0.91" ry="0.91"/>
          <rect class="cls-20" x="104.68" y="66.67" width="5.1" height="5.54" rx="0.91" ry="0.91"/>
          <rect class="cls-20" x="98.07" y="66.67" width="5.1" height="5.54" rx="0.91" ry="0.91"/>
          <rect class="cls-20" x="91.46" y="66.67" width="5.09" height="5.54" rx="0.91" ry="0.91"/>
          <rect class="cls-20" x="84.85" y="66.67" width="5.09" height="5.54" rx="0.91" ry="0.91"/>
          <rect class="cls-20" x="78.24" y="66.67" width="5.1" height="5.54" rx="0.91" ry="0.91"/>
          <rect class="cls-20" x="71.63" y="66.67" width="5.1" height="5.54" rx="0.91" ry="0.91"/>
          <path class="cls-20" d="M65.71,66.67h3.34a.93.93,0,0,1,.93.93v3.69a.93.93,0,0,1-.93.93H65.71a.93.93,0,0,1-.93-.93V67.6A.92.92,0,0,1,65.71,66.67Z"/>
          <path class="cls-21" d="M65.78,73.17h6.87a1,1,0,0,1,1,1v3.56a1,1,0,0,1-1,1H65.78a1,1,0,0,1-1-1V74.16A1,1,0,0,1,65.78,73.17Z"/>
          <path class="cls-21" d="M65.78,79.66h8.16a1,1,0,0,1,1,1v3.56a1,1,0,0,1-1,1H65.78a1,1,0,0,1-1-1V80.65A1,1,0,0,1,65.78,79.66Z"/>
          <path class="cls-21" d="M65.78,86.16h11.7a1,1,0,0,1,1,1v3.56a1,1,0,0,1-1,1H65.78a1,1,0,0,1-1-1V87.15A1,1,0,0,1,65.78,86.16Z"/>
          <path class="cls-21" d="M65.78,92.65h4.86a1,1,0,0,1,1,1V97.2a1,1,0,0,1-1,1H65.78a1,1,0,0,1-1-1V93.64A1,1,0,0,1,65.78,92.65Z"/>
          <path class="cls-21" d="M75.44,73.17h3.51a1,1,0,0,1,1,1v3.59a1,1,0,0,1-1,1H75.44a1,1,0,0,1-1-1V74.14A1,1,0,0,1,75.44,73.17Z"/>
          <path class="cls-21" d="M82.17,73.17h3.51a1,1,0,0,1,1,1v3.59a1,1,0,0,1-1,1H82.17a1,1,0,0,1-1-1V74.14A1,1,0,0,1,82.17,73.17Z"/>
          <path class="cls-21" d="M88.91,73.17h3.51a1,1,0,0,1,1,1v3.59a1,1,0,0,1-1,1H88.91a1,1,0,0,1-1-1V74.14A1,1,0,0,1,88.91,73.17Z"/>
          <path class="cls-21" d="M95.64,73.17h3.51a1,1,0,0,1,1,1v3.59a1,1,0,0,1-1,1H95.64a1,1,0,0,1-1-1V74.14A1,1,0,0,1,95.64,73.17Z"/>
          <path class="cls-21" d="M102.38,73.17h3.51a1,1,0,0,1,1,1v3.59a1,1,0,0,1-1,1h-3.51a1,1,0,0,1-1-1V74.14A1,1,0,0,1,102.38,73.17Z"/>
          <path class="cls-21" d="M109.11,73.17h3.51a1,1,0,0,1,1,1v3.59a1,1,0,0,1-1,1h-3.51a1,1,0,0,1-1-1V74.14A1,1,0,0,1,109.11,73.17Z"/>
          <path class="cls-20" d="M115.84,73.17h3.51a1,1,0,0,1,1,1v3.59a1,1,0,0,1-1,1h-3.51a1,1,0,0,1-1-1V74.14A1,1,0,0,1,115.84,73.17Z"/>
          <path class="cls-21" d="M122.58,73.17h3.51a1,1,0,0,1,1,1v3.59a1,1,0,0,1-1,1h-3.51a1,1,0,0,1-1-1V74.14A1,1,0,0,1,122.58,73.17Z"/>
          <rect class="cls-20" x="128.34" y="73.17" width="5.46" height="5.54" rx="0.97" ry="0.97"/>
          <rect class="cls-20" x="135.07" y="73.17" width="5.46" height="5.54" rx="0.97" ry="0.97"/>
          <path class="cls-21" d="M142.78,73.17h3.51a1,1,0,0,1,1,1v3.59a1,1,0,0,1-1,1h-3.51a1,1,0,0,1-1-1V74.14A1,1,0,0,1,142.78,73.17Z"/>
          <path class="cls-21" d="M149.51,73.17H153a1,1,0,0,1,1,1v3.59a1,1,0,0,1-1,1h-3.51a1,1,0,0,1-1-1V74.14A1,1,0,0,1,149.51,73.17Z"/>
          <rect class="cls-20" x="76.34" y="79.66" width="5.46" height="5.54" rx="0.97" ry="0.97"/>
          <rect class="cls-20" x="83.07" y="79.66" width="5.46" height="5.54" rx="0.97" ry="0.97"/>
          <path class="cls-21" d="M90.78,79.66h3.51a1,1,0,0,1,1,1v3.59a1,1,0,0,1-1,1H90.78a1,1,0,0,1-1-1V80.64A1,1,0,0,1,90.78,79.66Z"/>
          <rect class="cls-20" x="96.54" y="79.66" width="5.46" height="5.54" rx="0.97" ry="0.97"/>
          <path class="cls-21" d="M104.25,79.66h3.51a1,1,0,0,1,1,1v3.59a1,1,0,0,1-1,1h-3.51a1,1,0,0,1-1-1V80.64A1,1,0,0,1,104.25,79.66Z"/>
          <rect class="cls-20" x="110.01" y="79.66" width="5.46" height="5.54" rx="0.97" ry="0.97"/>
          <path class="cls-20" d="M117.71,79.66h3.51a1,1,0,0,1,1,1v3.59a1,1,0,0,1-1,1h-3.51a1,1,0,0,1-1-1V80.64A1,1,0,0,1,117.71,79.66Z"/>
          <rect class="cls-20" x="123.48" y="79.66" width="5.46" height="5.54" rx="0.97" ry="0.97"/>
          <rect class="cls-20" x="130.21" y="79.66" width="5.46" height="5.54" rx="0.97" ry="0.97"/>
          <rect class="cls-20" x="136.94" y="79.66" width="5.46" height="5.54" rx="0.97" ry="0.97"/>
          <path class="cls-21" d="M144.65,79.66h3.51a1,1,0,0,1,1,1v3.59a1,1,0,0,1-1,1h-3.51a1,1,0,0,1-1-1V80.64A1,1,0,0,1,144.65,79.66Z"/>
          <rect class="cls-20" x="79.86" y="86.16" width="5.46" height="5.54" rx="0.97" ry="0.97"/>
          <path class="cls-20" d="M87.57,86.16h3.51a1,1,0,0,1,1,1v3.59a1,1,0,0,1-1,1H87.57a1,1,0,0,1-1-1V87.13A1,1,0,0,1,87.57,86.16Z"/>
          <path class="cls-20" d="M94.31,86.16h3.51a1,1,0,0,1,1,1v3.59a1,1,0,0,1-1,1H94.31a1,1,0,0,1-1-1V87.13A1,1,0,0,1,94.31,86.16Z"/>
          <path class="cls-20" d="M101,86.16h3.51a1,1,0,0,1,1,1v3.59a1,1,0,0,1-1,1H101a1,1,0,0,1-1-1V87.13A1,1,0,0,1,101,86.16Z"/>
          <path class="cls-21" d="M107.78,86.16h3.51a1,1,0,0,1,1,1v3.59a1,1,0,0,1-1,1h-3.51a1,1,0,0,1-1-1V87.13A1,1,0,0,1,107.78,86.16Z"/>
          <path class="cls-20" d="M114.51,86.16H118a1,1,0,0,1,1,1v3.59a1,1,0,0,1-1,1h-3.51a1,1,0,0,1-1-1V87.13A1,1,0,0,1,114.51,86.16Z"/>
          <path class="cls-20" d="M121.24,86.16h3.51a1,1,0,0,1,1,1v3.59a1,1,0,0,1-1,1h-3.51a1,1,0,0,1-1-1V87.13A1,1,0,0,1,121.24,86.16Z"/>
          <rect class="cls-20" x="127" y="86.16" width="5.46" height="5.54" rx="0.97" ry="0.97"/>
          <rect class="cls-20" x="133.74" y="86.16" width="5.46" height="5.54" rx="0.97" ry="0.97"/>
          <path class="cls-21" d="M141.45,86.16H145a1,1,0,0,1,1,1v3.59a1,1,0,0,1-1,1h-3.51a1,1,0,0,1-1-1V87.13A1,1,0,0,1,141.45,86.16Z"/>
          <path class="cls-21" d="M148.2,86.16h6.34a1,1,0,0,1,1,1v3.56a1,1,0,0,1-1,1H148.2a1,1,0,0,1-1-1V87.15A1,1,0,0,1,148.2,86.16Z"/>
          <path class="cls-21" d="M74,92.65H77.5a1,1,0,0,1,1,1v3.59a1,1,0,0,1-1,1H74a1,1,0,0,1-1-1V93.62A1,1,0,0,1,74,92.65Z"/>
          <path class="cls-21" d="M80.73,92.65h3.51a1,1,0,0,1,1,1v3.59a1,1,0,0,1-1,1H80.73a1,1,0,0,1-1-1V93.62A1,1,0,0,1,80.73,92.65Z"/>
          <path class="cls-21" d="M87.46,92.65H91a1,1,0,0,1,1,1v3.59a1,1,0,0,1-1,1H87.46a1,1,0,0,1-1-1V93.62A1,1,0,0,1,87.46,92.65Z"/>
          <path class="cls-21" d="M94.2,92.65H97.7a1,1,0,0,1,1,1v3.59a1,1,0,0,1-1,1H94.2a1,1,0,0,1-1-1V93.62A1,1,0,0,1,94.2,92.65Z"/>
          <path class="cls-21" d="M100.93,92.65h3.51a1,1,0,0,1,1,1v3.59a1,1,0,0,1-1,1h-3.51a1,1,0,0,1-1-1V93.62A1,1,0,0,1,100.93,92.65Z"/>
          <path class="cls-21" d="M107.66,92.65h3.51a1,1,0,0,1,1,1v3.59a1,1,0,0,1-1,1h-3.51a1,1,0,0,1-1-1V93.62A1,1,0,0,1,107.66,92.65Z"/>
          <path class="cls-21" d="M114.4,92.65h3.51a1,1,0,0,1,1,1v3.59a1,1,0,0,1-1,1H114.4a1,1,0,0,1-1-1V93.62A1,1,0,0,1,114.4,92.65Z"/>
          <path class="cls-21" d="M121.13,92.65h3.51a1,1,0,0,1,1,1v3.59a1,1,0,0,1-1,1h-3.51a1,1,0,0,1-1-1V93.62A1,1,0,0,1,121.13,92.65Z"/>
          <path class="cls-21" d="M127.87,92.65h3.51a1,1,0,0,1,1,1v3.59a1,1,0,0,1-1,1h-3.51a1,1,0,0,1-1-1V93.62A1,1,0,0,1,127.87,92.65Z"/>
          <rect class="cls-20" x="133.63" y="92.65" width="5.46" height="5.54" rx="0.97" ry="0.97"/>
          <rect class="cls-20" x="140.36" y="92.65" width="8.33" height="5.54" rx="0.99" ry="0.99"/>
          <path class="cls-21" d="M151.27,92.65h3.34a.93.93,0,0,1,.93.92v3.69a.93.93,0,0,1-.93.92h-3.34a.93.93,0,0,1-.93-.92V93.58A.93.93,0,0,1,151.27,92.65Z"/>
          <rect class="cls-20" x="97.66" y="102.85" width="36.93" height="18.71" rx="0.97" ry="0.97"/>
          <rect class="cls-20" x="97.66" y="122.81" width="17.81" height="3.88" rx="0.2" ry="0.2"/>
          <rect class="cls-20" x="116.79" y="122.81" width="17.81" height="3.88" rx="0.2" ry="0.2"/>
        </g>
      </g>
    </g>
  </g>
  <g class="cls-22">
    <g>
      <g class="cls-22">
        <path class="cls-23" d="M0,74.5c15,0,15,1,30,1s15-1,30-1,15,1,30,1,15-1,30-1,15,1,30,1,15-1,30-1,15,1,30,1,15-1,30-1,15,1,30,1,15-1,30-1"/>
      </g>
      <path class="cls-23" d="M0,74.5c15,0,15,1,30,1s15-1,30-1,15,1,30,1,15-1,30-1,15,1,30,1,15-1,30-1,15,1,30,1,15-1,30-1,15,1,30,1,15-1,30-1"/>
    </g>
  </g>
</svg>
