<svg id="Layer_1" data-name="Layer 1" xmlns="http://www.w3.org/2000/svg" xmlns:xlink="http://www.w3.org/1999/xlink" viewBox="0 0 300 150">
  <defs>
    <style>
      .cls-1, .cls-11 {
        fill: none;
      }

      .cls-2 {
        clip-path: url(#clip-path);
      }

      .cls-3 {
        fill: #739c5c;
      }

      .cls-4 {
        clip-path: url(#clip-path-2);
      }

      .cls-5 {
        fill: #208341;
      }

      .cls-6 {
        fill: #62864e;
      }

      .cls-7 {
        fill: #a7a9ac;
      }

      .cls-8 {
        fill: #b3b3b3;
      }

      .cls-9 {
        fill: #fff;
      }

      .cls-10 {
        clip-path: url(#clip-path-3);
      }

      .cls-11 {
        stroke: #0090cf;
        stroke-miterlimit: 10;
      }
    </style>
    <clipPath id="clip-path">
      <rect class="cls-1" width="300" height="150"/>
    </clipPath>
    <clipPath id="clip-path-2">
      <polygon class="cls-1" points="300 150 0 150 0 0 300.79 0 300 150"/>
    </clipPath>
    <clipPath id="clip-path-3">
      <rect class="cls-1" x="-1327.08" y="616.17" width="300" height="150"/>
    </clipPath>
  </defs>
  <title>French</title>
  <g class="cls-2">
    <g>
      <polygon class="cls-3" points="300 150 0 150 -0.79 0 300.79 0 300 150"/>
      <g class="cls-4">
        <g>
          <path class="cls-5" d="M142.92,79.21a1.17,1.17,0,0,0,.6.21V81a3.7,3.7,0,0,1-.6-.1Z"/>
          <path class="cls-5" d="M145.67,79v1.59h-.09a1.74,1.74,0,0,0-.49,0V79.08c.22,0,.4,0,.49-.06Z"/>
          <g id="EUwXWQ">
            <path class="cls-5" d="M144.33,80.5v-.22s0,0,0,0h0a.09.09,0,0,0-.06,0h-.15s0,0,0-.06,0,0,0,0l-.09-.07-.1-.09h0a0,0,0,0,0,0,0s0,0,0,0,0-.07,0-.1h0l.1,0s0,0,0,0,0,0,0-.06h0l.09.1h0a0,0,0,0,0,0,0h0v0s0-.06,0-.09,0-.06,0-.09h0l.06,0h0s0,0,0,0h0a.82.82,0,0,1,.07-.12h0l.07.13h0a0,0,0,0,0,0,0h0s0,.06,0,.09,0,.06,0,.09v0h0a0,0,0,0,0,0,0,0,0,0,0,0,0,0l.09-.1h0a.05.05,0,0,0,0,0,0,0,0,0,0,0,0l.12,0h0s0,.07,0,.12h0s0,0,0,0h0l-.21.16s0,0,0,0,0,0,0,.06h0a379434.51,379434.51,0,0,1-.12,0h-.09v.19Z"/>
          </g>
          <path class="cls-6" d="M418.62,140v84H-23.76V140h3.34l1.25-1.25v-3.34L-16.8,133v-3.19l1.46-1.46,1.88,1.88v3.47h2.93v3.14h1.6l1.6-1.6v-3.9H-5v7.38h3.19v-5.29H-.23v2.37h4v-2.93h4v2.37h3.75V123.6h2.5v10h1.66v-5h2.37v5h3.62v-11h4.59v5h3.19V120h2.22v4.46h2.93v-8.35h1.66v-3.34h1.25v10.72h2.65v3.62H43v-5.43h2.5V126h4.18v-2.5h4v-2.09h4v-7.66h1.53V119h2.22V116.9h6.55V115h3.47v1.94h3.9v-4.18h2.09v2.37h7.37l1.25-1.25h4v-2.09h2.22v1.4h7v-2.78h5.56v1.52h.41v-1.94h1.06v-1.83h.47v-1.69h.26V110h1.44v2h.74v-1h1.06v.85H112v-.56h.56v-.9h1.4v-2.58h1.24v-3.67h5.14V101h.41v1.83h1v-.56h.87v.56h.59v-.57H124v.57h1.24v-.59h.38v.6h.51v-.59h1.22v.44h.78v-.56h.85v.5h1v-.37h.63v.26h3v1.65h4.11s-.13-2.47,1.57-2.44,1.49,2.46,1.49,2.46h.65v2h1.47v1.32h1.6v5.26h.94v-1.5h1.32v1.56h.69v-3.93h1.32v2.43l3.09-3.15h2.31v-1.47H158v-.77h3.13v1H166l.53.77v2.75H167v-4.62h1l.74-4h1.43v-1h2.71l.79,3.8h.84v.9h.56V94.21l.77-.31.69-2.61h.9l.66,2.43.59.41v9.13h.66l2.19-1.43,1.5,1.4.49,0s.28-1.5.66-1.63V98.33h1.5v3.06a1.17,1.17,0,0,1,.49.56h.35V94.68l1.35-3h.84l1.21,3v7.57h2.31V99.69l1,0v2.56H202V90.55h-.66v-.6H202V86.09h.54V84.32h.56v-1.9h.51l1.9-10.16h.09V69.6h.09V68h.37v4.24h.09L208,82.05h.37V84h.74v1.77h.6v3.58h.88v.6h-.88v12.2h1.16l2.37-3.06.69-5.61h1.12l.41,1.94.74-1.06V90.83h.51l2.5-7.29V76.09h.57V83.5l3.4,7.73V94h.56v1.53h.49V94.29h.94V98h1v1.78l1.74,2.19h1.29V99.59h1.6v3.14h4.69V101h1.32v2.43h1.66V96.51l1-2.83h.74l1.25,2.86v1.07h.66v.69h-.63v4.52h3.55l2.28,2.28V96.7L249,94.11h.63l1.28,2.59v11.87h1.19V107h1v1.15l2.37.35,10.58.28v.69h.69v-5.61l.34-.13v-3.09h.56V101h.49l1.43-10h1.12l2,11.07h.28v-3.3h.59l.51,6v4.62h.49v-4.24h.69l.31,1.66v3.27h.31v-1h5.36v-2.33l.34-1.72h.56l.35,1.74V109h5.43v-.49h3.66v1.88h4v2.78h7v-1.41h2.22v2.09h4l1.25,1.25h7.37v-2.37h2.09v4.18h3.9V115h3.47v1.94h6.53V119h2.22V113.7h1.53v7.66h4v2.09h4V126h4.18v-4.31h2.5v5.43h2.78v-3.62h2.65V112.73h1.25v3.34h1.66v8.35h2.93V120h2.22v7.66h3.19v-5h4.59v11h3.62v-5h2.37v5h1.66v-10h2.5v11.69H387V132.9h4v2.93h4v-2.37h1.53v5.29h3.19v-7.38h2.37v3.9l1.6,1.6h1.6v-3.14h2.93v-3.47l1.88-1.88,1.46,1.46V133L414,135.4v3.34l1.25,1.25h3.33Z"/>
        </g>
      </g>
      <g>
        <g>
          <path class="cls-7" d="M68.42,11.7c-1.94,0-3.5.67-3.5,1.47l.63,148.64c0,.8,1.58,1.45,3.51,1.44s3.5-.67,3.5-1.47L71.93,13.14C71.93,12.34,70.36,11.69,68.42,11.7Z"/>
          <path class="cls-8" d="M71.94,13.12h0c0-.8-1.59-1.43-3.51-1.42v2.91h0L69,160.34h0v2.91c1.94,0,3.5-.67,3.5-1.47,0,0,0,0,0,0h0Z"/>
        </g>
        <path class="cls-9" d="M180.93,81.19c-9.82,7.64-27,7.2-39.47,4.24-4-.95-8.09-2.12-12.28-3.31l-1.61-.46.17-66.46c4.77,1.53,9.38,3.15,13.94,4.45,10.76,3,27,3.87,39-2.5C180.72,31.44,180.87,65.31,180.93,81.19Z"/>
        <path class="cls-5" d="M127.57,81.65c-7.82-2.21-15.93-4.4-24.2-5.23-10.19-1-20.61,0-31,5.56-.06-13.23-.2-47.38-.27-64,11.69-5.86,21.85-7.77,31-7.58a77,77,0,0,1,20.24,3.46c1.49.44,3,.89,4.41,1.36Z"/>
        <path class="cls-9" d="M104.35,46a6.66,6.66,0,0,0,.1-1.36,1.49,1.49,0,0,0-2.24-1.06,2.7,2.7,0,0,0-1.14,2.39l1.83,0c0,.68,0,1.34-.05,2,0,.06-.2.16-.3.16-1,0-2,0-3-.05h-.62a2.68,2.68,0,0,0,1.66,2.36,1.89,1.89,0,0,1-1.72,1.35,3.92,3.92,0,0,1-1.25,2.33,3.89,3.89,0,0,1-1.17-2.38,2,2,0,0,1-1.72-1.39,2.73,2.73,0,0,0,1.8-2.3l-.42,0c-1.06,0-2.12,0-3.18-.06-.27,0-.36-.09-.34-.36,0-.58,0-1.17,0-1.8l1.88,0a2.85,2.85,0,0,0-1-2.38,1.55,1.55,0,0,0-1.67-.1,1.33,1.33,0,0,0-.72,1.29,9.51,9.51,0,0,0,.11,1.07,3.43,3.43,0,0,1-2.94-2.34,3.61,3.61,0,0,1,3-4.63,2.62,2.62,0,0,1,1.49.33,5.29,5.29,0,0,1,2.6,3.21,11.75,11.75,0,0,1,.56,3.55l1,0c0-.53.05-1.05,0-1.57a21.66,21.66,0,0,0-1.62-6.06A8.08,8.08,0,0,1,94.65,35a9.18,9.18,0,0,1,1.87-4.92c.47-.65,1-1.24,1.58-1.9.31.36.57.66.82,1a10.34,10.34,0,0,1,2.32,4.9,6.23,6.23,0,0,1-.34,3.32c-.62,1.62-1.25,3.23-1.81,4.87a10.41,10.41,0,0,0-.46,3.59l.95,0c.13-.79.21-1.58.39-2.34a6.4,6.4,0,0,1,2.19-3.77,3.26,3.26,0,0,1,5.32,2.05,3.38,3.38,0,0,1-3,4.13A.47.47,0,0,1,104.35,46Z"/>
        <path class="cls-5" d="M143.07,43.4c1.15-.28,2.28-.59,3.42-.82A12.15,12.15,0,0,1,149,42.3a10.32,10.32,0,0,1,5.79,1.93.51.51,0,0,0,.61,0,14.3,14.3,0,0,1,4.79-1.55,11.61,11.61,0,0,1,4.17.32c.82.2,1.63.45,2.47.69-.67,2.65-1.51,5.16-3.41,7.12a24.52,24.52,0,0,1-2.87,2.32.73.73,0,0,0-.38.67A10.81,10.81,0,0,1,157,61.57c-.69.74-1.5,1.35-2.25,2-.23.2-.4.16-.62,0a13.88,13.88,0,0,1-4.45-7.38,11.13,11.13,0,0,1-.35-3.1.35.35,0,0,0-.16-.27,8.13,8.13,0,0,1-4.47-4.51A28.18,28.18,0,0,1,143.07,43.4Zm11.65,6.69-.24.13A3.86,3.86,0,0,0,152,54.92a15.27,15.27,0,0,0,2.33,5.66,1.2,1.2,0,0,1,.07.16l.12,0c.1-.13.19-.26.3-.38a9.8,9.8,0,0,0,1.85-2.77,8.82,8.82,0,0,0,.7-3.14c0-.27-.06-.4-.36-.39s-.62-.07-.93-.07a1,1,0,0,1-1-.68,12.59,12.59,0,0,1-.45-1.65,6.59,6.59,0,0,1-.07-.91l.36.25a4.13,4.13,0,0,0,4.56.17,9.32,9.32,0,0,0,4.11-5.1c.21-.56.2-.59-.39-.68a12.92,12.92,0,0,0-4.15-.05,3.42,3.42,0,0,0-1.89.84.42.42,0,0,0-.1.57,2.86,2.86,0,0,1,.31,1,3,3,0,0,1-2.19,2.66c0-.1,0-.21.05-.3a2.82,2.82,0,0,0-.43-2.3A5,5,0,0,0,153,46.22a10.47,10.47,0,0,0-6.37-1.16c-.53.06-.54.08-.37.6A10.39,10.39,0,0,0,150,50.59a2.43,2.43,0,0,0,.23.14l.76-.92a1.66,1.66,0,0,1,1-.64A3.7,3.7,0,0,1,154.72,50.1Z"/>
      </g>
    </g>
  </g>
  <g class="cls-10">
    <g>
      <g class="cls-10">
        <path class="cls-11" d="M0,74.5c15,0,15,1,30,1s15-1,30-1,15,1,30,1,15-1,30-1,15,1,30,1,15-1,30-1,15,1,30,1,15-1,30-1,15,1,30,1,15-1,30-1"/>
      </g>
      <path class="cls-11" d="M0,74.5c15,0,15,1,30,1s15-1,30-1,15,1,30,1,15-1,30-1,15,1,30,1,15-1,30-1,15,1,30,1,15-1,30-1,15,1,30,1,15-1,30-1"/>
    </g>
  </g>
</svg>
