<svg xmlns="http://www.w3.org/2000/svg" xmlns:xlink="http://www.w3.org/1999/xlink" viewBox="0 0 300 150">
  <defs>
    <style>
      .cls-1, .cls-11, .cls-33, .cls-8 {
        fill: none;
      }

      .cls-2 {
        isolation: isolate;
      }

      .cls-3 {
        clip-path: url(#clip-path);
      }

      .cls-4 {
        fill: #a2d0c4;
      }

      .cls-5 {
        opacity: 0.46;
      }

      .cls-10, .cls-6, .cls-8, .cls-9 {
        mix-blend-mode: screen;
      }

      .cls-10, .cls-7 {
        fill: #fff;
      }

      .cls-9 {
        fill: #b4d27d;
      }

      .cls-11 {
        stroke: #afa47b;
        stroke-linecap: round;
        stroke-linejoin: round;
        stroke-width: 3px;
      }

      .cls-12 {
        clip-path: url(#clip-path-2);
      }

      .cls-13 {
        fill: #92bfb2;
      }

      .cls-14 {
        fill: #5e352f;
      }

      .cls-15 {
        fill: #c38762;
      }

      .cls-16 {
        fill: #d09671;
      }

      .cls-17 {
        fill: #ffc95e;
      }

      .cls-18 {
        fill: #faa551;
      }

      .cls-19 {
        clip-path: url(#clip-path-3);
      }

      .cls-20 {
        fill: #57bfc7;
      }

      .cls-21 {
        fill: #744b3f;
      }

      .cls-22 {
        fill: #634034;
      }

      .cls-23 {
        fill: #946d50;
      }

      .cls-24 {
        fill: #f05253;
      }

      .cls-25 {
        fill: #45291f;
      }

      .cls-26 {
        fill: #b58462;
      }

      .cls-27 {
        fill: #ef4145;
      }

      .cls-28 {
        fill: #d6353b;
      }

      .cls-29 {
        clip-path: url(#clip-path-4);
      }

      .cls-30 {
        fill: #f68b54;
      }

      .cls-31 {
        fill: #f47947;
      }

      .cls-32 {
        clip-path: url(#clip-path-6);
      }

      .cls-33 {
        stroke: #0090cf;
        stroke-miterlimit: 10;
      }
    </style>
    <clipPath id="clip-path">
      <rect class="cls-1" width="300" height="150"/>
    </clipPath>
    <clipPath id="clip-path-2">
      <circle class="cls-1" cx="151.37" cy="122.51" r="25.28"/>
    </clipPath>
    <clipPath id="clip-path-3">
      <circle class="cls-1" cx="108.29" cy="37.43" r="30.88"/>
    </clipPath>
    <clipPath id="clip-path-4">
      <circle class="cls-1" cx="198.87" cy="37.43" r="30.88"/>
    </clipPath>
    <clipPath id="clip-path-6">
      <rect class="cls-1" x="-899.77" y="355.44" width="300" height="150"/>
    </clipPath>
  </defs>
  <title>Genealogy</title>
  <g class="cls-2">
    <g id="Layer_1" data-name="Layer 1">
      <g class="cls-3">
        <g>
          <rect class="cls-4" width="300" height="150.95"/>
          <g class="cls-5">
            <g class="cls-6">
              <path class="cls-7" d="M23.5,131.45l-17.69-4.8.23-.85,17.86,4.85c-2.78-2.58-10.73-8.51-23.15-5.82C3.11,126.84,12,133.59,23.5,131.45Z"/>
              <path class="cls-7" d="M19,126.13a27.16,27.16,0,0,0-19.3-2,.44.44,0,0,0-.32.31.44.44,0,0,0,.11.43c.11.11,11.19,10.87,25.95,7a.44.44,0,0,0,.27-.2l0-.09a.44.44,0,0,0-.08-.42A22.44,22.44,0,0,0,19,126.13Zm4.89,4.51L6,125.79l-.23.85,17.69,4.8C12,133.59,3.11,126.84.75,124.82,13.16,122.13,21.12,128.06,23.9,130.64Z"/>
              <path class="cls-7" d="M62.22,146.76a27.16,27.16,0,0,0-19.3-2,.44.44,0,0,0-.21.74c.11.11,11.19,10.87,25.95,7a.44.44,0,0,0,.27-.2l0-.09a.44.44,0,0,0-.08-.42A22.44,22.44,0,0,0,62.22,146.76Zm4.89,4.51-17.86-4.85-.23.85,17.69,4.8c-11.48,2.14-20.39-4.61-22.75-6.63C56.37,142.77,64.32,148.69,67.1,151.27Z"/>
              <path class="cls-7" d="M31.12,92.33A27.16,27.16,0,0,0,13,85.53a.44.44,0,0,0-.39.67c.08.13,8.08,13.35,23.32,13.36a.44.44,0,0,0,.31-.12l.06-.08a.44.44,0,0,0,0-.42A22.44,22.44,0,0,0,31.12,92.33Zm3.58,5.6L18.65,88.72l-.44.77,15.9,9.12C22.47,97.77,15.56,89,13.78,86.44,26.47,87,32.67,94.73,34.71,97.93Z"/>
              <path class="cls-7" d="M45,87.35A27.16,27.16,0,0,0,30,75a.44.44,0,0,0-.58.5c0,.15,3.26,15.26,17.66,20.27a.44.44,0,0,0,.33,0l.09-.05a.44.44,0,0,0,.17-.39A22.44,22.44,0,0,0,45,87.35Zm1.55,6.47-12.15-14-.67.58,12,13.82C35,89.66,31.35,79.1,30.51,76.11,42.32,80.78,45.65,90.13,46.52,93.82Z"/>
              <path class="cls-7" d="M11.65,93.83A27.16,27.16,0,0,0-7.69,95.25a.44.44,0,0,0-.26.36.44.44,0,0,0,.19.41c.13.09,12.92,8.75,26.78,2.39a.44.44,0,0,0,.1-.74A22.44,22.44,0,0,0,11.65,93.83Zm5.6,3.59L-1.18,95.77l-.08.88L17,98.28c-10.93,4.11-20.88-1-23.56-2.55C5.2,90.92,14.07,95.36,17.25,97.42Z"/>
              <path class="cls-7" d="M39.41,129a27.16,27.16,0,0,0-13-14.43.44.44,0,0,0-.65.41c0,.15,1,15.57,14.5,22.64a.44.44,0,0,0,.33,0l.09,0a.44.44,0,0,0,.22-.36A22.44,22.44,0,0,0,39.41,129Zm.59,6.62L30,120l-.74.48,9.88,15.44c-9.94-6.13-12-17.11-12.4-20.2C37.77,122.07,39.68,131.8,40,135.58Z"/>
              <path class="cls-7" d="M59.12,124.86l-17.69-4.8.23-.85L59.52,124c-2.78-2.58-10.73-8.51-23.15-5.82C38.73,120.25,47.64,127,59.12,124.86Z"/>
              <path class="cls-7" d="M54.63,119.53a27.16,27.16,0,0,0-19.3-2,.44.44,0,0,0-.21.74c.11.11,11.19,10.87,25.95,7a.44.44,0,0,0,.27-.2l0-.09a.44.44,0,0,0-.08-.42A22.44,22.44,0,0,0,54.63,119.53ZM59.52,124,41.66,119.2l-.23.85,17.69,4.8c-11.48,2.14-20.39-4.61-22.75-6.63C48.78,115.54,56.74,121.46,59.52,124Z"/>
              <path class="cls-7" d="M69.94,87.33a27.16,27.16,0,0,0-19.3-2,.44.44,0,0,0-.21.74c.11.11,11.19,10.87,25.95,7a.44.44,0,0,0,.27-.2l0-.09a.44.44,0,0,0-.08-.42A22.44,22.44,0,0,0,69.94,87.33Zm4.89,4.51L57,87l-.23.85,17.69,4.8C62.95,94.79,54,88,51.68,86,64.09,83.33,72.05,89.26,74.83,91.84Z"/>
              <path class="cls-7" d="M75,122.36a27.16,27.16,0,0,0-13-14.43.44.44,0,0,0-.65.41c0,.15,1,15.57,14.5,22.64a.44.44,0,0,0,.33,0l.09,0a.44.44,0,0,0,.22-.36A22.44,22.44,0,0,0,75,122.36Zm.59,6.62-10-15.59-.74.48,9.88,15.44c-9.94-6.13-12-17.11-12.4-20.2C73.39,115.48,75.3,125.21,75.62,129Z"/>
            </g>
            <g class="cls-6">
              <path class="cls-7" d="M219.59,91l12.73-13.19.64.61L220.11,91.75c3.6-1.19,12.62-5.31,16.25-17.48C233.45,75.36,223.25,79.92,219.59,91Z"/>
              <path class="cls-7" d="M189,96.6s13,5.45,25.77-5.93"/>
              <path class="cls-7" d="M226.42,89.64a27.16,27.16,0,0,0,11-16,.44.44,0,0,0-.55-.54c-.15,0-14.92,4.57-18.66,19.35a.44.44,0,0,0,0,.33l.06.08a.44.44,0,0,0,.4.13A22.44,22.44,0,0,0,226.42,89.64Zm-6.31,2.11L233,78.43l-.64-.61L219.59,91c3.66-11.09,13.86-15.65,16.77-16.74C232.73,86.44,223.71,90.56,220.11,91.75Z"/>
              <path class="cls-7" d="M187.53,117.57a27.16,27.16,0,0,0,11-16,.44.44,0,0,0-.55-.54c-.15,0-14.92,4.57-18.66,19.35a.44.44,0,0,0,0,.33l.06.08a.44.44,0,0,0,.4.13A22.44,22.44,0,0,0,187.53,117.57Zm-6.31,2.11,12.85-13.32-.64-.61L180.7,118.94c3.66-11.09,13.86-15.65,16.77-16.74C193.84,114.36,184.82,118.48,181.22,119.67Z"/>
              <path class="cls-7" d="M250.21,116.53a27.16,27.16,0,0,0,14.71-12.65.44.44,0,0,0-.4-.66c-.15,0-15.59.65-22.95,14a.44.44,0,0,0,0,.33.45.45,0,0,0,0,.09.44.44,0,0,0,.36.23A22.44,22.44,0,0,0,250.21,116.53Zm-6.64.44,15.8-9.63-.46-.75-15.65,9.54c6.34-9.81,17.37-11.63,20.46-12C257.13,115,247.36,116.74,243.57,117Z"/>
              <path class="cls-7" d="M247.9,131.06a27.16,27.16,0,0,0,18-7.13.44.44,0,0,0-.16-.75c-.15,0-14.94-4.49-26.27,5.72a.44.44,0,0,0-.14.3.45.45,0,0,0,0,.1.44.44,0,0,0,.26.33A22.44,22.44,0,0,0,247.9,131.06Zm-6.42-1.75,18.08-3.93-.19-.86-17.91,3.89c9.21-7.19,20.22-5.31,23.25-4.6C254.93,131.91,245.14,130.32,241.49,129.31Z"/>
              <path class="cls-7" d="M249.55,84.08a27.16,27.16,0,0,0,18-7.13.44.44,0,0,0-.16-.75c-.15,0-14.94-4.49-26.27,5.72a.44.44,0,0,0-.14.3.45.45,0,0,0,0,.1.44.44,0,0,0,.26.33A22.44,22.44,0,0,0,249.55,84.08Zm-6.42-1.75,18.08-3.93-.19-.86-17.91,3.89c9.21-7.19,20.22-5.31,23.25-4.6C256.58,84.93,246.79,83.34,243.13,82.33Z"/>
              <path class="cls-7" d="M258.27,98.75a27.16,27.16,0,0,0,8.07-17.64.44.44,0,0,0-.64-.43c-.14.07-13.89,7.11-15,22.32a.44.44,0,0,0,.1.32l.07.07a.44.44,0,0,0,.42.06A22.44,22.44,0,0,0,258.27,98.75Zm-5.84,3.18,10.32-15.36-.73-.49-10.23,15.21c1.66-11.56,10.91-17.83,13.58-19.42C263.93,94.49,255.76,100.13,252.43,101.93Z"/>
              <path class="cls-7" d="M214.11,106.16A27.16,27.16,0,0,0,233,101.75a.44.44,0,0,0,0-.77c-.14-.07-14.12-6.64-26.82,1.8a.44.44,0,0,0,0,.74A22.44,22.44,0,0,0,214.11,106.16ZM208,103.48l18.46-1.23-.06-.88-18.29,1.22c10.16-5.76,20.78-2.28,23.67-1.14C220.94,108,211.49,105,208,103.48Z"/>
              <path class="cls-7" d="M208.21,125.4l12.73-13.19.64.61-12.85,13.32c3.6-1.19,12.62-5.31,16.25-17.48C222.07,109.75,211.87,114.31,208.21,125.4Z"/>
              <path class="cls-7" d="M215,124a27.16,27.16,0,0,0,11-16,.44.44,0,0,0-.55-.54c-.15,0-14.92,4.57-18.66,19.35a.44.44,0,0,0,0,.33l.06.08a.44.44,0,0,0,.4.13A22.44,22.44,0,0,0,215,124Zm-6.31,2.11,12.85-13.32-.64-.61L208.21,125.4c3.66-11.09,13.86-15.65,16.77-16.74C221.36,120.83,212.33,125,208.73,126.14Z"/>
              <path class="cls-7" d="M235.89,153a27.16,27.16,0,0,0,11-16,.44.44,0,0,0-.55-.54c-.15,0-14.92,4.57-18.66,19.35a.44.44,0,0,0,0,.33l.06.08a.44.44,0,0,0,.4.13A22.44,22.44,0,0,0,235.89,153Zm-6.31,2.11,12.85-13.32-.64-.61-12.73,13.19c3.66-11.09,13.86-15.65,16.77-16.74C242.21,149.76,233.18,153.88,229.58,155.07Z"/>
              <path class="cls-7" d="M202.73,140.55a27.16,27.16,0,0,0,18.89-4.41.44.44,0,0,0,0-.77c-.14-.07-14.12-6.64-26.82,1.8a.44.44,0,0,0,0,.74A22.44,22.44,0,0,0,202.73,140.55Zm-6.09-2.68,18.46-1.23-.06-.88L196.76,137c10.16-5.76,20.78-2.28,23.67-1.14C209.56,142.42,200.11,139.41,196.64,137.87Z"/>
            </g>
            <g class="cls-6">
              <path class="cls-7" d="M135.52,84.76l16.83-7.27.35.81-17,7.34c3.78.29,13.7,0,21.74-9.87C154.34,75.66,143.17,75.93,135.52,84.76Z"/>
              <path class="cls-7" d="M142.35,86.12a27.16,27.16,0,0,0,16.33-10.47.44.44,0,0,0-.3-.71c-.15,0-15.53-1.53-24.67,10.67a.44.44,0,0,0-.08.32.45.45,0,0,0,0,.1.44.44,0,0,0,.32.28A22.44,22.44,0,0,0,142.35,86.12Zm-6.63-.49,17-7.34-.35-.81-16.83,7.27c7.65-8.83,18.82-9.1,21.93-9C149.41,85.61,139.5,85.93,135.71,85.64Z"/>
              <path class="cls-7" d="M95.7,96.9A27.16,27.16,0,0,0,112,86.43a.44.44,0,0,0-.3-.71c-.15,0-15.53-1.53-24.67,10.67a.44.44,0,0,0-.08.32.45.45,0,0,0,0,.1.44.44,0,0,0,.32.28A22.44,22.44,0,0,0,95.7,96.9Zm-6.63-.49,17-7.34-.35-.81L88.87,95.53c7.65-8.83,18.82-9.1,21.93-9C102.76,96.38,92.84,96.7,89.06,96.41Z"/>
              <path class="cls-7" d="M153.93,120.11a27.16,27.16,0,0,0,18.45-6,.44.44,0,0,0-.11-.76c-.14-.06-14.64-5.41-26.57,4.08a.44.44,0,0,0-.16.29.45.45,0,0,0,0,.1.44.44,0,0,0,.24.35A22.44,22.44,0,0,0,153.93,120.11ZM147.64,118l18.29-2.8-.13-.87-18.12,2.77c9.64-6.6,20.51-4,23.49-3.15C160.9,121.39,151.22,119.2,147.64,118Z"/>
              <path class="cls-7" d="M146.2,132.63a27.16,27.16,0,0,0,19.39.37.44.44,0,0,0,.14-.76c-.12-.1-12.06-9.91-26.44-4.85a.44.44,0,0,0-.25.22.44.44,0,0,0,.08.5A22.44,22.44,0,0,0,146.2,132.63ZM141,128.53l18.2,3.35.16-.87-18-3.31c11.27-3.09,20.7,2.9,23.22,4.72C152.36,136.12,143.94,130.88,141,128.53Z"/>
              <path class="cls-7" d="M165.83,89.91a27.16,27.16,0,0,0,19.39.37.44.44,0,0,0,.14-.76c-.12-.1-12.06-9.91-26.44-4.85a.44.44,0,0,0-.25.22.44.44,0,0,0,.08.5A22.44,22.44,0,0,0,165.83,89.91Zm-5.24-4.09,18.2,3.35.16-.87-18-3.31c11.27-3.09,20.7,2.9,23.22,4.72C172,93.4,163.57,88.16,160.59,85.82Z"/>
              <path class="cls-7" d="M168.22,106.81a27.16,27.16,0,0,0,14.25-13.16A.44.44,0,0,0,182,93c-.15,0-15.56,1.2-22.43,14.81a.44.44,0,0,0,0,.33l0,.09a.44.44,0,0,0,.36.22A22.44,22.44,0,0,0,168.22,106.81Zm-6.62.68L177.05,97.3l-.49-.74-15.3,10.1c6-10,16.94-12.25,20-12.68C175.09,105.06,165.38,107.11,161.61,107.49Z"/>
              <path class="cls-7" d="M124.62,96.62a27.16,27.16,0,0,0,19.13,3.21.44.44,0,0,0,.25-.73c-.1-.12-10.47-11.57-25.44-8.68a.44.44,0,0,0-.28.18l0,.09a.44.44,0,0,0,.05.42A22.44,22.44,0,0,0,124.62,96.62ZM120,91.81l17.51,6,.29-.84L120.49,91c11.6-1.4,20.05,5.9,22.28,8.07C130.2,101,122.64,94.56,120,91.81Z"/>
              <path class="cls-7" d="M111.76,112.11l16.83-7.27.35.81L112,113c3.78.29,13.7,0,21.74-9.87C130.58,103,119.41,103.28,111.76,112.11Z"/>
              <path class="cls-7" d="M137.31,158.44s13.22-5,14.69-22C152,136.45,138.36,143.3,137.31,158.44Z"/>
              <path class="cls-7" d="M118.59,113.47A27.16,27.16,0,0,0,134.92,103a.44.44,0,0,0-.3-.71c-.15,0-15.53-1.53-24.67,10.67a.44.44,0,0,0-.08.32.45.45,0,0,0,0,.1.44.44,0,0,0,.32.28A22.44,22.44,0,0,0,118.59,113.47ZM112,113l17-7.34-.35-.81-16.83,7.27c7.65-8.83,18.82-9.1,21.93-9C125.65,113,115.74,113.28,112,113Z"/>
              <path class="cls-7" d="M126.68,148.2A27.16,27.16,0,0,0,143,137.73a.44.44,0,0,0-.3-.71c-.15,0-15.53-1.53-24.67,10.67a.44.44,0,0,0,.26.7A22.44,22.44,0,0,0,126.68,148.2Zm-6.63-.49,17-7.34-.35-.81-16.83,7.27c7.65-8.83,18.82-9.1,21.93-9C133.74,147.68,123.83,148,120,147.72Z"/>
              <path class="cls-7" d="M100.87,124A27.16,27.16,0,0,0,120,127.18a.44.44,0,0,0,.25-.73c-.1-.12-10.47-11.57-25.44-8.68a.44.44,0,0,0-.28.18l0,.09a.44.44,0,0,0,.05.42A22.44,22.44,0,0,0,100.87,124Zm-4.59-4.82,17.51,6,.29-.84-17.35-5.92c11.6-1.4,20.05,5.9,22.28,8.07C106.45,128.33,98.89,121.91,96.28,119.15Z"/>
            </g>
            <path class="cls-8" d="M162.22,5.77,179.05-1.5l.35.81-17,7.34c3.78.29,13.7,0,21.74-9.87C181-3.33,169.87-3.06,162.22,5.77Z"/>
            <path class="cls-9" d="M188.49,47.54s13.8,3,24.27-10.49C212.76,37,197.59,35.4,188.49,47.54Z"/>
            <path class="cls-10" d="M93.75-3.37A27.16,27.16,0,0,0,80-17.05a.44.44,0,0,0-.45,0,.44.44,0,0,0-.18.41c0,.15,1.86,15.49,15.75,21.79a.44.44,0,0,0,.33,0l.09,0a.44.44,0,0,0,.2-.37A22.44,22.44,0,0,0,93.75-3.37Zm1,6.58-10.83-15-.72.52L93.9,3.59C83.62-2,80.95-12.82,80.38-15.88,91.72-10.16,94.18-.55,94.71,3.21Z"/>
            <path class="cls-10" d="M296.65,74.64a27.16,27.16,0,0,0,15,12.29.44.44,0,0,0,.58-.51c0-.15-3.34-15.24-17.77-20.17a.44.44,0,0,0-.33,0l-.09.05a.44.44,0,0,0-.17.39A22.44,22.44,0,0,0,296.65,74.64Zm-1.59-6.46,12.22,13.89.66-.58L295.84,67.73c10.76,4.55,14.47,15.09,15.32,18.08C299.32,81.2,296,71.87,295.06,68.18Z"/>
            <path class="cls-10" d="M229.31,59.51a27.16,27.16,0,0,0,14.33,13.07.44.44,0,0,0,.61-.47c0-.15-2.53-15.4-16.67-21.09a.44.44,0,0,0-.33,0l-.09,0a.44.44,0,0,0-.19.38A22.44,22.44,0,0,0,229.31,59.51ZM228.06,53l11.47,14.52.69-.55L228.86,52.56c10.5,5.11,13.65,15.83,14.34,18.87C231.63,66.2,228.76,56.7,228.06,53Z"/>
            <path class="cls-10" d="M210.79,67.62a27.16,27.16,0,0,0-4.89,18.77.44.44,0,0,0,.7.32c.12-.09,12.45-9.41,10.9-24.57a.44.44,0,0,0-.16-.29l-.08-.06a.44.44,0,0,0-.42,0A22.44,22.44,0,0,0,210.79,67.62Zm5.2-4.14-7.51,16.91.81.36L216.74,64c.37,11.68-7.66,19.45-10,21.48C206,72.79,213,65.83,216,63.48Z"/>
            <path class="cls-10" d="M216.3,50.52a27.16,27.16,0,0,0,11,16,.44.44,0,0,0,.7-.32c0-.15,1.07-15.57-11.39-24.35a.44.44,0,0,0-.32-.08l-.1,0a.44.44,0,0,0-.27.33A22.44,22.44,0,0,0,216.3,50.52Zm.29-6.64,7.84,16.76.8-.37-7.76-16.61c9,7.39,9.65,18.54,9.63,21.65C217,57.56,216.41,47.66,216.59,43.87Z"/>
            <path class="cls-10" d="M65.57,62.93a27.16,27.16,0,0,0,11,16,.44.44,0,0,0,.7-.32c0-.15,1.07-15.57-11.39-24.35a.44.44,0,0,0-.32-.08l-.1,0a.44.44,0,0,0-.27.33A22.44,22.44,0,0,0,65.57,62.93Zm.29-6.64,7.84,16.76.8-.37L66.73,56.07c9,7.39,9.65,18.54,9.63,21.65C66.3,70,65.68,60.08,65.86,56.29Z"/>
            <path class="cls-10" d="M183.7,66.47a27.16,27.16,0,0,0,1.69,19.32.44.44,0,0,0,.77.06c.09-.13,8.57-13,2-26.81a.44.44,0,0,0-.24-.22l-.1,0a.44.44,0,0,0-.39.15A22.44,22.44,0,0,0,183.7,66.47Zm3.51-5.65-1.39,18.45.88.07,1.38-18.28c4.27,10.87-.68,20.89-2.22,23.59C180.88,73,185.2,64,187.21,60.82Z"/>
            <path class="cls-8" d="M138.47,33.12l16.83-7.27.35.81-17,7.34c3.78.29,13.7,0,21.74-9.87C157.29,24,146.12,24.29,138.47,33.12Z"/>
            <path class="cls-10" d="M153.38,69.21a27.16,27.16,0,0,0,16.33-10.47.44.44,0,0,0-.3-.71c-.15,0-15.53-1.53-24.67,10.67a.44.44,0,0,0,.26.7A22.44,22.44,0,0,0,153.38,69.21Zm-6.63-.49,17-7.34-.35-.81-16.83,7.27c7.65-8.83,18.82-9.1,21.93-9C160.44,68.69,150.53,69,146.75,68.73Z"/>
            <path class="cls-10" d="M196.79,154.07a27.16,27.16,0,0,0,16.33-10.47.44.44,0,0,0-.3-.71c-.15,0-15.53-1.53-24.67,10.67a.44.44,0,0,0,.26.7A22.44,22.44,0,0,0,196.79,154.07Zm-6.63-.49,17-7.34-.35-.81L190,152.7c7.65-8.83,18.82-9.1,21.93-9C203.85,153.55,193.93,153.87,190.15,153.58Z"/>
            <path class="cls-10" d="M127.48,72.85A27.16,27.16,0,0,0,143.8,62.38a.44.44,0,0,0-.3-.71c-.15,0-15.53-1.53-24.67,10.67a.44.44,0,0,0,.26.7A22.44,22.44,0,0,0,127.48,72.85Zm-6.63-.49,17-7.34-.35-.81-16.83,7.27c7.65-8.83,18.82-9.1,21.93-9C134.54,72.33,124.62,72.65,120.84,72.36Z"/>
            <path class="cls-10" d="M81.66,160.45A27.16,27.16,0,0,0,98,150a.44.44,0,0,0-.3-.71c-.15,0-15.53-1.53-24.67,10.67a.44.44,0,0,0,.26.7A22.44,22.44,0,0,0,81.66,160.45ZM75,160l17-7.34-.35-.81-16.83,7.27c7.65-8.83,18.82-9.1,21.93-9C88.72,159.93,78.81,160.26,75,160Z"/>
            <path class="cls-10" d="M266.68,144.79A27.16,27.16,0,0,0,283,134.32a.44.44,0,0,0-.3-.71c-.15,0-15.53-1.53-24.67,10.67a.44.44,0,0,0-.08.32.45.45,0,0,0,0,.1.44.44,0,0,0,.32.28A22.44,22.44,0,0,0,266.68,144.79ZM260,144.3,277,137l-.35-.81-16.83,7.27c7.65-8.83,18.82-9.1,21.93-9C273.74,144.27,263.83,144.59,260,144.3Z"/>
            <path class="cls-10" d="M288.47,138.17A27.16,27.16,0,0,0,304.56,149a.44.44,0,0,0,.53-.56c0-.15-4.76-14.86-19.58-18.41a.44.44,0,0,0-.33,0l-.08.06a.44.44,0,0,0-.13.4A22.44,22.44,0,0,0,288.47,138.17Zm-2.19-6.28,13.48,12.68.61-.64L287,131.36c11.14,3.52,15.82,13.66,17,16.56C291.75,144.44,287.51,135.47,286.28,131.88Z"/>
            <path class="cls-10" d="M294.78,104.95a27.16,27.16,0,0,0,16.33-10.47.44.44,0,0,0-.3-.71c-.15,0-15.53-1.53-24.67,10.67a.44.44,0,0,0-.08.32.45.45,0,0,0,0,.1.44.44,0,0,0,.32.28A22.44,22.44,0,0,0,294.78,104.95Zm-6.63-.49,17-7.34-.35-.81L288,103.58c7.65-8.83,18.82-9.1,21.93-9C301.84,104.43,291.93,104.75,288.15,104.46Z"/>
            <path class="cls-10" d="M94.27,135.59A27.16,27.16,0,0,0,86,118a.44.44,0,0,0-.74.21c0,.15-3.56,15.19,7.33,25.86a.44.44,0,0,0,.31.13H93a.44.44,0,0,0,.32-.28A22.44,22.44,0,0,0,94.27,135.59Zm-1.35,6.51-5-17.8-.85.24,5,17.64c-7.75-8.74-6.55-19.85-6-22.92C94.68,128.52,93.7,138.39,92.92,142.1Z"/>
            <path class="cls-10" d="M88.75,81.49A27.16,27.16,0,0,0,105.08,71a.44.44,0,0,0-.3-.71c-.15,0-15.53-1.53-24.67,10.67a.44.44,0,0,0,.26.7A22.44,22.44,0,0,0,88.75,81.49ZM82.12,81l17-7.34-.35-.81L81.93,80.13c7.65-8.83,18.82-9.1,21.93-9C95.82,81,85.9,81.3,82.12,81Z"/>
            <g class="cls-6">
              <path class="cls-7" d="M169,7.14A27.16,27.16,0,0,0,185.38-3.34a.44.44,0,0,0,.06-.44.44.44,0,0,0-.36-.27c-.15,0-15.53-1.53-24.67,10.67a.44.44,0,0,0,.26.7A22.44,22.44,0,0,0,169,7.14Zm-6.63-.49,17-7.34-.35-.81L162.22,5.77c7.65-8.83,18.82-9.1,21.93-9C176.11,6.62,166.2,6.94,162.42,6.65Z"/>
              <path class="cls-7" d="M122.4,17.91A27.16,27.16,0,0,0,138.73,7.44a.44.44,0,0,0-.3-.71c-.15,0-15.53-1.53-24.67,10.67a.44.44,0,0,0,.26.7A22.44,22.44,0,0,0,122.4,17.91Zm-6.63-.49,17-7.34-.35-.81-16.83,7.27c7.65-8.83,18.82-9.1,21.93-9C129.46,17.39,119.55,17.71,115.77,17.42Z"/>
              <path class="cls-7" d="M127.62-1.09a27.16,27.16,0,0,0,7.67-17.82.44.44,0,0,0-.2-.4.44.44,0,0,0-.45,0c-.14.07-13.73,7.42-14.48,22.65a.44.44,0,0,0,.11.31l.08.07a.44.44,0,0,0,.42.05A22.44,22.44,0,0,0,127.62-1.09Zm-5.77,3.31,10-15.59-.74-.48L121.2,1.6c1.4-11.6,10.5-18.07,13.14-19.72C133.19-5.47,125.15.35,121.86,2.22Z"/>
              <path class="cls-7" d="M103.52,27a27.16,27.16,0,0,0,2.83-19.19.44.44,0,0,0-.73-.24c-.11.11-11.36,10.7-8.17,25.61a.44.44,0,0,0,.19.27l.09,0a.44.44,0,0,0,.42-.06A22.44,22.44,0,0,0,103.52,27ZM98.8,31.64,104.42,14l-.84-.27L98,31.21c-1.63-11.57,5.5-20.17,7.63-22.44C107.77,21.29,101.5,29,98.8,31.64Z"/>
              <path class="cls-7" d="M180.63,41.12a27.16,27.16,0,0,0,18.45-6,.44.44,0,0,0-.11-.76c-.14-.06-14.64-5.41-26.57,4.08a.44.44,0,0,0-.16.29.44.44,0,0,0,.24.45A22.44,22.44,0,0,0,180.63,41.12ZM174.34,39l18.29-2.8-.13-.87-18.12,2.77c9.64-6.6,20.51-4,23.49-3.15C187.6,42.4,177.92,40.21,174.34,39Z"/>
              <path class="cls-7" d="M172.9,53.64A27.16,27.16,0,0,0,192.3,54a.44.44,0,0,0,.14-.76c-.12-.1-12.06-9.91-26.44-4.85a.44.44,0,0,0-.17.72A22.44,22.44,0,0,0,172.9,53.64Zm-5.24-4.09,18.2,3.35L186,52l-18-3.31c11.27-3.09,20.7,2.9,23.22,4.72C179.07,57.13,170.64,51.89,167.66,49.55Z"/>
              <path class="cls-7" d="M192.53,10.92a27.16,27.16,0,0,0,19.39.37.44.44,0,0,0,.14-.76C212,10.43,200,.63,185.63,5.68a.44.44,0,0,0-.25.22.45.45,0,0,0,0,.1.44.44,0,0,0,.11.41A22.44,22.44,0,0,0,192.53,10.92Zm-5.24-4.09,18.2,3.35.16-.87L187.62,6c11.27-3.09,20.7,2.9,23.22,4.72C198.69,14.41,190.27,9.17,187.29,6.83Z"/>
              <path class="cls-7" d="M211.09-1.92a27.16,27.16,0,0,0,19.06,3.58.44.44,0,0,0,.27-.72c-.1-.12-10.25-11.77-25.27-9.16a.44.44,0,0,0-.28.18l-.05.09a.44.44,0,0,0,0,.42A22.44,22.44,0,0,0,211.09-1.92Zm-4.49-4.9L224-.51l.3-.83L207.06-7.6C218.69-8.78,227-1.31,229.18.9,216.59,2.54,209.15-4,206.6-6.83Z"/>
              <path class="cls-7" d="M194.93,27.82a27.16,27.16,0,0,0,14.25-13.16.44.44,0,0,0-.42-.65c-.15,0-15.56,1.2-22.43,14.81a.44.44,0,0,0,0,.33l0,.09a.44.44,0,0,0,.36.22A22.44,22.44,0,0,0,194.93,27.82Zm-6.62.68,15.44-10.19-.49-.74L188,27.66c6-10,16.94-12.25,20-12.68C201.79,26.07,192.08,28.12,188.31,28.5Z"/>
              <path class="cls-7" d="M151.33,17.63a27.16,27.16,0,0,0,19.13,3.21.44.44,0,0,0,.25-.73c-.1-.12-10.47-11.57-25.44-8.68a.44.44,0,0,0-.28.18l0,.09a.44.44,0,0,0,.05.42A22.44,22.44,0,0,0,151.33,17.63Zm-4.59-4.82,17.51,6,.29-.84L147.19,12c11.6-1.4,20.05,5.9,22.28,8.07C156.91,22,149.34,15.57,146.74,12.82Z"/>
              <path class="cls-7" d="M145.29,34.48A27.16,27.16,0,0,0,161.62,24a.44.44,0,0,0-.3-.71c-.15,0-15.53-1.53-24.67,10.67a.44.44,0,0,0-.08.32.45.45,0,0,0,0,.1.44.44,0,0,0,.32.28A22.44,22.44,0,0,0,145.29,34.48ZM138.66,34l17-7.34-.35-.81-16.83,7.27c7.65-8.83,18.82-9.1,21.93-9C152.35,34,142.44,34.29,138.66,34Z"/>
              <path class="cls-7" d="M96.3,49.63a27.16,27.16,0,0,0,16.33-10.47.44.44,0,0,0-.3-.71c-.15,0-15.53-1.53-24.67,10.67a.44.44,0,0,0,.26.7A22.44,22.44,0,0,0,96.3,49.63Zm-6.63-.49,17-7.34L106.3,41,89.47,48.27c7.65-8.83,18.82-9.1,21.93-9C103.36,49.11,93.44,49.44,89.66,49.15Z"/>
              <path class="cls-7" d="M127.57,45a27.16,27.16,0,0,0,19.13,3.21.44.44,0,0,0,.25-.73c-.1-.12-10.47-11.57-25.44-8.68a.44.44,0,0,0-.28.18l0,.09a.44.44,0,0,0,.05.42A22.44,22.44,0,0,0,127.57,45ZM123,40.16l17.51,6,.29-.84-17.35-5.92c11.6-1.4,20.05,5.9,22.28,8.07C133.15,49.34,125.59,42.92,123,40.16Z"/>
            </g>
            <g class="cls-6">
              <path class="cls-7" d="M264.66,3.07,281.49-4.2l.35.81-17,7.34c3.78.29,13.7,0,21.74-9.87C283.48-6,272.31-5.76,264.66,3.07Z"/>
              <path class="cls-7" d="M225.17,20.4s12.46,6.66,26.22-3.47C251.38,16.93,237.23,11.2,225.17,20.4Z"/>
              <path class="cls-7" d="M271.48,4.43A27.16,27.16,0,0,0,287.81-6a.44.44,0,0,0,.06-.44.44.44,0,0,0-.36-.27c-.15,0-15.53-1.53-24.67,10.67a.44.44,0,0,0,.26.7A22.44,22.44,0,0,0,271.48,4.43Zm-6.63-.49,17-7.34-.35-.81L264.66,3.07c7.65-8.83,18.82-9.1,21.93-9C278.55,3.91,268.63,4.24,264.85,3.95Z"/>
              <path class="cls-7" d="M224.83,15.21A27.16,27.16,0,0,0,241.16,4.73a.44.44,0,0,0-.3-.71c-.15,0-15.53-1.53-24.67,10.67a.44.44,0,0,0-.08.32.45.45,0,0,0,0,.1.44.44,0,0,0,.32.28A22.44,22.44,0,0,0,224.83,15.21Zm-6.63-.49,17-7.34-.35-.81L218,13.84c7.65-8.83,18.82-9.1,21.93-9C231.9,14.69,222,15,218.2,14.72Z"/>
              <path class="cls-7" d="M283.07,38.41a27.16,27.16,0,0,0,18.45-6,.44.44,0,0,0-.11-.76c-.14-.06-14.64-5.41-26.57,4.08a.44.44,0,0,0,.07.74A22.44,22.44,0,0,0,283.07,38.41Zm-6.29-2.15,18.29-2.8-.13-.87-18.12,2.77c9.64-6.6,20.51-4,23.49-3.15C290,39.7,280.36,37.5,276.77,36.27Z"/>
              <path class="cls-7" d="M275.34,50.93a27.16,27.16,0,0,0,19.39.37.44.44,0,0,0,.14-.76c-.12-.1-12.06-9.91-26.44-4.85a.44.44,0,0,0-.25.22.45.45,0,0,0,0,.1.44.44,0,0,0,.11.41A22.44,22.44,0,0,0,275.34,50.93Zm-5.24-4.09,18.2,3.35.16-.87-18-3.31c11.27-3.09,20.7,2.9,23.22,4.72C281.5,54.43,273.08,49.19,270.1,46.84Z"/>
              <path class="cls-7" d="M295,8.22a27.16,27.16,0,0,0,19.39.37.44.44,0,0,0,.14-.76c-.12-.1-12.06-9.91-26.44-4.85a.44.44,0,0,0-.17.72A22.44,22.44,0,0,0,295,8.22Zm-5.24-4.09,18.2,3.35.16-.87-18-3.31C301.32.2,310.76,6.19,313.28,8,301.13,11.71,292.71,6.47,289.72,4.13Z"/>
              <path class="cls-7" d="M297.36,25.11A27.16,27.16,0,0,0,311.61,12a.44.44,0,0,0-.42-.65c-.15,0-15.56,1.2-22.43,14.81a.44.44,0,0,0,0,.33l0,.09a.44.44,0,0,0,.36.22A22.44,22.44,0,0,0,297.36,25.11Zm-6.62.68L306.19,15.6l-.49-.74L290.4,25c6-10,16.94-12.25,20-12.68C304.22,23.37,294.52,25.42,290.74,25.79Z"/>
              <path class="cls-7" d="M253.76,14.93a27.16,27.16,0,0,0,19.13,3.21.44.44,0,0,0,.25-.73c-.1-.12-10.47-11.57-25.44-8.68a.44.44,0,0,0-.28.18l0,.09a.44.44,0,0,0,.05.42A22.44,22.44,0,0,0,253.76,14.93Zm-4.59-4.82,17.51,6,.29-.84L249.62,9.33c11.6-1.4,20.05,5.9,22.28,8.07C259.34,19.29,251.78,12.87,249.17,10.11Z"/>
              <path class="cls-7" d="M240.9,30.41l16.83-7.27.35.81-17,7.34c3.78.29,13.7,0,21.74-9.87C259.72,21.32,248.55,21.59,240.9,30.41Z"/>
              <path class="cls-7" d="M206.94,27.56s10.39,9.58,26.25,3.23C233.18,30.79,220.93,21.69,206.94,27.56Z"/>
              <path class="cls-7" d="M247.73,31.78a27.16,27.16,0,0,0,16.33-10.47.44.44,0,0,0-.3-.71c-.15,0-15.53-1.53-24.67,10.67a.44.44,0,0,0,.26.7A22.44,22.44,0,0,0,247.73,31.78Zm-6.63-.49,17-7.34-.35-.81L240.9,30.41c7.65-8.83,18.82-9.1,21.93-9C254.79,31.26,244.88,31.58,241.09,31.29Z"/>
              <path class="cls-7" d="M255.81,66.51A27.16,27.16,0,0,0,272.14,56a.44.44,0,0,0-.3-.71c-.15,0-15.53-1.53-24.67,10.67a.44.44,0,0,0-.08.32.45.45,0,0,0,0,.1.44.44,0,0,0,.32.28A22.44,22.44,0,0,0,255.81,66.51ZM249.18,66l17-7.34-.35-.81L249,65.14c7.65-8.83,18.82-9.1,21.93-9C262.88,66,253,66.32,249.18,66Z"/>
              <path class="cls-7" d="M230,42.28a27.16,27.16,0,0,0,19.13,3.21.44.44,0,0,0,.25-.73c-.1-.12-10.47-11.57-25.44-8.68a.44.44,0,0,0-.28.18l0,.09a.44.44,0,0,0,.05.42A22.44,22.44,0,0,0,230,42.28Zm-4.59-4.82,17.51,6,.29-.84-17.35-5.92c11.6-1.4,20.05,5.9,22.28,8.07C235.58,46.64,228,40.22,225.42,37.46Z"/>
            </g>
            <g class="cls-6">
              <path class="cls-7" d="M39,.24,55.81-7l.35.81-17,7.34c3.78.29,13.7,0,21.74-9.87C57.8-8.86,46.63-8.59,39,.24Z"/>
              <path class="cls-7" d="M65.25,42S79,45,89.52,31.52C89.52,31.52,74.35,29.87,65.25,42Z"/>
              <path class="cls-7" d="M45.8,1.6A27.16,27.16,0,0,0,62.13-8.87a.44.44,0,0,0,.06-.44.44.44,0,0,0-.36-.27c-.15,0-15.53-1.53-24.67,10.67a.44.44,0,0,0-.08.32.45.45,0,0,0,0,.1.44.44,0,0,0,.32.28A22.44,22.44,0,0,0,45.8,1.6Zm-6.63-.49,17-7.34L55.81-7,39,.24c7.65-8.83,18.82-9.1,21.93-9C52.87,1.09,43,1.41,39.17,1.12Z"/>
              <path class="cls-7" d="M-.85,12.38A27.16,27.16,0,0,0,15.48,1.91a.44.44,0,0,0-.3-.71C15,1.18-.35-.34-9.49,11.86a.44.44,0,0,0-.08.32.45.45,0,0,0,0,.1.44.44,0,0,0,.32.28A22.44,22.44,0,0,0-.85,12.38Zm-6.63-.49,17-7.34-.35-.81L-7.67,11C0,2.19,11.15,1.92,14.26,2,6.22,11.86-3.7,12.18-7.48,11.89Z"/>
              <path class="cls-7" d="M57.39,35.59a27.16,27.16,0,0,0,18.45-6,.44.44,0,0,0-.11-.76c-.14-.06-14.64-5.41-26.57,4.08a.44.44,0,0,0-.16.29.45.45,0,0,0,0,.1.44.44,0,0,0,.24.35A22.44,22.44,0,0,0,57.39,35.59ZM51.1,33.44l18.29-2.8-.13-.87L51.13,32.54c9.64-6.6,20.51-4,23.49-3.15C64.35,36.87,54.68,34.68,51.1,33.44Z"/>
              <path class="cls-7" d="M49.66,48.11a27.16,27.16,0,0,0,19.39.37.44.44,0,0,0,.14-.76c-.12-.1-12.06-9.91-26.44-4.85a.44.44,0,0,0-.25.22.44.44,0,0,0,.08.5A22.44,22.44,0,0,0,49.66,48.11ZM44.42,44l18.2,3.35.16-.87-18-3.31C56,40.09,65.45,46.07,68,47.9,55.82,51.6,47.4,46.36,44.42,44Z"/>
              <path class="cls-7" d="M69.29,5.39a27.16,27.16,0,0,0,19.39.37A.44.44,0,0,0,88.83,5C88.71,4.9,76.77-4.9,62.39.15a.44.44,0,0,0-.25.22.44.44,0,0,0,.08.5A22.44,22.44,0,0,0,69.29,5.39ZM64,1.3l18.2,3.35.16-.87L64.38.46c11.27-3.09,20.7,2.9,23.22,4.72C75.45,8.88,67,3.64,64,1.3Z"/>
              <path class="cls-7" d="M71.68,22.29A27.16,27.16,0,0,0,85.93,9.12a.44.44,0,0,0-.42-.65c-.15,0-15.56,1.2-22.43,14.81a.44.44,0,0,0,0,.33l0,.09a.44.44,0,0,0,.36.22A22.44,22.44,0,0,0,71.68,22.29ZM65.07,23,80.51,12.78,80,12l-15.3,10.1c6-10,16.94-12.25,20-12.68C78.55,20.54,68.84,22.59,65.07,23Z"/>
              <path class="cls-7" d="M28.08,12.1a27.16,27.16,0,0,0,19.13,3.21.44.44,0,0,0,.25-.73C47.36,14.47,37,3,22,5.91a.44.44,0,0,0-.28.18l0,.09a.44.44,0,0,0,.05.42A22.44,22.44,0,0,0,28.08,12.1ZM23.5,7.29l17.51,6,.29-.84L23.94,6.5c11.6-1.4,20.05,5.9,22.28,8.07C33.66,16.46,26.1,10,23.5,7.29Z"/>
              <path class="cls-7" d="M15.22,27.59l16.83-7.27.35.81-17,7.34c3.78.29,13.7,0,21.74-9.87C34,18.49,22.87,18.76,15.22,27.59Z"/>
              <path class="cls-7" d="M22,29A27.16,27.16,0,0,0,38.38,18.48a.44.44,0,0,0-.3-.71c-.15,0-15.53-1.53-24.67,10.67a.44.44,0,0,0-.08.32.45.45,0,0,0,0,.1.44.44,0,0,0,.32.28A22.44,22.44,0,0,0,22,29Zm-6.63-.49,17-7.34-.35-.81L15.22,27.59c7.65-8.83,18.82-9.1,21.93-9C29.11,28.43,19.2,28.76,15.42,28.47Z"/>
              <path class="cls-7" d="M30.14,63.68A27.16,27.16,0,0,0,46.46,53.21a.44.44,0,0,0-.3-.71C46,52.48,30.63,51,21.49,63.17a.44.44,0,0,0,.26.7A22.44,22.44,0,0,0,30.14,63.68ZM23.5,63.2l17-7.34-.35-.81L23.31,62.32c7.65-8.83,18.82-9.1,21.93-9C37.2,63.16,27.28,63.49,23.5,63.2Z"/>
              <path class="cls-7" d="M4.33,39.45a27.16,27.16,0,0,0,19.13,3.21.44.44,0,0,0,.25-.73c-.1-.12-10.47-11.57-25.44-8.68a.44.44,0,0,0-.28.18l0,.09a.44.44,0,0,0,.05.42A22.44,22.44,0,0,0,4.33,39.45ZM-.26,34.63l17.51,6,.29-.84L.19,33.85c11.6-1.4,20.05,5.9,22.28,8.07C9.91,43.81,2.34,37.39-.26,34.63Z"/>
            </g>
          </g>
          <g>
            <path class="cls-11" d="M106.28,66.46h0a18.3,18.3,0,0,0,18.53,18.07h53a18.3,18.3,0,0,0,18.53-18.07h0"/>
            <line class="cls-11" x1="151.32" y1="84.53" x2="151.32" y2="98.24"/>
          </g>
          <g class="cls-12">
            <circle class="cls-13" cx="151.37" cy="122.51" r="25.28"/>
            <g>
              <path class="cls-14" d="M167.78,123.18a1.4,1.4,0,0,0,0-2.23,1.4,1.4,0,0,0-.36-2.3,1.4,1.4,0,0,0-.8-2.29,1.41,1.41,0,0,0-1.1-2.29l-.21,0a1.4,1.4,0,0,0-1.61-2.07,1.4,1.4,0,0,0,.08-.44,1.41,1.41,0,0,0-1.41-1.41h-.11a1.39,1.39,0,0,0-1.77-1.33A11.7,11.7,0,0,0,154.9,107a9.15,9.15,0,0,0-2.73.35,2.67,2.67,0,0,1-1.6,0,9.15,9.15,0,0,0-2.73-.35,11.7,11.7,0,0,0-5.56,1.84,1.39,1.39,0,0,0-1.77,1.33h-.11a1.41,1.41,0,0,0-1.41,1.41,1.4,1.4,0,0,0,.08.44,1.4,1.4,0,0,0-1.61,2.07l-.21,0a1.41,1.41,0,0,0-1.1,2.29,1.4,1.4,0,0,0-.8,2.29,1.4,1.4,0,0,0-.36,2.3,1.4,1.4,0,0,0,0,2.23v.06a1.41,1.41,0,0,0,.39,2.33,1.4,1.4,0,0,0,.93,2.28,1.4,1.4,0,0,0,1.65,1.94,1.4,1.4,0,0,0-.07.41,1.41,1.41,0,0,0,2.37,1s0,.07,0,.11a1.41,1.41,0,0,0,2.65.67,1.41,1.41,0,0,0,2.71.18,1.41,1.41,0,0,0,1.55.76h8.5a1.41,1.41,0,0,0,1.55-.76,1.41,1.41,0,0,0,2.71-.18,1.41,1.41,0,0,0,2.65-.67s0-.07,0-.11a1.4,1.4,0,0,0,2.3-1.44,1.41,1.41,0,0,0,1.65-1.94,1.4,1.4,0,0,0,.93-2.28,1.41,1.41,0,0,0,.39-2.33S167.78,123.2,167.78,123.18Z"/>
              <path class="cls-15" d="M160.14,136.18l-3.57-1.31a1.41,1.41,0,0,1-1-1.34v-2.28l3-1.27a4.24,4.24,0,0,0,2.61-3.91v-.71a2.12,2.12,0,0,0,0-4.24v-1.41a3.53,3.53,0,0,0-3.53-3.53H145a3.53,3.53,0,0,0-3.53,3.53v1.41a2.12,2.12,0,1,0,0,4.24v.71a4.24,4.24,0,0,0,2.61,3.91l3,1.27v2.28a1.41,1.41,0,0,1-1,1.34l-3.57,1.31a5,5,0,0,0-3.24,4.64v5.73a1.41,1.41,0,0,0,1.41,1.41H162a1.41,1.41,0,0,0,1.41-1.41v-5.73A5,5,0,0,0,160.14,136.18Z"/>
              <path class="cls-16" d="M161.26,121.13v-1.41a3.53,3.53,0,0,0-3.53-3.53H145a3.53,3.53,0,0,0-3.53,3.53v6.36a4.24,4.24,0,0,0,2.61,3.91l4.56,1.9a7.06,7.06,0,0,0,2.72.54h0a7.06,7.06,0,0,0,2.72-.54l4.57-1.9a4.24,4.24,0,0,0,2.61-3.91v-.71a2.12,2.12,0,0,0,0-4.24Z"/>
              <path class="cls-17" d="M159.48,135.84l-.54.87a8.92,8.92,0,0,1-7.57,4.19h0a8.92,8.92,0,0,1-7.57-4.19l-.54-.87a.71.71,0,0,0-1-.23L140,137a.71.71,0,0,0-.24,1l3.15,5h17l3.15-5a.71.71,0,0,0-.24-1l-2.32-1.39A.71.71,0,0,0,159.48,135.84Z"/>
              <path class="cls-18" d="M162.32,136.74,161.1,136l-3.35,5.36a3.53,3.53,0,0,1-3,1.66H148a3.53,3.53,0,0,1-3-1.66L141.64,136l-1.21.73,3.26,5.21a.71.71,0,0,1-.6,1.08h-.19V148h17V143h-.19a.71.71,0,0,1-.6-1.08Z"/>
            </g>
          </g>
          <g class="cls-19">
            <circle class="cls-13" cx="108.29" cy="37.43" r="30.88"/>
            <circle class="cls-20" cx="108.19" cy="61.5" r="0.34"/>
            <circle class="cls-20" cx="108.06" cy="62.76" r="0.34"/>
            <g>
              <path class="cls-21" d="M94,34.46s-1.88-7.71-1.88-10.36c0-5.69,4.71-5.65,4.71-5.65h0C99.59,13.76,110,13.74,110,13.74l.94,1.88a54.56,54.56,0,0,1,12.24-1.88A12.85,12.85,0,0,1,125,18.45c1.1,5.86-.94,16-.94,16Z"/>
              <path class="cls-22" d="M110,13.74s-10.42,0-13.18,4.71h0s-4.71,0-4.71,5.65c0,2.65,1.88,10.36,1.88,10.36H100L106.2,26a78.17,78.17,0,0,0,17-12.24,54.56,54.56,0,0,0-12.24,1.88Z"/>
              <path class="cls-23" d="M127.85,63.53l-.09-.77a.55.55,0,0,0-.61-.49h0l-.83-6.62a3.77,3.77,0,0,0-2.55-3.11l-5.42-1.81.13-.27-2-1.36a.94.94,0,0,0-1.31.26l-.29.43a1.88,1.88,0,0,1-.13-.69v-3l4.06-1.69a5.65,5.65,0,0,0,3.48-5.22v-.94a2.82,2.82,0,0,0,2.07-4.75c.47-2.69,1.65-10.27.76-15a12.85,12.85,0,0,0-1.88-4.71,54.56,54.56,0,0,0-12.24,1.88L110,13.74s-10.42,0-13.18,4.71h-.2l-.17,0-.13,0-.15,0-.17,0a4.66,4.66,0,0,0-3.73,3.88l0,.21q-.06.33-.09.69t0,.76c0,.21,0,.45,0,.71s.05.55.09.86l0,.19c.18,1.38.51,3.1.84,4.63l0,.21c.22,1,.43,2,.59,2.66l0,.17a2.82,2.82,0,0,0,2.11,4.71v.94a5.65,5.65,0,0,0,3.48,5.22l4.06,1.69v3a1.88,1.88,0,0,1-.13.69l-.29-.43a.94.94,0,0,0-1.31-.26l-2,1.36.13.27-5.42,1.81a3.77,3.77,0,0,0-2.55,3.11L91,62.27h0a.55.55,0,0,0-.61.49l-.09.77a.55.55,0,0,0,.49.61l1.38.15v2.19A1.88,1.88,0,0,0,94,68.37H124.1A1.88,1.88,0,0,0,126,66.48V64.29l1.38-.15A.55.55,0,0,0,127.85,63.53Z"/>
              <path class="cls-24" d="M126.28,55.65a3.77,3.77,0,0,0-2.55-3.11l-6.09-2c-.89,2-5.78,3.72-5.78,3.72L110,56.12h-1.88l-1.88-1.88s-4.9-1.72-5.78-3.72l-6.09,2a3.77,3.77,0,0,0-2.55,3.11l-.9,7.17,7.78.84v4.71h20.72V63.66h7.89Z"/>
              <path class="cls-25" d="M94,34.46s-1.88-7.71-1.88-10.36c0-5.69,4.71-5.65,4.71-5.65h0C99.51,13.82,110,13.74,110,13.74l.94,1.88a54.56,54.56,0,0,1,12.24-1.88A12.85,12.85,0,0,1,125,18.45c1.1,5.86-.94,16-.94,16Z"/>
              <path class="cls-25" d="M110,13.74s-10.42,0-13.18,4.71h0s-4.71,0-4.71,5.65c0,2.65,1.88,10.36,1.88,10.36H100L106.2,26a78.17,78.17,0,0,0,17-12.24,54.56,54.56,0,0,0-12.24,1.88Z"/>
              <path class="cls-26" d="M122.22,32.58V30.69A4.71,4.71,0,0,0,117.51,26h-17a4.71,4.71,0,0,0-4.71,4.71v1.88a2.83,2.83,0,0,0,0,5.65v.94a5.65,5.65,0,0,0,3.48,5.22l6.09,2.54a9.42,9.42,0,0,0,3.62.72h0a9.42,9.42,0,0,0,3.62-.72l6.09-2.54a5.65,5.65,0,0,0,3.48-5.22v-.94a2.83,2.83,0,1,0,0-5.65Z"/>
              <path class="cls-27" d="M98.67,64.37V62.24a3.77,3.77,0,0,0-.92-2.47l-5.18-6a3.76,3.76,0,0,0-.79,1.87l-1,7.87C92.3,63.61,96.28,64.08,98.67,64.37Z"/>
              <path class="cls-28" d="M98.67,63.13l-7.76-.86a.55.55,0,0,0-.61.49l-.09.77a.55.55,0,0,0,.49.61l8,.89Z"/>
              <path class="cls-27" d="M119.39,64.37V62.24a3.77,3.77,0,0,1,.92-2.47l5.18-6a3.76,3.76,0,0,1,.79,1.87l1,7.87C125.76,63.61,121.78,64.08,119.39,64.37Z"/>
              <path class="cls-28" d="M119.39,63.13l7.76-.86a.55.55,0,0,1,.61.49l.09.77a.55.55,0,0,1-.49.61l-8,.89Z"/>
              <path class="cls-27" d="M103,49.37l3.24,4.87L103.38,58l-3.77-7.53,2-1.36A.94.94,0,0,1,103,49.37Z"/>
              <path class="cls-27" d="M115.1,49.37l-3.24,4.87L114.68,58l3.77-7.53-2-1.36A.94.94,0,0,0,115.1,49.37Z"/>
              <path class="cls-27" d="M109,63.66h0a.94.94,0,0,1-.94-.94V56.12H110v6.59A.94.94,0,0,1,109,63.66Z"/>
            </g>
          </g>
          <g>
            <g class="cls-29">
              <circle class="cls-13" cx="198.87" cy="37.43" r="30.88"/>
            </g>
            <g class="cls-29">
              <g>
                <g>
                  <path class="cls-14" d="M184.58,34.53h0a3.84,3.84,0,0,0-3.84,3.84,3.8,3.8,0,0,0,.16,1,3.84,3.84,0,0,0-3,3.76,3.8,3.8,0,0,0,.48,1.83,3.81,3.81,0,0,0,.74,6.43,3.82,3.82,0,0,0,3.58,5.2h17.29V34.53Z"/>
                  <path class="cls-14" d="M223,48a3.82,3.82,0,0,0-1.44-3,3.8,3.8,0,0,0,.48-1.83,3.84,3.84,0,0,0-3-3.76,3.8,3.8,0,0,0,.16-1,3.84,3.84,0,0,0-3.84-3.84H199.95V56.62h17.29a3.82,3.82,0,0,0,3.58-5.2A3.83,3.83,0,0,0,223,48Z"/>
                </g>
                <path class="cls-15" d="M217.76,64.89l-1.1-8.27a4.8,4.8,0,0,0-.85-2.15,1,1,0,0,0-.38-1.23l-3.16-1.89a1,1,0,0,0-1.31.31l-.07.11L207,50.34a1.92,1.92,0,0,1-1.31-1.82v-3.1l4.14-1.72a5.76,5.76,0,0,0,3.55-5.32V29.73c0-2.65-2.15-6.72-4.8-6.72H191.3c-2.65,0-4.8,4.07-4.8,6.72v8.64A5.76,5.76,0,0,0,190,43.69l4.14,1.72v3.1a1.92,1.92,0,0,1-1.31,1.82L189,51.76l-.07-.11a1,1,0,0,0-1.31-.31l-3.16,1.89a1,1,0,0,0-.38,1.23,4.8,4.8,0,0,0-.85,2.15l-1.1,8.27A2.88,2.88,0,0,0,185,68.15h29.92A2.88,2.88,0,0,0,217.76,64.89Z"/>
                <path class="cls-16" d="M209.85,43.69l-6.21,2.59a9.61,9.61,0,0,1-3.69.74h0a9.61,9.61,0,0,1-3.69-.74L190,43.69a5.76,5.76,0,0,1-3.55-5.32V29.73c0-2.65,2.15-6.72,4.8-6.72h17.29c2.65,0,4.8,4.07,4.8,6.72v8.64A5.76,5.76,0,0,1,209.85,43.69Z"/>
                <path class="cls-30" d="M211,51.66l-3.46,5.53a2.88,2.88,0,0,1-2.44,1.35H194.82a2.88,2.88,0,0,1-2.44-1.35l-3.46-5.53a1,1,0,0,0-1.31-.31l-3.16,1.89a1,1,0,0,0-.32,1.33l4.28,6.85h23.05l4.28-6.85a1,1,0,0,0-.32-1.33l-3.16-1.89A1,1,0,0,0,211,51.66Z"/>
                <rect class="cls-31" x="188.42" y="61.42" width="23.05" height="6.72"/>
                <path class="cls-14" d="M186.5,35.61v-.12c0-5.92,13.45-10.73,13.45-13.45V13.4s-.4-.92-2.88-1a11,11,0,0,0-5.76,1.92c-5.84,4.13-8.16,13.58-9.07,21.25Z"/>
                <path class="cls-14" d="M213.39,35.49v.12h4.27c-.91-7.67-3.23-17.12-9.07-21.25a11,11,0,0,0-5.76-1.92c-2.48,0-2.88,1-2.88,1V22C199.95,24.76,213.39,29.57,213.39,35.49Z"/>
              </g>
            </g>
          </g>
        </g>
      </g>
      <g class="cls-32">
        <g>
          <g class="cls-32">
            <path class="cls-33" d="M0,74.5c15,0,15,1,30,1s15-1,30-1,15,1,30,1,15-1,30-1,15,1,30,1,15-1,30-1,15,1,30,1,15-1,30-1,15,1,30,1,15-1,30-1"/>
          </g>
          <path class="cls-33" d="M0,74.5c15,0,15,1,30,1s15-1,30-1,15,1,30,1,15-1,30-1,15,1,30,1,15-1,30-1,15,1,30,1,15-1,30-1,15,1,30,1,15-1,30-1"/>
        </g>
      </g>
    </g>
  </g>
</svg>
