<svg xmlns="http://www.w3.org/2000/svg" xmlns:xlink="http://www.w3.org/1999/xlink" viewBox="0 0 300 150">
  <defs>
    <style>
      .cls-1 {
        fill: none;
      }

      .cls-2 {
        isolation: isolate;
      }

      .cls-3 {
        clip-path: url(#clip-path);
      }

      .cls-4 {
        fill: #d2c7b3;
      }

      .cls-5 {
        fill: #bdb4a3;
      }

      .cls-6 {
        fill: #f15b2b;
      }

      .cls-7 {
        fill: #1a2d3a;
      }

      .cls-8 {
        fill: #33475a;
      }

      .cls-9 {
        fill: #c8dc66;
      }

      .cls-10 {
        fill: #424143;
      }

      .cls-11 {
        fill: #595a5c;
      }

      .cls-12 {
        fill: #dd4f27;
      }

      .cls-13 {
        opacity: 0.4;
      }

      .cls-14 {
        fill: #fff;
      }

      .cls-15 {
        fill: #ffd540;
      }

      .cls-16 {
        fill: #f5c93a;
      }

      .cls-17 {
        fill: #eab82d;
      }

      .cls-18 {
        mix-blend-mode: multiply;
      }

      .cls-19 {
        fill: #e6e7e7;
      }

      .cls-20 {
        fill: #f2f2f2;
      }
    </style>
    <clipPath id="clip-path">
      <rect class="cls-1" width="300" height="150"/>
    </clipPath>
  </defs>
  <title>Health and Wellness</title>
  <g class="cls-2">
    <g id="Layer_1" data-name="Layer 1">
      <g class="cls-3">
        <g>
          <rect class="cls-4" width="300" height="150"/>
          <g>
            <g>
              <path class="cls-5" d="M230.91,167.06h-1.69c-1.55-8.69-4.16-17.11-1.26-26.15.88-2.74,2.16-5.45,2.39-8.24.24-3-.74-6-1.61-8.91C212.59,68.69,233.51,11.82,226-44c-.62-4.58-1.4-9.3-1-13.88h2.56c-1.93,9.21,1.46,18.82,2.7,28.22,1,7.9.55,16.3.63,24.32.08,9.48-.62,18.95-1.49,28.41-1.74,18.93-4.22,37.89-2.56,56.86.43,5,1.14,9.9,1.09,14.86-.07,7.38-1.84,14.83,0,22.11,1.34,5.16,4.5,10.18,4.23,15.4-.22,4.29-2.74,8.4-3.65,12.65-1,4.6-.06,9.28.93,13.88C230.07,161.46,230.37,164.27,230.91,167.06Z"/>
              <path class="cls-5" d="M222.2,167.06h-2.76l-3.5-35.93c-.77-7.86-.39-15.53-.2-23.4a83.16,83.16,0,0,0-1.2-13.16,340.91,340.91,0,0,1-3-38.48,8.75,8.75,0,0,1,1.09-5.22c.8-1.23,2.14-2.29,2.95-3.52,1.43-2.17,1-4.64.69-7a177.45,177.45,0,0,1-1.69-37.43c.34-5.52,1.62-11.12.88-16.63-.72-5.32-3.3-10.58-2.31-16,.57-3.05,2.29-6,2.9-9,1.3-6.41-2.39-12.8-3.78-19.2h5.89a39.7,39.7,0,0,0,.06,6.14c.65,4.29,1,8.59,1.24,12.9.21,3.44-1.87,5.48-2.79,8.74-.74,2.6,1.41,5.19,1.57,7.84a19.73,19.73,0,0,1-.58,4.09c-.53,3.49.56,6.94.92,10.41.32,3.16-.7,6-1.08,9.06-.81,6.67-1.44,13.79-.37,20.47,1,6.45-.91,12.82,1.37,19.29.63,1.79,1.46,3.67.59,5.42a13.29,13.29,0,0,1-2,2.5c-4.74,5.46-2.54,11.39-1.61,17.22s.15,11.77.26,17.57c.11,5,.28,10,.7,15,.28,3.49,2.28,6.38,1.39,9.89a19.14,19.14,0,0,0-.29,5.59c.27,6,.55,11.94,2.24,17.8,2.24,7.8,2.46,14.84,2.12,22.76A61.43,61.43,0,0,0,222.2,167.06Z"/>
              <path class="cls-5" d="M130,167.06h-2.75l-3.5-35.93c-.77-7.86-.4-15.53-.2-23.4a84.24,84.24,0,0,0-1.2-13.16,340.88,340.88,0,0,1-3-38.48,8.75,8.75,0,0,1,1.09-5.22c.8-1.23,2.14-2.29,2.95-3.52,1.42-2.17,1-4.64.69-7a177.45,177.45,0,0,1-1.69-37.43c.34-5.52,1.61-11.12.87-16.63-.72-5.32-3.29-10.58-2.3-16,.57-3.05,2.29-6,2.9-9,1.3-6.41-2.39-12.8-3.78-19.2H126a39.7,39.7,0,0,0,.06,6.14c.65,4.29,1,8.59,1.24,12.9.21,3.44-1.87,5.48-2.79,8.74-.75,2.6,1.41,5.19,1.57,7.84a19.73,19.73,0,0,1-.58,4.09c-.53,3.49.56,6.94.91,10.41.33,3.16-.69,6-1.08,9.06-.81,6.67-1.43,13.79-.36,20.47,1,6.45-.91,12.82,1.37,19.29.63,1.79,1.46,3.67.59,5.42a13.67,13.67,0,0,1-2,2.5c-4.74,5.46-2.54,11.39-1.61,17.22s.14,11.77.26,17.57c.11,5,.28,10,.7,15,.28,3.49,2.27,6.38,1.39,9.89a18.83,18.83,0,0,0-.29,5.59c.27,6,.55,11.94,2.24,17.8,2.24,7.8,2.46,14.84,2.12,22.76A61.42,61.42,0,0,0,130,167.06Z"/>
              <path class="cls-5" d="M209.4,167.06H207c-1.58-5.07-6.29-10-6.12-15.21.08-2.27,1.08-4.48,1.81-6.71,2.31-7,1.87-14.28.56-21.38-1.18-6.35-4.35-12.53-4.42-18.9-.18-20,11.44-38.89,2.38-58a31.72,31.72,0,0,1,.33-28.33,39.11,39.11,0,0,0,2.95-6.35,18.85,18.85,0,0,0,.41-6.47C204-8,199.73-21.59,201.06-35.25c.3-3.14.9-6.27,1-9.41.09-4.41-.88-8.82-1.09-13.23h3.45q.11,14.18.23,28.35c0,5.32.09,10.67,1.33,15.94.63,2.68,1.58,5.38,1.23,8.08C207-3.78,206.2-2,206.6-.3c.36,1.55,1.62,3,2.3,4.46a3.17,3.17,0,0,1-1.21,4.38c-1.5,4.47-1.81,8.44-3.31,12.92-1.41,4.22-2.84,8.51-2.52,12.83.25,3.37,1.55,6.67,2.25,10A56.6,56.6,0,0,1,205,55.66c0,5.81.07,11.62,0,17.42q-.3,16.56-2.2,33.08a11.81,11.81,0,0,0,.18,5.24c.57,1.7,1.92,3.26,2.69,4.93a15.92,15.92,0,0,1,1.11,5.85l.66,10.77a28,28,0,0,1-.4,8.85c-.48,1.86-1.35,3.69-1.55,5.58-.26,2.52.68,5,1.47,7.49C208.16,158.85,208.52,163,209.4,167.06Z"/>
              <path class="cls-5" d="M195.65,167.06h-3.8L190,161a27.62,27.62,0,0,1-1.67-8.25c0-2.71.88-5.38,1.46-8.06a59.14,59.14,0,0,0,1-15.15c-.17-3.71-.52-7.41-.77-11.12a209.65,209.65,0,0,1,3.38-54c.74-3.83,1.66-7.77.91-11.62-.61-3.12-2.78-5.62-3.23-8.82a221.49,221.49,0,0,1-2-23.51A48.32,48.32,0,0,1,189.57,10c.56-3,1.59-5.86,2.12-8.81a51.71,51.71,0,0,0,.26-12q-1-18.75-2.09-37.49a43.39,43.39,0,0,1,.18-9.61h1.72c-.79,1.19-1.39,2.38-.64,3.49a21.24,21.24,0,0,0,1.66,1.65c2.06,2.4-1.17,5.31-.82,8a8.83,8.83,0,0,0,.78,2.2,13.88,13.88,0,0,1,.79,8.5c-.87,3.86-.57,5.94.45,9.79,2.18,8.2,3.29,16.59,1.56,24.84-.5,2.36-1.23,4.69-1.73,7-1.25,5.84-1.11,11.75-1,17.64L193,33a44.35,44.35,0,0,0,1.28,11.46c1.37,4.73,4.31,9.41,3.4,14.18a35,35,0,0,1-2.34,6.13c-4.21,10.47-.69,21.33-2.78,31.91-.57,2.85-1.6,5.72-1.06,8.58.39,2.08,1.61,4.09,1.78,6.19.26,3.42-1.35,6.78-1.09,10.24.24,3,1.94,6,1,9a13.67,13.67,0,0,0-1,3.47,9.89,9.89,0,0,0,.85,3.27,13.3,13.3,0,0,1,0,8.68,17.75,17.75,0,0,0-1.19,4,11.27,11.27,0,0,0,.87,4.32A70.44,70.44,0,0,1,195.65,167.06Z"/>
              <path class="cls-5" d="M186.51,167.06h-6.26c-.05-1.45-.26-2.91-.35-4.37-.52-8.25,2.81-16.34,3-24.56.16-7.67-1.88-15.5-2.18-23.23q-.3-7.89-.62-15.78a86.05,86.05,0,0,1,.09-12c.7-6.92,3.09-13.76,3-20.71-.07-6.26-4.26-11.88-3.26-18.18.68-4.28,2.49-8.46,3-12.74,1.12-8.89-3.25-17.73-3-26.65.11-4.08,1.2-8.12,1.68-12.19C183-14.44,179.88-25.54,179-36.67a130.87,130.87,0,0,1,.47-21.22h1.86a4.49,4.49,0,0,0-.07.6c-.11,1.93,1.09,3.78,1.47,5.69.45,2.31-.8,4.4-.95,6.65-.21,3.52.95,7.3,1.4,10.81q1.4,10.79,2.78,21.59a31.49,31.49,0,0,1,.3,8.78c-.3,1.94-1,3.84-1.36,5.77-2,10,3.22,20,1.92,30.07-.87,6.66-4.62,13.22-3.49,19.86.59,3.51,2.64,6.84,2.55,10.32-.1,3.81-.83,7.73-1.13,11.56a114.53,114.53,0,0,0-.46,17.05c.13,1.79.35,3.58.46,5.37.15,2.39.11,4.79.07,7.19L184.63,118c0,9.58-.28,19.16-.43,28.74C184.1,153.78,185.42,160.27,186.51,167.06Z"/>
              <path class="cls-5" d="M169.07,167.06h-2.68c.56-1.5,1.18-3,1.84-4.46a13.81,13.81,0,0,0,1.47-4.39c.2-2.45-1.16-4.81-2.08-7.19-3.64-9.43-.4-19.3,1.42-28.94,2.25-11.93,2.28-24,1.58-36-.33-5.62-1.81-11.55-1-17.14.66-4.72-1.29-9.38-.53-14.13.9-5.59,5.95-10.61,7.12-16.18,1.58-7.44-3.9-14.81-3.56-22.32.22-4.59,2.61-9.1,2-13.68-.38-3.09-2.12-6-2.9-9.11-1.73-6.71,1.1-13.57.58-20.37-.45-5.85-3.38-11.57-3.24-17.43.11-4.57,2.1-9.1,1.94-13.65h1c0,.06,0,.13,0,.19q-.51,8-1,15.93c-.35,5.54,2.76,10.09,3,15.48a32.83,32.83,0,0,1-.16,6.21c-.26,1.71-.8,3.4-.89,5.12-.16,2.9,1,5.75,1.77,8.6a41.55,41.55,0,0,1,.78,19.73c-1,4.71.73,8,2.5,12.59,1.84,4.71.88,9.66-.11,14.48-.52,2.57-.84,5.35-2.16,7.81-1.19,2.22-3.49,3.77-4.27,6.1-1.77,5.34,2.12,10.91,2.26,16.25.1,3.79-1.51,7.52-1.8,11.3a38.57,38.57,0,0,0,.5,7.73c.68,5.79.9,11.59,1.12,17.39.27,7.28.53,14.63-1.79,21.76-.94,2.88-2.31,5.75-2.13,8.68.16,2.64,1.57,5.32.53,7.88a6.45,6.45,0,0,0-.95,2.62c.07,1.33,1.6,2.42,2.49,3.62,3.33,4.5-.12,9.1-2.07,13.37A6.82,6.82,0,0,0,169.07,167.06Z"/>
              <path class="cls-5" d="M158.52,167.06h-1.65q.15-.51.27-1a33.59,33.59,0,0,0,.53-7.45q0-12.25,0-24.5c0-6.58,1.15-13.85.49-20.31-.54-5.29-2.13-9.4-1.76-15.14.42-6.75,2.36-13.32,1.9-20.06-.42-6-2.74-11.67-2.4-17.69.21-3.73,1.41-7.14,2.14-10.72.93-4.64,1-9.56,1.88-14.23.37-2.06.88-4.08,1.1-6.18a47.64,47.64,0,0,0,.08-6.56Q160.45,5,159.85-13.07c-.19-5.79-.39-11.57-.76-17.33a73.91,73.91,0,0,1-.25-8.76c.22-3.87,1.14-7.72.72-11.56a56.61,56.61,0,0,0-1.67-7.17h.77a.13.13,0,0,0,0,.06,11.45,11.45,0,0,0,1.25,2.46c1,2,.26,9,.35,11.74s.38,5.78.2,8.57-.86,4.93-.3,7.65c.19,1,.52,1.84.77,2.78a18.13,18.13,0,0,1,.27,7.77,9.52,9.52,0,0,0-.32,3.27,14,14,0,0,0,.55,1.77c.77,2.49-.22,6.82-.08,9.66.17,3.83.59,7.64.57,11.49,0,4.6-1.2,9.61.39,13.56a7.85,7.85,0,0,1,.82,2.56,6.13,6.13,0,0,1-.22,1.63c-1.34,5.89-1.55,11.26-2.2,17.39a36.76,36.76,0,0,1-1.21,6.83c-.52,1.69-1.27,3.24-1.67,5-1.26,5.44.32,14.42,1.42,19.79,1.3,6.27.5,10.95-.58,17.32-.88,5.13-1.45,10.8.18,15.5a18.94,18.94,0,0,1,.76,2.28,14.26,14.26,0,0,1,.07,4.36q-.49,5.69-1,11.37a69.07,69.07,0,0,0-.38,8.79c.23,5.86.3,11.63.57,17.49C159.09,157.82,159.41,162.58,158.52,167.06Z"/>
              <path class="cls-5" d="M150.11,167.06h-2.68c0-.81.08-1.62.12-2.43.21-4.35.42-8.71.51-13.06a235.23,235.23,0,0,0-1.3-29.76q-.82-7.62-2.14-15.21c-.66-3.81-3.12-7.25-3.57-11-.61-5.17-2.32-11.93.34-16.93.49-.94,1.2-1.84,1.67-2.78,2.12-4.28.88-9.52,1-13.91l.9-38.16c.13-5-1.75-9.59.47-14.52,2.44-5.4,5.17-10.81,2.3-16.31-1.56-3-4.21-6.1-2.26-9,.71-1.06,2-2,2.85-3.06,2.15-2.61,1.5-5.53,1.92-8.33.4-2.57,1.73-5.11,1.65-7.69-.06-2.33-1.28-4.61-2.18-6.9a41.24,41.24,0,0,1-2.46-15.81h4.52c.05,3.89-2.52,7.87-2,11.8.58,4.66,5.46,9.09,5,13.75-.36,3.93-4.47,7.75-3.27,11.64.54,1.73,2,3.67,0,5.11-.9.62-2.34,1-3.27,1.64-2.35,1.55-.66,3.69.65,5.5,5.7,7.92.41,14.89-.13,22.69-1.25,18-2.51,35.94-1.13,53.9.25,3.16.57,6.32-.08,9.46-.57,2.82-1.93,5.6-2.58,8.42-1.65,7.19,1.34,14.41,3.39,21.57,4.49,15.67,4.48,31.57,3.36,47.38A78.16,78.16,0,0,1,150.11,167.06Z"/>
              <path class="cls-5" d="M140.58,167.06h-3.65a12.23,12.23,0,0,0-2.95-5.94c-4.45-5.18-4.32-6.72-.95-11.79,4.31-6.45-1-13.38-1.51-20.15-.21-2.67.34-5.34.57-8,.53-5.79-.39-11.58-1.3-17.36q-1.44-9.13-2.88-18.27c-1.51-9.51-2.75-19.43,1.5-28.85,1.57-3.49,3.92-6.95,3.87-10.51,0-2.57-1.33-5.09-1.92-7.64-1.42-6.19,3.37-11.95,3.11-18-.23-5.61-4-11.16-3.86-16.86.08-3.1,1.06-6.19,1.65-9.27a76.36,76.36,0,0,0,.85-15.39q-.25-18.48-.47-37h4.07a9.74,9.74,0,0,0,1.35,4.67,8.43,8.43,0,0,1,1.44,2.85c.19,1.48-1.1,2.91-1.76,4.36a10.89,10.89,0,0,0-.78,3.79l-1,11.91a16.16,16.16,0,0,0,.34,6.41c.47,1.43,1.31,2.83,1.69,4.26a13.2,13.2,0,0,1,0,5.18l-2.38,16.9c-.57,4.08-1.14,8.2.32,12.23.7,2,1.88,3.89,1.72,5.87s-1.53,3.75-2.46,5.61a12.49,12.49,0,0,0,.36,12.16c2.47,4.4,2.55,6.08-1.12,10s-.29,8.25-2.24,12.44c-.66,1.41-2,2.73-2.58,4.15-1,2.43.07,4.93.6,7.4,1.6,7.43-2.09,15.2,2.86,22.28,1.08,1.55,2.58,3.07,2.91,4.7.41,2-1,4-1.24,6-.55,4.41,4.42,8.72,3.23,13.11-.48,1.79-2,3.49-2.31,5.29-.75,4.05,4.43,7.86,4.75,11.92.17,2.21-1.09,4.37-2,6.53a20.94,20.94,0,0,0-.38,15.77C139.12,160.92,141,164,140.58,167.06Z"/>
            </g>
            <g>
              <path class="cls-5" d="M114.91,167.06h-1.69c-1.55-8.69-4.16-17.11-1.26-26.15.88-2.74,2.16-5.45,2.39-8.24.24-3-.74-6-1.61-8.91C96.59,68.69,117.51,11.82,110-44c-.62-4.58-1.4-9.3-1-13.88h2.56c-1.93,9.21,1.46,18.82,2.7,28.22,1,7.9.55,16.3.63,24.32.08,9.48-.62,18.95-1.49,28.41-1.74,18.93-4.22,37.89-2.56,56.86.43,5,1.14,9.9,1.09,14.86-.07,7.38-1.84,14.83,0,22.11,1.34,5.16,4.5,10.18,4.23,15.4-.22,4.29-2.74,8.4-3.65,12.65-1,4.6-.06,9.28.93,13.88C114.07,161.46,114.37,164.27,114.91,167.06Z"/>
              <path class="cls-5" d="M106.2,167.06h-2.76l-3.5-35.93c-.77-7.86-.39-15.53-.2-23.4a83.16,83.16,0,0,0-1.2-13.16,340.91,340.91,0,0,1-3-38.48,8.75,8.75,0,0,1,1.09-5.22c.8-1.23,2.14-2.29,2.95-3.52,1.43-2.17,1-4.64.69-7A177.45,177.45,0,0,1,98.58,2.93c.34-5.52,1.62-11.12.88-16.63-.72-5.32-3.3-10.58-2.31-16,.57-3.05,2.29-6,2.9-9,1.3-6.41-2.39-12.8-3.78-19.2h5.89a39.7,39.7,0,0,0,.06,6.14c.65,4.29,1,8.59,1.24,12.9.21,3.44-1.87,5.48-2.79,8.74-.74,2.6,1.41,5.19,1.57,7.84a19.73,19.73,0,0,1-.58,4.09c-.53,3.49.56,6.94.92,10.41.32,3.16-.7,6-1.08,9.06-.81,6.67-1.44,13.79-.37,20.47,1,6.45-.91,12.82,1.37,19.29.63,1.79,1.46,3.67.59,5.42a13.29,13.29,0,0,1-2,2.5c-4.74,5.46-2.54,11.39-1.61,17.22s.15,11.77.26,17.57c.11,5,.28,10,.7,15,.28,3.49,2.28,6.38,1.39,9.89a19.14,19.14,0,0,0-.29,5.59c.27,6,.55,11.94,2.24,17.8,2.24,7.8,2.46,14.84,2.12,22.76A61.43,61.43,0,0,0,106.2,167.06Z"/>
              <path class="cls-5" d="M14,167.06H11.25l-3.5-35.93c-.77-7.86-.4-15.53-.2-23.4a84.24,84.24,0,0,0-1.2-13.16,340.88,340.88,0,0,1-3-38.48,8.75,8.75,0,0,1,1.09-5.22c.8-1.23,2.14-2.29,2.95-3.52,1.42-2.17,1-4.64.69-7A177.45,177.45,0,0,1,6.39,2.93C6.73-2.58,8-8.19,7.26-13.7,6.54-19,4-24.28,5-29.67c.57-3.05,2.29-6,2.9-9,1.3-6.41-2.39-12.8-3.78-19.2H10A39.7,39.7,0,0,0,10-51.75c.65,4.29,1,8.59,1.24,12.9.21,3.44-1.87,5.48-2.79,8.74-.75,2.6,1.41,5.19,1.57,7.84a19.73,19.73,0,0,1-.58,4.09c-.53,3.49.56,6.94.91,10.41.33,3.16-.69,6-1.08,9.06C8.5,8,7.88,15.08,8.95,21.76,10,28.21,8,34.58,10.32,41c.63,1.79,1.46,3.67.59,5.42a13.67,13.67,0,0,1-2,2.5C4.15,54.43,6.36,60.36,7.29,66.19S7.42,78,7.55,83.77c.11,5,.28,10,.7,15,.28,3.49,2.27,6.38,1.39,9.89a18.83,18.83,0,0,0-.29,5.59c.27,6,.55,11.94,2.24,17.8,2.24,7.8,2.46,14.84,2.12,22.76A61.42,61.42,0,0,0,14,167.06Z"/>
              <path class="cls-5" d="M93.4,167.06H91c-1.58-5.07-6.29-10-6.12-15.21.08-2.27,1.08-4.48,1.81-6.71,2.31-7,1.87-14.28.56-21.38-1.18-6.35-4.35-12.53-4.42-18.9-.18-20,11.44-38.89,2.38-58a31.72,31.72,0,0,1,.33-28.33,39.11,39.11,0,0,0,2.95-6.35,18.85,18.85,0,0,0,.41-6.47C88-8,83.73-21.59,85.06-35.25c.3-3.14.9-6.27,1-9.41.09-4.41-.88-8.82-1.09-13.23h3.45q.11,14.18.23,28.35c0,5.32.09,10.67,1.33,15.94.63,2.68,1.58,5.38,1.23,8.08C91-3.78,90.2-2,90.6-.3c.36,1.55,1.62,3,2.3,4.46a3.17,3.17,0,0,1-1.21,4.38C90.19,13,89.88,17,88.38,21.46,87,25.68,85.54,30,85.86,34.29c.25,3.37,1.55,6.67,2.25,10A56.6,56.6,0,0,1,89,55.66c0,5.81.07,11.62,0,17.42q-.3,16.56-2.2,33.08a11.81,11.81,0,0,0,.18,5.24c.57,1.7,1.92,3.26,2.69,4.93a15.92,15.92,0,0,1,1.11,5.85L91.37,133a28,28,0,0,1-.4,8.85c-.48,1.86-1.35,3.69-1.55,5.58-.26,2.52.68,5,1.47,7.49C92.16,158.85,92.52,163,93.4,167.06Z"/>
              <path class="cls-5" d="M79.65,167.06h-3.8L74,161a27.62,27.62,0,0,1-1.67-8.25c0-2.71.88-5.38,1.46-8.06a59.14,59.14,0,0,0,1-15.15c-.17-3.71-.52-7.41-.77-11.12a209.65,209.65,0,0,1,3.38-54c.74-3.83,1.66-7.77.91-11.62C77.64,49.74,75.47,47.24,75,44a221.49,221.49,0,0,1-2-23.51A48.32,48.32,0,0,1,73.57,10c.56-3,1.59-5.86,2.12-8.81a51.71,51.71,0,0,0,.26-12q-1-18.75-2.09-37.49A43.39,43.39,0,0,1,74-57.89h1.72c-.79,1.19-1.39,2.38-.64,3.49a21.24,21.24,0,0,0,1.66,1.65c2.06,2.4-1.17,5.31-.82,8a8.83,8.83,0,0,0,.78,2.2,13.88,13.88,0,0,1,.79,8.5c-.87,3.86-.57,5.94.45,9.79C80.17-16,81.28-7.61,79.55.63c-.5,2.36-1.23,4.69-1.73,7-1.25,5.84-1.11,11.75-1,17.64L77,33a44.35,44.35,0,0,0,1.28,11.46c1.37,4.73,4.31,9.41,3.4,14.18a35,35,0,0,1-2.34,6.13c-4.21,10.47-.69,21.33-2.78,31.91-.57,2.85-1.6,5.72-1.06,8.58.39,2.08,1.61,4.09,1.78,6.19.26,3.42-1.35,6.78-1.09,10.24.24,3,1.94,6,1,9a13.67,13.67,0,0,0-1,3.47,9.89,9.89,0,0,0,.85,3.27,13.3,13.3,0,0,1,0,8.68,17.75,17.75,0,0,0-1.19,4,11.27,11.27,0,0,0,.87,4.32A70.44,70.44,0,0,1,79.65,167.06Z"/>
              <path class="cls-5" d="M70.51,167.06H64.25c-.05-1.45-.26-2.91-.35-4.37-.52-8.25,2.81-16.34,3-24.56.16-7.67-1.88-15.5-2.18-23.23q-.3-7.89-.62-15.78a86.05,86.05,0,0,1,.09-12c.7-6.92,3.09-13.76,3-20.71-.07-6.26-4.26-11.88-3.26-18.18.68-4.28,2.49-8.46,3-12.74,1.12-8.89-3.25-17.73-3-26.65.11-4.08,1.2-8.12,1.68-12.19C67-14.44,63.88-25.54,63-36.67a130.87,130.87,0,0,1,.47-21.22h1.86a4.49,4.49,0,0,0-.07.6c-.11,1.93,1.09,3.78,1.47,5.69.45,2.31-.8,4.4-.95,6.65-.21,3.52.95,7.3,1.4,10.81Q68.61-23.35,70-12.55a31.49,31.49,0,0,1,.3,8.78C70-1.83,69.33.07,68.94,2c-2,10,3.22,20,1.92,30.07-.87,6.66-4.62,13.22-3.49,19.86C68,55.44,70,58.77,69.9,62.25c-.1,3.81-.83,7.73-1.13,11.56a114.53,114.53,0,0,0-.46,17.05c.13,1.79.35,3.58.46,5.37.15,2.39.11,4.79.07,7.19L68.63,118c0,9.58-.28,19.16-.43,28.74C68.1,153.78,69.42,160.27,70.51,167.06Z"/>
              <path class="cls-5" d="M53.07,167.06H50.39c.56-1.5,1.18-3,1.84-4.46a13.81,13.81,0,0,0,1.47-4.39c.2-2.45-1.16-4.81-2.08-7.19-3.64-9.43-.4-19.3,1.42-28.94,2.25-11.93,2.28-24,1.58-36-.33-5.62-1.81-11.55-1-17.14.66-4.72-1.29-9.38-.53-14.13C54,49.26,59,44.23,60.19,38.67c1.58-7.44-3.9-14.81-3.56-22.32.22-4.59,2.61-9.1,2-13.68-.38-3.09-2.12-6-2.9-9.11C54-13.15,56.87-20,56.35-26.8,55.9-32.66,53-38.38,53.11-44.24c.11-4.57,2.1-9.1,1.94-13.65h1c0,.06,0,.13,0,.19q-.51,8-1,15.93c-.35,5.54,2.76,10.09,3,15.48a32.83,32.83,0,0,1-.16,6.21c-.26,1.71-.8,3.4-.89,5.12-.16,2.9,1,5.75,1.77,8.6a41.55,41.55,0,0,1,.78,19.73c-1,4.71.73,8,2.5,12.59,1.84,4.71.88,9.66-.11,14.48-.52,2.57-.84,5.35-2.16,7.81-1.2,2.22-3.49,3.77-4.27,6.1-1.77,5.34,2.12,10.91,2.26,16.25.1,3.79-1.51,7.52-1.8,11.3a38.57,38.57,0,0,0,.5,7.73c.68,5.79.9,11.59,1.12,17.39.27,7.28.53,14.63-1.79,21.76-.94,2.88-2.31,5.75-2.13,8.68.16,2.64,1.57,5.32.53,7.88a6.45,6.45,0,0,0-.95,2.62c.07,1.33,1.6,2.42,2.49,3.62,3.33,4.5-.12,9.1-2.07,13.37A6.82,6.82,0,0,0,53.07,167.06Z"/>
              <path class="cls-5" d="M297,191.89h-1.69c-1.55-8.69-4.16-17.11-1.26-26.15.88-2.74,2.16-5.45,2.39-8.24.24-3-.74-6-1.61-8.91C278.63,93.52,299.56,36.65,292-19.18c-.62-4.58-1.4-9.3-1-13.88h2.56c-1.93,9.21,1.46,18.82,2.7,28.22,1,7.9.55,16.3.63,24.32.08,9.48-.62,18.95-1.49,28.41-1.74,18.93-4.22,37.89-2.56,56.86.43,5,1.14,9.9,1.09,14.86-.07,7.38-1.84,14.83,0,22.11,1.34,5.16,4.5,10.18,4.23,15.4-.22,4.29-2.74,8.4-3.65,12.65-1,4.6-.06,9.28.93,13.88C296.12,186.29,296.42,189.1,297,191.89Z"/>
              <path class="cls-5" d="M288.25,191.89h-2.76L282,156c-.77-7.86-.39-15.53-.2-23.4a83.16,83.16,0,0,0-1.2-13.16,340.91,340.91,0,0,1-3-38.48,8.75,8.75,0,0,1,1.09-5.22c.8-1.23,2.14-2.29,2.95-3.52,1.43-2.17,1-4.64.69-7a177.45,177.45,0,0,1-1.69-37.43c.34-5.52,1.62-11.12.88-16.63-.72-5.32-3.3-10.58-2.31-16,.57-3.05,2.29-6,2.9-9,1.3-6.41-2.39-12.8-3.78-19.2h5.89a39.7,39.7,0,0,0,.06,6.14c.65,4.29,1,8.59,1.24,12.9.21,3.44-1.87,5.48-2.79,8.74-.74,2.6,1.41,5.19,1.57,7.84a19.73,19.73,0,0,1-.58,4.09c-.53,3.49.56,6.94.92,10.41.32,3.16-.7,6-1.08,9.06-.81,6.67-1.44,13.79-.37,20.47,1,6.45-.91,12.82,1.37,19.29.63,1.79,1.46,3.67.59,5.42a13.29,13.29,0,0,1-2,2.5c-4.74,5.46-2.54,11.39-1.61,17.22s.15,11.77.26,17.57c.11,5,.28,10,.7,15,.28,3.49,2.28,6.38,1.39,9.89a19.14,19.14,0,0,0-.29,5.59c.27,6,.55,11.94,2.24,17.8,2.24,7.8,2.46,14.84,2.12,22.76A61.43,61.43,0,0,0,288.25,191.89Z"/>
              <path class="cls-5" d="M275.45,191.89h-2.38c-1.58-5.07-6.29-10-6.12-15.21.08-2.27,1.08-4.48,1.81-6.71,2.31-7,1.87-14.28.56-21.38-1.18-6.35-4.35-12.53-4.42-18.9-.18-20,11.44-38.89,2.38-58a31.72,31.72,0,0,1,.33-28.33A39.11,39.11,0,0,0,270.55,37a18.85,18.85,0,0,0,.41-6.47c-.87-13.67-5.18-27.28-3.85-40.94.3-3.14.9-6.27,1-9.41.09-4.41-.88-8.82-1.09-13.23h3.45q.11,14.18.23,28.35c0,5.32.09,10.67,1.33,15.94.63,2.68,1.58,5.38,1.23,8.08-.23,1.74-1,3.49-.58,5.22.36,1.55,1.62,3,2.3,4.46a3.17,3.17,0,0,1-1.21,4.38c-1.5,4.47-1.81,8.44-3.31,12.92-1.41,4.22-2.84,8.51-2.52,12.83.25,3.37,1.55,6.67,2.25,10A56.6,56.6,0,0,1,271,80.5c0,5.81.07,11.62,0,17.42q-.3,16.56-2.2,33.08a11.81,11.81,0,0,0,.18,5.24c.57,1.7,1.92,3.26,2.69,4.93a15.92,15.92,0,0,1,1.11,5.85l.66,10.77a28,28,0,0,1-.4,8.85c-.48,1.86-1.35,3.69-1.55,5.58-.26,2.52.68,5,1.47,7.49C274.21,183.68,274.57,187.84,275.45,191.89Z"/>
              <path class="cls-5" d="M261.69,191.89h-3.8l-1.86-6a27.62,27.62,0,0,1-1.67-8.25c0-2.71.88-5.38,1.46-8.06a59.14,59.14,0,0,0,1-15.15c-.17-3.71-.52-7.41-.77-11.12a209.65,209.65,0,0,1,3.38-54c.74-3.83,1.66-7.77.91-11.62-.61-3.12-2.78-5.62-3.23-8.82a221.49,221.49,0,0,1-2-23.51,48.32,48.32,0,0,1,.52-10.51c.56-3,1.59-5.86,2.12-8.81A51.71,51.71,0,0,0,258,14q-1-18.75-2.09-37.49a43.39,43.39,0,0,1,.18-9.61h1.72c-.79,1.19-1.39,2.38-.64,3.49a21.24,21.24,0,0,0,1.66,1.65c2.06,2.4-1.17,5.31-.82,8a8.83,8.83,0,0,0,.78,2.2,13.88,13.88,0,0,1,.79,8.5c-.87,3.86-.57,5.94.45,9.79,2.18,8.2,3.29,16.59,1.56,24.84-.5,2.36-1.23,4.69-1.73,7-1.25,5.84-1.11,11.75-1,17.64l.19,7.73a44.35,44.35,0,0,0,1.28,11.46c1.37,4.73,4.31,9.41,3.4,14.18a35,35,0,0,1-2.34,6.13c-4.21,10.47-.69,21.33-2.78,31.91-.57,2.85-1.6,5.72-1.06,8.58.39,2.08,1.61,4.09,1.78,6.19.26,3.42-1.35,6.78-1.09,10.24.24,3,1.94,6,1,9a13.67,13.67,0,0,0-1,3.47,9.89,9.89,0,0,0,.85,3.27,13.3,13.3,0,0,1,0,8.68,17.75,17.75,0,0,0-1.19,4,11.27,11.27,0,0,0,.87,4.32A70.44,70.44,0,0,1,261.69,191.89Z"/>
              <path class="cls-5" d="M252.55,191.89H246.3c-.05-1.45-.26-2.91-.35-4.37-.52-8.25,2.81-16.34,3-24.56.16-7.67-1.88-15.5-2.18-23.23q-.3-7.89-.62-15.78a86.05,86.05,0,0,1,.09-12c.7-6.92,3.09-13.76,3-20.71C249.17,85,245,79.38,246,73.09c.68-4.28,2.49-8.46,3-12.74,1.12-8.89-3.25-17.73-3-26.65.11-4.08,1.2-8.12,1.68-12.19,1.33-11.11-1.77-22.21-2.62-33.34a130.87,130.87,0,0,1,.47-21.22h1.86a4.49,4.49,0,0,0-.07.6c-.11,1.93,1.09,3.78,1.47,5.69.45,2.31-.8,4.4-.95,6.65-.21,3.52.95,7.3,1.4,10.81q1.4,10.79,2.78,21.59a31.49,31.49,0,0,1,.3,8.78c-.3,1.94-1,3.84-1.36,5.77-2,10,3.22,20,1.92,30.07-.87,6.66-4.62,13.22-3.49,19.86C250,80.28,252,83.6,252,87.09c-.1,3.81-.83,7.73-1.13,11.56a114.53,114.53,0,0,0-.46,17.05c.13,1.79.35,3.58.46,5.37.15,2.39.11,4.79.07,7.19l-.22,14.59c0,9.58-.28,19.16-.43,28.74C250.14,178.61,251.47,185.1,252.55,191.89Z"/>
              <path class="cls-5" d="M235.12,191.89h-2.68c.56-1.5,1.18-3,1.84-4.46a13.81,13.81,0,0,0,1.47-4.39c.2-2.45-1.16-4.81-2.08-7.19-3.64-9.43-.4-19.3,1.42-28.94,2.25-11.93,2.28-24,1.58-36-.33-5.62-1.81-11.55-1-17.14.66-4.72-1.29-9.38-.53-14.13.9-5.59,5.95-10.61,7.12-16.18,1.58-7.44-3.9-14.81-3.56-22.32.22-4.59,2.61-9.1,2-13.68-.38-3.09-2.12-6-2.9-9.11-1.73-6.71,1.1-13.57.58-20.37-.45-5.85-3.38-11.57-3.24-17.43.11-4.57,2.1-9.1,1.94-13.65h1c0,.06,0,.13,0,.19q-.51,8-1,15.93c-.35,5.54,2.76,10.09,3,15.48a32.83,32.83,0,0,1-.16,6.21c-.26,1.71-.8,3.4-.89,5.12-.16,2.9,1,5.75,1.77,8.6a41.55,41.55,0,0,1,.78,19.73c-1,4.71.73,8,2.5,12.59,1.84,4.71.88,9.66-.11,14.48-.52,2.57-.84,5.35-2.16,7.81-1.19,2.22-3.49,3.77-4.27,6.1-1.77,5.34,2.12,10.91,2.26,16.25.1,3.79-1.51,7.52-1.8,11.3a38.57,38.57,0,0,0,.5,7.73c.68,5.79.9,11.59,1.12,17.39.27,7.28.53,14.63-1.79,21.76-.94,2.88-2.31,5.75-2.13,8.68.16,2.64,1.57,5.32.53,7.88a6.45,6.45,0,0,0-.95,2.62c.07,1.33,1.6,2.42,2.49,3.62,3.33,4.5-.12,9.1-2.07,13.37A6.82,6.82,0,0,0,235.12,191.89Z"/>
              <path class="cls-5" d="M42.52,167.06H40.87q.15-.51.27-1a33.59,33.59,0,0,0,.53-7.45q0-12.25,0-24.5c0-6.58,1.15-13.85.49-20.31-.54-5.29-2.13-9.4-1.76-15.14.42-6.75,2.36-13.32,1.9-20.06-.42-6-2.74-11.67-2.4-17.69.21-3.73,1.41-7.14,2.14-10.72.93-4.64,1-9.56,1.88-14.23.37-2.06.88-4.08,1.1-6.18a47.64,47.64,0,0,0,.08-6.56Q44.45,5,43.85-13.07c-.19-5.79-.39-11.57-.76-17.33a73.91,73.91,0,0,1-.25-8.76c.22-3.87,1.14-7.72.72-11.56a56.61,56.61,0,0,0-1.67-7.17h.77a.13.13,0,0,0,0,.06,11.45,11.45,0,0,0,1.25,2.46c1,2,.26,9,.35,11.74s.38,5.78.2,8.57-.86,4.93-.3,7.65c.19,1,.52,1.84.77,2.78a18.13,18.13,0,0,1,.27,7.77,9.52,9.52,0,0,0-.32,3.27,14,14,0,0,0,.55,1.77c.77,2.49-.22,6.82-.08,9.66.17,3.83.59,7.64.57,11.49,0,4.6-1.2,9.61.39,13.56a7.85,7.85,0,0,1,.82,2.56,6.13,6.13,0,0,1-.22,1.63c-1.34,5.89-1.55,11.26-2.2,17.39A36.76,36.76,0,0,1,43.5,51.3c-.52,1.69-1.27,3.24-1.67,5-1.26,5.44.32,14.42,1.42,19.79,1.3,6.27.5,10.95-.58,17.32-.88,5.13-1.45,10.8.18,15.5a18.94,18.94,0,0,1,.76,2.28,14.26,14.26,0,0,1,.07,4.36q-.49,5.69-1,11.37a69.07,69.07,0,0,0-.38,8.79c.23,5.86.3,11.63.57,17.49C43.09,157.82,43.41,162.58,42.52,167.06Z"/>
              <path class="cls-5" d="M34.11,167.06H31.43c0-.81.08-1.62.12-2.43.21-4.35.42-8.71.51-13.06a235.23,235.23,0,0,0-1.3-29.76q-.82-7.62-2.14-15.21c-.66-3.81-3.12-7.25-3.57-11-.61-5.17-2.32-11.93.34-16.93.49-.94,1.2-1.84,1.67-2.78,2.12-4.28.88-9.52,1-13.91l.9-38.16c.13-5-1.75-9.59.47-14.52,2.44-5.4,5.17-10.81,2.3-16.31-1.56-3-4.21-6.1-2.26-9,.71-1.06,2-2,2.85-3.06,2.15-2.61,1.5-5.53,1.92-8.33.4-2.57,1.73-5.11,1.65-7.69-.06-2.33-1.28-4.61-2.18-6.9a41.24,41.24,0,0,1-2.46-15.81h4.52c.05,3.89-2.52,7.87-2,11.8.58,4.66,5.46,9.09,5,13.75-.36,3.93-4.47,7.75-3.27,11.64.54,1.73,2,3.67,0,5.11-.9.62-2.34,1-3.27,1.64-2.35,1.55-.66,3.69.65,5.5,5.7,7.92.41,14.89-.13,22.69-1.25,18-2.51,35.94-1.13,53.9.25,3.16.57,6.32-.08,9.46-.57,2.82-1.93,5.6-2.58,8.42-1.65,7.19,1.34,14.41,3.39,21.57,4.49,15.67,4.48,31.57,3.36,47.38A78.16,78.16,0,0,1,34.11,167.06Z"/>
              <path class="cls-5" d="M24.58,167.06H20.93A12.23,12.23,0,0,0,18,161.12c-4.45-5.18-4.32-6.72-.95-11.79,4.31-6.45-1-13.38-1.51-20.15-.21-2.67.34-5.34.57-8,.53-5.79-.39-11.58-1.3-17.36q-1.44-9.13-2.88-18.27C10.41,76,9.17,66.12,13.41,56.7c1.57-3.49,3.92-6.95,3.87-10.51,0-2.57-1.33-5.09-1.92-7.64-1.42-6.19,3.37-11.95,3.11-18-.23-5.61-4-11.16-3.86-16.86.08-3.1,1.06-6.19,1.65-9.27a76.36,76.36,0,0,0,.85-15.39q-.25-18.48-.47-37h4.07a9.74,9.74,0,0,0,1.35,4.67,8.43,8.43,0,0,1,1.44,2.85c.19,1.48-1.1,2.91-1.76,4.36A10.89,10.89,0,0,0,21-42.22L20-30.31a16.16,16.16,0,0,0,.34,6.41c.47,1.43,1.31,2.83,1.69,4.26a13.2,13.2,0,0,1,0,5.18L19.58,2.43c-.57,4.08-1.14,8.2.32,12.23.7,2,1.88,3.89,1.72,5.87s-1.53,3.75-2.46,5.61a12.49,12.49,0,0,0,.36,12.16c2.47,4.4,2.54,6.08-1.12,10s-.29,8.25-2.24,12.44c-.66,1.41-2,2.73-2.58,4.15-1,2.43.07,4.93.6,7.4,1.6,7.43-2.09,15.2,2.86,22.28,1.08,1.55,2.58,3.07,2.91,4.7.41,2-1,4-1.24,6-.55,4.41,4.42,8.72,3.23,13.11-.48,1.79-2,3.49-2.31,5.29-.75,4.05,4.43,7.86,4.75,11.92.17,2.21-1.09,4.37-2,6.53A20.94,20.94,0,0,0,22,157.87C23.12,160.92,25,164,24.58,167.06Z"/>
            </g>
          </g>
          <g>
            <g id="_Group_" data-name="&lt;Group&gt;">
              <g>
                <path class="cls-6" d="M95.83,159.64A2.73,2.73,0,0,1,94.07,161s-4.94,1.35-10.8-3.39a125.14,125.14,0,0,1-10.56-9S64,140.47,56,136.63c0,0-10.5-5.67-15.4-10.31,0,0-5.78-5.34-6.5-6.65a1.28,1.28,0,0,1,.12-1.35s.7-.84.38-1c0,0-.1-.27-.8.43,0,0-.83.84-1.45.1a9.71,9.71,0,0,1-2.32-4s-.14-.36.64-1.2c0,0,.29-.3.06-.44,0,0-.12-.18-.6.28,0,0-.69.79-1.11.35A7.28,7.28,0,0,1,27.53,109a1.55,1.55,0,0,1,.32-1.27s.52-.55.34-.69c0,0-.15-.15-.53.22,0,0-.58.42-.75,0a7.12,7.12,0,0,1-.79-4.14,1.18,1.18,0,0,1,.41-.75s.2-.38,0-.22c0,0-.57.64-.61.4a9.48,9.48,0,0,1,.93-5.85s.4-.94.78-1c0,0-2.48,8.5,7.77,20.28,0,0,8.18,9.81,19.83,14.15,0,0,12.18,5.08,19,11.2,0,0,6.63,5.79,8.29,8.24,0,0,7.41,8.63,14.08,6.22a1.16,1.16,0,0,1,.15,1.35Z"/>
                <path class="cls-7" d="M99,152.41a5.6,5.6,0,0,1-2.39,3.39c-6.67,2.41-14.08-6.22-14.08-6.22-1.66-2.45-8.29-8.24-8.29-8.24-6.85-6.12-19-11.2-19-11.2C43.55,125.81,35.37,116,35.37,116,25.12,104.21,27.6,95.71,27.6,95.71s1.83-3.2,3.17-2.45a7.9,7.9,0,0,0-1.35,5.44s.5,6.94,7.85,14.32c0,0,9.45,11.55,19.91,14.45,0,0,10.49,2.37,18,9.32,0,0,7.53,6.78,13,12.51C88.2,149.3,95.13,155.22,99,152.41Z"/>
                <path class="cls-8" d="M104.85,141.87A61.29,61.29,0,0,1,99,152.41c-3.86,2.81-10.79-3.1-10.79-3.1-5.46-5.74-13-12.51-13-12.51-7.55-7-18-9.32-18-9.32C46.72,124.56,37.27,113,37.27,113c-7.34-7.37-7.85-14.32-7.85-14.32a7.9,7.9,0,0,1,1.35-5.44s2.12-.77,3.09-.11l2.31,1.66A85.53,85.53,0,0,1,47,101.44s4.13,1.48,6.54,2.42c0,0-3.34.42.13,6.49l.23-1.39,3.15.19-.07,1.15,3.36.32.11-.79,3.32.37-.1,1.08,2.51.28.1-.93,3.14.3-.11,1,2.53.21.09-.77,3,.31-.07.95,4.57.52.09-.81,3.41.36-.19,2.5h1.07a1.77,1.77,0,0,1,1.61,1.41,86,86,0,0,0,3.43,10.14s2.72,6.35,6,9.19c0,0,3,2.68,4.81,2.84a19.35,19.35,0,0,0,9.33-.66h0a25.67,25.67,0,0,1-2.57,2.54A4.88,4.88,0,0,1,104.85,141.87Z"/>
                <path class="cls-7" d="M109.81,135.86s.74.34-.91,2.29h0a19.35,19.35,0,0,1-9.33.66c-1.8-.16-4.81-2.84-4.81-2.84-3.24-2.83-6-9.19-6-9.19a86,86,0,0,1-3.43-10.14,1.77,1.77,0,0,0-1.61-1.41H82.69l.19-2.5-3.41-.36-.09.81-4.57-.52.07-.95-3-.31-.09.77L69.26,112l.11-1-3.14-.3-.1.93-2.51-.28.1-1.08-3.32-.37-.11.79-3.36-.32.07-1.15L53.85,109l-.23,1.39c-3.47-6.07-.13-6.49-.13-6.49.67.26,1.21.48,1.49.62,0,0,13.86,2.88,15.78,3.29,0,0,4,.09,5.17.68,0,0,4.57-1.89,6.25-.87l6.33-.17s1.78-2,3-.47c0,0,2,.49.45,2.45,0,0-2.39,4.6-2.4,5.32,0,0,1.23,1.78-1,3.15a18.84,18.84,0,0,0,2.68,10.83s4.6,7.22,9,6.64c0,0,7.67-3.76,8.77-2.32C109,133,111.11,134.33,109.81,135.86Z"/>
              </g>
            </g>
            <path class="cls-6" d="M60.24,105.83a1.08,1.08,0,0,0-1-.82s-2.41.45-2.53,6C56.69,111,58.63,107,60.24,105.83Z"/>
            <path class="cls-6" d="M67,106.92a1.08,1.08,0,0,0-1-.82s-2.41.45-2.53,6C63.46,112.06,65.41,108.05,67,106.92Z"/>
            <path class="cls-6" d="M72.56,107.77a1.08,1.08,0,0,0-1-.82s-2.41.45-2.53,6C69,112.91,71,108.91,72.56,107.77Z"/>
            <path class="cls-6" d="M78.19,107.81a1.08,1.08,0,0,0-1-.82s-2.41.45-2.53,6C74.64,113,76.58,109,78.19,107.81Z"/>
            <path class="cls-6" d="M83.1,107.6a1.08,1.08,0,0,0-1-.82s-2.41.45-2.53,6C79.55,112.74,81.5,108.74,83.1,107.6Z"/>
          </g>
          <g>
            <g id="_Group_2" data-name="&lt;Group&gt;">
              <g>
                <path class="cls-6" d="M13.2,37.89A2.73,2.73,0,0,0,12,39.77s-.88,5,4.39,10.43a125.14,125.14,0,0,0,9.94,9.67s8.92,7.92,13.5,15.54c0,0,6.63,9.92,11.71,14.36,0,0,5.87,5.25,7.23,5.85a1.28,1.28,0,0,0,1.34-.24s.77-.77.94-.47c0,0,.28.08-.35.84,0,0-.75.91,0,1.45A9.71,9.71,0,0,0,65,99.12s.37.11,1.14-.75c0,0,.27-.32.43-.1,0,0,.19.11-.22.62,0,0-.72.76-.24,1.14a7.28,7.28,0,0,0,4,1.09,1.55,1.55,0,0,0,1.24-.44s.5-.57.66-.4c0,0,.16.14-.17.54,0,0-.37.62.08.74a7.12,7.12,0,0,0,4.2.39,1.18,1.18,0,0,0,.7-.48s.36-.23.22,0c0,0-.59.63-.34.65a9.48,9.48,0,0,0,5.74-1.48s.9-.49.9-.87c0,0-8.22,3.27-20.93-5.82,0,0-10.54-7.22-16-18.41,0,0-6.21-11.65-12.94-17.89,0,0-6.39-6.05-9-7.47,0,0-9.29-6.56-7.52-13.43a1.16,1.16,0,0,0-1.36,0Z"/>
                <path class="cls-7" d="M20.1,34.07a5.6,5.6,0,0,0-3.15,2.7c-1.77,6.87,7.52,13.43,7.52,13.43,2.6,1.42,9,7.47,9,7.47C40.19,63.91,46.4,75.56,46.4,75.56c5.41,11.19,16,18.41,16,18.41,12.7,9.09,20.93,5.82,20.93,5.82s3-2.13,2.14-3.38a7.9,7.9,0,0,1-5.29,1.85s-7,.15-15-6.46c0,0-12.39-8.31-16.27-18.46,0,0-3.35-10.22-11-17.07,0,0-7.46-6.85-13.68-11.75C24.21,44.51,17.66,38.17,20.1,34.07Z"/>
                <path class="cls-8" d="M30,27.24a61.29,61.29,0,0,0-9.94,6.83c-2.43,4.1,4.11,10.44,4.11,10.44,6.23,4.9,13.68,11.75,13.68,11.75,7.63,6.86,11,17.07,11,17.07,3.88,10.14,16.27,18.46,16.27,18.46,8,6.61,15,6.46,15,6.46a7.9,7.9,0,0,0,5.29-1.85s.57-2.18-.19-3.08l-1.87-2.15a85.53,85.53,0,0,0-7.61-10.12s-1.86-4-3-6.28c0,0-.1,3.36-6.47.48l1.36-.36-.48-3.12L66,72l-.63-3.32.78-.19-.68-3.27-1.07.2-.52-2.47.91-.19-.59-3.1-1,.21-.45-2.49.76-.17-.6-3-.93.16L61,49.88l.8-.16-.68-3.36-2.47.43-.12-1.07A1.77,1.77,0,0,0,57,44.25a86,86,0,0,1-10.42-2.46S40,39.68,36.86,36.72c0,0-3-2.73-3.28-4.52a19.35,19.35,0,0,1-.22-9.35h0a25.67,25.67,0,0,0-2.28,2.8A4.88,4.88,0,0,0,30,27.24Z"/>
                <path class="cls-7" d="M35.55,21.74s-.41-.71-2.19,1.12h0a19.35,19.35,0,0,0,.22,9.35c.33,1.78,3.28,4.52,3.28,4.52,3.13,3,9.71,5.06,9.71,5.06A86,86,0,0,0,57,44.25a1.77,1.77,0,0,1,1.55,1.47l.12,1.07,2.47-.43.68,3.36-.8.16.95,4.5.93-.16.6,3-.76.17.45,2.49,1-.21.59,3.1-.91.19.52,2.47,1.07-.2.68,3.27-.78.19L66,72l1.14-.18.48,3.12-1.36.36c6.37,2.88,6.47-.48,6.47-.48-.32-.64-.59-1.16-.75-1.42,0,0-4.18-13.52-4.77-15.4,0,0-.47-4-1.16-5.08,0,0,1.45-4.73.28-6.3l-.43-6.31s1.85-2,.18-3.06c0,0-.68-2-2.48-.22,0,0-4.35,2.82-5.07,2.89,0,0-1.89-1.05-3,1.28a18.84,18.84,0,0,1-11-1.64s-7.62-3.9-7.46-8.34c0,0,3-8,1.48-8.95C38.47,22.23,36.95,20.29,35.55,21.74Z"/>
              </g>
            </g>
            <path class="cls-6" d="M70.13,68.25s.87.14.91.94c0,0-.22,2.44-5.69,3.08C65.35,72.27,69.15,70,70.13,68.25Z"/>
            <path class="cls-6" d="M68.4,61.6s.87.14.91.94c0,0-.22,2.44-5.69,3.08C63.62,65.63,67.42,63.31,68.4,61.6Z"/>
            <path class="cls-6" d="M67,56.17s.87.14.91.94c0,0-.22,2.44-5.69,3.08C62.25,60.19,66,57.87,67,56.17Z"/>
            <path class="cls-6" d="M66.46,50.56s.87.14.91.94c0,0-.22,2.44-5.69,3.08C61.67,54.59,65.48,52.27,66.46,50.56Z"/>
            <path class="cls-6" d="M66.2,45.65s.87.15.91.94c0,0-.22,2.44-5.69,3.08C61.42,49.68,65.22,47.36,66.2,45.65Z"/>
          </g>
          <g>
            <g>
              <path class="cls-8" d="M82.22,39.85a25.91,25.91,0,1,1,31.84-18.13A25.94,25.94,0,0,1,82.22,39.85ZM95.14-7.26a22.94,22.94,0,1,0,16.06,28.2A23,23,0,0,0,95.14-7.26Z"/>
              <path class="cls-8" d="M81.18,33.81C69.3,30.55,62.21,18.54,65.36,7S80.75-11.16,92.63-7.91s19,15.27,15.82,26.77S93.06,37.07,81.18,33.81ZM91.85-5C81.54-7.88,70.94-2.1,68.22,7.83S71.66,28.13,82,31,102.87,28,105.6,18.08,102.15-2.22,91.85-5Z"/>
            </g>
            <g>
              <path class="cls-8" d="M136,41.08l-2.69,1.23c-.13-.28-13-28.42-28.9-44.57l2.05-2C122.73,12.22,135.49,39.91,136,41.08Z"/>
              <g>
                <rect class="cls-9" x="133.05" y="40.62" width="5.14" height="5.14" rx="1.09" ry="1.09" transform="translate(-5.66 60.42) rotate(-24.62)"/>
                <path class="cls-6" d="M133.64,49.59l6.93,15.14C143,70,151.09,66.25,148.69,61l-6.94-15.14c-2.4-5.23-10.51-1.52-8.11,3.71Z"/>
              </g>
            </g>
            <g>
              <g>
                <rect class="cls-9" x="96.31" y="76.47" width="5.14" height="5.14" rx="1.09" ry="1.09" transform="translate(-26.35 60.57) rotate(-30.25)"/>
                <path class="cls-6" d="M97.55,85.6,105.94,100c2.9,5,10.61.47,7.71-4.5L105.25,81.1c-2.9-5-10.61-.47-7.71,4.49Z"/>
              </g>
              <polygon class="cls-8" points="98.65 76.11 96.1 77.62 66.71 27.77 69.19 26.31 98.65 76.11"/>
            </g>
          </g>
          <g>
            <path class="cls-6" d="M144.7,72.1a.79.79,0,0,1-1,.5l-5.62-1.85a.79.79,0,0,1-.5-1h0a.79.79,0,0,1,1-.5l5.62,1.85a.79.79,0,0,1,.5,1Z"/>
            <g>
              <g>
                <g>
                  <path class="cls-10" d="M121.46,130.54a31.32,31.32,0,0,0,7.41,1.52,3.46,3.46,0,0,0,.83,0,3.56,3.56,0,0,0,3.17-2.44l2.68-8.14-16.29,8.21Q120.33,130.17,121.46,130.54Z"/>
                  <path class="cls-11" d="M143.24,98.16l.46-1.52A9.78,9.78,0,0,1,143,91v0l0-.1L127.6,85.8l0,.1v0a9.6,9.6,0,0,1-3.74,4l-.59,1.58c0,.08-.06.15-.09.23l-7.28,22.09-3,9.24a3.56,3.56,0,0,0,1.1,3.85,3.43,3.43,0,0,0,.7.46,29.88,29.88,0,0,0,4.66,2.37l16.29-8.21.36-1.09,7.28-22.09C143.21,98.28,143.23,98.22,143.24,98.16Z"/>
                </g>
                <polygon class="cls-12" points="142.49 75.72 142.47 75.72 143.58 72.37 138.24 70.61 137.13 73.99 132.31 73.73 137.22 75.34 141.71 76.83 146.61 78.44 142.49 75.72"/>
                <path class="cls-11" d="M148.21,81.69a2.7,2.7,0,0,0-1.74-3.39l-13.85-4.56a2.7,2.7,0,0,0-3.42,1.69l-1.14,3.05,19.2,6.33-.4,1.23L127.63,79.7l.12-.36-1,2.73,19.44,6.4Z"/>
                <polygon class="cls-10" points="128.03 78.47 127.75 79.34 128.07 78.48 128.03 78.47"/>
                <polygon class="cls-10" points="146.86 86.03 147.27 84.81 128.07 78.48 127.75 79.34 127.63 79.69 146.86 86.03"/>
                <path class="cls-10" d="M143.23,90.4a1.66,1.66,0,0,1,.69-.69h0a6,6,0,0,1,2.1-.82l.12-.41-19.44-6.4-.2.53a5.68,5.68,0,0,1,1,1.7v0a1.66,1.66,0,0,1,.14,1,1.74,1.74,0,0,1-.11.51L143,90.88A1.74,1.74,0,0,1,143.23,90.4Z"/>
                <g>
                  <ellipse class="cls-6" cx="126.15" cy="108.08" rx="2.84" ry="1.34" transform="translate(1.33 217.69) rotate(-81.87)"/>
                  <ellipse class="cls-6" cx="130.01" cy="108.26" rx="2.41" ry="1.14" transform="translate(-20.76 184.99) rotate(-66.76)"/>
                  <ellipse class="cls-6" cx="129.18" cy="103.05" rx="2.29" ry="1.08" transform="translate(-19.35 175.49) rotate(-64.58)"/>
                  <ellipse class="cls-6" cx="126.79" cy="115.95" rx="1.64" ry="3.48" transform="translate(-13.69 17.03) rotate(-7.29)"/>
                </g>
              </g>
              <g class="cls-13">
                <path class="cls-14" d="M115.65,120.42c-.88,2-1,4.78,1.21,5.89.66.33,1.32-.63.65-1-1.74-.88-1.43-3-.75-4.55.31-.69-.8-1-1.11-.37Z"/>
              </g>
            </g>
          </g>
          <g>
            <g>
              <path class="cls-15" d="M155.49,85s-2.28.94-.27,3,3.75,1.42,4.21.45a5,5,0,0,1,4-1.27s4.78,1.49,6.56.45c0,0,10.53-3,12.17-19a32.32,32.32,0,0,0-9-25.77s-9.78-8.84-17.55-6.29c0,0-2.22,2.12-1.65,3.62a23.23,23.23,0,0,1,3.17,3.62A6.15,6.15,0,0,0,158.93,47s8.35,8.12,8.62,14.36S166.91,82.21,155.49,85Z"/>
              <path class="cls-15" d="M155.49,85s-2.28.94-.27,3,3.75,1.42,4.21.45a5,5,0,0,1,4-1.27s4.78,1.49,6.56.45c0,0,10.53-3,12.17-19a32.32,32.32,0,0,0-9-25.77s-9.78-8.84-17.55-6.29c0,0-2.22,2.12-1.65,3.62a23.23,23.23,0,0,1,3.17,3.62A6.15,6.15,0,0,0,158.93,47s8.35,8.12,8.62,14.36S166.91,82.21,155.49,85Z"/>
              <path class="cls-16" d="M171.61,71.57a32.32,32.32,0,0,0-9-25.77,33.79,33.79,0,0,0-8.58-5.42l-.08-.07c-.57-1.5,1.65-3.62,1.65-3.62,7.77-2.55,17.55,6.29,17.55,6.29a32.32,32.32,0,0,1,9,25.77c-1.64,16-12.17,19-12.17,19-1.27.75-4.09.19-5.58-.18C167.38,84.88,170.75,80.06,171.61,71.57Z"/>
              <g>
                <path class="cls-17" d="M170,87.71c-1.5.88-5.13,0-6.23-.35a4,4,0,0,0,2.1-.35s10.07-2.83,11.63-18.14a30.91,30.91,0,0,0-8.59-24.64s-7.35-6.64-14.2-6.45a8.54,8.54,0,0,1,.93-1.09c7.77-2.55,17.55,6.29,17.55,6.29a32.32,32.32,0,0,1,9,25.77C180.52,84.76,170,87.71,170,87.71Z"/>
                <path class="cls-17" d="M155.75,87.8a4.78,4.78,0,0,1,3.83-1.21,21.73,21.73,0,0,0,2.78.63,5.29,5.29,0,0,0-2.92,1.32c-.45.95-2.1,1.61-4-.27A1.41,1.41,0,0,0,155.75,87.8Z"/>
              </g>
            </g>
            <g class="cls-18">
              <path class="cls-19" d="M155.49,85a2.07,2.07,0,0,0-1,.9,13.15,13.15,0,0,0,4.58-2.36A13.5,13.5,0,0,1,155.49,85Z"/>
              <path class="cls-20" d="M171.63,44a32.32,32.32,0,0,1,9,25.77c-1,9.39-5,14.29-8.14,16.74,3.22-1.94,8.56-6.78,9.69-17.8a32.32,32.32,0,0,0-9-25.77s-9.78-8.84-17.55-6.29l0,0,0,0,0,0,0,0-.05.06-.06.07-.07.07-.08.09-.07.08-.09.1-.08.09-.09.12,0,0C162.5,35.8,171.63,44,171.63,44Z"/>
              <path class="cls-19" d="M159.35,88.66l-.14.07-.12.06-.13.07-.11.06-.12.07-.1.06-.1.07-.1.07-.14.1-.08.06-.07.05-.06,0,0,0h0l.13,0,.12,0,.12,0,.11,0,.11,0,.1-.06.1-.06.09-.07L159,89l.09-.08.07-.07.08-.1,0-.06,0-.05Z"/>
            </g>
          </g>
          <g>
            <g>
              <path class="cls-15" d="M176.62,89.29s-1.79,1.7.84,2.93,4,0,4.09-1.1a5,5,0,0,1,3.27-2.62s5-.33,6.28-1.95c0,0,8.76-6.55,4.51-22.08A32.33,32.33,0,0,0,178,43.68s-12.31-4.72-18.63.46c0,0-1.31,2.78-.23,4a23.13,23.13,0,0,1,4.26,2.24,6.17,6.17,0,0,0,2.78,2.24s10.71,4.56,13.22,10.29S186.25,82.53,176.62,89.29Z"/>
              <path class="cls-15" d="M176.62,89.29s-1.79,1.7.84,2.93,4,0,4.09-1.1a5,5,0,0,1,3.27-2.62s5-.33,6.28-1.95c0,0,8.76-6.55,4.51-22.08A32.33,32.33,0,0,0,178,43.68s-12.31-4.72-18.63.46c0,0-1.31,2.78-.23,4a23.13,23.13,0,0,1,4.26,2.24,6.17,6.17,0,0,0,2.78,2.24s10.71,4.56,13.22,10.29S186.25,82.53,176.62,89.29Z"/>
              <path class="cls-16" d="M186.8,70.91a32.33,32.33,0,0,0-17.66-20.8,33.79,33.79,0,0,0-10-2l-.1,0c-1.07-1.19.23-4,.23-4C165.64,39,178,43.68,178,43.68a32.33,32.33,0,0,1,17.66,20.8c4.25,15.52-4.51,22.08-4.51,22.08-.92,1.16-3.74,1.65-5.27,1.85C187.65,84.85,189.05,79.15,186.8,70.91Z"/>
              <g>
                <path class="cls-17" d="M191.1,86.56c-1.08,1.36-4.8,1.81-5.94,1.92A4,4,0,0,0,187,87.39s8.37-6.27,4.32-21.11a30.91,30.91,0,0,0-16.89-19.89s-9.25-3.54-15.57-.9a8.56,8.56,0,0,1,.47-1.35C165.64,39,178,43.68,178,43.68a32.33,32.33,0,0,1,17.66,20.8C199.86,80,191.1,86.56,191.1,86.56Z"/>
                <path class="cls-17" d="M177.85,91.77A4.78,4.78,0,0,1,181,89.26a21.66,21.66,0,0,0,2.82-.41,5.29,5.29,0,0,0-2.25,2.28c-.08,1-1.38,2.26-3.86,1.2A1.43,1.43,0,0,0,177.85,91.77Z"/>
              </g>
            </g>
            <g class="cls-18">
              <path class="cls-19" d="M176.62,89.29a2.07,2.07,0,0,0-.59,1.19,13.13,13.13,0,0,0,3.42-3.85A13.46,13.46,0,0,1,176.62,89.29Z"/>
              <path class="cls-20" d="M176.89,45.23A32.32,32.32,0,0,1,194.56,66c2.49,9.11.5,15.13-1.56,18.54,2.3-3,5.54-9.41,2.62-20.09A32.33,32.33,0,0,0,178,43.68s-12.31-4.72-18.63.46v.05l0,.06,0,.06,0,.07,0,.09,0,.09,0,.11,0,.1,0,.13,0,.11,0,.15v0C165.41,40.83,176.89,45.23,176.89,45.23Z"/>
              <path class="cls-19" d="M181.52,91.27l-.11.11-.09.1-.1.11-.08.1-.09.11-.07.09-.07.1-.07.1-.1.14-.05.08,0,.07,0,.07,0,0h0l.12-.07.1-.07.1-.07.09-.08.09-.08.07-.09.07-.09.06-.1.05-.09.05-.11,0-.09,0-.13,0-.07v-.06Z"/>
            </g>
          </g>
        </g>
      </g>
    </g>
  </g>
</svg>
