<svg id="Layer_1" data-name="Layer 1" xmlns="http://www.w3.org/2000/svg" xmlns:xlink="http://www.w3.org/1999/xlink" viewBox="0 0 300 150">
  <defs>
    <style>
      .cls-1, .cls-9 {
        fill: none;
      }

      .cls-2 {
        clip-path: url(#clip-path);
      }

      .cls-3 {
        fill: #b9e1f7;
      }

      .cls-4 {
        clip-path: url(#clip-path-3);
      }

      .cls-5 {
        fill: #6cc9ca;
      }

      .cls-6 {
        fill: #55b0b2;
      }

      .cls-7 {
        fill: #0090cf;
      }

      .cls-8 {
        fill: #8eb35c;
      }

      .cls-9 {
        stroke: #0090cf;
        stroke-miterlimit: 10;
      }

      .cls-10 {
        fill: #361f17;
      }

      .cls-11 {
        fill: #f4f4ce;
      }

      .cls-12 {
        fill: #e2e1ba;
      }

      .cls-13 {
        fill: #fdfbe3;
      }

      .cls-14 {
        fill: #9f742b;
      }

      .cls-15 {
        fill: #e95741;
      }

      .cls-16 {
        clip-path: url(#clip-path-5);
      }

      .cls-17 {
        fill: #f6c4cf;
      }

      .cls-18 {
        fill: #d3852a;
      }

      .cls-19 {
        fill: #dce8dc;
      }

      .cls-20 {
        clip-path: url(#clip-path-6);
      }

      .cls-21 {
        fill: #eb9f61;
      }

      .cls-22 {
        fill: #705138;
      }

      .cls-23 {
        fill: #5e8c50;
      }

      .cls-24 {
        fill: #361f0f;
      }

      .cls-25 {
        fill: #3d5f36;
      }
    </style>
    <clipPath id="clip-path">
      <rect class="cls-1" y="262.67" width="300" height="150"/>
    </clipPath>
    <clipPath id="clip-path-3">
      <rect class="cls-1" width="300" height="150"/>
    </clipPath>
    <clipPath id="clip-path-5">
      <rect class="cls-1" x="163.11" y="59.61" width="72.85" height="57.87"/>
    </clipPath>
    <clipPath id="clip-path-6">
      <rect class="cls-1" x="145.48" y="59.61" width="72.85" height="67.77"/>
    </clipPath>
  </defs>
  <title>History</title>
  <g class="cls-2">
    <g class="cls-2">
      <rect class="cls-3" x="22.64" y="146.99" width="407.79" height="143.38"/>
    </g>
  </g>
  <g>
    <g class="cls-4">
      <g class="cls-4">
        <rect class="cls-5" x="-9.68" width="315.33" height="75"/>
        <path class="cls-6" d="M381.49,62v84H-60.89V62h3.34l1.25-1.25V57.42L-53.93,55V51.85l1.46-1.46,1.88,1.88v3.47h2.93v3.14h1.6l1.6-1.6v-3.9h2.37v7.38h3.19V55.48h1.53v2.37h4V54.92h4v2.37h3.75V45.6H-23v10h1.66v-5H-19v5h3.62v-11h4.59v5h3.19V42h2.22v4.46h2.93V38.09H-.8V34.75H.45V45.46H3.1v3.62H5.88V43.65h2.5V48h4.18v-2.5h4V43.37h4V35.72h1.53V41h2.22V38.9h6.55V37H34.4V38.9h3.9V34.72h2.09v2.37h7.37L49,35.84h4V33.75h2.22v1.4h7V32.36h5.56v1.52h.41V31.94h1.06V30.11h.47V28.42H70V32h1.44v2h.74V33h1.06v.85h1.62v-.56h.56v-.9h1.4V29.82H78V26.15h5.14V23h.41v1.83h1v-.56h.87v.56H86v-.57h.78v.57h1.24v-.59h.38v.6H89v-.59h1.22v.44H91v-.56h.85v.5h1v-.37h.63v.26h3v1.65h4.11s-.13-2.47,1.57-2.44,1.49,2.46,1.49,2.46h.65v2h1.47v1.32h1.6v5.26h.94v-1.5h1.32v1.56h.69V30.86h1.32v2.43l3.09-3.15H117V28.67h3.83V27.9H124v1h4.9l.53.77v2.75h.51V27.77h1l.74-4H133v-1h2.71l.79,3.8h.84v.9h.56V16.21l.77-.31.69-2.61h.9l.66,2.43.59.41v9.13h.66l2.19-1.43,1.5,1.4.49,0s.28-1.5.66-1.63V20.33h1.5V23.4A1.17,1.17,0,0,1,149,24h.35V16.68l1.35-3h.84l1.21,3v7.57h2.31V21.69l1,0v2.56h8.77V12.55h-.66v-.6h.66V8.09h.54V6.32H166V4.42h.51l1.9-10.16h.09V-8.4h.09V-10H169v4.24H169l1.85,9.79h.37V6H172V7.76h.6v3.58h.88v.6h-.88v12.2h1.16l2.37-3.06.69-5.61h1.12l.41,1.94.74-1.06V12.83h.51l2.5-7.29V-1.91h.57V5.5l3.4,7.73V16h.56v1.53h.49V16.29h.94V20h1v1.78L190.81,24h1.29V21.59h1.6v3.14h4.69V23h1.32v2.43h1.66V18.51l1-2.83h.74l1.25,2.86v1.07h.66v.69h-.63v4.52H208l2.28,2.28V18.7l1.59-2.59h.63l1.28,2.59V30.57H215V29h1v1.15l2.37.35,10.58.28v.69h.69V25.87l.34-.13V22.65h.56V23H231l1.43-10h1.12l2,11.07h.28v-3.3h.59l.51,6v4.62h.49V27.15h.69l.31,1.66v3.27h.31V31H244V28.71l.34-1.72h.56l.35,1.74V31h5.43v-.49h3.66v1.88h4v2.78h7V33.75h2.22v2.09h4l1.25,1.25h7.37V34.72h2.09V38.9h3.9V37h3.47V38.9h6.53V41h2.22V35.7H300v7.66h4v2.09h4V48h4.18V43.64h2.5v5.43h2.78V45.45h2.65V34.73h1.25v3.34h1.66v8.35H326V42h2.22v7.66h3.19v-5H336v11h3.62v-5H342v5h1.66v-10h2.5V57.27h3.75V54.9h4v2.93h4V55.46h1.53v5.29h3.19V53.37h2.37v3.9l1.6,1.6h1.6V55.74h2.93V52.27l1.88-1.88,1.46,1.46V55l2.37,2.37v3.34L378.16,62h3.33Z"/>
        <polygon class="cls-7" points="299.65 54.55 299.65 150 -0.41 150 -0.41 54.88 -0.41 54.55 299.65 54.55"/>
        <polygon class="cls-8" points="305.65 95 -9.68 95 -8.86 53.78 306.48 53.78 305.65 95"/>
        <path class="cls-9" d="M0,94.5c15,0,15,1,30,1s15-1,30-1,15,1,30,1,15-1,30-1,15,1,30,1,15-1,30-1,15,1,30,1,15-1,30-1,15,1,30,1,15-1,30-1"/>
        <g>
          <path class="cls-10" d="M205.22,52.2A.25.25,0,0,1,205,52l-.34-10.16a.25.25,0,1,1,.51,0l.34,10.16a.25.25,0,0,1-.25.26Z"/>
          <path class="cls-10" d="M203.52,51.74l-.11,0a.25.25,0,0,1-.12-.34l3.9-8.3a.25.25,0,0,1,.46.22l-3.9,8.3A.25.25,0,0,1,203.52,51.74Z"/>
          <path class="cls-10" d="M206.29,52.2a.25.25,0,0,1-.23-.15l-3.36-7.79a.25.25,0,1,1,.47-.2l3.36,7.79a.25.25,0,0,1-.13.33Z"/>
          <path class="cls-10" d="M204.26,52.2h-.05a.25.25,0,0,1-.2-.3l1.69-8.19a.25.25,0,1,1,.5.1L204.5,52A.25.25,0,0,1,204.26,52.2Z"/>
          <path class="cls-10" d="M206.29,53.68a.25.25,0,0,1-.25-.19l-2.77-10.24a.25.25,0,1,1,.49-.13l2.77,10.24a.25.25,0,0,1-.18.31Z"/>
          <polygon class="cls-11" points="197.09 79.3 212.67 79.3 204.88 47.71 197.09 79.3"/>
          <polygon class="cls-12" points="212.03 75.67 205.08 69.81 206.29 68.82 212.03 75.67"/>
          <path class="cls-10" d="M213.35,77.49a.25.25,0,0,1-.2-.09L204.4,67a.25.25,0,0,1,.39-.33l8.75,10.45a.25.25,0,0,1-.19.42Z"/>
          <polygon class="cls-13" points="206.39 68.74 204.23 68.74 198.15 74.97 198 75.59 206.39 68.74"/>
          <path class="cls-10" d="M205.23,71.45a3.2,3.2,0,0,0-3.2,3.2V79.3h6.41V74.66A3.2,3.2,0,0,0,205.23,71.45Z"/>
          <polygon class="cls-12" points="219.19 78.03 204.88 47.71 212.67 79.3 219.19 78.03"/>
          <path class="cls-10" d="M197.08,76.59a.25.25,0,0,1-.16-.45l11.69-9.54a.25.25,0,1,1,.32.39l-11.69,9.54A.25.25,0,0,1,197.08,76.59Z"/>
          <polygon class="cls-12" points="190.56 78.03 204.88 47.71 197.09 79.3 190.56 78.03"/>
        </g>
        <g>
          <polygon class="cls-14" points="223.21 78.27 237.67 78.27 230.27 62.5 223.21 78.27"/>
          <path class="cls-10" d="M230.61,45.45a.34.34,0,0,1-.34.34h0a.34.34,0,0,1-.34-.34V38a.34.34,0,0,1,.34-.34h0a.34.34,0,0,1,.34.34Z"/>
          <path class="cls-10" d="M230.54,45.73a.34.34,0,0,1-.45.19h0a.34.34,0,0,1-.19-.45l2.83-6.88a.34.34,0,0,1,.45-.19h0a.34.34,0,0,1,.19.45Z"/>
          <path class="cls-10" d="M229.95,45.73a.34.34,0,0,0,.45.19h0a.34.34,0,0,0,.19-.45l-2.83-6.88a.34.34,0,0,0-.45-.19h0a.34.34,0,0,0-.19.45Z"/>
          <polygon class="cls-15" points="230.37 44.04 213.43 78.55 223.21 79.37 230.37 63.76 237.74 79.37 247.11 78.48 230.37 44.04"/>
          <polygon class="cls-11" points="225.33 54.3 235.36 54.3 231.92 47.22 228.81 47.22 225.33 54.3"/>
          <path class="cls-10" d="M229.84,47.42l-.2-.2.2-.2a.1.1,0,1,0-.15-.15l-.2.2-.2-.2a.1.1,0,1,0-.15.15l.2.2-.2.2a.1.1,0,1,0,.15.15l.2-.2.2.2a.1.1,0,1,0,.15-.15Z"/>
          <path class="cls-10" d="M231.46,47.42l-.2-.2.2-.2a.1.1,0,0,0-.15-.15l-.2.2-.2-.2a.1.1,0,1,0-.15.15l.2.2-.2.2a.1.1,0,1,0,.15.15l.2-.2.2.2a.1.1,0,0,0,.15-.15Z"/>
          <path class="cls-10" d="M226.64,54.5l-.2-.2.2-.2a.1.1,0,0,0-.15-.15l-.2.2-.2-.2a.1.1,0,0,0-.15.15l.2.2-.2.2a.1.1,0,1,0,.15.15l.2-.2.2.2a.1.1,0,0,0,.15-.15Z"/>
          <path class="cls-10" d="M228.64,54.5l-.2-.2.2-.2a.1.1,0,1,0-.15-.15l-.2.2-.2-.2a.1.1,0,0,0-.15.15l.2.2-.2.2a.1.1,0,1,0,.15.15l.2-.2.2.2a.1.1,0,1,0,.15-.15Z"/>
          <path class="cls-10" d="M230.65,54.5l-.2-.2.2-.2a.1.1,0,1,0-.15-.15l-.2.2-.2-.2a.1.1,0,1,0-.15.15l.2.2-.2.2a.1.1,0,0,0,0,.15.1.1,0,0,0,.15,0l.2-.2.2.2a.1.1,0,1,0,.15-.15Z"/>
          <path class="cls-10" d="M232.65,54.5l-.2-.2.2-.2a.1.1,0,1,0-.15-.15l-.2.2-.2-.2a.1.1,0,1,0-.15.15l.2.2-.2.2a.1.1,0,1,0,.15.15l.2-.2.2.2a.1.1,0,1,0,.15-.15Z"/>
          <path class="cls-10" d="M234.66,54.5l-.2-.2.2-.2a.1.1,0,0,0-.15-.15l-.2.2-.2-.2a.1.1,0,1,0-.15.15l.2.2-.2.2a.1.1,0,1,0,.15.15l.2-.2.2.2a.1.1,0,1,0,.15-.15Z"/>
          <polygon class="cls-11" points="223.21 79.37 224.96 75.56 215.22 74.9 213.43 78.55 223.21 79.37"/>
          <polygon class="cls-11" points="237.74 79.37 247.11 78.48 245.4 74.95 235.97 75.61 237.74 79.37"/>
          <polygon class="cls-10" points="213.43 78.55 223.21 79.37 223.58 78.56 222.74 76.27 221.09 79.14 219.95 76.03 218.29 78.89 217.16 75.78 215.5 78.65 214.6 76.16 213.43 78.55"/>
          <polygon class="cls-10" points="237.74 79.37 247.11 78.48 245.91 76 244.94 78.65 243.28 75.78 242.15 78.89 240.49 76.03 239.35 79.14 237.7 76.27 237.08 77.97 237.74 79.37"/>
        </g>
        <g>
          <g class="cls-16">
            <g>
              <path class="cls-15" d="M213.8,135.16a7.77,7.77,0,0,0,10.78,2.11l.94-.63a7.77,7.77,0,0,0,2.11-10.78l-10.44-15.52c-5.23-7.76-9.92-8.51-13.48-6.12l-.94.63c-3.56,2.39-4.63,7,.6,14.79Z"/>
              <path class="cls-17" d="M222,131.67a4,4,0,0,0,1.09-5.59l-8.36-12.43c-2.93-4.34-5.54-5.79-7.76-4.31l-.75.5c-2.22,1.5-1.86,4.46,1.07,8.8l8.36,12.43a4,4,0,0,0,5.59,1.09Z"/>
              <path class="cls-18" d="M210.28,115.21c1.58-1.07-4.42-10.83-5.16-11.93L181.75,68.51a2.4,2.4,0,0,0-3.33-.65h0a2.39,2.39,0,0,0-.65,3.32l23.38,34.77c.74,1.1,7.63,10.27,9.13,9.26Z"/>
            </g>
          </g>
          <path class="cls-19" d="M251.59,121.33H127.46c-10.38,0-27.16-2-30.3-18.31A69.29,69.29,0,0,1,96,84.72s6.85,18.3,94,18.3c89.85,0,95-18.3,95-18.3a47.48,47.48,0,0,1-1.14,20.42C280.76,116.4,270.08,121.33,251.59,121.33Z"/>
          <path class="cls-15" d="M236,106.17s38.26.09,49.51-12.29c0,0-.2,3.38-.56,5.8-.39,2.63-1.15,5.46-1.15,5.46S250.34,109.87,236,106.17Z"/>
          <path class="cls-15" d="M145.48,106.17s-38-.76-49.51-12.29c0,0,.2,3.38.56,5.8.39,2.63,1.15,5.46,1.15,5.46S131.1,109.87,145.48,106.17Z"/>
          <g class="cls-20">
            <g>
              <path class="cls-15" d="M167.63,135.16a7.77,7.77,0,0,1-10.78,2.11l-.93-.63a7.77,7.77,0,0,1-2.11-10.78l10.44-15.52c5.23-7.76,9.92-8.51,13.48-6.12l.94.63c3.56,2.39,4.63,7-.6,14.79Z"/>
              <path class="cls-17" d="M159.48,131.67a4,4,0,0,1-1.09-5.59l8.36-12.43c2.93-4.34,5.54-5.79,7.76-4.31l.75.5c2.22,1.5,1.86,4.46-1.07,8.8l-8.36,12.43a4,4,0,0,1-5.59,1.09Z"/>
              <path class="cls-21" d="M171.15,115.21c-1.58-1.07,4.42-10.83,5.16-11.93l23.38-34.77a2.4,2.4,0,0,1,3.33-.65h0a2.39,2.39,0,0,1,.65,3.32l-23.38,34.77c-.74,1.1-7.63,10.27-9.13,9.26Z"/>
            </g>
          </g>
        </g>
      </g>
    </g>
    <g>
      <rect class="cls-22" x="39.76" y="52.48" width="2.15" height="9.06"/>
      <path class="cls-23" d="M45.43,46.73a21.58,21.58,0,0,1-4.62-4.15h0a21.58,21.58,0,0,1-4.62,4.15s-.83.49-.43.49,4.15.37,5.07-.21c.92.58,4.7.21,5.07.21S45.43,46.73,45.43,46.73Z"/>
      <path class="cls-23" d="M47.09,49.85a28,28,0,0,1-6.27-4.14h0a28,28,0,0,1-6.27,4.14s-1.12.49-.58.49,5.63.37,6.88-.21c1.25.58,6.38.21,6.88.21S47.09,49.85,47.09,49.85Z"/>
      <path class="cls-23" d="M48.27,53.5c-3.18-1.36-7-4.76-7.45-5.21h-.06c-.49.45-4.27,3.85-7.45,5.21,0,0-1.33.62-.69.62s6.69.46,8.18-.26c1.48.72,7.58.26,8.18.26S48.27,53.5,48.27,53.5Z"/>
      <path class="cls-23" d="M49.69,57a40.13,40.13,0,0,1-8.87-5.21h-.07A40.13,40.13,0,0,1,31.88,57s-1.58.62-.82.62,6.9.71,9.74-.73c2.54,1.79,9,.73,9.71.73S49.69,57,49.69,57Z"/>
      <path class="cls-23" d="M44.6,43.61a19.59,19.59,0,0,1-3.8-4.15h0A19.59,19.59,0,0,1,37,43.61s-.68.49-.35.49,3.41.37,4.16-.21c.76.58,3.86.21,4.16.21S44.6,43.61,44.6,43.61Z"/>
      <path class="cls-23" d="M43.42,40.11A19,19,0,0,1,40.8,36h0a19,19,0,0,1-2.62,4.14s-.47.49-.24.49,2.35.37,2.87-.21c.52.58,2.66.21,2.87.21S43.42,40.11,43.42,40.11Z"/>
    </g>
    <g>
      <g>
        <rect class="cls-24" x="26.48" y="51.23" width="3.69" height="15.56"/>
        <path class="cls-25" d="M36.21,41.36c-3.39-1.86-7.42-6.51-7.94-7.12h-.06c-.53.62-4.55,5.26-7.94,7.12,0,0-1.42.85-.74.85s7.13.63,8.71-.36c1.58,1,8.07.36,8.71.36S36.21,41.36,36.21,41.36Z"/>
        <path class="cls-25" d="M39.06,46.72C34.46,44.86,29,40.21,28.28,39.6H28.2c-.71.61-6.18,5.26-10.78,7.12,0,0-1.93.85-1,.85s9.68.63,11.82-.36c2.15,1,11,.36,11.82.36S39.06,46.72,39.06,46.72Z"/>
        <path class="cls-25" d="M41.09,53c-5.46-2.34-12-8.17-12.8-8.94h-.1c-.85.77-7.34,6.61-12.81,8.94,0,0-2.29,1.07-1.19,1.07s11.49.79,14-.45c2.55,1.24,13,.45,14,.45S41.09,53,41.09,53Z"/>
        <path class="cls-25" d="M43.53,59C37,56.67,29.3,50.83,28.3,50.06h-.12c-1,.77-8.74,6.61-15.24,8.94,0,0-2.72,1.07-1.42,1.07s11.86,1.23,16.74-1.26c4.37,3.07,15.46,1.26,16.68,1.26S43.53,59,43.53,59Z"/>
        <path class="cls-25" d="M34.79,36C32,34.14,28.7,29.5,28.26,28.88h0c-.43.62-3.74,5.26-6.52,7.12,0,0-1.16.85-.61.85s5.86.63,7.15-.36c1.3,1,6.63.36,7.15.36S34.79,36,34.79,36Z"/>
        <path class="cls-25" d="M32.75,30c-1.92-1.86-4.2-6.51-4.5-7.12h0c-.3.61-2.58,5.26-4.5,7.12,0,0-.8.85-.42.85s4,.63,4.93-.36c.9,1,4.57.36,4.93.36S32.75,30,32.75,30Z"/>
      </g>
      <g>
        <rect class="cls-22" x="17.75" y="52.74" width="3.69" height="15.56"/>
        <path class="cls-23" d="M27.48,42.87c-3.39-1.86-7.42-6.51-7.94-7.12h-.06c-.53.62-4.55,5.26-7.94,7.12,0,0-1.42.85-.74.85s7.13.63,8.71-.36c1.58,1,8.07.36,8.71.36S27.48,42.87,27.48,42.87Z"/>
        <path class="cls-23" d="M30.33,48.23c-4.6-1.86-10.07-6.51-10.78-7.12h-.08c-.71.61-6.18,5.26-10.78,7.12,0,0-1.93.85-1,.85s9.68.63,11.82-.36c2.15,1,11,.36,11.82.36S30.33,48.23,30.33,48.23Z"/>
        <path class="cls-23" d="M32.37,54.5c-5.46-2.34-12-8.17-12.8-8.94h-.1c-.85.77-7.34,6.61-12.81,8.94,0,0-2.29,1.07-1.19,1.07s11.49.79,14-.45c2.55,1.24,13,.45,14,.45S32.37,54.5,32.37,54.5Z"/>
        <path class="cls-23" d="M34.81,60.51c-6.5-2.34-14.23-8.17-15.24-8.94h-.12c-1,.77-8.74,6.61-15.24,8.94,0,0-2.72,1.07-1.42,1.07s11.86,1.23,16.74-1.26c4.37,3.07,15.46,1.26,16.68,1.26S34.81,60.51,34.81,60.51Z"/>
        <path class="cls-23" d="M26.06,37.51C23.28,35.65,20,31,19.54,30.39h0c-.43.62-3.74,5.26-6.52,7.12,0,0-1.16.85-.61.85s5.86.63,7.15-.36c1.3,1,6.63.36,7.15.36S26.06,37.51,26.06,37.51Z"/>
        <path class="cls-23" d="M24,31.5c-1.92-1.86-4.2-6.51-4.5-7.12h0c-.3.61-2.58,5.26-4.5,7.12,0,0-.8.85-.42.85s4,.63,4.93-.36c.9,1,4.57.36,4.93.36S24,31.5,24,31.5Z"/>
      </g>
    </g>
    <g>
      <rect class="cls-24" x="72.97" y="54.58" width="3.99" height="16.84"/>
      <path class="cls-25" d="M83.5,43.9c-3.67-2-8-7-8.6-7.71h-.07c-.57.67-4.93,5.69-8.6,7.71,0,0-1.54.92-.8.92s7.72.68,9.43-.39c1.71,1.07,8.74.39,9.43.39S83.5,43.9,83.5,43.9Z"/>
      <path class="cls-25" d="M86.58,49.7c-5-2-10.9-7-11.67-7.71h-.09c-.77.67-6.69,5.69-11.67,7.71,0,0-2.08.92-1.08.92s10.47.68,12.8-.39c2.32,1.07,11.86.39,12.8.39S86.58,49.7,86.58,49.7Z"/>
      <path class="cls-25" d="M88.78,56.49C82.87,54,75.84,47.64,74.92,46.81h-.11C73.9,47.64,66.87,54,61,56.49c0,0-2.48,1.15-1.29,1.15s12.44.85,15.2-.49c2.76,1.34,14.09.49,15.2.49S88.78,56.49,88.78,56.49Z"/>
      <path class="cls-25" d="M91.43,63c-7-2.53-15.4-8.85-16.49-9.68h-.13c-1.09.84-9.46,7.15-16.49,9.68,0,0-2.95,1.16-1.53,1.16s12.84,1.33,18.12-1.36c4.73,3.33,16.74,1.36,18.06,1.36S91.43,63,91.43,63Z"/>
      <path class="cls-25" d="M82,38.1c-3-2-6.59-7-7.06-7.71h-.05c-.47.67-4,5.7-7.06,7.71,0,0-1.26.92-.66.92s6.34.68,7.74-.39C76.28,39.7,82,39,82.61,39S82,38.1,82,38.1Z"/>
      <path class="cls-25" d="M79.76,31.59c-2.08-2-4.55-7-4.87-7.71h0c-.32.67-2.79,5.69-4.87,7.71,0,0-.87.92-.45.92s4.37.68,5.34-.39c1,1.07,4.95.39,5.34.39S79.76,31.59,79.76,31.59Z"/>
    </g>
    <g>
      <g>
        <rect class="cls-24" x="118.81" y="63.03" width="3.99" height="16.84"/>
        <path class="cls-25" d="M112.27,52.35c3.67-2,8-7,8.6-7.71h.07c.57.67,4.93,5.69,8.6,7.71,0,0,1.54.92.8.92s-7.72.68-9.43-.39c-1.71,1.07-8.74.39-9.43.39S112.27,52.35,112.27,52.35Z"/>
        <path class="cls-25" d="M109.18,58.15c5-2,10.9-7,11.67-7.71h.09c.77.67,6.69,5.69,11.67,7.71,0,0,2.08.92,1.08.92s-10.47.68-12.8-.39c-2.32,1.07-11.86.39-12.8.39S109.18,58.15,109.18,58.15Z"/>
        <path class="cls-25" d="M107,64.94c5.91-2.53,12.95-8.85,13.86-9.68H121c.92.84,7.95,7.15,13.86,9.68,0,0,2.48,1.15,1.29,1.15s-12.44.85-15.2-.49c-2.76,1.34-14.09.49-15.2.49S107,64.94,107,64.94Z"/>
        <path class="cls-25" d="M104.34,71.44c7-2.53,15.4-8.85,16.49-9.68H121c1.09.84,9.46,7.15,16.49,9.68,0,0,2.95,1.16,1.53,1.16s-12.84,1.33-18.12-1.36c-4.73,3.33-16.74,1.36-18.06,1.36S104.34,71.44,104.34,71.44Z"/>
        <path class="cls-25" d="M113.81,46.55c3-2,6.59-7,7.06-7.71h.05c.47.67,4,5.7,7.06,7.71,0,0,1.26.92.66.92s-6.34.68-7.74-.39c-1.41,1.07-7.18.39-7.74.39S113.81,46.55,113.81,46.55Z"/>
        <path class="cls-25" d="M116,40c2.08-2,4.55-7,4.87-7.71h0c.32.67,2.79,5.69,4.87,7.71,0,0,.87.92.45.92s-4.37.68-5.34-.39c-1,1.07-4.95.39-5.34.39S116,40,116,40Z"/>
      </g>
      <g>
        <rect class="cls-22" x="128.26" y="64.67" width="3.99" height="16.84"/>
        <path class="cls-23" d="M121.71,54c3.67-2,8-7,8.6-7.71h.07c.57.67,4.93,5.69,8.6,7.71,0,0,1.54.92.8.92s-7.72.68-9.43-.39c-1.71,1.07-8.74.39-9.43.39S121.71,54,121.71,54Z"/>
        <path class="cls-23" d="M118.63,59.79c5-2,10.9-7,11.67-7.71h.09c.77.67,6.69,5.69,11.67,7.71,0,0,2.08.92,1.08.92s-10.47.68-12.8-.39c-2.32,1.07-11.86.39-12.8.39S118.63,59.79,118.63,59.79Z"/>
        <path class="cls-23" d="M116.43,66.57c5.91-2.53,12.95-8.85,13.86-9.68h.11c.92.84,7.95,7.15,13.86,9.68,0,0,2.48,1.15,1.29,1.15s-12.44.85-15.2-.49c-2.76,1.34-14.09.49-15.2.49S116.43,66.57,116.43,66.57Z"/>
        <path class="cls-23" d="M113.79,73.08c7-2.53,15.4-8.85,16.49-9.68h.13c1.09.84,9.46,7.15,16.49,9.68,0,0,2.95,1.16,1.53,1.16s-12.84,1.33-18.12-1.36c-4.73,3.33-16.74,1.36-18.06,1.36S113.79,73.08,113.79,73.08Z"/>
        <path class="cls-23" d="M123.26,48.18c3-2,6.59-7,7.06-7.71h.05c.47.67,4,5.7,7.06,7.71,0,0,1.26.92.66.92s-6.34.68-7.74-.39c-1.41,1.07-7.18.39-7.74.39S123.26,48.18,123.26,48.18Z"/>
        <path class="cls-23" d="M125.46,41.67c2.08-2,4.55-7,4.87-7.71h0c.32.67,2.79,5.69,4.87,7.71,0,0,.87.92.45.92s-4.37.68-5.34-.39c-1,1.07-4.95.39-5.34.39S125.46,41.67,125.46,41.67Z"/>
      </g>
    </g>
    <g>
      <rect class="cls-22" x="258.13" y="61.91" width="5.31" height="22.42"/>
      <path class="cls-23" d="M272.15,47.69c-4.88-2.68-10.69-9.37-11.44-10.26h-.09c-.76.89-6.56,7.58-11.44,10.26,0,0-2,1.22-1.06,1.22s10.27.91,12.55-.52c2.28,1.42,11.63.52,12.55.52S272.15,47.69,272.15,47.69Z"/>
      <path class="cls-23" d="M276.26,55.41c-6.63-2.68-14.5-9.37-15.53-10.26h-.12c-1,.89-8.91,7.58-15.53,10.26,0,0-2.77,1.22-1.44,1.22s13.94.91,17-.52c3.09,1.42,15.79.52,17,.52S276.26,55.41,276.26,55.41Z"/>
      <path class="cls-23" d="M279.19,64.44c-7.87-3.37-17.23-11.77-18.45-12.89h-.14c-1.22,1.11-10.58,9.52-18.45,12.89,0,0-3.3,1.54-1.71,1.54s16.56,1.14,20.24-.65c3.67,1.79,18.76.65,20.24.65S279.19,64.44,279.19,64.44Z"/>
      <path class="cls-23" d="M282.71,73.11c-9.37-3.37-20.5-11.77-22-12.89h-.17c-1.45,1.11-12.59,9.52-22,12.89,0,0-3.92,1.54-2,1.54s17.09,1.77,24.12-1.81c6.3,4.43,22.28,1.81,24,1.81S282.71,73.11,282.71,73.11Z"/>
      <path class="cls-23" d="M270.1,40c-4-2.68-8.78-9.37-9.4-10.26h-.07c-.62.89-5.39,7.58-9.4,10.26,0,0-1.68,1.22-.87,1.22s8.44.91,10.31-.52c1.87,1.42,9.56.52,10.31.52S270.1,40,270.1,40Z"/>
      <path class="cls-23" d="M267.17,31.3c-2.76-2.68-6.05-9.37-6.48-10.26h0c-.43.89-3.72,7.58-6.48,10.26,0,0-1.16,1.22-.6,1.22s5.82.91,7.11-.52c1.29,1.42,6.59.52,7.11.52S267.17,31.3,267.17,31.3Z"/>
    </g>
  </g>
</svg>
