<svg xmlns="http://www.w3.org/2000/svg" xmlns:xlink="http://www.w3.org/1999/xlink" viewBox="0 0 300 150">
  <defs>
    <style>
      .cls-1 {
        fill: none;
      }

      .cls-2 {
        isolation: isolate;
      }

      .cls-3 {
        clip-path: url(#clip-path);
      }

      .cls-4 {
        fill: #f5d7b6;
      }

      .cls-5 {
        fill: #dcc2a5;
      }

      .cls-6 {
        fill: #c6b096;
      }

      .cls-7 {
        clip-path: url(#clip-path-2);
      }

      .cls-8 {
        fill: #ee2e55;
      }

      .cls-9 {
        fill: #ffebca;
      }

      .cls-10 {
        opacity: 0.5;
      }

      .cls-10, .cls-13, .cls-16 {
        mix-blend-mode: multiply;
      }

      .cls-11 {
        fill: #c59c6d;
      }

      .cls-12 {
        fill: #a77d52;
      }

      .cls-13 {
        opacity: 0.1;
      }

      .cls-14 {
        fill: #231f20;
      }

      .cls-15, .cls-16 {
        fill: #b4b4b4;
      }

      .cls-16 {
        opacity: 0.3;
      }

      .cls-17 {
        fill: #f26a21;
      }

      .cls-18 {
        fill: #cd5827;
        opacity: 0.58;
      }

      .cls-19 {
        fill: #f3f3f3;
      }

      .cls-20 {
        opacity: 0.52;
      }

      .cls-21 {
        fill: #ded5ce;
      }

      .cls-22 {
        opacity: 0.06;
      }

      .cls-23 {
        fill: #d8c8bf;
      }

      .cls-24 {
        opacity: 0.44;
      }

      .cls-25 {
        fill: #5f534c;
      }

      .cls-26 {
        fill: #abb2b0;
      }

      .cls-27 {
        fill: #b9c6c2;
      }

      .cls-28 {
        fill: #e11e26;
      }

      .cls-29 {
        fill: #a31e22;
      }

      .cls-30 {
        fill: #8c191b;
      }

      .cls-31 {
        fill: #faf9fc;
      }

      .cls-32 {
        fill: #e4e1ea;
      }

      .cls-33, .cls-36 {
        fill: #168542;
      }

      .cls-34 {
        fill: #146e38;
      }

      .cls-35 {
        fill: #156935;
      }

      .cls-36 {
        opacity: 0.68;
      }

      .cls-37 {
        fill: #e2e5ed;
      }

      .cls-38, .cls-40 {
        fill: #e66025;
      }

      .cls-39 {
        fill: #c65127;
      }

      .cls-40 {
        opacity: 0.76;
      }
    </style>
    <clipPath id="clip-path">
      <rect class="cls-1" width="300" height="150"/>
    </clipPath>
    <clipPath id="clip-path-2">
      <polygon class="cls-1" points="88.5 150.61 0.19 150.61 0.19 57.46 88.5 58.8 88.5 150.61"/>
    </clipPath>
  </defs>
  <title>Hobbies and Craft</title>
  <g class="cls-2">
    <g id="Layer_1" data-name="Layer 1">
      <g class="cls-3">
        <g>
          <rect class="cls-4" x="-0.26" width="300.26" height="150"/>
          <g>
            <path class="cls-5" d="M300,83.38v36.92l-4-.33c-10.34-.83-21-1.67-31.33-.83-2,.16-4,.38-5.89.63-5.08.66-10,1.52-15.24,2-3.8.36-7.67.51-11.56.56-7.33.11-14.75-.11-22.08.11-1.73,0-3.45.13-5.15.22-6.62.37-13.12,1-19.6,1.84-15.28,1.86-30.35,4.32-46.14,4.74-31.52.85-59.84-6.32-89-12.36-5.24-1.09-10.52-2.14-15.84-3.1A291.2,291.2,0,0,0-1.4,109.36a42.14,42.14,0,0,1-4.85-.56v-4.67l2.89-.83,1.85-.53L26,95C39.14,91.21,56.27,92,70.64,89.77c4.37-.7,8.52-1.67,13-2.26a154.08,154.08,0,0,1,19-.91l28-.22,21.58-.16,39.05-.3a82.91,82.91,0,0,1,13.86.66c4.23.71,7.74,2.07,11.87,2.89,13.18,2.61,28-.78,41.74-2.79l.5-.07c5.54-.78,11.21-1.33,17-1.77h.05c5-.37,10-.66,15.07-.95Z"/>
            <path class="cls-5" d="M300,10.77V29.06q-1.3-.11-2.62-.17c-12.63-.67-26,.56-38-1-6-.8-11.28-2.25-17-3.31-15.48-2.88-33.52-2.75-50.57-3.78-19.76-1.2-38.54-4-57.55-6.38a910,910,0,0,0-103-7.3C18.8,7,6.41,7.15-5.9,7.65c.07-.35.17-.7.27-1,0-.1.07-.2.1-.31l0-.09q.1-.32.22-.62c.07-.19.14-.36.22-.53L-5,4.88c.08-.19.17-.37.27-.55A14.86,14.86,0,0,1-1.59.2,15.38,15.38,0,0,1,2.29-2.45c.27-.14.54-.26.82-.37L4.2-3.22l.17,0,.14,0c.19-.06.39-.11.59-.16l.3-.08.31-.08L6-3.69l.67-.11.49-.07h.14L7.93-4l.39,0H185.47l6.63.69C204.84-2,217.6-.64,230.42.62q5.51.53,11,1,8.22.78,16.47,1.47l4.7.39c12.1,1,24.27,1.82,36.55,2.45,0,.11.08.21.12.33s.16.51.24.77.08.31.12.46.07.31.1.47,0,.16.05.25.06.33.08.51h0s0,0,0,0a.53.53,0,0,1,0,.11c0,.16,0,.31.05.46a1,1,0,0,1,0,.15c0,.12,0,.25,0,.38s0,.11,0,.17a.59.59,0,0,1,0,.11C300,10.38,300,10.57,300,10.77Z"/>
            <path class="cls-6" d="M300,26.7v3.73c-14.46.19-29.23,1.57-42.4-.52-5.84-.93-10.81-2.47-16.47-3.52-8.93-1.65-19.09-2-29-2.49C167,21.62,123.9,15.58,79.87,11.19,60.09,9.21,39.76,7.55,19.33,8c-9.23.22-17.56.9-25.55,1.81l0-.31a.25.25,0,0,1,0-.08c0-.12,0-.24,0-.36s0-.25.05-.36S-6,8.4-6,8.23s.07-.38.12-.58c.07-.35.17-.7.27-1,0-.1.07-.2.1-.31l0-.09q.1-.32.22-.62c.07-.19.14-.36.22-.53L-5,4.88c25.59-1.23,52.23.66,77.87,2.55,33.07,2.45,66.28,4.91,98,9.17,12.26,1.65,24.46,3.57,37.4,4,11.17.41,22.93-.26,33.26,1.38,8.09,1.29,14.84,3.95,23.59,4.27,4.64.17,9.25-.36,13.89-.52A144.26,144.26,0,0,1,300,26.7Z"/>
            <path class="cls-6" d="M300,35.51v1.87c-3,.06-6,.12-9,.14-20.21.08-40-2-59.38-4.15-43.63-4.72-86.06-10.6-131.35-12-35.43-1.05-71.25-2.1-106.54-1V18.5c31.6-1.16,63.6-.53,95.22.7,25.4,1,50.77,2.37,75.48,4.81,11.08,1.09,22,2.39,32.94,3.68,14.72,1.76,27.27,4.34,42.53,5.2,18.59,1,37.37,2.27,56.15,2.66C297.43,35.58,298.74,35.56,300,35.51Z"/>
            <path class="cls-6" d="M300,17.62v3.49a143.92,143.92,0,0,1-19.83-1.6c-6.75-1.15-12.52-3.06-19.57-3.88-10-1.15-20.78.06-31.16-.34-8.87-.35-21-1.67-28.45-3.56-8.78-2.24-11.74-5-23.66-5.73-10.43-.62-21.06.09-31.64.11C114.06,6.2,84,.24,52.37.05c-8.1,0-16.19.29-24.28.2C17.62.14,7.95,0-1.59.2A15.38,15.38,0,0,1,2.29-2.45c.27-.14.54-.26.82-.37L4.2-3.22l.17,0C36-3.59,67.61-1.83,99-.07l68.46,3.83c7.16.4,14.53.83,20.77,2.22,4.26,1,7.79,2.33,12,3.34,17.25,4.15,40.19,1.23,60.13,2.94,12,1,22.65,3.75,34.59,4.94C296.58,17.37,298.29,17.51,300,17.62Z"/>
            <path class="cls-6" d="M300,52.59v2.84c-12.17.22-24.25-.78-36.13-1.78l-68.61-5.76c-24.79-2.08-45.52-2.47-70.84-3.45-11.17-.43-22.7-.85-33.48.29C81.28,45.76,72.37,48,62.32,48c-3.75,0-7.57-.39-11.19,0-4.61.46-7.71,2-11.33,3.08-12.21,3.8-29.43,3.23-46.05,3.53v-3.2a118.51,118.51,0,0,0,18.78-.69c6-.86,10.73-2.53,16.29-3.69,12.53-2.62,27.9-2.47,42-3.68,15.73-1.35,27.71-3.14,44.49-2.93,24.7.3,49.24,1.6,73.4,3.45,35.52,2.73,74,10,110.84,8.8Z"/>
            <path class="cls-6" d="M300,42.29v3.11q-16.15,0-32.27.53a111.26,111.26,0,0,1-15.35-.17c-23.16-2.51-45.49-7.1-69.27-9.37-26.73-2.54-54-4.08-81.28-4.58a132.35,132.35,0,0,1-17.15-1c-4.4-.66-8.42-1.8-13-2.24A88.73,88.73,0,0,0,55.41,29L-6.25,34.5V30.44c9.5-.56,20.15.52,29.24-1,3.48-.6,6.67-1.57,10.35-1.89,11.49-1,35.22-3.95,45.87-1.52,2.54.58,4.72,1.42,7.29,2,7.24,1.52,15.76.31,23.78.43,8.5.12,16.75,1.76,25.24,1.48,3.06-.1,6.06-.45,9.13-.53,8.47-.21,15.43,1.87,23.53,2.35,6.6.39,12.2,0,18.85.74,13.16,1.41,22.39,4.1,34.13,6.51a59.16,59.16,0,0,0,8.73.68c11.71.57,21.6,4.15,33.28,4.48,8,.23,15.76-1.37,23.76-1.58C291.18,42.41,295.56,42.33,300,42.29Z"/>
            <path class="cls-6" d="M300,60.77v2.69q-16.36.62-32.65,1.55c-15.87.93-31.64,2.14-47.49,3.14-24.67,1.55-49.86,2.58-74.4.71-20.9-1.6-41-5.29-62.16-5.79-14.22-.33-28.39.78-42.43,1.82Q17.37,66.64-6.25,68.12V63.57c3.55-.19,7.12-.36,10.68-.51,17.6-.78,35.22-1.57,52.89-2,18.22-.39,36.74-.33,54.37,1.72,14.26,1.66,27.87,4.63,42.58,5.11s29.55-1.58,44.43-1.65c9,0,18.2.68,27.07-.12,6.32-.57,12.17-1.87,18.32-2.73A257.8,257.8,0,0,1,271,61.67Z"/>
            <path class="cls-6" d="M300,80.29v3.36l-8.44.37c-5.1.24-10.24.46-15.33.8h-.05c-5.76.39-11.46.93-17,1.77l-.5.07L257,87c-10.65,1.8-21,4.84-32.33,4.37-9.31-.38-17.26-3.08-26.27-4.15-12.8-1.52-26.23.36-39.32,1.3A277.52,277.52,0,0,1,113.86,88c-6-.56-12-1.31-18-1-8.14.43-15.1,2.74-23,3.78-11.23,1.48-23.67.28-34.77,2-14.52,2.2-24.67,9-39.6,10-.59,0-1.18.07-1.78.09a1.29,1.29,0,0,0-.07.43c.08,1.62,3.9,2.86,7.28,3.68q14.82,3.63,30.24,6.8Q42,115.42,50,116.9q15.25,2.84,30.92,5.21c27.89,4.21,58.69,7.25,86.49,2.93,11.25-1.75,21.86-4.67,33.76-5,8.12-.19,16.18.88,24.31.76,15-.24,28.77-4.5,43.78-4.26,7.53.11,14.71,1.37,22.13,2,2.84.23,5.71.36,8.6.43v3.23c-4.6.08-9.18.08-13.75-.16-9.22-.49-18.38-2-27.51-2.26a79.63,79.63,0,0,0-9.58.25c-4.84.45-9.33,1.44-14.11,2-1,.12-2.07.22-3.11.31-8.87.73-18.14.21-27.23.33-3,0-6,.16-8.9.4-3.68.31-7.23.82-10.7,1.44-6.24,1.1-12.23,2.55-18.38,3.76-9.58,1.88-19.69,1.87-30.11,2.42a146.93,146.93,0,0,1-38.72-3,136.66,136.66,0,0,0-13.49-2.81c-5.9-.73-12.17-.48-18.3-.67-11.31-.36-22.33-2.32-31-5.53-12-4.42-20.24-8.3-37-8.51-1.45,0-2.9,0-4.35,0v-10c6.18-1,13-1.57,18.58-3.11,5-1.39,8.79-3.51,13.5-5.09,13.87-4.65,31.41-1.94,47.22-4,6.64-.87,12.52-2.66,19.22-3.43,12.6-1.45,25.42.89,38.35,1.93,3.78.3,7.57.49,11.37.45,3.43,0,6.83-.28,10.21-.61,13.25-1.32,26.18-4.16,39.32-2.92,12.19,1.15,22.77,5.73,35.14,5,6.68-.38,12.4-2.28,18.88-3.11,16.34-2.09,31.11-.06,47-3.69A61.42,61.42,0,0,1,300,80.29Z"/>
            <path class="cls-6" d="M300,70v3.47l-48.71,3.76C235,78.45,218.43,79.71,202,78.83c-9.05-.49-18.08-1.63-27.14-1.16-4.22.21-8.3.78-12.48,1.11-21.52,1.72-43.48-2.59-65.25-1.62a250.49,250.49,0,0,0-27.48,3.23l-25.1,3.92c-5.09.79-10.2,1.59-15,2.68-4.43,1-8.62,2.23-13.36,2.88-6.66.91-13.85.58-20.71,1.13-.59,0-1.16.1-1.73.16v-2.7c5.19-.09,10.48.17,15.41-.51C15.92,87,21,84.42,27.79,83.49c5.8-.79,12.16-.28,18-.94s10.82-2.47,16-3.88c16.2-4.39,35.54-5,54.1-4.73,9.14.14,18.9.18,27.92.64,7.76.4,17.26,2.71,25,1.47,2.23-.36,4.17-1,6.45-1.32,8.56-1.14,16.33,3,25.26,3.17,7.88.11,14.88-3,22.7-2.5,4.35.27,8.57,1.63,12.76,1a34.28,34.28,0,0,0,4.79-1.24c8.89-2.45,18.88-.36,28.35-1.23,7.55-.69,13.46-2.76,21.23-3.39Q295.21,70.2,300,70Z"/>
            <path class="cls-6" d="M300,135.12v4.94c-9,1-18.07,1.84-27.11,2.27-20.12.94-40.61-.37-60.6,1-11.89.79-23.42,2.51-35.38,3.06C142,148,109.08,139.68,74.73,136.5c-27.49-2.54-57.85-2.07-81-9v-2.2c20.6,6.41,48.13,6.2,73.28,7.79,38.95,2.45,77,9.85,116.1,8,16.79-.81,33.08-3.33,50-3.52,11.57-.12,23.13.85,34.64.41,7.65-.29,15.1-1.19,22.59-1.94Q295.14,135.51,300,135.12Z"/>
            <path class="cls-6" d="M299.81,149.58a14.13,14.13,0,0,1-1.36,4.1c-46.85,1.42-94,.93-140.85-.53-13.29-.41-26.6-.91-39.76-1.87-9.09-.67-18.27-1.56-27.43-1.15-7.13.32-14.34,1.43-21.26.64-5.63-.63-10.17-2.44-15.44-3.5-13.89-2.8-30.55-.21-45.24-2-4.74-.58-9.16-1.62-14-2.08l-.74-.06V140.4c7.33.33,14.21,2,21.58,2.42,10.91.6,21.81-1.67,32.76-1.19,12.42.55,22.87,4.53,35.2,5.45,10.52.78,21.42-.75,31.93.09,6.58.53,12.61,2,19,2.78a205,205,0,0,0,23.18,1.19c16.55.21,36.41,3.21,52.49,1.3,4-.48,7.93-1.31,12.11-1.37,6.67-.09,12.66,1.78,19.23,2.28,9.59.73,19.21-1.52,28.92-1.21,2,.06,3.93.23,5.86.1,3-.21,5.52-1.11,8.27-1.7C288.83,149.56,294.23,149.45,299.81,149.58Z"/>
            <path class="cls-6" d="M41.6,104.21c-.58,1,3,1.67,6.22,2.15,21.23,3.14,43.51,5.78,66.49,7.88,24.07,2.2,50.67,3.78,74.67,1.53,9.71-.91,18.87-2.44,29.14-2.59,7-.1,14,.46,21,.39,13-.12,24.82-2.35,37.78-2.23,6.52.07,12.72.72,19.12,1q2,.1,4,.15v1.78c-2.82,0-5.62,0-8.42-.1-10.75-.35-21.42-1.64-32-1-4.18.23-8.06.75-12.18,1-11,.79-22.73,0-33.88.54-8.9.45-16.84,1.73-25.1,2.71s-17,1-26,1.26A207,207,0,0,1,129,117.14c-3.84-.51-7.51-1.15-11.65-1.46-5.09-.38-10.51-.25-15.79-.35a140.76,140.76,0,0,1-26.78-2.89c-10.34-2.31-17.48-4.33-32-4.45-3,0-6.07,0-9-.16s-5.79-.71-6.59-1.47.71-1.62,2.85-2.21c6.46-1.75,17.19-1.72,25-3,4.34-.73,7.59-1.83,11.66-2.66,12-2.43,27.11-1,40.76-2.09,5.73-.46,10.81-1.4,16.59-1.8,14-1,28.42,1.35,42.93,1.24s28.52-2.66,42.77-1.84c10.52.61,19.66,3,30.33,2.62,5.77-.2,10.71-1.19,16.3-1.62,14.09-1.09,26.85,0,40.56-1.92,1-.14,2-.26,3-.36v1.57l-3.83.1c-10.12.27-20.37.56-29.86,1.52-9.19.93-18.11,2.52-27.91,2.27-8-.19-14.9-1.6-22.68-2.16-11.05-.8-22.64.19-33.94.68-12.92.56-26.22.48-39-.24-5.15-.29-10.36-.68-15.58-.52-7,.23-13,1.44-19.82,2-9.7.77-20.45.14-30,1C64.29,100.13,55.35,103.94,41.6,104.21Z"/>
            <path class="cls-6" d="M77.27,105c-.52.46,2.74.8,5.59,1,19.08,1.5,39.12,2.76,59.78,3.77,21.65,1,45.57,1.8,67.14.73,8.73-.43,17-1.17,26.19-1.24,6.31,0,12.57.22,18.88.19,11.65-.06,22.33-1.12,34-1.06,3.79,0,7.47.16,11.15.29v1c-9-.2-17.88-.71-26.75-.45-3.76.11-7.24.36-11,.49-9.85.38-20.43,0-30.46.26-8,.21-15.13.83-22.57,1.29s-15.28.47-23.37.61c-10.25.18-20.86-.09-30.07-.75-3.46-.25-6.75-.56-10.46-.7-4.58-.19-9.46-.12-14.21-.17a233.62,233.62,0,0,1-24.07-1.37c-9.29-1.1-15.72-2.07-28.73-2.12-2.71,0-5.46,0-8.09-.08s-5.2-.33-5.92-.71.63-.78,2.56-1.05c5.81-.83,15.46-.82,22.5-1.45,3.91-.34,6.81-.87,10.48-1.27,10.77-1.16,24.39-.48,36.66-1,5.15-.22,9.72-.67,14.92-.86C164.07,99.9,177,101,190,101s25.65-1.27,38.46-.88c9.45.28,17.67,1.43,27.26,1.25,5.2-.09,9.64-.56,14.67-.77,10.29-.42,19.77-.17,29.57-.55v.34c-7.06.12-14.08.28-20.69.64-8.26.45-16.28,1.2-25.1,1.09-7.21-.1-13.38-.77-20.38-1-9.94-.38-20.36.09-30.52.32-11.61.27-23.58.23-35.09-.11-4.63-.14-9.31-.33-14-.25-6.32.11-11.72.68-17.82.94-8.72.37-18.39.07-27,.49C97.68,103,89.63,104.83,77.27,105Z"/>
          </g>
          <g>
            <g class="cls-7">
              <g>
                <g>
                  <path class="cls-8" d="M75.72,152l-7.52-25.8-9-31L53.76,76.63a5.84,5.84,0,0,0-7.23-4L16.1,81.54l-32.94,9.6-12,3.48a5.84,5.84,0,0,0-4,7.23l.53,1.83,3.38,11.6,6.31,21.64,7.59,26,4.15,14.23a5.85,5.85,0,0,0,6.23,4.16,5.78,5.78,0,0,0,1-.19l9.25-2.7,17.06-5,38.79-11.31,10.23-3A5.84,5.84,0,0,0,75.72,152Z"/>
                  <path class="cls-9" d="M70.78,155.82l-1.83.53a.58.58,0,1,1-.33-1.12l1.83-.53a1.18,1.18,0,0,0,.75-.7.58.58,0,0,1,1.08.43A2.35,2.35,0,0,1,70.78,155.82Zm-5.18,1.51-3.36,1a.58.58,0,1,1-.33-1.12l3.36-1a.58.58,0,0,1,.33,1.12Zm-6.71,2-3.36,1a.58.58,0,0,1-.33-1.12l3.36-1a.58.58,0,0,1,.33,1.12Zm-6.71,2-3.36,1a.58.58,0,0,1-.33-1.12l3.36-1a.58.58,0,1,1,.33,1.12Zm-6.71,2-3.36,1a.58.58,0,1,1-.33-1.12l3.36-1a.58.58,0,1,1,.33,1.12Zm-6.71,2-3.36,1a.58.58,0,1,1-.33-1.12l3.36-1a.58.58,0,0,1,.33,1.12Zm-6.71,2-3.36,1a.58.58,0,0,1-.33-1.12l3.36-1a.58.58,0,0,1,.33,1.12Zm-6.71,2-3.36,1a.58.58,0,0,1-.33-1.12L25,168a.58.58,0,1,1,.33,1.12Zm-6.71,2-3.36,1a.58.58,0,0,1-.33-1.12l3.36-1A.58.58,0,0,1,18.6,171Zm-6.71,2-3.36,1a.58.58,0,1,1-.33-1.12l3.36-1a.58.58,0,1,1,.33,1.12Zm-6.71,2-3.36,1a.58.58,0,1,1-.33-1.12l3.36-1a.58.58,0,0,1,.33,1.12Zm-6.71,2-3,.88a2.36,2.36,0,0,1-2.89-1.59l-.21-.73a.58.58,0,0,1,.4-.72.58.58,0,0,1,.72.4l.21.73a1.2,1.2,0,0,0,1.45.79l3-.88a.58.58,0,0,1,.72.4A.58.58,0,0,1-1.54,176.91ZM71.31,151.4a.58.58,0,0,1-.72-.4l-1-3.36a.58.58,0,0,1,1.12-.33l1,3.36A.58.58,0,0,1,71.31,151.4ZM-7.9,172.51a.58.58,0,0,1-.72-.4l-1-3.36a.58.58,0,0,1,.4-.72.58.58,0,0,1,.72.4l1,3.36A.58.58,0,0,1-7.9,172.51Zm77.26-27.82a.58.58,0,0,1-.72-.4l-1-3.36a.58.58,0,0,1,1.12-.33l1,3.36A.58.58,0,0,1,69.36,144.69ZM-9.86,165.8a.58.58,0,0,1-.72-.4l-1-3.36a.58.58,0,0,1,.4-.72.58.58,0,0,1,.72.4l1,3.36A.58.58,0,0,1-9.86,165.8ZM67.4,138a.58.58,0,0,1-.72-.4l-1-3.36a.58.58,0,1,1,1.12-.33l1,3.36A.58.58,0,0,1,67.4,138Zm-79.21,21.11a.58.58,0,0,1-.72-.4l-1-3.36a.58.58,0,0,1,.4-.72.58.58,0,0,1,.72.4l1,3.36A.58.58,0,0,1-11.82,159.08Zm77.26-27.82a.58.58,0,0,1-.72-.4l-1-3.36a.58.58,0,1,1,1.12-.33l1,3.36A.58.58,0,0,1,65.44,131.26Zm-79.21,21.11a.58.58,0,0,1-.72-.4l-1-3.36a.58.58,0,0,1,.4-.72.58.58,0,0,1,.72.4l1,3.36A.58.58,0,0,1-13.77,152.37Zm77.26-27.82a.58.58,0,0,1-.72-.4l-1-3.36a.58.58,0,1,1,1.12-.33l1,3.36A.58.58,0,0,1,63.48,124.55Zm-79.21,21.11a.58.58,0,0,1-.72-.4l-1-3.36a.58.58,0,0,1,.4-.72.58.58,0,0,1,.72.4l1,3.36A.58.58,0,0,1-15.73,145.66Zm77.26-27.82a.58.58,0,0,1-.72-.4l-1-3.36a.58.58,0,1,1,1.12-.33l1,3.36A.58.58,0,0,1,61.53,117.83Zm-79.21,21.11a.58.58,0,0,1-.72-.4l-1-3.36a.58.58,0,0,1,.4-.72.58.58,0,0,1,.72.4l1,3.36A.58.58,0,0,1-17.69,138.94Zm77.26-27.82a.58.58,0,0,1-.72-.4l-1-3.36A.58.58,0,0,1,59,107l1,3.36A.58.58,0,0,1,59.57,111.12Zm-79.22,21.11a.58.58,0,0,1-.72-.4l-1-3.36a.58.58,0,0,1,.4-.72.58.58,0,0,1,.72.4l1,3.36A.58.58,0,0,1-19.65,132.23Zm77.26-27.82a.58.58,0,0,1-.72-.4l-1-3.36a.58.58,0,1,1,1.12-.33l1,3.36A.58.58,0,0,1,57.61,104.41ZM-21.6,125.52a.58.58,0,0,1-.72-.4l-1-3.36a.58.58,0,0,1,.4-.72.58.58,0,0,1,.72.4l1,3.36A.58.58,0,0,1-21.6,125.52ZM55.66,97.69a.58.58,0,0,1-.72-.4l-1-3.36a.58.58,0,0,1,1.12-.33l1,3.36A.58.58,0,0,1,55.66,97.69ZM-23.56,118.8a.58.58,0,0,1-.72-.4l-1-3.36a.58.58,0,0,1,.4-.72.58.58,0,0,1,.72.4l1,3.36A.58.58,0,0,1-23.56,118.8ZM53.7,91a.58.58,0,0,1-.72-.4l-1-3.36a.58.58,0,0,1,1.12-.33l1,3.36A.58.58,0,0,1,53.7,91Zm-79.21,21.11a.58.58,0,0,1-.72-.4l-1-3.36a.58.58,0,0,1,.4-.72.58.58,0,0,1,.72.4l1,3.36A.58.58,0,0,1-25.52,112.09ZM51.74,84.27a.58.58,0,0,1-.72-.4l-1-3.36a.58.58,0,0,1,1.12-.33l1,3.36A.58.58,0,0,1,51.74,84.27Zm-79.21,21.11a.58.58,0,0,1-.72-.4l-1-3.36a.58.58,0,0,1,.4-.72.58.58,0,0,1,.72.4l1,3.36A.58.58,0,0,1-27.47,105.38ZM49.61,77.64a.58.58,0,0,1-.59-.16,1.19,1.19,0,0,0-1.18-.34l-1.5.44A.58.58,0,1,1,46,76.46l1.5-.44a2.36,2.36,0,0,1,2.35.65.58.58,0,0,1-.26,1ZM43,78.56l-3.36,1a.58.58,0,1,1-.33-1.12l3.36-1A.58.58,0,1,1,43,78.56Zm-6.71,2-3.36,1a.58.58,0,1,1-.33-1.12l3.36-1a.58.58,0,0,1,.33,1.12Zm-6.71,2-3.36,1a.58.58,0,0,1-.33-1.12l3.36-1a.58.58,0,0,1,.33,1.12Zm-6.71,2-3.36,1a.58.58,0,1,1-.33-1.12l3.36-1a.58.58,0,0,1,.33,1.12Zm-6.71,2-3.36,1a.58.58,0,1,1-.33-1.12l3.36-1a.58.58,0,1,1,.33,1.12Zm-6.71,2-3.36,1a.58.58,0,0,1-.33-1.12l3.36-1a.58.58,0,0,1,.33,1.12Zm-6.71,2-3.36,1a.58.58,0,0,1-.72-.4.58.58,0,0,1,.4-.72l3.36-1A.58.58,0,0,1,2.7,90.3Zm-6.71,2-3.36,1a.58.58,0,0,1-.72-.4.58.58,0,0,1,.4-.72l3.36-1a.58.58,0,0,1,.72.4A.58.58,0,0,1-4,92.26Zm-6.71,2-3.36,1a.58.58,0,0,1-.72-.4.58.58,0,0,1,.4-.72l3.36-1a.58.58,0,0,1,.72.4A.58.58,0,0,1-10.72,94.22Zm-6.71,2-3.36,1a.58.58,0,0,1-.72-.4.58.58,0,0,1,.4-.72l3.36-1a.58.58,0,0,1,.72.4A.58.58,0,0,1-17.44,96.17Zm-6.71,2-3.33,1a.59.59,0,0,1-.73-.39.57.57,0,0,1,.38-.72l.16.56-.15-.56,3.35-1a.58.58,0,0,1,.72.4A.58.58,0,0,1-24.15,98.13Z"/>
                </g>
                <g class="cls-10">
                  <path class="cls-8" d="M75.72,152l-7.52-25.8-3.78-13a30.16,30.16,0,0,1-3.37,6.52c-4.91,7.07-10.26,13.84-18.28,17.66-4.32,2.06-10.12,4.93-15.34,5.75-6.2,1-14.39,2.84-21.15,2-11.36-1.42-16-1.88-26.3-7.37-.92-.49-1.83-1-2.74-1.6l.22.75,7.59,26,4.15,14.23a5.84,5.84,0,0,0,6.23,4.16,5.78,5.78,0,0,0,1-.19l9.25-2.7,17.06-5,38.79-11.31,10.23-3A5.84,5.84,0,0,0,75.72,152Zm-91.45-6.3a.58.58,0,0,1-.72-.4l-1-3.36a.58.58,0,0,1,.4-.72.58.58,0,0,1,.72.4l1,3.36A.58.58,0,0,1-15.73,145.66Zm2,6.71a.58.58,0,0,1-.72-.4l-1-3.36a.58.58,0,0,1,.4-.72.58.58,0,0,1,.72.4l1,3.36A.58.58,0,0,1-13.77,152.37Zm2,6.71a.58.58,0,0,1-.72-.4l-1-3.36a.58.58,0,0,1,.4-.72.58.58,0,0,1,.72.4l1,3.36A.58.58,0,0,1-11.82,159.08Zm2,6.71a.58.58,0,0,1-.72-.4l-1-3.36a.58.58,0,0,1,.4-.72.58.58,0,0,1,.72.4l1,3.36A.58.58,0,0,1-9.86,165.8Zm2,6.71a.58.58,0,0,1-.72-.4l-1-3.36a.58.58,0,0,1,.4-.72.58.58,0,0,1,.72.4l1,3.36A.58.58,0,0,1-7.9,172.51Zm6.37,4.4-3,.88a2.36,2.36,0,0,1-2.89-1.59l-.21-.73a.58.58,0,0,1,.4-.72.58.58,0,0,1,.72.4l.21.73a1.2,1.2,0,0,0,1.45.79l3-.88a.58.58,0,0,1,.72.4A.58.58,0,0,1-1.54,176.91Zm6.71-2-3.36,1a.58.58,0,1,1-.33-1.12l3.36-1a.58.58,0,1,1,.33,1.12Zm6.71-2-3.36,1a.58.58,0,0,1-.33-1.12l3.36-1a.58.58,0,1,1,.33,1.12Zm6.71-2-3.36,1a.58.58,0,0,1-.33-1.12l3.36-1A.58.58,0,0,1,18.6,171Zm6.71-2-3.36,1a.58.58,0,0,1-.33-1.12L25,168a.58.58,0,1,1,.33,1.12Zm6.71-2-3.36,1a.58.58,0,0,1-.33-1.12l3.36-1a.58.58,0,1,1,.33,1.12Zm6.71-2-3.36,1a.58.58,0,1,1-.33-1.12l3.36-1a.58.58,0,0,1,.33,1.12Zm6.71-2-3.36,1a.58.58,0,1,1-.33-1.12l3.36-1a.58.58,0,1,1,.33,1.12Zm6.71-2-3.36,1a.58.58,0,0,1-.33-1.12l3.36-1a.58.58,0,1,1,.33,1.12Zm6.71-2-3.36,1a.58.58,0,0,1-.33-1.12l3.36-1a.58.58,0,0,1,.33,1.12ZM70,146.93a.58.58,0,0,1,.72.4l1,3.36a.58.58,0,1,1-1.12.33l-1-3.36A.58.58,0,0,1,70,146.93Zm-5.87-20.14a.58.58,0,0,1,.72.4l1,3.36a.58.58,0,1,1-1.12.33l-1-3.36A.58.58,0,0,1,64.14,126.79Zm-2-6.71a.58.58,0,0,1,.72.4l1,3.36a.58.58,0,0,1-1.12.33l-1-3.36A.58.58,0,0,1,62.18,120.07Zm3.42,37.26-3.36,1a.58.58,0,0,1-.33-1.12l3.36-1a.58.58,0,0,1,.33,1.12ZM67.4,138a.58.58,0,0,1-.72-.4l-1-3.36a.58.58,0,1,1,1.12-.33l1,3.36A.58.58,0,0,1,67.4,138Zm.65,2.24a.58.58,0,0,1,.72.4l1,3.36a.58.58,0,1,1-1.12.33l-1-3.36A.58.58,0,0,1,68.05,140.21Zm4.24,14.22a2.35,2.35,0,0,1-1.51,1.39l-1.83.53a.58.58,0,1,1-.33-1.12l1.83-.53a1.18,1.18,0,0,0,.75-.7.58.58,0,1,1,1.08.43Z"/>
                  <path class="cls-9" d="M63.74,127.51l1,3.36a.58.58,0,1,0,1.12-.33l-1-3.36a.58.58,0,1,0-1.12.33Z"/>
                  <path class="cls-9" d="M69.61,147.65l1,3.36a.58.58,0,1,0,1.12-.33l-1-3.36a.58.58,0,1,0-1.12.33Z"/>
                  <path class="cls-9" d="M62.76,124.15a.58.58,0,0,0,1.12-.33l-1-3.36a.58.58,0,0,0-1.12.33Z"/>
                  <path class="cls-9" d="M67.79,137.25l-1-3.36a.58.58,0,1,0-1.12.33l1,3.36a.58.58,0,0,0,1.12-.33Z"/>
                  <path class="cls-9" d="M69.36,144.69a.58.58,0,0,0,.4-.72l-1-3.36a.58.58,0,0,0-1.12.33l1,3.36A.58.58,0,0,0,69.36,144.69Z"/>
                </g>
              </g>
            </g>
            <g>
              <g>
                <rect class="cls-11" x="18.87" y="69.9" width="26.54" height="4.91" transform="translate(-18.87 11.8) rotate(-16.16)"/>
                <polygon class="cls-12" points="43.96 76.6 24.42 82.26 20.08 78.41 45.57 71.02 43.96 76.6"/>
                <rect class="cls-12" x="30.99" y="111.72" width="26.54" height="4.91" transform="translate(-30.03 16.83) rotate(-16.16)"/>
                <polygon class="cls-11" points="32.44 109.93 51.98 104.27 56.32 108.12 30.83 115.51 32.44 109.93"/>
                <path class="cls-9" d="M44.39,77.35,24.46,83.13a.42.42,0,0,1-.52-.29h0a.42.42,0,0,1,.29-.52l19.93-5.78a.42.42,0,0,1,.52.29h0A.42.42,0,0,1,44.39,77.35Z"/>
                <path class="cls-9" d="M44.63,78.17,24.7,83.94a.42.42,0,0,1-.52-.29h0a.42.42,0,0,1,.29-.52l19.93-5.78a.42.42,0,0,1,.52.29h0A.42.42,0,0,1,44.63,78.17Z"/>
                <path class="cls-9" d="M44.86,79,24.93,84.76a.42.42,0,0,1-.52-.29h0a.42.42,0,0,1,.29-.52l19.93-5.78a.42.42,0,0,1,.52.29h0A.42.42,0,0,1,44.86,79Z"/>
                <path class="cls-9" d="M45.1,79.79,25.17,85.57a.42.42,0,0,1-.52-.29h0a.42.42,0,0,1,.29-.52L44.86,79a.42.42,0,0,1,.52.29h0A.42.42,0,0,1,45.1,79.79Z"/>
                <path class="cls-9" d="M45.34,80.61,25.4,86.38a.42.42,0,0,1-.52-.29h0a.42.42,0,0,1,.29-.52L45.1,79.79a.42.42,0,0,1,.52.29h0A.42.42,0,0,1,45.34,80.61Z"/>
                <path class="cls-9" d="M45.57,81.42,25.64,87.2a.42.42,0,0,1-.52-.29h0a.42.42,0,0,1,.29-.52l19.93-5.78a.42.42,0,0,1,.52.29h0A.42.42,0,0,1,45.57,81.42Z"/>
                <path class="cls-9" d="M45.81,82.24,25.88,88a.42.42,0,0,1-.52-.29h0a.42.42,0,0,1,.29-.52l19.93-5.78a.42.42,0,0,1,.52.29h0A.42.42,0,0,1,45.81,82.24Z"/>
                <path class="cls-9" d="M46,83.05,26.11,88.83a.42.42,0,0,1-.52-.29h0a.42.42,0,0,1,.29-.52l19.93-5.78a.42.42,0,0,1,.52.29h0A.42.42,0,0,1,46,83.05Z"/>
                <path class="cls-9" d="M46.28,83.86,26.35,89.64a.42.42,0,0,1-.52-.29h0a.42.42,0,0,1,.29-.52L46,83.05a.42.42,0,0,1,.52.29h0A.42.42,0,0,1,46.28,83.86Z"/>
                <path class="cls-9" d="M46.52,84.68,26.58,90.45a.42.42,0,0,1-.52-.29h0a.42.42,0,0,1,.29-.52l19.93-5.78a.42.42,0,0,1,.52.29h0A.42.42,0,0,1,46.52,84.68Z"/>
                <path class="cls-9" d="M46.75,85.49,26.82,91.27a.42.42,0,0,1-.52-.29h0a.42.42,0,0,1,.29-.52l19.93-5.78A.42.42,0,0,1,47,85h0A.42.42,0,0,1,46.75,85.49Z"/>
                <path class="cls-9" d="M47,86.31,27.06,92.08a.42.42,0,0,1-.52-.29h0a.42.42,0,0,1,.29-.52l19.93-5.78a.42.42,0,0,1,.52.29h0A.42.42,0,0,1,47,86.31Z"/>
                <path class="cls-9" d="M47.22,87.12,27.29,92.9a.42.42,0,0,1-.52-.29h0a.42.42,0,0,1,.29-.52L47,86.31a.42.42,0,0,1,.52.29h0A.42.42,0,0,1,47.22,87.12Z"/>
                <path class="cls-9" d="M47.46,87.93,27.53,93.71a.42.42,0,0,1-.52-.29h0a.42.42,0,0,1,.29-.52l19.93-5.78a.42.42,0,0,1,.52.29h0A.42.42,0,0,1,47.46,87.93Z"/>
                <path class="cls-9" d="M47.69,88.75,27.76,94.52a.42.42,0,0,1-.52-.29h0a.42.42,0,0,1,.29-.52l19.93-5.78a.42.42,0,0,1,.52.29h0A.42.42,0,0,1,47.69,88.75Z"/>
                <path class="cls-9" d="M47.93,89.56,28,95.34a.42.42,0,0,1-.52-.29h0a.42.42,0,0,1,.29-.52l19.93-5.78a.42.42,0,0,1,.52.29h0A.42.42,0,0,1,47.93,89.56Z"/>
                <path class="cls-9" d="M48.17,90.37,28.23,96.15a.42.42,0,0,1-.52-.29h0a.42.42,0,0,1,.29-.52l19.93-5.78a.42.42,0,0,1,.52.29h0A.42.42,0,0,1,48.17,90.37Z"/>
                <path class="cls-9" d="M48.4,91.19,28.47,97a.42.42,0,0,1-.52-.29h0a.42.42,0,0,1,.29-.52l19.93-5.78a.42.42,0,0,1,.52.29h0A.42.42,0,0,1,48.4,91.19Z"/>
                <path class="cls-9" d="M48.64,92,28.71,97.78a.42.42,0,0,1-.52-.29h0a.42.42,0,0,1,.29-.52L48.4,91.19a.42.42,0,0,1,.52.29h0A.42.42,0,0,1,48.64,92Z"/>
                <path class="cls-9" d="M48.87,92.82,28.94,98.59a.42.42,0,0,1-.52-.29h0a.42.42,0,0,1,.29-.52L48.64,92a.42.42,0,0,1,.52.29h0A.42.42,0,0,1,48.87,92.82Z"/>
                <path class="cls-9" d="M49.11,93.63,29.18,99.41a.42.42,0,0,1-.52-.29h0a.42.42,0,0,1,.29-.52l19.93-5.78a.42.42,0,0,1,.52.29h0A.42.42,0,0,1,49.11,93.63Z"/>
                <path class="cls-9" d="M49.35,94.44l-19.93,5.78a.42.42,0,0,1-.52-.29h0a.42.42,0,0,1,.29-.52l19.93-5.78a.42.42,0,0,1,.52.29h0A.42.42,0,0,1,49.35,94.44Z"/>
                <path class="cls-9" d="M49.58,95.26,29.65,101a.42.42,0,0,1-.52-.29h0a.42.42,0,0,1,.29-.52l19.93-5.78a.42.42,0,0,1,.52.29h0A.42.42,0,0,1,49.58,95.26Z"/>
                <path class="cls-9" d="M49.82,96.07l-19.93,5.78a.42.42,0,0,1-.52-.29h0a.42.42,0,0,1,.29-.52l19.93-5.78a.42.42,0,0,1,.52.29h0A.42.42,0,0,1,49.82,96.07Z"/>
                <path class="cls-9" d="M50.05,96.89l-19.93,5.78a.42.42,0,0,1-.52-.29h0a.42.42,0,0,1,.29-.52l19.93-5.78a.42.42,0,0,1,.52.29h0A.42.42,0,0,1,50.05,96.89Z"/>
                <path class="cls-9" d="M50.29,97.7l-19.93,5.78a.42.42,0,0,1-.52-.29h0a.42.42,0,0,1,.29-.52l19.93-5.78a.42.42,0,0,1,.52.29h0A.42.42,0,0,1,50.29,97.7Z"/>
                <path class="cls-9" d="M50.52,98.51l-19.93,5.78a.42.42,0,0,1-.52-.29h0a.42.42,0,0,1,.29-.52L50.29,97.7a.42.42,0,0,1,.52.29h0A.42.42,0,0,1,50.52,98.51Z"/>
                <path class="cls-9" d="M50.76,99.33,30.83,105.1a.42.42,0,0,1-.52-.29h0a.42.42,0,0,1,.29-.52l19.93-5.78a.42.42,0,0,1,.52.29h0A.42.42,0,0,1,50.76,99.33Z"/>
                <path class="cls-9" d="M51,100.14l-19.93,5.78a.42.42,0,0,1-.52-.29h0a.42.42,0,0,1,.29-.52l19.93-5.78a.42.42,0,0,1,.52.29h0A.42.42,0,0,1,51,100.14Z"/>
                <path class="cls-9" d="M51.23,101,31.3,106.73a.42.42,0,0,1-.52-.29h0a.42.42,0,0,1,.29-.52L51,100.14a.42.42,0,0,1,.52.29h0A.42.42,0,0,1,51.23,101Z"/>
                <path class="cls-9" d="M51.47,101.77l-19.93,5.78a.42.42,0,0,1-.52-.29h0a.42.42,0,0,1,.29-.52L51.23,101a.42.42,0,0,1,.52.29h0A.42.42,0,0,1,51.47,101.77Z"/>
                <path class="cls-9" d="M51.7,102.58l-19.93,5.78a.42.42,0,0,1-.52-.29h0a.42.42,0,0,1,.29-.52l19.93-5.78a.42.42,0,0,1,.52.29h0A.42.42,0,0,1,51.7,102.58Z"/>
                <path class="cls-9" d="M51.94,103.4,32,109.17a.42.42,0,0,1-.52-.29h0a.42.42,0,0,1,.29-.52l19.93-5.78a.42.42,0,0,1,.52.29h0A.42.42,0,0,1,51.94,103.4Z"/>
                <path class="cls-9" d="M52.18,104.21,32.24,110a.42.42,0,0,1-.52-.29h0a.42.42,0,0,1,.29-.52l19.93-5.78a.42.42,0,0,1,.52.29h0A.42.42,0,0,1,52.18,104.21Z"/>
              </g>
              <g class="cls-13">
                <rect class="cls-14" x="30.99" y="111.72" width="26.54" height="4.91" transform="translate(-30.03 16.83) rotate(-16.16)"/>
                <path class="cls-14" d="M54.25,106.29a9.92,9.92,0,0,1-10.52,3.78A13.71,13.71,0,0,1,39,108l-6.52,1.89-1.61,5.58,25.49-7.39Z"/>
                <path class="cls-14" d="M38.09,107.41c-.27-.21-.53-.43-.78-.66s-.48-.44-.71-.68-.42-.46-.63-.7-.4-.47-.58-.71-.37-.48-.55-.72-.33-.49-.49-.74-.31-.49-.46-.75-.3-.5-.44-.75-.27-.51-.4-.77l-.39-.77-.37-.78-.35-.78-.34-.78L31.28,97,31,96.24l-.31-.79-.3-.79L30.11,94,30,93.87q-.21-.38-.43-.76c-.1-.17-.2-.34-.31-.51l-.19-.23-.57-.72-.27-.33L27.91,91l-1.09.32a.95.95,0,0,1-.05,1.34.42.42,0,0,1,.24.81.42.42,0,1,1,.24.81.42.42,0,1,1,.24.81.42.42,0,1,1,.24.81.42.42,0,0,1,.24.81.42.42,0,1,1,.24.81.42.42,0,1,1,.24.81.42.42,0,1,1,.24.81.42.42,0,0,1,.24.81.42.42,0,0,1,.24.81.42.42,0,1,1,.24.81.42.42,0,1,1,.24.81.42.42,0,0,1,.24.81.42.42,0,0,1,.24.81.42.42,0,1,1,.24.81.42.42,0,1,1,.24.81.42.42,0,0,1,.24.81.42.42,0,0,1,.24.81.42.42,0,1,1,.24.81.42.42,0,1,1,.24.81.42.42,0,0,1,.24.81.42.42,0,0,0,.52.29l.2-.06L39,108Q38.51,107.74,38.09,107.41Z"/>
              </g>
            </g>
            <g>
              <path class="cls-15" d="M87.23,103.62c.35-.39,3.38-3.84,2.09-5s-4.4,2.22-4.75,2.61-2.46,2.8-2.4,4.27L48.87,142.58a.72.72,0,0,0,1.08,1l33.29-37.07C84.71,106.37,86.94,103.95,87.23,103.62Zm1.27-4.1a8.57,8.57,0,0,1-2.11,3.34,12.54,12.54,0,0,1-2.2,2,.69.69,0,0,0-.52-.47,12.54,12.54,0,0,1,1.74-2.4A8.57,8.57,0,0,1,88.5,99.52Z"/>
              <path class="cls-16" d="M57.49,135a10,10,0,0,1-1-.9l-7.6,8.46a.72.72,0,0,0,1.08,1l7.61-8.48Z"/>
              <path class="cls-9" d="M120.6,82a21.57,21.57,0,0,0-7.12-4.9,28.47,28.47,0,0,0-9-2.66c-7-.7-14.39,2.86-19.24,7.69-3.23,3.22-4.07,7.1-4.42,11.5,0,.37.55.44.58.06a25.26,25.26,0,0,1,1.14-6.49,14.72,14.72,0,0,1,4.52-6,27.57,27.57,0,0,1,10.64-5.6c6.72-1.83,14.14.49,19.73,4.39A12.89,12.89,0,0,1,123,87.89c1,4.74-1.44,9.28-4.85,12.4a21.58,21.58,0,0,1-11.4,5.61,22.4,22.4,0,0,0,1.63-2.46,10.79,10.79,0,0,0,1.1-8.38,8.05,8.05,0,0,0-5.79-5.77c-2.72-.58-5.31,1.22-7,3.15a8.7,8.7,0,0,0-2,8.58c1,2.77,4,4.3,6.66,5.07a13.56,13.56,0,0,0,4.19.5,10.1,10.1,0,0,1-6,3.18c-2.65.26-5.39-1-7.69-2.18s-4.57-3.09-5.3-5.74c-.1-.36-.68-.28-.58.09.81,2.91,3.11,4.79,5.66,6.2,2.93,1.62,6.44,2.81,9.77,1.88a10.29,10.29,0,0,0,4.92-3.47C117.69,105.63,129.63,92.12,120.6,82ZM97.39,103.57c-5-3.65-1.94-10.65,2.62-13.1a5.69,5.69,0,0,1,6.59.94,8.84,8.84,0,0,1,2.67,7.25,12.73,12.73,0,0,1-3.21,7.31A12.6,12.6,0,0,1,97.39,103.57Z"/>
            </g>
            <g>
              <path class="cls-17" d="M73.24,40.4c-5.87-1.38-3-3.92-2.55-5.85s-1.15-4.74,4.71-3.37,17,6.43,16.53,8.36S79.11,41.78,73.24,40.4Z"/>
              <path class="cls-18" d="M73.24,40.4c-5.87-1.38-5.46-.39-5-2.33S66.62,34.63,72.49,36s19.91,1.61,19.45,3.54S79.11,41.78,73.24,40.4Z"/>
              <rect class="cls-19" x="57.55" y="26.42" width="18.44" height="15.2" rx="5.01" ry="5.01" transform="translate(115.16 -23.19) rotate(103.23)"/>
              <rect class="cls-17" x="69.02" y="34.51" width="12.95" height="2.62" transform="translate(127.63 -29.48) rotate(103.23)"/>
              <g class="cls-20">
                <path class="cls-21" d="M72.74,41.82,74,36.4,59.09,33.49l-1.14,4.86A3.08,3.08,0,0,0,60.32,42L69,44A3.08,3.08,0,0,0,72.74,41.82Z"/>
              </g>
              <path class="cls-19" d="M-4.8,25.9-1,9.65C1.09.85,8.2-.73,15.76,1L57.13,6.42c7.56,1.78,12.05,10.43,10,19.24L63.3,41.91c-2.07,8.8-9.95,14.55-17.51,12.78L4.5,42.42C-3.06,40.64-6.87,34.7-4.8,25.9Z"/>
              <g class="cls-22">
                <path class="cls-23" d="M67.61,21c-.14-7-4.28-13.1-10.48-14.55L15.76,1C9.27-.48,3.11.48.19,6.35,36,7.37,63.93,9.43,67.61,21Z"/>
                <path class="cls-23" d="M61.3,47C42.37,55.93,10.08,38.68-5,33.78c1.1,4.46,4.46,7.46,9.47,8.64L45.79,54.68C51.78,56.09,58,52.77,61.3,47Z"/>
              </g>
              <rect class="cls-21" x="19.36" y="7.2" width="33.88" height="40.35" rx="16.94" ry="16.94" transform="translate(71.25 -1.7) rotate(103.23)"/>
              <g class="cls-24">
                <path class="cls-25" d="M41.25,22.54l.49.09a.49.49,0,0,1,.28.18.34.34,0,0,1,.07.3.44.44,0,0,1-.18.26.38.38,0,0,1-.31.06q-2.77-.5-6.56-1.39a.31.31,0,0,1-.19,0l-.1,0-1.28-.28-1.41-.3q-.55-.12-1.29-.35t-1.35-.48A2.91,2.91,0,0,1,28,19.37a2.23,2.23,0,0,1-.21-1.63,3.47,3.47,0,0,1,.8-1.43,4.3,4.3,0,0,1,1.42-1,.42.42,0,0,1,.34,0,.45.45,0,0,1,.25.22.36.36,0,0,1,0,.31.4.4,0,0,1-.21.23,3.72,3.72,0,0,0-1.16.86A2.74,2.74,0,0,0,28.58,18q-.29,1.24,1.18,1.86a17.21,17.21,0,0,0,3.18.94,3.11,3.11,0,0,1-.89-2.64,2.53,2.53,0,0,1,1.25-1.83,4.13,4.13,0,0,1,2.7-.45,9.78,9.78,0,0,1,2.26.62,8,8,0,0,1,2,1.13,6.36,6.36,0,0,1,1.43,1.55,3.36,3.36,0,0,1,.59,1.65,1.83,1.83,0,0,1-.72,1.54A3,3,0,0,1,41.25,22.54ZM35,21.2q2.46.58,4.35,1a3.06,3.06,0,0,0,1.69-.49,1,1,0,0,0,.41-.88A2.56,2.56,0,0,0,41,19.52a5.55,5.55,0,0,0-1.23-1.3,7.36,7.36,0,0,0-1.81-1,8.28,8.28,0,0,0-2-.55A3.17,3.17,0,0,0,33.8,17a1.79,1.79,0,0,0-.89,1.28,2.19,2.19,0,0,0,.4,1.61A3.74,3.74,0,0,0,35,21.2Z"/>
                <path class="cls-25" d="M45.24,26.43q-2.67-.54-7.5-1.67l-6.43-1.48a.44.44,0,0,1-.27-.18A.36.36,0,0,1,31,22.8a.41.41,0,0,1,.52-.31L37.91,24q4.83,1.13,7.48,1.66a.48.48,0,0,1,.29.18.37.37,0,0,1,.06.31.41.41,0,0,1-.18.26A.39.39,0,0,1,45.24,26.43Z"/>
                <path class="cls-25" d="M40.46,27.89l-1-.29-1.22-.39q-1.87-.57-3.24-.85a10.44,10.44,0,0,0-2.91-.26q-1.05.13-1.18.76A1.38,1.38,0,0,0,31.35,28a5.82,5.82,0,0,0,1.55,1.17,15.73,15.73,0,0,0,3.58,1.49l1.14.33,1.13.31.25.07.27.07a.76.76,0,0,1,.21.07h.06l.1.06a.61.61,0,0,1,.16.38.34.34,0,0,1-.3.33l-.16,0h-.08q-1.7-.33-4.88-1.05t-4.65-1a.47.47,0,0,1-.29-.18.36.36,0,0,1-.06-.31.42.42,0,0,1,.18-.26.39.39,0,0,1,.31-.05q1.23.25,2.94.63l-.33-.18a6.82,6.82,0,0,1-1.77-1.35,2.18,2.18,0,0,1-.61-1.83q.22-1.21,1.91-1.41a10.67,10.67,0,0,1,3.2.27q1.4.28,3.31.86l1.22.39,1,.29a.37.37,0,0,1,.25.2.44.44,0,0,1,0,.32.35.35,0,0,1-.2.24A.49.49,0,0,1,40.46,27.89Z"/>
                <path class="cls-25" d="M33.46,38.21q.33-1.21,1.16-4.75-3-.82-4.48,0a2.16,2.16,0,0,0-1.27,2.28,2.39,2.39,0,0,0,.44,1.14,2.17,2.17,0,0,0,.87.73.43.43,0,0,1,.22.24.4.4,0,0,1,0,.32.38.38,0,0,1-.24.21.49.49,0,0,1-.33,0,3.06,3.06,0,0,1-1.21-1,3.26,3.26,0,0,1-.59-1.5,2.61,2.61,0,0,1,.26-1.69,3.21,3.21,0,0,1,1.39-1.38q1.84-1,5.39,0a6,6,0,0,1,2.76,1.62,3.12,3.12,0,0,1,1,2.28,2.13,2.13,0,0,1-1.37,1.87,6.23,6.23,0,0,1-3.59.25.56.56,0,0,1-.18-.08A.35.35,0,0,1,33.46,38.21Zm2-4.47q-.75,3.18-1,4.28a5,5,0,0,0,2.65-.24,1.33,1.33,0,0,0,.88-1.19A2.29,2.29,0,0,0,37.32,35,4.65,4.65,0,0,0,35.44,33.74Z"/>
              </g>
            </g>
            <g>
              <g>
                <path class="cls-26" d="M164.4,143.19l-22.53,26.36s-1.92,3.18,2.31,2.48l29.29-25.57S167.61,139.48,164.4,143.19Z"/>
                <path class="cls-27" d="M164.42,141.29l-23.21,24.43s-3,3.83.48,5.82L167.25,145Z"/>
              </g>
              <path class="cls-28" d="M220.55,124.71s1.19-13-10.08-11c0,0-6.64,1.61-13.41,9.41,0,0-5,5.24-7.86,5.4,0,0-1.59.63-.54-1.14,0,0,18.8-15.16,19.59-27.14,0,0,1.66-8.08-3.6-9.83,0,0-18.36-3.18-28.28,15.43a43.79,43.79,0,0,0-4.4,20s.54,5-4,10.63l-3.59,4.8s-1,8.06,6.47,6.22a13.14,13.14,0,0,0,3.37-1.14s11.59-6.12,19-5.92l9.76-.79S220,138,220.55,124.71ZM184,122.43c-6.21,1.38-7.14-2.6-7.14-2.6-2.1-6,5.65-16,5.65-16,6-8.13,14.05-10.54,19.93-8.74s.79,8.82.79,8.82a11.91,11.91,0,0,1-4.36,2.78c-6.5,2.07-10.75,12.36-10.75,12.36A4.43,4.43,0,0,1,184,122.43Zm18,12.4c-3.05-2.46-2.68-8,.82-12.33s8.82-5.87,11.87-3.41,2.68,8-.82,12.33S205,137.29,201.93,134.83Z"/>
              <path class="cls-28" d="M220.55,124.71s1.19-13-10.08-11c0,0-6.64,1.61-13.41,9.41,0,0-5,5.24-7.86,5.4,0,0-2.09.77-.54-1.14,0,0,18.8-15.16,19.59-27.14,0,0,1.66-8.08-3.6-9.83,0,0-18.36-3.18-28.28,15.43a43.79,43.79,0,0,0-4.4,20s.54,5-4,10.63l-3.59,4.8s-1,8.06,6.47,6.22a13.14,13.14,0,0,0,3.37-1.14s11.59-6.12,19-5.92l9.76-.79S220,138,220.55,124.71ZM184,122.43c-6.21,1.38-7.14-2.6-7.14-2.6-2.1-6,5.65-16,5.65-16,6-8.13,14.05-10.54,19.93-8.74s.79,8.82.79,8.82a11.91,11.91,0,0,1-4.36,2.78c-6.5,2.07-10.75,12.36-10.75,12.36A4.43,4.43,0,0,1,184,122.43Zm18,12.4c-3.05-2.46-2.68-8,.82-12.33s8.82-5.87,11.87-3.41,2.68,8-.82,12.33S205,137.29,201.93,134.83Z"/>
              <g>
                <path class="cls-1" d="M198.83,106.72a11.91,11.91,0,0,0,4.36-2.78s5.09-7-.79-8.82-14,.61-19.93,8.74c0,0-7.75,9.94-5.65,16,0,0,.94,4,7.14,2.6a4.43,4.43,0,0,0,4.1-3.35S192.33,108.79,198.83,106.72Z"/>
                <path class="cls-28" d="M201.42,118.87l5.44-3.64A30.79,30.79,0,0,0,201.42,118.87Z"/>
                <path class="cls-28" d="M175.69,141.48l13-14.06s18.8-15.16,19.59-27.14c0,0,1.66-8.08-3.6-9.83,0,0-18.36-3.18-28.28,15.43a43.79,43.79,0,0,0-4.4,20s.54,5-4,10.63l-3.59,4.8s-.46,4,1.82,5.7C172.74,147.6,175.69,141.48,175.69,141.48Zm8.29-19c-6.21,1.38-7.14-2.6-7.14-2.6-2.1-6,5.65-16,5.65-16,6-8.13,14.05-10.54,19.93-8.74s.79,8.82.79,8.82a11.91,11.91,0,0,1-4.36,2.78c-6.5,2.07-10.75,12.36-10.75,12.36A4.43,4.43,0,0,1,184,122.43Z"/>
                <path class="cls-29" d="M170.88,147.51a13.14,13.14,0,0,0,3.37-1.14s11.59-6.12,19-5.92l9.76-.79s16.95-1.71,17.53-15c0,0,1.19-13-10.08-11a18,18,0,0,0-3.61,1.48l-5.44,3.64a37.36,37.36,0,0,0-4.36,4.29s-5,5.24-7.86,5.4c0,0-2.09.77-.54-1.14l-13,14.06s-2.95,6.12-9.45,5.51C167.21,147.72,168.67,148.06,170.88,147.51Zm43.74-28.41c3.05,2.46,2.68,8-.82,12.33s-8.82,5.87-11.87,3.41c-2.51-2-2.71-6.12-.74-9.93a14.14,14.14,0,0,1,1.57-2.39C206.26,118.16,211.57,116.63,214.62,119.1Z"/>
              </g>
              <ellipse class="cls-30" cx="169.91" cy="142.64" rx="3.09" ry="3.01" transform="translate(-51.93 144.39) rotate(-40.47)"/>
            </g>
            <g>
              <rect class="cls-31" x="130.79" y="81.24" width="13.06" height="108.29" transform="translate(83.5 -49.78) rotate(29.2)"/>
              <rect class="cls-32" x="137.74" y="83.05" width="5.63" height="108.29" transform="translate(84.79 -51.13) rotate(29.2)"/>
              <rect class="cls-33" x="135.84" y="123.78" width="13.06" height="5.12" transform="matrix(0.87, 0.49, -0.49, 0.87, 79.72, -53.4)"/>
              <g>
                <path class="cls-34" d="M158,84.94c.4.08,9.11,1.28,11.4,6.37l-10.31-.19Z"/>
                <rect class="cls-33" x="149.96" y="86.24" width="13.06" height="29.7" transform="translate(69.2 -63.5) rotate(29.2)"/>
                <rect class="cls-35" x="156.95" y="88.09" width="5.63" height="29.7" transform="translate(70.52 -64.86) rotate(29.2)"/>
                <rect class="cls-33" x="135.84" y="123.78" width="13.06" height="5.12" transform="matrix(0.87, 0.49, -0.49, 0.87, 79.72, -53.4)"/>
                <rect class="cls-35" x="142.8" y="125.59" width="5.63" height="5.12" transform="translate(81.02 -54.75) rotate(29.2)"/>
                <ellipse class="cls-36" cx="130.85" cy="146.69" rx="15.62" ry="5.12" transform="translate(-61.03 189.35) rotate(-60.8)"/>
              </g>
            </g>
            <g>
              <rect class="cls-37" x="159.28" y="48.08" width="10.24" height="5.12" transform="translate(28.81 156.5) rotate(-55.1)"/>
              <rect class="cls-31" x="113.29" y="-34.24" width="13.06" height="108.29" transform="translate(34.94 106.79) rotate(-55.1)"/>
              <rect class="cls-32" x="119.13" y="-37.29" width="5.63" height="108.29" transform="translate(38.35 107.23) rotate(-55.1)"/>
              <rect class="cls-38" x="81.07" y="-17.43" width="13.06" height="29.7" transform="translate(39.59 70.73) rotate(-55.1)"/>
              <rect class="cls-33" x="104.79" y="11.41" width="13.06" height="5.12" transform="translate(36.17 97.27) rotate(-55.1)"/>
              <g>
                <rect class="cls-39" x="86.9" y="-20.48" width="5.63" height="29.7" transform="translate(43 71.17) rotate(-55.1)"/>
                <rect class="cls-38" x="104.79" y="11.41" width="13.06" height="5.12" transform="translate(36.17 97.27) rotate(-55.1)"/>
                <rect class="cls-39" x="110.63" y="8.36" width="5.63" height="5.12" transform="translate(39.58 97.71) rotate(-55.1)"/>
                <rect class="cls-38" x="150.14" y="43.05" width="13.06" height="5.12" transform="translate(29.63 148.01) rotate(-55.1)"/>
                <rect class="cls-39" x="155.68" y="40.16" width="6.02" height="5.12" transform="translate(32.86 148.42) rotate(-55.1)"/>
                <ellipse class="cls-40" cx="130.42" cy="27.45" rx="5.12" ry="15.62" transform="translate(33.29 118.71) rotate(-55.1)"/>
              </g>
            </g>
          </g>
        </g>
      </g>
    </g>
  </g>
</svg>
