<svg id="Layer_1" data-name="Layer 1" xmlns="http://www.w3.org/2000/svg" xmlns:xlink="http://www.w3.org/1999/xlink" viewBox="0 0 300 150">
  <defs>
    <style>
      .cls-1 {
        fill: none;
      }

      .cls-2 {
        clip-path: url(#clip-path);
      }

      .cls-3 {
        fill: #d2c7b3;
      }

      .cls-4 {
        fill: #bdb4a3;
      }

      .cls-5 {
        fill: #49c1ba;
      }

      .cls-6 {
        fill: #e0e1e3;
      }

      .cls-7 {
        fill: #fff;
      }

      .cls-8 {
        fill: #edf0f1;
      }

      .cls-9 {
        fill: #fbb426;
      }

      .cls-10 {
        fill: #676767;
      }

      .cls-11 {
        fill: #f15d63;
      }

      .cls-12 {
        fill: #c8cacb;
      }

      .cls-13 {
        fill: #ec4c53;
      }

      .cls-14 {
        fill: #137886;
      }

      .cls-15 {
        fill: #d1d2d4;
      }

      .cls-16 {
        fill: #24bbb1;
      }
    </style>
    <clipPath id="clip-path">
      <rect class="cls-1" width="300" height="150"/>
    </clipPath>
  </defs>
  <title>Homework</title>
  <g class="cls-2">
    <g>
      <rect class="cls-3" width="300" height="150"/>
      <g>
        <g>
          <path class="cls-4" d="M-29.53,138.8l6,.13c19.36.41,39,1.19,58.26,1.48,19,.29,37.54-.43,56.6.66,9.27.52,18.6,1.28,27.94.95,5.92-.22,11.61-.87,17.46-1.24,6.05-.37,12.22-.44,18.37-.5l102.16-1.07c18.07-.18,36.12-.37,54.19-.46-.88.49-1.77,1-2.67,1.46-5,.17-10.24.47-16,.88-20.26,1.43-40.87-.95-61.33.21-25.61,1.45-49.8-1.74-75.75.68-5.64.53-11.19,1.23-17,1.44-8.06.29-16.09-.39-24.08-.8-16.75-.86-33.79-.57-50.69-.27-17.43.31-36.42,1.43-53.78.95-11.41-.32-22.57-1.07-34-1.45Q-26.75,140.36-29.53,138.8Z"/>
          <path class="cls-4" d="M-17.65,131.3l2.63-.1c32.27-1.16,64.74-.63,97,.46,15.38.53,32.22,2.13,47.6,1.71,11.61-.31,23.07-1.15,35-1.29,14.51-.16,29.25-.32,43.35,1,5,.49,10,1.17,15.2,1.4,4.74.22,9.53.05,14.28-.11,17-.58,34.28-1.6,51.31-1.56,8.44,0,16.83.33,25.23.65l-1.48,1.06a463.34,463.34,0,0,0-65.68,1.14c-18.11,1.63-33.54,0-51.21-.94-17.23-.89-34.34,2.53-51.68,2-9.79-.29-18.87-1.76-28.44-2.18-22.45-1-46.34-.34-68.86-.68-4.53-.07-9,.45-13.51.53-12.9.23-25.57-3.1-38.07-1.85-3.31.33-6.57.59-9.83.78Q-16.28,132.34-17.65,131.3Z"/>
          <path class="cls-4" d="M-11.61,119.14H-15.8c7.86.17,16.28.35,23.78,0H73.4a54.48,54.48,0,0,0,12.39,2c11.63.62,24.6.14,36.37.18q38.42.14,76.83-.22c37.51-.32,75-.9,112.49-1.54a107.28,107.28,0,0,1-9.3,8.54c-64.95.18-130,.3-194.8-1.07C58,126,40.72,124-8.49,122.27Q-10.1,120.73-11.61,119.14Z"/>
          <path class="cls-4" d="M-24.55,147.5c10.13-.63,20.28-1.11,31.07-.82,6.67.18,13.23.61,19.82.95,17.35.89,34.2,1,51.47,1.68,5.83.23,11.69-.11,17.53-.26,19.26-.5,39.45.73,58.7,1a141.29,141.29,0,0,0,19.49-.64c5-.66,9.22-1.86,14.38-2.37,10.16-1,19,.94,28.81,1.12,8.14.15,12.35-.67,19.94-1.2,18.52-1.3,41.66-2.81,60.24-1.08,3.81.35,7.44.71,10.95,1.05-2.21.91-4.49,1.8-6.79,2.67-13.37-1.25-26.93-2.34-38.67-1.13-12.61,1.3-19.49,4.84-34.71,4.42-11.79-.32-22.27-3.07-34.1-2.89-9.43.14-17.47,2.1-25.92,3.47-24.24,3.93-53.27,3-79.62.9s-52.25-5.27-79.38-5.55c-9.51-.1-19,.15-28.45.54C-21.4,148.75-23,148.13-24.55,147.5Z"/>
        </g>
        <g>
          <path class="cls-4" d="M-9.34,109.68c8.64-.65-12.35-1.22-3.59-1.37,33.7-.58,60.59,7.52,92.63,3.12,56.07-7.69,116.79-1,175.74.23,16.48.34,33,.24,49.49.06-.71,1-1.46,2-2.24,3-23.66.64-47.32,1.23-71,1-51.12-.44-102.43-4.53-153.11-1.65-13.67.78-27.38,2.07-41.13,1.64-14.44-.46-28.22-2.8-42.65-3.32-10.43-.37,8.81.21-1.55.95Q-8.11,111.55-9.34,109.68Z"/>
          <path class="cls-4" d="M-19.78,76.82c0-1.37,0-2.74.16-4.1,13.42-1.71-2.9-3.37,10.31-4.54,48.36-4.29,98.45-3.05,147.8-1.79l37.29.95c23,.58,46.32,1.7,69.19,2.11,22.53.41,44.56-.61,67.2.94l4.23.3c0,.37.09.74.11,1.11-12.27-.12-24.59.14-36.85.4-20.68.44-43.25,2-63.85,1.35-18.76-.63-36.94-2.45-56.24-2.37-17.75.08-35.75.85-53.07-.77-27.84-2.58-58.62-.64-86.75.25-7.62.24-15.27.49-22.61,1.37-9.21,1.1,12.08,3.16,3.34,4.8-6.6,1.25-13.34,2.24-20.18,3Q-19.78,78.34-19.78,76.82Z"/>
          <path class="cls-4" d="M-17.72,62c.43-1.52.92-3,1.48-4.53,32.57-4.3,44.49-2.78,77.73-1.66,12.44.43,24.86,1,37.35,1,19,0,37.94-1.18,56.91-1.91,42.2-1.65,84.66-.89,126.8.66,9.89.37,20.26,1.11,30.62,1.69.25.67.49,1.33.71,2-25.63-.72-52.28-.09-77.6-.5-5.93-.09-11.75.64-17.66.75-16.86.33-33.44-4.4-49.79-2.62-23.59,2.57-45.86,2-70.52,1.91-8.45,0-16.93-.08-25.34-.43-11.79-.51-23.54-1.66-35.34-1.29-21,.66-37.89,3.7-58.41,3.24C-30.29,60.12-9.31,60.84-17.72,62Z"/>
          <path class="cls-4" d="M-7.95,41.92c.65-.92,1.32-1.83,2-2.73H172.43c10.41.24,21.56.5,31.47,0h86.64a66.46,66.46,0,0,0,14.34,2.66,69.58,69.58,0,0,1,4.86,7.87c-91.39-2.5-182.43-7-273.81-9.72C12.62,39.32,18.44,38.78-4,41.43-5.34,41.58-6.64,41.75-7.95,41.92Z"/>
          <path class="cls-4" d="M-18.94,86.3c25.22-2,20.82-4,46.54-5.36l49.32-2.61a65.79,65.79,0,0,1,9-.06c12.15,1.05,19,4,32.29,4.22,15,.29,30.32-.06,45.21-.93,20.42-1.18,39.23-3.93,60.25-3.18,7.31.26,14.5.86,21.72,1.35,19,1.26,37.48,1.4,56.42,2.39,4.87.26,9.77,0,14.66-.18a55.39,55.39,0,0,1-1.27,7.59l-2.2-.23c-28.88-3-57.27-7.49-87-7.9-35.9-.5-71.43,5-107.14,3.47-15.26-.66-30.16-2.6-45.49-2.68-12.62-.06-25,1.15-37.35,2.29C14.58,86.5,22.63,88.38,1,90q-9.35.72-18.73,1.39Q-18.48,88.89-18.94,86.3Z"/>
          <path class="cls-4" d="M-16.15,96.42c61.68-2.84,93.71-4.35,156.51-2.86.68-2.63,9.32-1.83,14.52-.69,14.42,3.31,31.19,5.42,46.32,8a84.71,84.71,0,0,0,12.48,1.48c13.66.29,24.74-4.88,38.13-5.53,16.77-.81,37.18,1.44,53.58,2.94l6.11.57q-1.1,2.45-2.45,4.84c-9.31-.26-18.62-.76-27.89-1.55-8.05-.69-16.25-1.59-24.32-1s-15.29,2.75-23.25,3.69c-18.18,2.14-36.62-2.09-54.32-5-48.64-7.86-101.91-5.53-153.19-3C2.88,99.5,9.35,100.64-13.84,101.8Q-15.13,99.14-16.15,96.42Z"/>
        </g>
        <g>
          <path class="cls-4" d="M-31.81,31.65q1.54-1.24,3.15-2.45c15.92-.64-6.19,0,9.93.39,45.71,1.14,91.9.44,137.08-2.1,17.63-1,35.21-2.26,53.09-2.5,43.72-.58,78.65,7.51,120.23,3.12,16.78-1.77,33.86-2.78,51.17-3.27q3.66,2.43,7,5c-19.93-.11-39.81.13-59.62,1-17.74.78-35.52,2.07-53.38,1.64-18.73-.46-36.63-2.8-55.34-3.32C162.23,28.59,143.07,30,124,31c-46.34,2.55-93.78,3-140.54,1.43C-34.11,31.85-14.06,30.93-31.81,31.65Z"/>
          <path class="cls-4" d="M-44.18,15.06q5.42-2.79,11.32-5.41c3.69-.11,7.42-.16,11.13-.21C62.38,8.35,141.31,1,224-2.37c17-.7,55.76-2.61,72.81-3.31Q302.52-4.06,308-2.32c-.93,0-23.53,1.21-24.46,1.2C267.14-1.18,251,0,235,1.17Q193.17,4.2,151,6.73,54.14,12.48-44.18,15.06Z"/>
          <path class="cls-4" d="M-62.86,26.14c2.44-1.69,5-3.35,7.7-5l3.54-.17c123-5.89,243.4-11.63,366.42-11.32q3.34,1.48,6.51,3c-33-.05-66.46,1.13-99.24,2.36Q79.54,20.39-62.86,26.14Z"/>
        </g>
      </g>
      <g>
        <path class="cls-5" d="M133.22,92.62l123.36,1.59,1-80.77L134.27,11.86Z"/>
        <path class="cls-6" d="M255.2,13.42l-59.26-.77-1,77.45,59.26.77Z"/>
        <path class="cls-7" d="M253.1,13.39l-57.16-.74L195,85.21l57.16.74Z"/>
        <path class="cls-6" d="M136.69,11.89l59.26.77-1,77.45-59.26-.77Z"/>
        <path class="cls-7" d="M138.79,11.92l57.16.74L195,85.21l-57.16-.74Z"/>
        <path class="cls-8" d="M195,12.64l1.94,0L196,85.22l-1.94,0L195,12.64Z"/>
        <path class="cls-8" d="M143.15,52.35l44.12.57,0,2.24-44.12-.57Zm58.79.76h0l44.12.57,0,2.24-44.12-.57Zm.09-7h0l19.32.25,0,2.24L202,48.39Zm.06-4.52h0l44.12.57,0,2.24-44.12-.57Zm.06-4.52h0l44.12.57,0,2.24-44.12-.57Zm17.77-9.81h0l26.46.34,0,2.24-26.46-.34Zm0,5h0l26.46.34,0,2.24-26.46-.34Zm-18.27,43.4h0l15.18.2,0,2.24-15.18-.2,0-2.24Zm.06-4.52h0l44.12.57,0,2.24-44.12-.57Zm.06-4.52h0l44.12.57,0,2.24-44.12-.57Zm.06-4.52h0l44.12.57,0,2.24-44.12-.57Zm.06-4.52h0L246,58.2l0,2.24-44.12-.57ZM143.24,45.39h0l19.32.25,0,2.24-19.32-.25Zm.06-4.52h0l44.12.57,0,2.24-44.12-.57Zm.06-4.52h0l44.12.57,0,2.24-44.12-.57Zm17.3-9.51h0l26.46.34,0,2.24-26.46-.34Zm0,5.25h0l26.46.34,0,2.24-26.46-.34ZM220,22.3h0l26.46.34,0,2.24-26.46-.34Zm-59.27-.46h0l26.46.34,0,2.24-26.46-.34Zm-17.83,53.1h0l15.18.2,0,2.24-15.18-.2Zm.06-4.52h0L187,71l0,2.24-44.12-.57Zm.06-4.52h0l44.12.57,0,2.24-44.12-.57Zm.06-4.52h0l44.12.57,0,2.24L143,63.63Zm.06-4.52h0l44.12.57,0,2.24-44.12-.57Z"/>
        <path class="cls-9" d="M156.67,31.57q.83.58,1.08.72t1,.5l-1.23,2.48a14.45,14.45,0,0,1-1.84-1.07q-.91-.62-1.27-.93a9.27,9.27,0,0,1-3.67.63,7.4,7.4,0,0,1-5.15-1.7,7.23,7.23,0,0,1-2.23-5.65,7.45,7.45,0,0,1,1.95-5.49,7.34,7.34,0,0,1,5.44-2,7.5,7.5,0,0,1,5.5,1.91,7.36,7.36,0,0,1,1.94,5.48A7.76,7.76,0,0,1,156.67,31.57Zm-3.39-2.27a6,6,0,0,0,.53-2.83,4.71,4.71,0,0,0-.81-3.1,2.79,2.79,0,0,0-2.22-.93,2.69,2.69,0,0,0-2.14.95,4.45,4.45,0,0,0-.82,3,5.17,5.17,0,0,0,.8,3.29,2.72,2.72,0,0,0,2.2.95,4,4,0,0,0,.85-.09,5.48,5.48,0,0,0-1.76-1l.69-1.59a3.73,3.73,0,0,1,.91.26,11.89,11.89,0,0,1,1.27.82Z"/>
        <path class="cls-9" d="M211.95,31.3h-5l-.7,2.36h-4.52l5.38-14.32h4.83l5.38,14.32h-4.63ZM211,28.2l-1.58-5.15-1.56,5.15Z"/>
      </g>
      <path class="cls-7" d="M124.7,42.45,67.35,65.67l33,81.54L157.71,124Z"/>
      <path class="cls-10" d="M44.31,101.47H96.89V38.64H44.31Z"/>
      <g>
        <path class="cls-7" d="M50.58,59.17H56a1.34,1.34,0,0,1,1.33,1.33v5.41A1.34,1.34,0,0,1,56,67.25H50.58a1.34,1.34,0,0,1-1.33-1.33V60.5A1.34,1.34,0,0,1,50.58,59.17Z"/>
        <path class="cls-7" d="M61.07,59.17h5.41a1.34,1.34,0,0,1,1.33,1.33v5.41a1.34,1.34,0,0,1-1.33,1.33H61.07a1.34,1.34,0,0,1-1.33-1.33V60.5A1.34,1.34,0,0,1,61.07,59.17Z"/>
      </g>
      <path class="cls-9" d="M71.57,59.17H77a1.34,1.34,0,0,1,1.33,1.33v5.41A1.34,1.34,0,0,1,77,67.25H71.57a1.34,1.34,0,0,1-1.33-1.33V60.5A1.34,1.34,0,0,1,71.57,59.17Z"/>
      <path class="cls-11" d="M82.06,59.17h5.41a1.34,1.34,0,0,1,1.33,1.33v5.41a1.34,1.34,0,0,1-1.33,1.33H82.06a1.34,1.34,0,0,1-1.33-1.33V60.5A1.34,1.34,0,0,1,82.06,59.17Z"/>
      <g>
        <path class="cls-7" d="M50.58,69.43H56a1.34,1.34,0,0,1,1.33,1.33v5.41A1.34,1.34,0,0,1,56,77.51H50.58a1.34,1.34,0,0,1-1.33-1.33V70.77A1.34,1.34,0,0,1,50.58,69.43Z"/>
        <path class="cls-7" d="M61.07,69.43h5.41a1.34,1.34,0,0,1,1.33,1.33v5.41a1.34,1.34,0,0,1-1.33,1.33H61.07a1.34,1.34,0,0,1-1.33-1.33V70.77A1.34,1.34,0,0,1,61.07,69.43Z"/>
        <path class="cls-7" d="M71.57,69.43H77a1.34,1.34,0,0,1,1.33,1.33v5.41A1.34,1.34,0,0,1,77,77.51H71.57a1.34,1.34,0,0,1-1.33-1.33V70.77A1.34,1.34,0,0,1,71.57,69.43Z"/>
        <path class="cls-7" d="M82.06,69.43h5.41a1.34,1.34,0,0,1,1.33,1.33v5.41a1.34,1.34,0,0,1-1.33,1.33H82.06a1.34,1.34,0,0,1-1.33-1.33V70.77A1.34,1.34,0,0,1,82.06,69.43Z"/>
        <path class="cls-7" d="M50.58,79.7H56A1.34,1.34,0,0,1,57.33,81v5.41A1.34,1.34,0,0,1,56,87.77H50.58a1.34,1.34,0,0,1-1.33-1.33V81A1.34,1.34,0,0,1,50.58,79.7Z"/>
        <path class="cls-7" d="M61.07,79.7h5.41A1.34,1.34,0,0,1,67.82,81v5.41a1.34,1.34,0,0,1-1.33,1.33H61.07a1.34,1.34,0,0,1-1.33-1.33V81A1.34,1.34,0,0,1,61.07,79.7Z"/>
        <path class="cls-7" d="M71.57,79.7H77A1.34,1.34,0,0,1,78.31,81v5.41A1.34,1.34,0,0,1,77,87.77H71.57a1.34,1.34,0,0,1-1.33-1.33V81A1.34,1.34,0,0,1,71.57,79.7Z"/>
        <path class="cls-7" d="M82.06,79.7h5.41A1.34,1.34,0,0,1,88.81,81v5.41a1.34,1.34,0,0,1-1.33,1.33H82.06a1.34,1.34,0,0,1-1.33-1.33V81A1.34,1.34,0,0,1,82.06,79.7Z"/>
        <path class="cls-7" d="M50.58,90H56a1.34,1.34,0,0,1,1.33,1.33V96.7A1.34,1.34,0,0,1,56,98H50.58a1.34,1.34,0,0,1-1.33-1.33V91.29A1.34,1.34,0,0,1,50.58,90Z"/>
        <path class="cls-7" d="M61.07,90h5.41a1.34,1.34,0,0,1,1.33,1.33V96.7A1.34,1.34,0,0,1,66.49,98H61.07a1.34,1.34,0,0,1-1.33-1.33V91.29A1.34,1.34,0,0,1,61.07,90Z"/>
        <path class="cls-7" d="M71.57,90H77a1.34,1.34,0,0,1,1.33,1.33V96.7A1.34,1.34,0,0,1,77,98H71.57a1.34,1.34,0,0,1-1.33-1.33V91.29A1.34,1.34,0,0,1,71.57,90Z"/>
        <path class="cls-7" d="M82.06,90h5.41a1.34,1.34,0,0,1,1.33,1.33V96.7A1.34,1.34,0,0,1,87.48,98H82.06a1.34,1.34,0,0,1-1.33-1.33V91.29A1.34,1.34,0,0,1,82.06,90Z"/>
      </g>
      <path class="cls-12" d="M47.88,41.95H93.31V52H47.88Z"/>
      <path class="cls-7" d="M88.64,43.86a2.07,2.07,0,0,1,1.47.61h0a2.07,2.07,0,0,1,.61,1.47v1.52a2.07,2.07,0,0,1-3.54,1.47h0a2.07,2.07,0,0,1-.61-1.47V45.94a2.08,2.08,0,0,1,2.08-2.08h0ZM89.58,45h0a1.33,1.33,0,0,0-2.27.94v1.52a1.33,1.33,0,0,0,2.66,0V45.94a1.33,1.33,0,0,0-.39-.94h0Z"/>
      <path class="cls-13" d="M109.78,90.2h1.71V37.46h-1.71Z"/>
      <path class="cls-11" d="M113.19,90.2h-1.71V37.46h1.71Z"/>
      <path class="cls-13" d="M113.19,90.2h1.71V37.46h-1.71Z"/>
      <path class="cls-9" d="M112.34,101.43l2.56-11.23h-5.12Z"/>
      <path class="cls-7" d="M109.78,37.46h5.12V35.79h-5.12Z"/>
      <g>
        <path class="cls-14" d="M111.44,32.46h1.79a1.67,1.67,0,0,1,1.67,1.67v1.66h-5.12V34.13A1.67,1.67,0,0,1,111.44,32.46Z"/>
        <path class="cls-14" d="M112.23,102.24h.21l.85-5h-1.91Z"/>
      </g>
      <path class="cls-15" d="M101.8,133.65l22.93-9.45.32.78-22.93,9.45Zm-3.43-9.41h0l.32.78,31.61-13-.32-.78Zm1.71,4.71h0l.32.78,31.61-13-.32-.78Z"/>
      <g>
        <path class="cls-16" d="M110.61,115.19l-1.3-3.22-3.21,1.29-.54-1.35,3.21-1.29-1.29-3.21,1.36-.55,1.29,3.21,3.21-1.29.54,1.35-3.21,1.29,1.3,3.22-1.36.55Z"/>
        <path class="cls-16" d="M124.41,81.64V80h6.52v1.65Z"/>
      </g>
      <path class="cls-15" d="M130.5,100.19a1.16,1.16,0,0,0,.73-.21,1.31,1.31,0,0,0,.41-.55,2.69,2.69,0,0,0,.17-.76c0-.28,0-.56,0-.85s0-.55,0-.82a2.49,2.49,0,0,0-.17-.73,1.23,1.23,0,0,0-.4-.52,1.17,1.17,0,0,0-.72-.2,1.2,1.2,0,0,0-.72.19,1.24,1.24,0,0,0-.41.52,2.41,2.41,0,0,0-.19.73,7.61,7.61,0,0,0,0,.84c0,.28,0,.56,0,.84a2.46,2.46,0,0,0,.18.76,1.31,1.31,0,0,0,.41.55,1.15,1.15,0,0,0,.73.21Zm-2.44-2.36h0a5.68,5.68,0,0,1,.15-1.35,3,3,0,0,1,.46-1,2.09,2.09,0,0,1,.77-.65,2.48,2.48,0,0,1,1.09-.23,2.44,2.44,0,0,1,1.07.22,2,2,0,0,1,.75.64,3,3,0,0,1,.45,1,5.77,5.77,0,0,1,.15,1.38,4.31,4.31,0,0,1-.59,2.47,2.46,2.46,0,0,1-3.71,0A4.33,4.33,0,0,1,128.06,97.84Zm-4.3-3.35h0a1.14,1.14,0,0,0,.73-.21,1.3,1.3,0,0,0,.4-.55,2.7,2.7,0,0,0,.17-.78q0-.43,0-.87c0-.27,0-.53,0-.79a2.35,2.35,0,0,0-.17-.71,1.23,1.23,0,0,0-.4-.52,1.17,1.17,0,0,0-.72-.2,1.2,1.2,0,0,0-.72.2,1.23,1.23,0,0,0-.41.51,2.44,2.44,0,0,0-.19.73,7.3,7.3,0,0,0,0,.82c0,.29,0,.58,0,.86a2.64,2.64,0,0,0,.18.76,1.3,1.3,0,0,0,.41.55,1.16,1.16,0,0,0,.72.21h0Zm-2.44-2.36h0a5.63,5.63,0,0,1,.15-1.35,2.88,2.88,0,0,1,.46-1,2.08,2.08,0,0,1,.77-.65,2.42,2.42,0,0,1,1.09-.23,2.38,2.38,0,0,1,1.06.22,2,2,0,0,1,.75.64,3,3,0,0,1,.45,1,5.73,5.73,0,0,1,.15,1.37,4.32,4.32,0,0,1-.59,2.47,2.45,2.45,0,0,1-3.7,0,4.3,4.3,0,0,1-.59-2.47Zm.81,9h0l9.43-12.6.62.43-9.35,12.57Z"/>
      <path class="cls-15" d="M139.42,109.85l.68-2.4-2.4-.68.26-.92,2.4.68.68-2.4.92.26-.68,2.4,2.4.68-.26.92-2.4-.68-.68,2.4-.92-.26Z"/>
      <path class="cls-16" d="M122.39,65H119.9q0-.54,0-.65a4.36,4.36,0,0,1,.4-2,6.08,6.08,0,0,1,1.6-1.76,12,12,0,0,0,1.44-1.28,1.71,1.71,0,0,0,.36-1.05,1.78,1.78,0,0,0-.64-1.37,2.49,2.49,0,0,0-1.72-.57,2.61,2.61,0,0,0-1.75.6,3.17,3.17,0,0,0-1,1.82l-2.52-.31a4.18,4.18,0,0,1,1.49-3,5.28,5.28,0,0,1,3.63-1.22A5.47,5.47,0,0,1,125,55.49a3.74,3.74,0,0,1,1.4,2.88,3.16,3.16,0,0,1-.51,1.72,11.24,11.24,0,0,1-2.19,2.21,4.18,4.18,0,0,0-1.08,1.16A3.91,3.91,0,0,0,122.39,65Zm-2.49,3.69V66h2.74v2.74Z"/>
    </g>
  </g>
</svg>
