<svg xmlns="http://www.w3.org/2000/svg" xmlns:xlink="http://www.w3.org/1999/xlink" viewBox="0 0 300 150">
  <defs>
    <style>
      .cls-1 {
        fill: none;
      }

      .cls-2 {
        isolation: isolate;
      }

      .cls-3 {
        clip-path: url(#clip-path);
      }

      .cls-4 {
        fill: #5d8da4;
      }

      .cls-5 {
        fill: #8ec53f;
      }

      .cls-6 {
        fill: #b6e4fa;
      }

      .cls-7 {
        clip-path: url(#clip-path-2);
      }

      .cls-8 {
        fill: #eaeaea;
      }

      .cls-9 {
        fill: #b3b3b3;
        opacity: 0.5;
      }

      .cls-30, .cls-9 {
        mix-blend-mode: multiply;
      }

      .cls-10 {
        fill: #4e4e4e;
      }

      .cls-11 {
        fill: #a0d6ed;
      }

      .cls-12 {
        fill: #f2f2f2;
        opacity: 0.3;
      }

      .cls-13 {
        fill: #c0282d;
      }

      .cls-14 {
        fill: #1a1a1a;
      }

      .cls-15 {
        fill: #754d25;
      }

      .cls-16 {
        fill: #6ca643;
      }

      .cls-17 {
        fill: #f99c1c;
      }

      .cls-18 {
        fill: #fff;
      }

      .cls-19 {
        fill: #f37433;
      }

      .cls-20 {
        fill: #f387ae;
      }

      .cls-21 {
        fill: #6c6fab;
      }

      .cls-22 {
        fill: #a7b9e0;
      }

      .cls-23 {
        fill: #ed1c26;
      }

      .cls-24 {
        fill: #bdd747;
      }

      .cls-25 {
        fill: #e6ad52;
      }

      .cls-26 {
        opacity: 0.7;
      }

      .cls-27 {
        fill: #e6a14b;
      }

      .cls-28 {
        fill: #d49242;
      }

      .cls-29 {
        fill: #fec567;
      }

      .cls-30 {
        fill: #212120;
        opacity: 0.25;
      }

      .cls-31 {
        fill: #eee;
      }

      .cls-32 {
        fill: #767676;
      }

      .cls-33 {
        fill: #e1e1e0;
      }

      .cls-34 {
        fill: #bebdbd;
      }

      .cls-35 {
        fill: #f9fbfc;
      }

      .cls-36 {
        fill: #e25e40;
      }

      .cls-37 {
        fill: #cc4832;
      }
    </style>
    <clipPath id="clip-path">
      <rect class="cls-1" x="-0.25" width="300.25" height="150"/>
    </clipPath>
    <clipPath id="clip-path-2">
      <polygon class="cls-1" points="300 154.49 -0.25 150 -0.25 0 300 0 300 154.49"/>
    </clipPath>
  </defs>
  <title>Home and Gardening</title>
  <g class="cls-2">
    <g id="Layer_1" data-name="Layer 1">
      <g class="cls-3">
        <g>
          <rect class="cls-4" x="32.75" y="-4" width="234.5" height="158"/>
          <rect class="cls-5" y="12.49" width="267.25" height="141.7"/>
          <rect class="cls-6" x="-0.19" width="267.38" height="139.19"/>
          <g class="cls-7">
            <g>
              <rect class="cls-8" x="97.63" y="134.98" width="0.21" height="9.38"/>
              <rect class="cls-8" x="97.63" y="132.49" width="0.21" height="2.49"/>
              <rect class="cls-8" x="97.63" y="123.11" width="0.21" height="9.38"/>
              <rect class="cls-8" x="97.63" y="120.62" width="0.21" height="2.49"/>
              <rect class="cls-8" x="97.63" y="111.24" width="0.21" height="9.38"/>
              <rect class="cls-8" x="97.63" y="108.75" width="0.21" height="2.49"/>
              <rect class="cls-8" x="97.63" y="99.37" width="0.21" height="9.38"/>
              <rect class="cls-8" x="97.63" y="96.88" width="0.21" height="2.49"/>
              <rect class="cls-8" x="97.63" y="87.51" width="0.21" height="9.37"/>
              <rect class="cls-8" x="97.63" y="85.01" width="0.21" height="2.5"/>
              <rect class="cls-8" x="97.63" y="75.64" width="0.21" height="9.37"/>
              <rect class="cls-8" x="97.63" y="73.14" width="0.21" height="2.5"/>
              <rect class="cls-8" x="97.63" y="63.77" width="0.21" height="9.37"/>
              <rect class="cls-8" x="97.63" y="61.27" width="0.21" height="2.5"/>
              <rect class="cls-8" x="97.63" y="51.9" width="0.21" height="9.37"/>
              <rect class="cls-8" x="97.63" y="49.4" width="0.21" height="2.5"/>
              <rect class="cls-8" x="97.63" y="40.03" width="0.21" height="9.37"/>
              <rect class="cls-8" x="97.63" y="37.53" width="0.21" height="2.5"/>
              <rect class="cls-8" x="97.63" y="28.16" width="0.21" height="9.37"/>
              <rect class="cls-8" x="97.63" y="25.66" width="0.21" height="2.5"/>
              <rect class="cls-8" x="97.63" y="16.29" width="0.21" height="9.37"/>
              <rect class="cls-8" x="97.63" y="13.79" width="0.21" height="2.5"/>
              <rect class="cls-8" x="97.63" y="4.42" width="0.21" height="9.37"/>
              <polygon class="cls-8" points="97.63 1.92 98.77 1.92 97.84 2.83 97.84 4.42 97.63 4.42 97.63 1.92"/>
              <polygon class="cls-8" points="97.63 -7.45 108.35 -7.45 98.77 1.92 97.63 1.92 97.63 -7.45"/>
              <polygon class="cls-8" points="310.55 2.83 310.55 144.36 97.84 144.36 97.84 2.83 98.77 1.92 108.35 -7.45 110.9 -9.95 120.48 -19.32 123.04 -21.82 132.62 -31.19 135.17 -33.69 144.75 -43.06 147.31 -45.56 156.89 -54.93 159.44 -57.43 169.02 -66.8 171.58 -69.3 181.16 -78.67 183.71 -81.17 193.29 -90.54 195.85 -93.04 204.2 -101.21 212.55 -93.04 215.11 -90.54 224.68 -81.17 227.24 -78.67 236.82 -69.3 239.37 -66.8 248.95 -57.43 251.51 -54.93 261.09 -45.56 263.64 -43.06 273.22 -33.69 275.77 -31.19 285.35 -21.82 287.91 -19.32 297.49 -9.95 300.04 -7.45 309.62 1.92 310.55 2.83"/>
              <polygon class="cls-9" points="97.84 14.92 97.84 2.83 204.2 -101.21 310.55 2.83 310.55 14.92 204.2 -89.41 97.84 14.92"/>
              <path class="cls-10" d="M92.36,154.33V149a4.84,4.84,0,0,1,5.06-4.6H311A4.84,4.84,0,0,1,316,149v5.37Z"/>
              <g>
                <g>
                  <g>
                    <rect class="cls-11" x="246.29" y="48.27" width="38.11" height="52.26"/>
                    <path class="cls-10" d="M241.24,43.21v62.37h48.22V43.21Zm5.06,5.05H284.4v52.26H246.29Z"/>
                  </g>
                  <polygon class="cls-12" points="246.29 49.58 284.4 78.88 284.4 87.34 246.29 58.04 246.29 49.58"/>
                  <polygon class="cls-12" points="246.29 62.77 284.4 92.06 284.4 100.52 246.29 71.22 246.29 62.77"/>
                </g>
                <g>
                  <g>
                    <rect class="cls-11" x="203.13" y="48.27" width="38.11" height="52.26"/>
                    <path class="cls-10" d="M198.07,43.21v62.37h48.22V43.21Zm5.05,5.05h38.11v52.26H203.13Z"/>
                  </g>
                  <polygon class="cls-12" points="203.13 49.58 241.24 78.88 241.24 87.34 203.13 58.04 203.13 49.58"/>
                  <polygon class="cls-12" points="203.13 62.77 241.24 92.06 241.24 100.52 203.13 71.22 203.13 62.77"/>
                </g>
              </g>
              <g>
                <g>
                  <rect class="cls-13" x="137.22" y="31.47" width="44.65" height="112.89"/>
                  <polygon class="cls-10" points="184.4 28.95 184.4 146.89 179.34 146.89 179.34 141.83 179.34 141.83 179.34 34 139.75 34 139.75 141.83 139.78 141.83 139.78 146.89 134.69 146.89 134.69 28.95 184.4 28.95"/>
                </g>
                <rect class="cls-10" x="131.11" y="144.36" width="56.86" height="9.97"/>
                <circle class="cls-14" cx="145.64" cy="89.64" r="2.5"/>
              </g>
              <polygon class="cls-15" points="204.2 -126.06 335.19 4.94 310.89 4.94 204.2 -98.68 97.5 4.94 73.2 4.94 204.2 -126.06"/>
              <rect class="cls-10" x="193.72" y="89.01" width="100.6" height="16.57"/>
            </g>
          </g>
          <g>
            <g>
              <g>
                <path class="cls-16" d="M235,133c-4.45-22-1-32.8,0-35.67,0,0,0-2.58-.66-.28-3.55,8.18-2.67,21-.34,36Z"/>
                <path class="cls-17" d="M227.26,92c2.1-3.92,5.36,2.92,6.39,2.22,1.29-.88-2.28-5.87,1.29-5.87,3.81,0-.26,5,1.29,6.17s3.26-5.25,5-2.25-3.78,2.41-3.73,4.06,5.9-.59,4.44,3.4c-1.1,3-3.69-1.71-5.16-.6-1.62,1.23,3.87,5-.22,5.92s-.88-4.44-2.7-5.58c-1.51-.94-3.42,5.68-5.75,2.67-2.46-3.18,4.32-3.22,4.14-5.32C232.09,94.54,225.67,95,227.26,92Z"/>
                <path class="cls-18" d="M234.94,94.54c-2.63.11-3.4,4.39,0,4.61S237.58,94.43,234.94,94.54Z"/>
              </g>
              <g>
                <path class="cls-16" d="M252.06,133c-1.18-21-1.22-25.16-.22-42.6.66-2.31.66.4.66.4.15,11-2,16.2.61,42.2Z"/>
                <path class="cls-19" d="M244.38,95.06c-2.35-3.78,5.21-3.19,5.12-4.43-.12-1.56-6.23-1-4.45-4,1.9-3.31,4.19,2.71,6,2s-2.93-5.44.56-5.47.21,4.48,1.66,5.26,2.43-5.4,5.17-2.16c2.07,2.46-3.32,2.35-3.09,4.17.26,2,6.28-.85,5,3.14S256.06,92,254.17,93c-1.57.84,3.21,5.79-.56,6.32-4,.55-.63-5.35-2.54-6.24C249,92.13,246.15,97.92,244.38,95.06Z"/>
                <path class="cls-18" d="M250.4,89.66c-1.22,2.34,2.11,5.14,4,2.3S251.62,87.32,250.4,89.66Z"/>
              </g>
              <g>
                <path class="cls-16" d="M271.68,133c3.32-20,.24-29-.7-31.72,0,0,0-2.58.66-.28,3.19,7.33,2.81,19,1,32Z"/>
                <path class="cls-20" d="M278.37,96.7c2.36,3.77-5.2,3.21-5.1,4.45.12,1.56,6.23.93,4.46,4-1.89,3.31-4.2-2.69-6-1.93s2.95,5.43-.53,5.48-.22-4.48-1.68-5.25-2.41,5.41-5.16,2.18c-2.08-2.45,3.31-2.36,3.07-4.19-.26-2-6.27.88-5-3.12s4.3,1.44,6.18.42c1.57-.85-3.24-5.78.53-6.32,4-.57.66,5.34,2.57,6.23C273.78,99.65,276.58,93.85,278.37,96.7Z"/>
                <path class="cls-18" d="M272.37,102.13c1.21-2.34-2.13-5.13-4-2.28S271.16,104.47,272.37,102.13Z"/>
              </g>
              <g>
                <path class="cls-16" d="M196.69,133c3.32-20,.24-29-.7-31.72,0,0,0-2.58.66-.28,3.19,7.33,2.81,19,1,32Z"/>
                <path class="cls-21" d="M203.38,96.7c2.36,3.77-5.2,3.21-5.1,4.45.12,1.56,6.23.93,4.46,4-1.89,3.31-4.2-2.69-6-1.93s2.95,5.43-.53,5.48-.22-4.48-1.68-5.25-2.41,5.41-5.16,2.18c-2.08-2.45,3.31-2.36,3.07-4.19-.26-2-6.27.88-5-3.12s4.3,1.44,6.18.42c1.57-.85-3.24-5.78.53-6.32,4-.57.66,5.34,2.57,6.23C198.79,99.65,201.59,93.85,203.38,96.7Z"/>
                <path class="cls-18" d="M197.38,102.13c1.21-2.34-2.13-5.13-4-2.28S196.17,104.47,197.38,102.13Z"/>
              </g>
              <g>
                <path class="cls-16" d="M287.62,133c-.51-13,.29-28.16-.22-39.53.66-2.31.66.4.66.4,1.24,5.48-.46,14.12.61,39.12Z"/>
                <path class="cls-22" d="M279.94,97.25c-2.35-3.78,5.21-3.19,5.12-4.43-.12-1.56-6.23-1-4.45-4,1.9-3.31,4.19,2.71,6,2s-2.93-5.44.56-5.47.21,4.48,1.66,5.26,2.43-5.4,5.17-2.16c2.07,2.46-3.32,2.35-3.09,4.17.26,2,6.28-.85,5,3.14s-4.29-1.46-6.18-.44c-1.57.84,3.21,5.79-.56,6.32-4,.55-.63-5.35-2.54-6.24C284.53,94.33,281.71,100.11,279.94,97.25Z"/>
                <path class="cls-18" d="M286,91.86c-1.22,2.34,2.11,5.14,4,2.3S287.18,89.52,286,91.86Z"/>
              </g>
              <g>
                <path class="cls-16" d="M214.58,124c-.51-13,.29-28.53-.22-39.9.66-2.31.66.59.66.59,1.24,5.48-.46,13.31.61,39.31Z"/>
                <path class="cls-23" d="M206.9,87.52c-2.35-3.78,5.21-3.19,5.12-4.43-.12-1.56-6.23-1-4.45-4,1.9-3.31,4.19,2.71,6,2s-2.93-5.44.56-5.47.21,4.48,1.66,5.26,2.43-5.4,5.17-2.16c2.07,2.46-3.32,2.35-3.09,4.17.26,2,6.28-.85,5,3.14s-4.29-1.46-6.18-.44c-1.57.84,3.21,5.79-.56,6.32-4,.55-.63-5.35-2.54-6.24C211.49,84.59,208.67,90.37,206.9,87.52Z"/>
                <path class="cls-18" d="M212.92,82.12c-1.22,2.34,2.11,5.14,4,2.3S214.13,79.78,212.92,82.12Z"/>
              </g>
            </g>
            <g>
              <path class="cls-16" d="M298.58,125.42c.64-2.84,1.28-7.14.38-9.12a17.29,17.29,0,0,1-2.09,6.2c.53-5,.24-10.13-3.36-13.66-.27,4.11,2.68,8.75-2.55,13.4-3.88-1-4.59-8-4.87-9.92-3.83,2.47-3.39,8.23-3.12,12.34-1.86-8.38-2.93-7.75-5.65-10,1,4.09,2,5-2.51,7.76-.38-6.22-1.92-7.53-2-10.92-2.51,8.23-4.42,7.66-6.07,11.35-4.3-3-3.61-2.43-3.06-6.82-3,1.43-4.59,6.49-5.41,8.13-2.38-3.41-1.94-6.15-2.88-12.44-2.1,3.11-1.86,9.47-3.23,12.21-3,1.92-3.57-1.87-5.49-5.16-2.74,1.21-3.28,4.09-3.29,6.85-2.54-3-4.17-9.59,0-18.81-4.5,3.22-5.27,6.38-7.15,14-2.13-4.12-4-5.47-6.44-5.09,2.17,8,1.23,6.85-.72,8.75-3.76.29-5.42-2.76-6.43-7.61-1.4,1.66.66,5.62.23,7.7-1-.91-3.64.25-5,1.64,6.88,0,7.54,6.71,7.54,6.71h71.49s3.28-5.4,8.26-8.18C304.49,124.81,301.57,123.94,298.58,125.42Z"/>
              <path class="cls-5" d="M301.61,122.64a8.3,8.3,0,0,0-3.2,2,13.25,13.25,0,0,0-2.62-5.86c-1,4.85-2.11,8.38-5.87,8.09-2-1.9-1-5.32,1.12-13.27-2.39-.38-3.87,3.17-6,7.29-1.87-7.67-2.64-10.82-7.15-14,4.17,9.22,2.54,15.77,0,18.81,0-2.76-.55-5.64-3.29-6.85-1.92,3.29-2.48,7.08-5.49,5.16-1.37-2.74-2.41-6.59,0-10.37-4.51,1.91-6.13,6.19-6.13,10.6-.82-1.64-2.45-6.71-5.41-8.13.55,4.39.17,5.7-4.12,8.72-.46-9.59-.92-13.24-5.7-17.94,2.8,5.2,2.25,14.82-.49,17.56-4.55-2.78-4.39-5.62-3.35-9.71-2.72,2.22-3.79,1.59-5.65,10,.27-4.11-2-10.8-5.85-13.26-.27,1.92,3,7.38,0,13.69-5.23-4.64-4.11-16.17-4.38-20.28-3.88,4.72-4.43,12.37-3.39,18.68-3.06-1.74-5.87-3.07-6.75-3.07,5,2.78,6.44,12.57,6.44,12.57h74.37s.08-.74.14-1.72C299.37,127.95,301.23,125.17,301.61,122.64Z"/>
              <g>
                <path class="cls-24" d="M229,133s-2.47-13.79,1.48-21.27c-.71,6.78.11,18.1,2.67,18.3,3.12-3.88,1.77-10.48,1.77-10.48,1.53.41,3.17,9.73,2.31,10.84,1.46-1.92,1.94-6.1,3-7.48A23.25,23.25,0,0,0,241,133Z"/>
                <path class="cls-24" d="M250.09,133c0-1-1-3.72-3-4,.86-.86,3.35-.26,4.58.7-.14-3.12-.75-7.91,3.18-11.74-1.29,4.28-.91,9.25,0,10.66,1.51-.4,2.65-2.58,3.43-4.37,0,0,1,3.7,0,6.16,1-1.44,2.15-1.66,3.28-.8a3.64,3.64,0,0,0-1.79,3.43Z"/>
                <path class="cls-24" d="M268.38,133a4.6,4.6,0,0,0-2.16-3.52,1.51,1.51,0,0,1,2.16-.06c-.54-4.8,1.64-9.08,2.61-9.59a21.74,21.74,0,0,0-.71,11,4.78,4.78,0,0,1,3.32-2.39c-2.13,2.62-1.79,4.52-1.79,4.52Z"/>
                <path class="cls-24" d="M288.43,133a5.55,5.55,0,0,0-1.92-4.52c.45-.51,2.88,0,3.18,1.35.3-.6-2-9.66-2.24-11.39,1.82,1.4,3.25,5.58,3.55,6.9,0-4,0-8.26,2.27-10.89,0,2.58-1.16,11.12.26,13.24.79-1.75,1.93-2.53,2.92-2.23-2.46,3.1-2.29,7.55-2.29,7.55Z"/>
              </g>
            </g>
            <g>
              <path class="cls-16" d="M226.66,116.06c-3,1.43-4.59,6.49-5.41,8.13-2.38-3.41-1.94-6.15-2.88-12.44-2.1,3.11-1.86,9.47-3.23,12.21-3,1.92-3.57-1.87-5.49-5.16-2.74,1.21-3.28,4.09-3.29,6.85-2.54-3-4.17-9.59,0-18.81-4.5,3.22-5.27,6.38-7.15,14-2.13-4.12-4-5.47-6.44-5.09,2.17,8,1.23,6.85-.72,8.75-3.76.29-5.42-2.76-6.43-7.61-1.4,1.66.66,5.62.23,7.7-1-.91-3.64.16-5,1.55,6.88,0,7.54,6.62,7.54,6.62"/>
              <path class="cls-5" d="M229.89,132.9c-.82-1.64-1.87-15-9.5-16.8.55,4.39.27,5.68-4,8.69-.46-9.59-.87-13.25-5.65-17.95,2.8,5.2,2.28,14.82-.46,17.55-4.55-2.78-4.38-5.62-3.33-9.71-2.72,2.22-3.78,1.59-5.64,10,.27-4.11-2-10.8-5.85-13.26-.27,1.92,3,7.38,0,13.69-5.23-4.64-4.11-16.17-4.38-20.28-3.88,4.72-4.43,12.37-3.39,18.68-3.06-1.74-5.87-3.07-6.75-3.07,5,2.78,6.44,12.57,6.44,12.57h2.92"/>
              <g>
                <path class="cls-24" d="M192,133s-2.47-13.79,1.48-21.27c-.71,6.78.11,18.1,2.67,18.3,3.12-3.88,1.77-10.48,1.77-10.48,1.53.41,3.17,9.73,2.31,10.84,1.46-1.92,1.94-6.1,3-7.48A23.25,23.25,0,0,0,204,133Z"/>
                <path class="cls-24" d="M213.08,133c0-1-1-3.72-3-4,.86-.86,3.35-.26,4.58.7-.14-3.12-.75-7.91,3.18-11.74-1.29,4.28-.91,9.25,0,10.66,1.51-.4,2.65-2.58,3.43-4.37,0,0,1,3.7,0,6.16,1-1.44,2.15-1.66,3.28-.8a3.64,3.64,0,0,0-1.79,3.43Z"/>
              </g>
            </g>
          </g>
          <g>
            <g>
              <rect class="cls-25" x="184.48" y="126.68" width="115.78" height="18.06"/>
              <g class="cls-26">
                <path class="cls-27" d="M300.26,141.7v3H255.9A9.64,9.64,0,0,1,254,144a5.11,5.11,0,0,1-.56-.35l-.14-.11,4.57.34L259,144l.9.07a16.07,16.07,0,0,0,2.45.06c.37,0,.73-.08,1.09-.15.71-.12,1.41-.28,2.12-.36a24.19,24.19,0,0,1,5.51.33l1.13.11a24.68,24.68,0,0,0,5-.13,34.09,34.09,0,0,0,4.45-.87,10.84,10.84,0,0,1,2.19-.43,17.56,17.56,0,0,1,2.58.24c3.9.4,7.71-1.3,11.64-1.3A16.94,16.94,0,0,1,300.26,141.7Z"/>
                <path class="cls-27" d="M221.56,135.4a59.35,59.35,0,0,1-14.12-2.19,54.61,54.61,0,0,1-6.67-2.42h0c-1.46-.62-2.9-1.28-4.35-1.93h0l-1.63-.73-.37-.17-2.89-1.28h5a20.68,20.68,0,0,0,3,1.21L220.46,135Z"/>
                <path class="cls-27" d="M287.47,126.68q-.23.19-.49.36a14.42,14.42,0,0,1-4.57,1.81l-.11,0h0l-.61.14c-.73.16-1.47.3-2.21.44l-.87.16-5.83,1c-2,.36-4,.72-6.1.93s-4.3.27-6.46.3c-8.62.13-17.26-.13-25.81-.77-6.23-.46-12.92-1.29-17.33-3.93-.27-.16-.53-.33-.78-.5Z"/>
                <path class="cls-28" d="M288.5,126.68a33.16,33.16,0,0,1-5.1,2.05h0q-1.07.34-2.18.63h0c-1.14.3-2.3.56-3.47.8A143.06,143.06,0,0,1,263.53,132a71.31,71.31,0,0,1-9.63.48c-1.72-.07-3.41-.26-5.12-.36-2.25-.14-4.53-.13-6.79-.13-2.58,0-5.21,0-7.79-.15h0q-1.34-.07-2.67-.18h0a43.21,43.21,0,0,1-8.24-1.43,8.25,8.25,0,0,1-1.59-.59c-.43-.23-.78-.52-1.22-.74-1.5-.76-4.12-.81-4.71-1.94a10.55,10.55,0,0,1,1.32.24,36,36,0,0,1,3.91,1.35c7.45,2.71,16.64,2.73,25.33,2.66l9.55-.07c2,0,4.09,0,6.14-.11,5.16-.19,10.26-.74,15.34-1.3.71-.08,1.43-.16,2.13-.26a18.57,18.57,0,0,0,2.21-.44l.47-.14a42.53,42.53,0,0,0,4.81-2.2Z"/>
                <path class="cls-28" d="M295.28,126.68a2.71,2.71,0,0,0-.36.19,4.22,4.22,0,0,1-.85.52,8.76,8.76,0,0,1-2.6,0c-1.43,0-2.46.8-3.63,1.3a11.76,11.76,0,0,1-3,.77,17,17,0,0,0-3.21.3,6.25,6.25,0,0,0-1.28.67c-3,1.76-7.3,2.28-11.39,2.69a80.5,80.5,0,0,1-15.43.53,31.1,31.1,0,0,0-5.72,0c-1.85.2-3.39.95-5.33.9a17.27,17.27,0,0,1-4.06-.57c-.92-.25-1.79-.57-2.73-.79-4.79-1.13-10.65.55-15.13-1a15.31,15.31,0,0,0-3.4-1.09c-.93-.1-1.91.06-2.83-.07a8.54,8.54,0,0,1-3-1.28,29.54,29.54,0,0,0-5.08-2c-1.31-.41-2.64-.83-4-1.17H204a13.2,13.2,0,0,1,1.31.32c.7.22,1.11.53,1.79.77,1.36.49,3.09.37,4.42.93,1,.42,1.58,1.17,2.62,1.58,1.44.57,3.34.35,5,.56s3.24.86,5,1a18.85,18.85,0,0,0,2.67,0c1.59-.06,3.17-.24,4.73-.26h0a15.32,15.32,0,0,1,2.67.18h.09c2.67.46,5.07,1.43,7.88,1.56,2.64.13,5.21-.5,7.85-.64s5.14.19,7.72.28a81.75,81.75,0,0,0,13.53-1,39.86,39.86,0,0,0,8.37-1.71,6.6,6.6,0,0,0,1.59-.93h0a3.39,3.39,0,0,1,1.08-.49h0l.11,0a5.33,5.33,0,0,1,1-.12h.11a14.82,14.82,0,0,0,3.8-.25c1.27-.39,2.09-1.32,3.5-1.44.46,0,.93,0,1.4,0a5.8,5.8,0,0,0,1.73-.36Z"/>
                <path class="cls-28" d="M300.26,133.68v.94l-3.44.89c-3,.78-6,1.56-9.13,2.13-7.13,1.3-14.66,1.48-22.1,1.65l-12.09.27c-8.09.18-16.32.35-24.14-.92-4.07-.67-8.18-1.73-12.35-1.33-1.09.11-2.17.31-3.28.31a16.94,16.94,0,0,1-2.8-.32l-9.62-1.64a17,17,0,0,0-2.45-.29c-.7,0-1.4.05-2.11,0a19.54,19.54,0,0,1-3.07-.34l-9.21-1.54v-.64q2.71.46,5.44.89c1.15.18,2.42.29,3.53.55a8,8,0,0,0,2.66.52,12.84,12.84,0,0,0,1.83-.34,3.51,3.51,0,0,1,1.85,0c.5.19.76.57,1.3.72a6.91,6.91,0,0,0,1.39.08c.81,0,1.52.35,2.32.41a14.37,14.37,0,0,1,2.55.15,25.51,25.51,0,0,0,5,1c2.19.14,4.38-.15,6.56-.21a9,9,0,0,1,1.48,0,11.27,11.27,0,0,1,1.64.4c2.38.68,4.92.52,7.37,1,.82.14,1.37.46,2.13.67a9.06,9.06,0,0,0,3.59-.09,8,8,0,0,1,3.19.3c.29.09.56.2.86.27a7.09,7.09,0,0,0,2,0c2.74-.2,5.28-.09,8-.15a17.1,17.1,0,0,0,4.79-.39,4,4,0,0,1,1.14-.32,8.14,8.14,0,0,1,2,.49c1.2.23,2.35-.36,3.51-.64a16.73,16.73,0,0,1,5.82.06c1.73.2,3.44.17,5.19.23a32.94,32.94,0,0,0,4.47-.44c.82-.07,1.66,0,2.49,0a17,17,0,0,0,4.56-.59,14.58,14.58,0,0,1,2-.5c.65-.09,1.32-.06,2-.11a15.32,15.32,0,0,0,2-.34,19.91,19.91,0,0,0,4-1,6.54,6.54,0,0,1,3.58-1.06,10.76,10.76,0,0,0,1.42,0A5.14,5.14,0,0,0,300.26,133.68Z"/>
                <path class="cls-28" d="M256,144h-2l-6,0-7.52,0-13,.05c-2,0-4.06,0-6.08,0q-6.38-.06-12.75-.45a37,37,0,0,1-5.06-.68c-1.62-.32-3.23.42-4.88.18a13,13,0,0,0-2.44-.36c-1.07,0-2.07.62-3.14.58-1.51-.06-2.71-1.31-4.22-1.31a6.53,6.53,0,0,0-1.69.33,13,13,0,0,1-2.65.42v-.59a7.29,7.29,0,0,0,2.54,0,12.93,12.93,0,0,1,1.83-.6c1.24-.14,2.3.84,3.55,1s2.42-.67,3.69-.63a11.85,11.85,0,0,1,1.89.38c2.5.49,4.89-.72,7.36,0s5.15.52,7.77.77a44.51,44.51,0,0,0,8.24-.14,4.55,4.55,0,0,1,2.46.22,1.44,1.44,0,0,1,1.36-.81,6.13,6.13,0,0,1,1.74.3,15.19,15.19,0,0,0,6.63.16,6.75,6.75,0,0,1,1.7-.22,6.4,6.4,0,0,1,1.32.28,30.77,30.77,0,0,0,9.36,1,61.06,61.06,0,0,1,7.5-.25,19.43,19.43,0,0,1,2.23.28Z"/>
                <path class="cls-28" d="M256,144h1.57l-.29.07A3.77,3.77,0,0,1,256,144Z"/>
                <path class="cls-28" d="M300.26,141.26v1.1a27.59,27.59,0,0,0-8,.44,20.93,20.93,0,0,1-3.9.64c-1.77,0-3.52-.56-5.27-.34-.89.11-1.72.42-2.59.59a17,17,0,0,1-3.24.22h0l-6.09,0-7.63,0-4.14,0h-1.77l.29-.09.54-.18c1.39-.39,2.93.11,4.37-.1a16.49,16.49,0,0,0,1.88-.51c2.56-.7,5.06,0,7.61-.11,1.79-.06,3.71-.4,5.49-.31s2.94.41,4.57-.24a6.07,6.07,0,0,1,1.7-.57,13.4,13.4,0,0,1,2.77.57,6.66,6.66,0,0,0,1.66-.06l2.39-.3c2.19-.27,4.38-.34,6.56-.58C298.1,141.4,299.17,141.28,300.26,141.26Z"/>
              </g>
              <rect class="cls-29" x="184.48" y="126.68" width="115.78" height="0.35"/>
            </g>
            <g>
              <path class="cls-30" d="M191.64,135.71a2.35,2.35,0,1,1-4.66,0,2.33,2.33,0,1,1,4.66,0Z"/>
              <circle class="cls-31" cx="189.31" cy="135.71" r="2.33"/>
              <path class="cls-32" d="M187.62,135.71c0,.93.76,2.09,1.69,2.09s1.69-1.15,1.69-2.09Z"/>
              <circle class="cls-33" cx="189.31" cy="135.71" r="1.69"/>
              <path class="cls-34" d="M190.51,134.52a1.44,1.44,0,1,1-2.41,0,1.69,1.69,0,1,0,2.41,0Z"/>
              <ellipse class="cls-35" cx="189.31" cy="134.59" rx="0.81" ry="0.33"/>
              <path class="cls-35" d="M189.31,133.63a2.33,2.33,0,0,1,2.33,2.2s0-.08,0-.13a2.33,2.33,0,1,0-4.66,0s0,.08,0,.13A2.33,2.33,0,0,1,189.31,133.63Z"/>
            </g>
            <g>
              <path class="cls-30" d="M293.1,135.71a2.35,2.35,0,1,0,4.66,0,2.33,2.33,0,1,0-4.66,0Z"/>
              <circle class="cls-31" cx="295.43" cy="135.71" r="2.33"/>
              <circle class="cls-33" cx="295.43" cy="135.71" r="1.69"/>
              <path class="cls-34" d="M294.23,134.52a1.44,1.44,0,1,0,2.41,0,1.69,1.69,0,1,1-2.41,0Z"/>
              <path class="cls-35" d="M295.43,133.63a2.33,2.33,0,0,0-2.33,2.2s0-.08,0-.13a2.33,2.33,0,1,1,4.66,0s0,.08,0,.13A2.33,2.33,0,0,0,295.43,133.63Z"/>
            </g>
          </g>
          <g>
            <polygon class="cls-36" points="220.31 116.62 223.26 144.54 200.45 144.54 203.85 116.62 220.31 116.62"/>
            <g>
              <path class="cls-36" d="M203.66,118.23l-.16,1.34h-3.78a1.19,1.19,0,0,0-1.19,1.19v6.36a1.19,1.19,0,0,0,1.19,1.19h2.72l-.17,1.36h-3.63a1.7,1.7,0,0,1-1.7-1.7v-8a1.7,1.7,0,0,1,1.7-1.7Z"/>
              <polygon class="cls-36" points="203.51 119.57 202.43 128.31 203.49 119.57 203.51 119.57"/>
            </g>
            <path class="cls-36" d="M207,116.51a4.88,4.88,0,1,0,4.88-4.88A4.88,4.88,0,0,0,207,116.51Zm1,0a3.86,3.86,0,1,1,3.86,3.86A3.86,3.86,0,0,1,208,116.51Z"/>
            <polygon class="cls-36" points="221.73 130.11 231.88 120.37 233.25 122.3 222.41 136.49 221.73 130.11"/>
            <path class="cls-37" d="M221.73,130.11l.67,6.38,10.41-13.64.43-.88-.64-.59-9.18,12a.1.1,0,0,1-.18-.06l-.29-4.44Z"/>
            <path class="cls-36" d="M237.16,123.72l-7.06-7.06S228.81,123.88,237.16,123.72Z"/>
            <path class="cls-37" d="M220.48,118.23H203.66l-3.21,26.31h2l2.74-24a1,1,0,0,1,1-.93h14.42Z"/>
            <path class="cls-37" d="M211.85,112.65s3.7-.44,4.33,3.86h-.47A3.92,3.92,0,0,0,211.85,112.65Z"/>
            <path class="cls-37" d="M203.49,119.57l0-.52h-3.3a1.69,1.69,0,0,0-1.69,1.66v0s-.14-1.14,1.19-1.19Z"/>
          </g>
        </g>
      </g>
    </g>
  </g>
</svg>
