<svg id="Layer_1" data-name="Layer 1" xmlns="http://www.w3.org/2000/svg" xmlns:xlink="http://www.w3.org/1999/xlink" viewBox="0 0 300 150">
  <defs>
    <style>
      .cls-1, .cls-26 {
        fill: none;
      }

      .cls-2 {
        fill: #7898a7;
      }

      .cls-3 {
        fill: #203f5c;
      }

      .cls-4 {
        fill: #102940;
      }

      .cls-5 {
        fill: #27455e;
        fill-rule: evenodd;
      }

      .cls-6 {
        fill: #3c6d9d;
      }

      .cls-7 {
        fill: #898693;
      }

      .cls-8 {
        fill: #4cbbeb;
      }

      .cls-9 {
        fill: #b6b8bf;
      }

      .cls-10 {
        fill: #f05327;
      }

      .cls-11 {
        fill: #5d556b;
      }

      .cls-12 {
        fill: #e41e26;
      }

      .cls-13 {
        fill: #b27149;
      }

      .cls-14 {
        clip-path: url(#clip-path);
      }

      .cls-15 {
        fill: #9e6440;
      }

      .cls-16 {
        fill: #67656e;
      }

      .cls-17 {
        fill: #3d3c43;
      }

      .cls-18 {
        fill: #c3c9c7;
      }

      .cls-19 {
        fill: #d7eef0;
      }

      .cls-20 {
        fill: #abb0ae;
      }

      .cls-21 {
        fill: #66849b;
      }

      .cls-22 {
        fill: #7fa3ba;
      }

      .cls-23 {
        fill: #96bec0;
      }

      .cls-24 {
        fill: #aed9d8;
      }

      .cls-25 {
        clip-path: url(#clip-path-2);
      }

      .cls-26 {
        stroke: #0090cf;
        stroke-miterlimit: 10;
      }
    </style>
    <clipPath id="clip-path">
      <rect class="cls-1" x="-0.12" y="130.15" width="300.12" height="20.18"/>
    </clipPath>
    <clipPath id="clip-path-2">
      <rect class="cls-1" x="-1309.88" y="947.91" width="300" height="150"/>
    </clipPath>
  </defs>
  <title>Imagine Space</title>
  <g>
    <rect class="cls-2" y="0.33" width="300" height="150"/>
    <g>
      <rect class="cls-3" x="193.9" y="17.56" width="106.1" height="69.33"/>
      <rect class="cls-4" x="193.9" y="17.56" width="106.1" height="68.06"/>
      <path class="cls-5" d="M252.08,22.73a4.85,4.85,0,0,1,2.63.77,4.22,4.22,0,0,0,0,8.2,4.87,4.87,0,1,1-2.63-9Z"/>
      <g>
        <rect class="cls-6" x="193.9" y="17.56" width="2.84" height="68.06"/>
        <rect class="cls-6" x="193.9" y="82.79" width="106.1" height="2.84"/>
        <rect class="cls-6" x="193.9" y="17.56" width="106.1" height="2.84"/>
      </g>
      <polygon class="cls-5" points="226.44 28.14 226.78 29.19 227.88 29.19 226.98 29.83 227.33 30.88 226.44 30.23 225.55 30.88 225.89 29.83 225 29.19 226.1 29.19 226.44 28.14"/>
      <polygon class="cls-5" points="225.78 51.01 226.12 52.05 227.22 52.05 226.33 52.7 226.67 53.74 225.78 53.09 224.89 53.74 225.23 52.7 224.34 52.05 225.44 52.05 225.78 51.01"/>
      <polygon class="cls-5" points="211.29 24.62 211.55 25.41 212.38 25.41 211.71 25.9 211.97 26.69 211.29 26.2 210.62 26.69 210.88 25.9 210.21 25.41 211.04 25.41 211.29 24.62"/>
      <polygon class="cls-5" points="208.21 37.56 208.47 38.35 209.3 38.35 208.63 38.84 208.89 39.63 208.21 39.14 207.54 39.63 207.8 38.84 207.13 38.35 207.96 38.35 208.21 37.56"/>
      <polygon class="cls-5" points="215.42 37.89 215.76 38.94 216.86 38.94 215.97 39.58 216.31 40.63 215.42 39.98 214.53 40.63 214.87 39.58 213.98 38.94 215.08 38.94 215.42 37.89"/>
      <polygon class="cls-5" points="219.66 30.41 219.91 31.2 220.75 31.2 220.07 31.68 220.33 32.48 219.66 31.98 218.99 32.48 219.25 31.68 218.57 31.2 219.4 31.2 219.66 30.41"/>
      <polygon class="cls-5" points="282.6 53.64 282.94 54.69 284.04 54.69 283.15 55.33 283.49 56.38 282.6 55.73 281.71 56.38 282.06 55.33 281.17 54.69 282.27 54.69 282.6 53.64"/>
      <polygon class="cls-5" points="281.95 76.51 282.28 77.56 283.38 77.55 282.49 78.2 282.83 79.25 281.95 78.6 281.06 79.25 281.4 78.2 280.51 77.55 281.61 77.56 281.95 76.51"/>
      <polygon class="cls-5" points="271.58 63.39 271.92 64.44 273.02 64.44 272.13 65.08 272.48 66.13 271.58 65.48 270.7 66.13 271.04 65.08 270.15 64.44 271.25 64.44 271.58 63.39"/>
      <polygon class="cls-5" points="275.83 55.91 276.08 56.7 276.91 56.7 276.24 57.19 276.5 57.98 275.83 57.49 275.15 57.98 275.41 57.19 274.74 56.7 275.57 56.7 275.83 55.91"/>
      <polygon class="cls-5" points="212.52 51.4 211.77 51.78 211.9 52.6 211.32 52.01 210.58 52.39 210.96 51.65 210.37 51.06 211.19 51.19 211.57 50.45 211.69 51.27 212.52 51.4"/>
      <polygon class="cls-5" points="213.3 58.57 212.32 59.07 212.49 60.16 211.72 59.38 210.74 59.88 211.24 58.9 210.46 58.12 211.55 58.29 212.05 57.31 212.22 58.4 213.3 58.57"/>
      <polygon class="cls-5" points="221.35 61.6 220.61 61.98 220.74 62.8 220.16 62.21 219.41 62.59 219.79 61.85 219.21 61.26 220.03 61.39 220.41 60.65 220.53 61.48 221.35 61.6"/>
      <polygon class="cls-5" points="203.58 69.39 202.84 69.77 202.97 70.59 202.38 70 201.64 70.38 202.02 69.64 201.43 69.05 202.25 69.18 202.63 68.44 202.76 69.26 203.58 69.39"/>
      <polygon class="cls-5" points="204.36 76.56 203.38 77.06 203.55 78.15 202.78 77.37 201.8 77.86 202.3 76.89 201.52 76.11 202.61 76.28 203.11 75.3 203.28 76.39 204.36 76.56"/>
      <polygon class="cls-5" points="212.41 79.6 211.67 79.97 211.8 80.79 211.22 80.2 210.47 80.58 210.86 79.84 210.27 79.25 211.09 79.39 211.47 78.64 211.59 79.47 212.41 79.6"/>
      <polygon class="cls-5" points="215.68 67.99 215.94 68.77 216.78 68.76 216.11 69.26 216.38 70.04 215.7 69.56 215.04 70.06 215.28 69.27 214.6 68.79 215.43 68.78 215.68 67.99"/>
      <polygon class="cls-5" points="222.88 68.2 223.24 69.25 224.34 69.23 223.46 69.89 223.82 70.93 222.92 70.29 222.04 70.95 222.36 69.9 221.46 69.27 222.56 69.26 222.88 68.2"/>
      <polygon class="cls-5" points="227 60.65 227.27 61.44 228.1 61.43 227.44 61.92 227.71 62.71 227.03 62.23 226.37 62.73 226.61 61.94 225.93 61.46 226.76 61.45 227 60.65"/>
      <polygon class="cls-5" points="259.96 28.14 260.3 29.19 261.4 29.19 260.51 29.83 260.85 30.88 259.96 30.23 259.07 30.88 259.41 29.83 258.52 29.19 259.62 29.19 259.96 28.14"/>
      <polygon class="cls-5" points="247.48 35.71 246.5 36.2 246.67 37.29 245.9 36.51 244.92 37.01 245.42 36.03 244.64 35.25 245.73 35.43 246.23 34.45 246.4 35.54 247.48 35.71"/>
      <polygon class="cls-5" points="255.53 38.74 254.79 39.12 254.92 39.94 254.34 39.35 253.59 39.72 253.97 38.98 253.39 38.4 254.21 38.53 254.59 37.79 254.71 38.61 255.53 38.74"/>
      <polygon class="cls-5" points="244.82 63.13 245.16 64.18 246.26 64.17 245.37 64.82 245.71 65.87 244.82 65.22 243.94 65.87 244.28 64.82 243.38 64.17 244.49 64.18 244.82 63.13"/>
      <polygon class="cls-5" points="232.35 70.69 231.37 71.19 231.54 72.28 230.76 71.5 229.78 72 230.28 71.02 229.51 70.24 230.59 70.42 231.09 69.44 231.26 70.52 232.35 70.69"/>
      <polygon class="cls-5" points="240.4 73.73 239.66 74.1 239.79 74.92 239.2 74.33 238.46 74.71 238.84 73.97 238.25 73.38 239.07 73.52 239.45 72.78 239.58 73.6 240.4 73.73"/>
      <polygon class="cls-5" points="238.54 53.7 237.56 54.2 237.74 55.28 236.96 54.5 235.98 55 236.48 54.02 235.7 53.24 236.79 53.42 237.29 52.44 237.46 53.53 238.54 53.7"/>
      <polygon class="cls-5" points="249.86 45.12 250.12 45.91 250.96 45.9 250.29 46.39 250.56 47.18 249.88 46.7 249.22 47.2 249.46 46.41 248.78 45.93 249.61 45.92 249.86 45.12"/>
      <polygon class="cls-5" points="261.19 37.79 261.45 38.58 262.29 38.56 261.62 39.06 261.89 39.84 261.21 39.37 260.55 39.87 260.79 39.07 260.11 38.6 260.94 38.58 261.19 37.79"/>
      <polygon class="cls-5" points="263.51 66.42 262.48 66.78 262.51 67.88 261.84 67.01 260.8 67.38 261.43 66.47 260.75 65.6 261.81 65.92 262.43 65.01 262.46 66.11 263.51 66.42"/>
      <polygon class="cls-5" points="255.61 54.15 255.09 53.18 254 53.38 254.76 52.59 254.24 51.62 255.23 52.1 255.99 51.3 255.84 52.39 256.83 52.86 255.75 53.06 255.61 54.15"/>
      <polygon class="cls-5" points="252.8 62.28 252.4 61.55 251.59 61.7 252.16 61.1 251.76 60.37 252.51 60.73 253.08 60.13 252.97 60.95 253.72 61.31 252.91 61.46 252.8 62.28"/>
      <polygon class="cls-5" points="237.38 45.71 236.86 44.74 235.78 44.94 236.53 44.15 236.01 43.18 237 43.66 237.76 42.86 237.61 43.95 238.61 44.42 237.52 44.62 237.38 45.71"/>
      <polygon class="cls-5" points="246.26 56.78 245.48 57.07 245.52 57.9 245 57.25 244.23 57.54 244.69 56.85 244.17 56.2 244.97 56.42 245.43 55.73 245.46 56.56 246.26 56.78"/>
      <polygon class="cls-5" points="253.9 67.91 253.13 68.19 253.16 69.03 252.65 68.37 251.87 68.67 252.33 67.97 251.81 67.32 252.61 67.55 253.07 66.85 253.1 67.69 253.9 67.91"/>
      <polygon class="cls-5" points="261.77 43.33 262.11 44.38 263.21 44.38 262.32 45.02 262.66 46.07 261.77 45.42 260.88 46.07 261.23 45.02 260.33 44.38 261.44 44.38 261.77 43.33"/>
      <polygon class="cls-5" points="248.41 71.92 247.67 72.3 247.8 73.12 247.21 72.53 246.47 72.91 246.85 72.17 246.26 71.58 247.08 71.71 247.46 70.97 247.59 71.79 248.41 71.92"/>
      <polygon class="cls-5" points="258.88 60.53 259.24 61.57 260.33 61.55 259.45 62.21 259.81 63.26 258.91 62.62 258.03 63.28 258.36 62.23 257.46 61.6 258.56 61.59 258.88 60.53"/>
      <polygon class="cls-5" points="263 52.98 263.27 53.77 264.1 53.75 263.43 54.25 263.7 55.04 263.03 54.56 262.36 55.06 262.61 54.27 261.93 53.79 262.76 53.78 263 52.98"/>
      <polygon class="cls-5" points="274.54 46.03 273.56 46.52 273.73 47.61 272.95 46.83 271.97 47.33 272.48 46.35 271.7 45.57 272.79 45.75 273.29 44.77 273.45 45.85 274.54 46.03"/>
      <polygon class="cls-5" points="291.6 46.48 291.08 45.51 290 45.71 290.76 44.92 290.23 43.95 291.23 44.43 291.98 43.63 291.83 44.72 292.83 45.19 291.75 45.39 291.6 46.48"/>
      <polygon class="cls-5" points="273.38 38.04 272.85 37.07 271.77 37.27 272.53 36.47 272 35.51 273 35.98 273.75 35.18 273.61 36.27 274.6 36.75 273.52 36.95 273.38 38.04"/>
      <polygon class="cls-5" points="289.9 60.23 289.12 60.52 289.16 61.35 288.64 60.7 287.86 60.99 288.32 60.3 287.81 59.65 288.61 59.88 289.06 59.18 289.1 60.01 289.9 60.23"/>
    </g>
    <g>
      <path class="cls-1" d="M204.95,119.81,192.43,97.28h0v22.53Z"/>
      <path class="cls-1" d="M189.79,119.81V97.28h0l-12.52,22.54Z"/>
      <polygon class="cls-7" points="192.42 119.81 192.42 122.44 206.41 122.44 204.95 119.81 192.42 119.81"/>
      <polygon class="cls-7" points="177.26 119.81 175.79 122.44 189.79 122.44 189.79 119.81 177.26 119.81"/>
      <path class="cls-8" d="M231.9,66.9a15.71,15.71,0,0,0-7.63-8.11l8,19.25A15.7,15.7,0,0,0,231.9,66.9Z"/>
      <polygon class="cls-9" points="170.96 92.47 212.48 75.03 208.93 66.45 165.99 84.47 167.41 83.88 170.96 92.47"/>
      <path class="cls-7" d="M212.52,75.12h0l0-.09L171,92.46l0,0h0l3.48,8.39-1.41.59,14-5.9a5.26,5.26,0,1,1,9.25-3.88L216,83.47h0Z"/>
      <path class="cls-10" d="M212.52,75.12l15.77-6.62,4.49,10.85L232.24,78l-8-19.25-.55-1.32a1.32,1.32,0,0,0-1.72-.71l-10.94,4.53a3.95,3.95,0,0,0-2.14,5.16h0L212.48,75Z"/>
      <polygon class="cls-11" points="156.56 92.65 156.56 92.65 160.59 102.38 160.59 102.38 169.1 98.85 165.07 89.13 156.56 92.65"/>
      <path class="cls-11" d="M189.78,97.28a5.25,5.25,0,0,1-2.3-1.28l-23.84,42.92a1.32,1.32,0,1,0,2.3,1.28l9.86-17.75,1.46-2.63Z"/>
      <path class="cls-11" d="M204.95,119.81l1.46,2.63,9.86,17.75a1.32,1.32,0,0,0,2.3-1.28L194.73,96a5.25,5.25,0,0,1-2.3,1.28Z"/>
      <path class="cls-11" d="M192.42,97.28a5.3,5.3,0,0,1-2.63,0v42.27a1.32,1.32,0,0,0,2.63,0V97.28Z"/>
      <path class="cls-10" d="M167.14,94.12,171,92.51l0,0-3.56-8.58-1.41.59a2.63,2.63,0,0,0-1.42,3.44l.5,1.22,4,9.73.5,1.21Z"/>
      <path class="cls-12" d="M171,92.51h0l-3.84,1.61,2.46,5.95a2.64,2.64,0,0,0,2.43,1.63,2.64,2.64,0,0,0,1-.2l1.41-.59Z"/>
      <path class="cls-12" d="M228.29,68.5l-15.77,6.62h0L216,83.46h0a3.95,3.95,0,0,0,5.16,2.13l10.94-4.53a1.32,1.32,0,0,0,.71-1.72Z"/>
      <path class="cls-10" d="M158.63,97.64l2,4.74-4-9.72h0a2.64,2.64,0,0,0-3.44-1.42l-2.43,1a2.64,2.64,0,0,0-1.42,3.44l4,9.72-2-4.74Z"/>
      <path class="cls-12" d="M158.63,97.64l-7.29,3,2,4.74a2.64,2.64,0,0,0,2.43,1.63,2.64,2.64,0,0,0,1-.2l2.43-1a2.63,2.63,0,0,0,1.42-3.44h0Z"/>
      <path class="cls-9" d="M191.1,86.92a5.26,5.26,0,0,0-1.33,10.36h0a5.3,5.3,0,0,0,2.63,0h0a5.27,5.27,0,0,0,3.94-5.09c0-.16,0-.32,0-.47A5.26,5.26,0,0,0,191.1,86.92Zm0,7.89a2.63,2.63,0,1,1,2.63-2.63A2.63,2.63,0,0,1,191.1,94.81Z"/>
      <circle class="cls-11" cx="191.1" cy="92.18" r="2.63"/>
    </g>
    <rect class="cls-13" y="130.15" width="300" height="20.18"/>
    <g class="cls-14">
      <g>
        <path class="cls-15" d="M309.91,119.75c-7.09.93-14,2.17-20.9,3.41-11.43,2-22.61,3.83-34.23,5.63-5,.78-10.13,1.57-15.41,2s-10.9.61-16.38.81c-35.53,1.3-70,5.48-105.19,7.93-16.27,1.13-32.68,1.89-49.08,2.65-7.44.34-57.8,2.94-79.35,2.05v-3.82l28.71-.52c5-.09,10.15-.19,15.15.1s9.68.92,14.65,1c9.43.17,18.39-1.63,27.74-2.17,9-.52,18.05.11,27.07-.14,7.13-.2,14.1-1,21-1.68q24.1-2.56,48.3-4.95l23.29-2.34q12.13-1.22,24.26-2.42,24.65-2.42,49.45-4.57c9.37-.82,20.59-1,29.5-3Z"/>
        <path class="cls-15" d="M312.25,136c-2.21-.12-4.44-.2-6.71-.22-9.36-.09-18.93.84-28.31.77-10.3-.08-19.24-1.49-29.57-1.44-8,0-17.89.88-25.93,1.32-18.18,1-45.44,2.4-58.2,5.8a72.26,72.26,0,0,1-8.05,2,119.86,119.86,0,0,1-13.6,1l-45.31,1.63c-10.41.37-20.92.75-30.9,1.65-7.13.64-14.13,1.55-21.6,1.69-17.6.33-32.73-1.16-51.36-.62l-3.33.1v1.22l1.41,0c9.13-.17,17.53.63,26.19,1.08a348.24,348.24,0,0,0,47.69-.92c9.09-.82,17.68-2,27-2.58,25.66-1.61,54.2,1.33,77.12-1.93,9.48-1.35,16.09-3.55,25.32-5,17.33-2.7,42.69-2.28,62.19-3,18.85-.72,38-.63,55.94.28Z"/>
        <path class="cls-15" d="M312.25,145c-7.07-.55-13.94-1.32-21.29-1.47-11.71-.25-23.38,1.09-35.15,1.51-12.12.44-24.36-.09-36.42.55-17.14.91-25.52,5-40.47,6.6-14.58,1.58-33.32.6-48.28.75-4,0-8,0-12,.11-12,.31-20.23,2.56-31.71,3.06-13.2.58-27.12.42-40.07,1.23-6.37.4-12.41,1.32-18.85,1.53-14.1.48-25.67-1.63-38.67-1.45v2.75l1.65-.1c8.41-.44,16.91-.15,25.37-.2,7.27,0,14.55-.34,21.79-.65l122.46-5.06c13.25-.54,26.76-1.12,39-2.84,6.46-.91,12.42-2.12,18.86-3.05,32.83-4.71,62.36-.78,93.79.68Z"/>
        <path class="cls-15" d="M210.3,119.75c-.5.34-1,.69-1.55,1-5.7,3.4-16.32,4.49-26.09,4.84s-20,.25-28.72,2.16c-3.52.77-6.61,1.84-10,2.7-14.77,3.75-33.13,3.24-50.3,3-32.59-.41-65.29.64-97.35,3.14-2.28.18-4.62.36-6.92.36v-2.65c8.52.71,17.88-.62,26.65-1.49,37.32-3.67,78.38,1.57,113.71-4.75,7.3-1.3,14.19-3.09,21.83-4,16.23-1.84,36.17.25,48.51-4.38Z"/>
        <path class="cls-15" d="M128.89,119.75c-10,2.26-21.55,3.19-32.79,4.08-11,.87-22,1.74-33.13,2.11-16.68.56-34.63-.41-50.53,1.89C4.11,129-3.5,130-10.64,129.07v-3.19A60.06,60.06,0,0,0,5,126.19c6.82-.67,13.18-2,20-2.68,7.18-.71,14.63-.65,22-.74,17.08-.21,34.11-1.22,50.68-3Z"/>
      </g>
    </g>
    <g id="_Group_" data-name="&lt;Group&gt;">
      <g id="Body">
        <path id="_Path_" data-name="&lt;Path&gt;" class="cls-16" d="M130.27,68.39v68a5.36,5.36,0,0,1-5.36,5.36h-5.36a1.79,1.79,0,1,1,0,3.58h-7.15a1.79,1.79,0,0,1,0-3.58H65.89a1.79,1.79,0,0,1,0,3.58H58.74a1.79,1.79,0,0,1,0-3.58H53.37A5.36,5.36,0,0,1,48,136.35v-68A5.36,5.36,0,0,1,53.37,63H124.9A5.36,5.36,0,0,1,130.27,68.39Z"/>
        <path id="_Path_2" data-name="&lt;Path&gt;" class="cls-17" d="M67.68,143.5h0a1.79,1.79,0,0,1-1.79,1.79H58.74A1.79,1.79,0,0,1,57,143.5h0a1.79,1.79,0,0,1,1.79-1.79h7.15A1.79,1.79,0,0,1,67.68,143.5Z"/>
        <path id="_Path_3" data-name="&lt;Path&gt;" class="cls-17" d="M121.33,143.5h0a1.79,1.79,0,0,1-1.79,1.79h-7.15a1.79,1.79,0,0,1-1.79-1.79h0a1.79,1.79,0,0,1,1.79-1.79h7.15A1.79,1.79,0,0,1,121.33,143.5Z"/>
        <path id="_Path_4" data-name="&lt;Path&gt;" class="cls-17" d="M114.17,127.41h0a1.79,1.79,0,0,1-1.79,1.79H65.89a1.79,1.79,0,0,1-1.79-1.79h0a1.79,1.79,0,0,1,1.79-1.79h46.49A1.79,1.79,0,0,1,114.17,127.41Z"/>
        <path id="_Compound_Path_" data-name="&lt;Compound Path&gt;" class="cls-18" d="M124.9,63H53.37A5.36,5.36,0,0,0,48,68.39v68a5.36,5.36,0,0,0,5.36,5.36H124.9a5.36,5.36,0,0,0,5.36-5.36v-68A5.36,5.36,0,0,0,124.9,63Zm-3.58,67.41a2.32,2.32,0,0,1-2.32,2.32H105.23a3.58,3.58,0,0,0-3.58-3.58h-25A3.58,3.58,0,0,0,73,132.77H59.28A2.32,2.32,0,0,1,57,130.45V74.3A2.32,2.32,0,0,1,59.28,72H119a2.32,2.32,0,0,1,2.32,2.32Z"/>
      </g>
      <g id="Active_part" data-name="Active part">
        <path id="_Path_5" data-name="&lt;Path&gt;" class="cls-19" d="M89.14,93.43h0a.89.89,0,0,1-.89-.89V79.12H90V92.54A.89.89,0,0,1,89.14,93.43Z"/>
        <path id="_Path_6" data-name="&lt;Path&gt;" class="cls-17" d="M92.71,73.76v3.58l-1.29,2.59a1.79,1.79,0,0,1-1.6,1H88.46a1.79,1.79,0,0,1-1.6-1l-1.29-2.59V73.76Z"/>
        <path id="_Path_7" data-name="&lt;Path&gt;" class="cls-20" d="M94.5,77.34H83.77a3.58,3.58,0,0,1-3.58-3.58V63H98.08V73.76A3.58,3.58,0,0,1,94.5,77.34Z"/>
        <path id="_Path_8" data-name="&lt;Path&gt;" class="cls-17" d="M93.61,70.18H84.67a.89.89,0,0,1-.89-.89h0a.89.89,0,0,1,.89-.89h8.94a.89.89,0,0,1,.89.89h0A.89.89,0,0,1,93.61,70.18Z"/>
        <path id="_Path_9" data-name="&lt;Path&gt;" class="cls-17" d="M93.61,73.76H84.67a.89.89,0,0,1-.89-.89h0a.89.89,0,0,1,.89-.89h8.94a.89.89,0,0,1,.89.89h0A.89.89,0,0,1,93.61,73.76Z"/>
      </g>
      <g id="Print_object" data-name="Print object">
        <path id="_Path_10" data-name="&lt;Path&gt;" class="cls-21" d="M107,107.73,92.71,125.62H85.56L71.26,107.73,78.41,97H99.87Z"/>
        <path id="_Path_11" data-name="&lt;Path&gt;" class="cls-22" d="M107,107.73H89.14v17.88H85.56L71.26,107.73,78.41,97H99.87Z"/>
        <path id="_Path_12" data-name="&lt;Path&gt;" class="cls-23" d="M89.14,107.73H71.26L78.41,97H89.14Z"/>
        <path id="_Path_13" data-name="&lt;Path&gt;" class="cls-23" d="M96.29,107.73l-5.36,17.88H87.35L82,107.73,87.35,97h3.58Z"/>
        <path id="_Path_14" data-name="&lt;Path&gt;" class="cls-24" d="M96.29,107.73H82L87.35,97h3.58Z"/>
      </g>
    </g>
  </g>
  <g class="cls-25">
    <g>
      <g class="cls-25">
        <path class="cls-26" d="M0,74.5c15,0,15,1,30,1s15-1,30-1,15,1,30,1,15-1,30-1,15,1,30,1,15-1,30-1,15,1,30,1,15-1,30-1,15,1,30,1,15-1,30-1"/>
      </g>
      <path class="cls-26" d="M0,74.5c15,0,15,1,30,1s15-1,30-1,15,1,30,1,15-1,30-1,15,1,30,1,15-1,30-1,15,1,30,1,15-1,30-1,15,1,30,1,15-1,30-1"/>
    </g>
  </g>
</svg>
