<svg id="Layer_1" data-name="Layer 1" xmlns="http://www.w3.org/2000/svg" xmlns:xlink="http://www.w3.org/1999/xlink" viewBox="0 0 300 150">
  <defs>
    <style>
      .cls-1, .cls-32 {
        fill: none;
      }

      .cls-2 {
        clip-path: url(#clip-path);
      }

      .cls-3 {
        fill: #c49a6c;
      }

      .cls-4 {
        fill: #a8855d;
      }

      .cls-5 {
        fill: #8e714e;
      }

      .cls-6 {
        clip-path: url(#clip-path-2);
      }

      .cls-7, .cls-9 {
        fill: #434343;
      }

      .cls-8 {
        fill: #f3f3f3;
      }

      .cls-10, .cls-11, .cls-18, .cls-19, .cls-20, .cls-21, .cls-22, .cls-23, .cls-24, .cls-25, .cls-26, .cls-9 {
        fill-rule: evenodd;
      }

      .cls-10 {
        fill: #d5d4d4;
      }

      .cls-11 {
        fill: #00b6bf;
      }

      .cls-12, .cls-20 {
        fill: #fff;
      }

      .cls-13 {
        fill: #f3705b;
      }

      .cls-14 {
        fill: #e6e9ed;
      }

      .cls-15 {
        fill: #adb3ba;
      }

      .cls-16 {
        fill: #00a79d;
      }

      .cls-17 {
        fill: #58595b;
      }

      .cls-18 {
        fill: #f15b69;
      }

      .cls-19 {
        fill: #c6222a;
      }

      .cls-21 {
        fill: #d0d1d0;
      }

      .cls-22 {
        fill: #f9b866;
      }

      .cls-23 {
        fill: #f69320;
      }

      .cls-24 {
        fill: #f0b16c;
      }

      .cls-25 {
        fill: #c78b4b;
      }

      .cls-26 {
        fill: #1e1e1e;
      }

      .cls-27 {
        fill: #e6e7e8;
      }

      .cls-28 {
        fill: #f7941d;
      }

      .cls-29 {
        fill: #83603b;
      }

      .cls-30 {
        fill: #705231;
      }

      .cls-31 {
        clip-path: url(#clip-path-3);
      }

      .cls-32 {
        stroke: #0090cf;
        stroke-miterlimit: 10;
      }
    </style>
    <clipPath id="clip-path">
      <rect class="cls-1" width="300" height="150"/>
    </clipPath>
    <clipPath id="clip-path-2">
      <rect class="cls-1" x="243.81" y="15.4" width="55.1" height="63.41" transform="translate(125.56 280.77) rotate(-67.88)"/>
    </clipPath>
    <clipPath id="clip-path-3">
      <rect class="cls-1" x="-1378.3" y="28.75" width="300" height="150"/>
    </clipPath>
  </defs>
  <title>Jobs and Careers</title>
  <g class="cls-2">
    <g>
      <rect class="cls-3" width="300" height="150"/>
      <g>
        <path class="cls-4" d="M303.35,82.07v36.51l-4-.32c-10.35-.82-21-1.65-31.33-.82-2,.16-4,.38-5.9.63-5.08.66-10,1.5-15.24,2-3.8.35-7.68.5-11.56.56-7.33.11-14.75-.11-22.09.11-1.73,0-3.45.13-5.15.22-6.62.37-13.13,1-19.61,1.82-15.29,1.84-30.36,4.27-46.15,4.69-31.53.84-59.86-6.25-89-12.22-5.24-1.08-10.52-2.11-15.85-3.06a294.48,294.48,0,0,0-35.58-4.39A42.62,42.62,0,0,1-3,107.21V102.6l2.89-.82,1.85-.52,27.49-7.74c13.17-3.71,30.3-2.88,44.68-5.14,4.38-.69,8.52-1.66,13-2.23a155.88,155.88,0,0,1,19-.9l28-.22,21.58-.16,39.06-.3a83.87,83.87,0,0,1,13.87.66c4.23.7,7.74,2,11.87,2.85,13.18,2.58,28-.77,41.75-2.75l.5-.07c5.54-.77,11.21-1.32,17-1.75h.05c5-.37,10-.66,15.08-.94Z"/>
        <path class="cls-4" d="M303.35,10.27V28.35q-1.3-.11-2.63-.17c-12.64-.66-26,.56-38-1-6-.79-11.28-2.23-17-3.28C230.2,21,212.16,21.17,195.1,20.15c-19.76-1.19-38.55-4-57.57-6.31A920.57,920.57,0,0,0,34.47,6.61c-12.39-.12-24.79.07-37.1.57.07-.35.17-.69.27-1,0-.1.07-.2.1-.3l0-.08q.1-.32.22-.61c.07-.18.14-.35.22-.53l.08-.19c.08-.18.17-.37.27-.54A14.71,14.71,0,0,1,1.68-.18,15.4,15.4,0,0,1,5.56-2.8c.27-.13.54-.25.82-.37l1.09-.4.17,0,.14,0c.19-.06.39-.11.59-.16l.3-.08L9-4,9.26-4l.67-.11.49-.07h.14l.65-.06.39,0h177.2l6.63.68C208.16-2.33,220.93-1,233.76.22q5.51.53,11,1Q253,2,261.25,2.7l4.7.39c12.1,1,24.28,1.8,36.56,2.42,0,.11.08.21.12.32s.16.5.24.76.08.3.12.46.07.31.1.46,0,.16.05.25.06.33.08.51h0s0,0,0,0a.52.52,0,0,1,0,.11c0,.15,0,.3.05.45a1,1,0,0,1,0,.15c0,.12,0,.25,0,.37s0,.11,0,.17a.57.57,0,0,1,0,.11C303.35,9.88,303.35,10.07,303.35,10.27Z"/>
        <path class="cls-5" d="M303.35,26V29.7c-14.46.19-29.24,1.56-42.41-.51-5.84-.92-10.81-2.44-16.48-3.48-8.94-1.63-19.1-2-29-2.46C170.32,21,127.21,15,83.16,10.68,63.38,8.72,43,7.08,22.61,7.56,13.37,7.78,5,8.46-3,9.35l0-.31a.24.24,0,0,1,0-.08c0-.12,0-.24,0-.35s0-.25.05-.36.05-.33.08-.5.07-.38.12-.57c.07-.35.17-.69.27-1,0-.1.07-.2.1-.3l0-.08q.1-.32.22-.61c.07-.18.14-.35.22-.53l.08-.19C23.9,3.23,50.54,5.08,76.19,7c33.08,2.42,66.3,4.85,98.05,9.07,12.27,1.63,24.47,3.53,37.41,4,11.17.4,22.93-.26,33.27,1.37,8.09,1.28,14.85,3.9,23.59,4.22,4.64.17,9.26-.35,13.89-.51A146,146,0,0,1,303.35,26Z"/>
        <path class="cls-5" d="M303.35,34.73v1.85c-3,.06-6,.12-9,.13-20.22.08-40-2-59.4-4.1C191.33,28,148.88,22.14,103.58,20.79c-35.44-1-71.27-2.08-106.57-1V17.91c31.61-1.15,63.62-.53,95.25.69,25.41,1,50.78,2.35,75.5,4.75,11.08,1.08,22,2.36,33,3.64,14.72,1.74,27.28,4.29,42.54,5.14,18.59,1,37.38,2.25,56.16,2.63C300.78,34.8,302.09,34.78,303.35,34.73Z"/>
        <path class="cls-5" d="M303.35,17v3.45a145.58,145.58,0,0,1-19.83-1.58c-6.75-1.13-12.52-3-19.57-3.84-10-1.14-20.79.06-31.16-.34-8.87-.35-21-1.65-28.46-3.52-8.78-2.22-11.75-5-23.67-5.67-10.43-.61-21.07.08-31.65.11-31.66.1-61.7-5.8-93.36-6-8.1,0-16.2.29-24.29.2C20.89-.25,11.22-.35,1.68-.18A15.4,15.4,0,0,1,5.56-2.8c.27-.13.54-.25.82-.37l1.09-.4.17,0C39.29-3.94,70.9-2.2,102.26-.46l68.48,3.78c7.16.39,14.54.82,20.77,2.2,4.26,1,7.79,2.3,12,3.3,17.25,4.1,40.2,1.21,60.15,2.91,12,1,22.66,3.71,34.6,4.89C299.93,16.79,301.64,16.93,303.35,17Z"/>
        <path class="cls-5" d="M303.35,51.62v2.81c-12.17.22-24.26-.77-36.14-1.76L198.58,47c-24.8-2.06-45.54-2.44-70.86-3.41-11.18-.43-22.7-.85-33.49.29-9.66,1-18.57,3.25-28.63,3.18-3.75,0-7.57-.39-11.19,0-4.61.45-7.71,1.94-11.33,3.05C30.87,53.82,13.64,53.25-3,53.55V50.39A119.89,119.89,0,0,0,15.8,49.7c6-.85,10.73-2.5,16.29-3.65,12.53-2.59,27.91-2.44,42-3.63,15.73-1.33,27.71-3.11,44.5-2.9,24.7.3,49.25,1.58,73.42,3.42,35.53,2.7,74,9.88,110.87,8.7Z"/>
        <path class="cls-5" d="M303.35,41.43v3.07q-16.15,0-32.28.52a112.57,112.57,0,0,1-15.35-.17c-23.16-2.49-45.5-7-69.29-9.26-26.74-2.51-54-4-81.3-4.53a133.89,133.89,0,0,1-17.15-1c-4.4-.66-8.43-1.78-13-2.22a89.77,89.77,0,0,0-16.32.42L-3,33.73v-4c9.5-.56,20.16.51,29.25-1,3.49-.59,6.67-1.56,10.35-1.87,11.5-1,35.23-3.9,45.89-1.51,2.54.57,4.72,1.41,7.29,1.94,7.25,1.5,15.77.31,23.78.42,8.51.12,16.75,1.74,25.25,1.47,3.06-.1,6.06-.44,9.13-.52,8.47-.2,15.43,1.85,23.53,2.32,6.6.39,12.2,0,18.85.73,13.16,1.39,22.4,4.05,34.14,6.44a59.84,59.84,0,0,0,8.73.68c11.72.56,21.6,4.11,33.29,4.43,8,.23,15.76-1.35,23.76-1.56C294.53,41.55,298.91,41.48,303.35,41.43Z"/>
        <path class="cls-5" d="M303.35,59.71v2.66Q287,63,270.7,63.91C254.83,64.83,239,66,223.2,67c-24.67,1.53-49.88,2.55-74.42.7-20.91-1.58-41-5.23-62.18-5.73-14.22-.33-28.4.77-42.44,1.8Q20.64,65.52-3,67v-4.5C.57,62.29,4.14,62.12,7.7,62,25.3,61.19,42.93,60.42,60.61,60c18.23-.39,36.75-.33,54.38,1.7,14.26,1.64,27.88,4.58,42.59,5.06s29.55-1.56,44.45-1.63c9,0,18.21.67,27.08-.12,6.33-.56,12.17-1.85,18.33-2.7a260.8,260.8,0,0,1,26.94-1.75Z"/>
        <path class="cls-5" d="M303.35,79v3.32l-8.44.37c-5.1.23-10.24.46-15.33.8h-.05c-5.76.39-11.47.92-17,1.75l-.5.07-1.74.27c-10.66,1.78-21,4.78-32.34,4.32-9.31-.38-17.27-3-26.28-4.1-12.81-1.51-26.24.35-39.33,1.28a280.78,280.78,0,0,1-45.22-.44c-6-.55-12-1.3-18.05-1-8.14.43-15.11,2.71-23,3.74-11.23,1.47-23.68.28-34.78,1.94-14.53,2.18-24.67,8.94-39.61,9.9-.59,0-1.18.07-1.78.09a1.26,1.26,0,0,0-.07.43c.08,1.6,3.9,2.82,7.28,3.64Q22,109,37.45,112.15q7.85,1.6,15.85,3.06,15.25,2.81,30.93,5.15c27.89,4.16,58.71,7.17,86.51,2.9,11.25-1.73,21.86-4.62,33.77-4.9,8.12-.19,16.18.87,24.32.75,15-.23,28.78-4.45,43.79-4.21,7.54.11,14.71,1.36,22.14,2,2.84.23,5.71.35,8.6.42v3.2c-4.6.08-9.18.08-13.75-.16-9.22-.49-18.39-2-27.51-2.23a80.57,80.57,0,0,0-9.58.25c-4.84.44-9.34,1.42-14.11,2-1,.12-2.07.22-3.11.3-8.88.72-18.14.21-27.24.32-3,0-6,.15-8.91.39-3.69.3-7.23.81-10.7,1.42-6.24,1.09-12.23,2.52-18.39,3.72-9.58,1.86-19.69,1.85-30.12,2.4a148.62,148.62,0,0,1-38.73-3c-4.44-1-8.69-2.19-13.49-2.78-5.9-.73-12.18-.47-18.3-.66-11.32-.35-22.34-2.3-31-5.47-12-4.37-20.25-8.21-37-8.42-1.45,0-2.9,0-4.35,0V98.6c6.18-1,13-1.55,18.59-3.07,5-1.37,8.79-3.47,13.51-5,13.88-4.6,31.42-1.92,47.23-4,6.64-.86,12.52-2.63,19.22-3.4C108.17,81.69,121,84,133.93,85c3.78.3,7.57.49,11.37.44,3.43,0,6.83-.27,10.21-.61,13.25-1.3,26.19-4.11,39.33-2.89,12.19,1.13,22.78,5.66,35.15,5,6.68-.37,12.41-2.25,18.88-3.08,16.35-2.06,31.12-.06,47-3.65A62.09,62.09,0,0,1,303.35,79Z"/>
        <path class="cls-5" d="M303.35,68.79v3.43l-48.73,3.72c-16.29,1.25-32.87,2.49-49.29,1.63-9.06-.49-18.09-1.61-27.14-1.15-4.22.21-8.31.77-12.48,1.1-21.52,1.7-43.49-2.56-65.26-1.6A253.32,253.32,0,0,0,73,79.11L47.86,83c-5.1.78-10.2,1.57-15,2.65-4.43,1-8.62,2.2-13.36,2.85-6.66.9-13.85.58-20.71,1.11-.59,0-1.16.1-1.74.15V87.08c5.19-.09,10.48.17,15.41-.51,6.76-.93,11.87-3.48,18.64-4.4,5.8-.78,12.16-.27,18-.93s10.82-2.44,16-3.84c16.2-4.34,35.55-4.95,54.12-4.68,9.14.13,18.9.18,27.93.63,7.76.39,17.27,2.68,25,1.45,2.23-.35,4.18-1,6.45-1.3,8.56-1.13,16.33,3,25.27,3.13,7.88.11,14.88-2.94,22.7-2.47,4.35.27,8.57,1.61,12.76,1A34.61,34.61,0,0,0,244.2,74c8.89-2.42,18.89-.35,28.36-1.21,7.55-.68,13.47-2.73,21.23-3.35Q298.56,69,303.35,68.79Z"/>
        <path class="cls-5" d="M303.35,133.23v4.89c-9,1-18.07,1.82-27.11,2.24-20.12.93-40.62-.37-60.62.94-11.9.78-23.43,2.48-35.39,3-34.92,1.6-67.84-6.58-102.21-9.72-27.5-2.51-57.87-2-81-8.9v-2.18c20.6,6.34,48.14,6.14,73.3,7.7,39,2.42,77,9.74,116.13,7.88,16.79-.8,33.08-3.29,50-3.48,11.57-.12,23.13.84,34.65.4,7.65-.29,15.11-1.18,22.6-1.92Q298.49,133.62,303.35,133.23Z"/>
        <path class="cls-5" d="M303.16,147.53a13.87,13.87,0,0,1-1.36,4.06c-46.86,1.41-94,.92-140.89-.53-13.3-.41-26.61-.9-39.77-1.85-9.09-.66-18.27-1.54-27.43-1.13-7.13.32-14.34,1.42-21.27.63-5.63-.63-10.17-2.42-15.45-3.47-13.89-2.77-30.56-.2-45.25-2-4.74-.58-9.16-1.6-14-2.06l-.74-.06v-2.68c7.33.32,14.21,2,21.59,2.4,10.91.59,21.81-1.66,32.77-1.18,12.42.54,22.88,4.48,35.21,5.39,10.52.77,21.43-.74,31.93.08,6.59.52,12.62,1.93,19,2.75a207.4,207.4,0,0,0,23.18,1.18c16.55.2,36.42,3.18,52.51,1.28,4-.47,7.93-1.3,12.11-1.35,6.67-.09,12.66,1.76,19.23,2.25,9.6.72,19.22-1.51,28.92-1.2,2,.06,3.93.23,5.87.1,3-.21,5.53-1.1,8.27-1.68A70.29,70.29,0,0,1,303.16,147.53Z"/>
        <path class="cls-5" d="M142.49,159.83H110.26a150.86,150.86,0,0,0-16.55-.33c-1.76.08-3.52.2-5.28.33H70.31c-4.69-.78-8.72-2.25-13.32-3.17-13.89-2.77-30.56-.2-45.25-2-4.24-.51-8.23-1.39-12.48-1.89-.11-.17-.21-.33-.3-.51s-.12-.19-.17-.29-.17-.32-.26-.49l-.16-.34c-.16-.35-.31-.69-.45-1h0a2,2,0,0,0-.07-.19c7,.4,13.67,2,20.77,2.35,10.91.59,21.81-1.65,32.77-1.17,12.42.54,22.88,4.48,35.21,5.38,10.52.77,21.43-.74,31.93.09,6.59.52,12.62,1.93,19,2.74Q140,159.63,142.49,159.83Z"/>
        <path class="cls-5" d="M44.88,102.66c-.58.94,3,1.66,6.22,2.13,21.23,3.11,43.52,5.72,66.51,7.79,24.07,2.18,50.68,3.74,74.69,1.51,9.71-.9,18.87-2.41,29.15-2.56,7-.1,14,.45,21,.39,13-.12,24.83-2.32,37.79-2.2,6.52.07,12.72.71,19.13,1q2,.1,4,.15v1.76c-2.82,0-5.62,0-8.43-.1-10.75-.35-21.43-1.62-32-1-4.18.23-8.06.74-12.19,1-11,.78-22.74,0-33.89.54-8.91.44-16.84,1.71-25.11,2.68s-17,1-26,1.25a209.43,209.43,0,0,1-33.44-1.56c-3.84-.51-7.51-1.13-11.65-1.44-5.1-.38-10.51-.25-15.8-.35A142.36,142.36,0,0,1,78,110.81c-10.34-2.28-17.48-4.28-32-4.4-3,0-6.07,0-9-.15s-5.79-.7-6.59-1.46.71-1.61,2.86-2.18c6.46-1.73,17.2-1.7,25-3C62.71,98.91,66,97.82,70,97c12-2.4,27.12-1,40.78-2.07,5.73-.46,10.81-1.38,16.6-1.78,14-1,28.43,1.33,42.94,1.23s28.52-2.63,42.78-1.82c10.52.6,19.66,3,30.34,2.59,5.77-.2,10.71-1.18,16.31-1.61,14.1-1.08,26.85,0,40.57-1.9,1-.14,2-.25,3-.35v1.56l-3.83.1c-10.12.27-20.37.56-29.87,1.51-9.2.92-18.11,2.49-27.92,2.25-8-.19-14.9-1.58-22.69-2.13-11.06-.79-22.64.18-34,.67-12.92.56-26.23.48-39-.23-5.15-.29-10.36-.68-15.58-.51-7,.23-13,1.42-19.82,2-9.7.76-20.45.14-30,1C67.58,98.63,58.63,102.4,44.88,102.66Z"/>
        <path class="cls-5" d="M80.56,103.41c-.52.45,2.74.8,5.59,1,19.09,1.49,39.13,2.73,59.8,3.73,21.66,1,45.58,1.78,67.16.73,8.73-.43,17-1.16,26.2-1.23,6.31,0,12.57.22,18.89.18,11.65-.06,22.34-1.11,34-1,3.79,0,7.47.15,11.15.29v1c-9-.2-17.89-.7-26.76-.44-3.76.11-7.25.35-11,.49-9.85.37-20.44,0-30.47.26-8,.21-15.14.82-22.58,1.28s-15.29.46-23.38.6c-10.26.18-20.86-.08-30.07-.74-3.46-.25-6.75-.55-10.46-.69-4.58-.18-9.46-.12-14.22-.17a236.34,236.34,0,0,1-24.08-1.36c-9.29-1.09-15.72-2-28.74-2.1-2.71,0-5.47,0-8.09-.08s-5.21-.33-5.92-.7.63-.77,2.56-1c5.81-.82,15.46-.81,22.5-1.43,3.91-.34,6.82-.86,10.49-1.25,10.77-1.15,24.39-.48,36.67-1,5.15-.22,9.72-.66,14.92-.85,12.62-.46,25.56.64,38.6.58s25.66-1.25,38.47-.87c9.46.28,17.67,1.42,27.27,1.23,5.2-.08,9.64-.56,14.67-.76,10.29-.42,19.78-.17,29.58-.54v.34c-7.06.12-14.08.28-20.7.63-8.26.44-16.29,1.19-25.1,1.08-7.22-.1-13.39-.76-20.39-1-9.94-.38-20.37.08-30.53.32-11.61.27-23.58.23-35.1-.11-4.64-.14-9.31-.32-14-.25-6.32.11-11.73.68-17.82.93-8.72.37-18.39.07-27,.49C101,101.49,92.93,103.28,80.56,103.41Z"/>
      </g>
      <g>
        <g class="cls-6">
          <path class="cls-7" d="M249.23,63.54a14.42,14.42,0,0,0,13.69,1A14.66,14.66,0,0,0,269,59.17a21.58,21.58,0,0,0,2.76-7.87c.52-2.85.78-5.73,1.41-8.57a15.62,15.62,0,0,1,3.17-7.1c2.56-2.83,6.48-1.93,9.28-.58a20.72,20.72,0,0,1,7.92,6.9c.92,1.33,2.11,2.93,3.74,3.28a3.21,3.21,0,0,0,2.85-1.36c1.23-1.34,2.15-3,3.41-4.29a8.32,8.32,0,0,1,2.36-1.77c1.46-.7,3-.53,4.53-.58.53,0,.66-.9.12-.88a15.45,15.45,0,0,0-3.93.27,7.55,7.55,0,0,0-2.21,1.09,15,15,0,0,0-3.24,3.47,11.85,11.85,0,0,1-2.53,2.92c-1.06.72-2.11,0-2.86-.77-1.35-1.29-2.24-3-3.52-4.4a22.82,22.82,0,0,0-4.1-3.44c-2.77-1.82-6.34-3.36-9.75-2.21a7.5,7.5,0,0,0-3.94,3.55,24.12,24.12,0,0,0-2.57,8.05c-1,5.62-1.16,11.89-5.47,16.16a13.54,13.54,0,0,1-16.68,1.79c-.45-.27-1,.44-.53.72Z"/>
        </g>
        <g>
          <g>
            <path class="cls-8" d="M239.83,113.27a1.2,1.2,0,0,1-1.58.63L136.1,72.39a1.2,1.2,0,0,1-.69-1.55l26.9-66.2A1.2,1.2,0,0,1,163.9,4L266,45.52a1.2,1.2,0,0,1,.69,1.55Z"/>
            <g>
              <path class="cls-9" d="M252.94,51.64,256.19,53a.73.73,0,0,1,.4.94l-1,2.42a.73.73,0,0,1-.94.4l-3.25-1.32a.73.73,0,0,1-.4-.94L252,52a.73.73,0,0,1,.94-.4"/>
              <path class="cls-9" d="M251.22,56.31l3,1.2a.89.89,0,0,1,.49,1.15l-1.33,3.27a.89.89,0,0,1-1.16.49l-3-1.2a.89.89,0,0,1-.49-1.15l1.33-3.27a.89.89,0,0,1,1.15-.49"/>
              <path class="cls-9" d="M248.87,62.08l3,1.2a.89.89,0,0,1,.49,1.15L251,67.7a.89.89,0,0,1-1.16.49l-3-1.2a.89.89,0,0,1-.49-1.15l1.33-3.27a.89.89,0,0,1,1.15-.49"/>
              <path class="cls-9" d="M246.53,67.84l3,1.2A.89.89,0,0,1,250,70.2l-1.33,3.27a.89.89,0,0,1-1.15.49l-3-1.2A.89.89,0,0,1,244,71.6l1.33-3.27a.89.89,0,0,1,1.15-.49"/>
              <path class="cls-9" d="M244.19,73.6l3,1.2a.89.89,0,0,1,.49,1.15l-1.33,3.27a.89.89,0,0,1-1.15.49l-3-1.2a.89.89,0,0,1-.49-1.15L243,74.09a.89.89,0,0,1,1.15-.49"/>
              <path class="cls-9" d="M241.85,79.37l3,1.2a.89.89,0,0,1,.49,1.15L244,85a.89.89,0,0,1-1.15.49l-3-1.2a.89.89,0,0,1-.49-1.15l1.33-3.27a.89.89,0,0,1,1.15-.49"/>
              <path class="cls-9" d="M247.2,49.31l3.25,1.32a.73.73,0,0,1,.4.95l-1,2.42a.73.73,0,0,1-.94.4l-3.25-1.32a.73.73,0,0,1-.4-.94l1-2.42a.73.73,0,0,1,.94-.4"/>
              <path class="cls-9" d="M240.23,51.85l8.14,3.31a1,1,0,0,1,.52,1.24l-1.28,3.16a1,1,0,0,1-1.24.52l-8.14-3.31a1,1,0,0,1-.52-1.24L239,52.37a1,1,0,0,1,1.24-.52"/>
              <path class="cls-9" d="M241.62,59.13l4.4,1.79a1,1,0,0,1,.52,1.23l-1.28,3.16a1,1,0,0,1-1.24.52L239.63,64a1,1,0,0,1-.52-1.24l1.28-3.16a1,1,0,0,1,1.23-.52"/>
              <path class="cls-9" d="M234.89,63.11l8.79,3.57a1,1,0,0,1,.52,1.23l-1.28,3.16a1,1,0,0,1-1.23.52L232.9,68a1,1,0,0,1-.52-1.23l1.28-3.16a1,1,0,0,1,1.23-.52"/>
              <path class="cls-9" d="M238.45,71.27l3,1.2a.89.89,0,0,1,.49,1.15l-1.33,3.27a.89.89,0,0,1-1.16.49l-3-1.2A.89.89,0,0,1,236,75l1.33-3.27a.89.89,0,0,1,1.15-.49"/>
              <path class="cls-9" d="M236.1,77l3,1.2a.89.89,0,0,1,.49,1.15l-1.33,3.27a.89.89,0,0,1-1.16.49l-3-1.2a.89.89,0,0,1-.49-1.15L235,77.52A.89.89,0,0,1,236.1,77"/>
              <path class="cls-9" d="M241.89,47.16l2.81,1.14a.73.73,0,0,1,.4.95l-1,2.42a.73.73,0,0,1-.94.4l-2.81-1.14A.73.73,0,0,1,240,50l1-2.42a.73.73,0,0,1,.94-.4"/>
              <path class="cls-9" d="M236.5,45l2.81,1.14a.73.73,0,0,1,.4.94l-1,2.42a.73.73,0,0,1-.94.4L235,48.72a.73.73,0,0,1-.4-.94l1-2.42a.73.73,0,0,1,.94-.4"/>
              <path class="cls-9" d="M231.11,42.77l2.81,1.14a.73.73,0,0,1,.4.95l-1,2.42a.73.73,0,0,1-.95.4l-2.81-1.14a.73.73,0,0,1-.4-.94l1-2.42a.73.73,0,0,1,.94-.4"/>
              <path class="cls-9" d="M225.72,40.58l2.81,1.14a.73.73,0,0,1,.4.94l-1,2.42a.73.73,0,0,1-.94.4l-2.81-1.14a.73.73,0,0,1-.4-.94l1-2.42a.73.73,0,0,1,.94-.4"/>
              <path class="cls-9" d="M220.33,38.39l2.81,1.14a.73.73,0,0,1,.4.94l-1,2.42a.73.73,0,0,1-.94.4l-2.81-1.14a.73.73,0,0,1-.4-.95l1-2.42a.73.73,0,0,1,.95-.4"/>
              <path class="cls-9" d="M214.94,36.2l2.81,1.14a.73.73,0,0,1,.4.95l-1,2.42a.73.73,0,0,1-.95.4L213.41,40A.73.73,0,0,1,213,39l1-2.42a.73.73,0,0,1,.94-.4"/>
              <path class="cls-9" d="M209.55,34l2.81,1.14a.73.73,0,0,1,.4.94l-1,2.42a.73.73,0,0,1-.94.4L208,37.77a.73.73,0,0,1-.4-.94l1-2.42a.73.73,0,0,1,.94-.4"/>
              <path class="cls-9" d="M204.16,31.82,207,33a.73.73,0,0,1,.4.95l-1,2.42a.73.73,0,0,1-.94.4l-2.81-1.14a.73.73,0,0,1-.4-.94l1-2.42a.73.73,0,0,1,.94-.4"/>
              <path class="cls-9" d="M198.77,29.63l2.81,1.14a.73.73,0,0,1,.4.94l-1,2.42a.73.73,0,0,1-.94.4l-2.81-1.14a.73.73,0,0,1-.4-.94l1-2.42a.73.73,0,0,1,.94-.4"/>
              <path class="cls-9" d="M193.38,27.44l2.81,1.14a.73.73,0,0,1,.4.94l-1,2.42a.73.73,0,0,1-.94.4l-2.81-1.14a.73.73,0,0,1-.4-.94l1-2.42a.73.73,0,0,1,.94-.4"/>
              <path class="cls-9" d="M188,25.25l2.81,1.14a.73.73,0,0,1,.4.94l-1,2.42a.73.73,0,0,1-.94.4L186.46,29a.73.73,0,0,1-.4-.94l1-2.42a.73.73,0,0,1,.94-.4"/>
              <path class="cls-9" d="M182.59,23.06l2.81,1.14a.73.73,0,0,1,.4.94l-1,2.42a.73.73,0,0,1-.94.4l-2.81-1.14a.73.73,0,0,1-.4-.94l1-2.42a.73.73,0,0,1,.94-.4"/>
              <path class="cls-9" d="M177.2,20.87,180,22a.73.73,0,0,1,.4.94l-1,2.42a.73.73,0,0,1-.94.4l-2.81-1.14a.73.73,0,0,1-.4-.94l1-2.42a.73.73,0,0,1,.94-.4"/>
              <path class="cls-9" d="M171.81,18.68l2.81,1.14a.73.73,0,0,1,.4.95l-1,2.42a.73.73,0,0,1-.95.4l-2.81-1.14a.73.73,0,0,1-.4-.94l1-2.42a.73.73,0,0,1,.94-.4"/>
              <path class="cls-9" d="M165.76,16.21,169,17.54a.73.73,0,0,1,.4.94l-1,2.42a.73.73,0,0,1-.94.4L164.23,20a.73.73,0,0,1-.4-.94l1-2.42a.73.73,0,0,1,.94-.4"/>
              <path class="cls-9" d="M234.41,49.48l2.9,1.18a.87.87,0,0,1,.48,1.13l-1.34,3.3a.87.87,0,0,1-1.13.48l-2.9-1.18a.87.87,0,0,1-.48-1.13l1.34-3.3a.87.87,0,0,1,1.13-.48"/>
              <path class="cls-9" d="M228.56,47.11l2.9,1.18a.87.87,0,0,1,.48,1.13l-1.34,3.3a.87.87,0,0,1-1.13.48L226.56,52a.87.87,0,0,1-.48-1.13l1.34-3.3a.87.87,0,0,1,1.13-.48"/>
              <path class="cls-9" d="M222.71,44.73l2.9,1.18a.87.87,0,0,1,.48,1.13l-1.34,3.3a.87.87,0,0,1-1.13.48l-2.9-1.18a.87.87,0,0,1-.48-1.13l1.34-3.3a.87.87,0,0,1,1.13-.48"/>
              <path class="cls-9" d="M216.86,42.35l2.9,1.18a.87.87,0,0,1,.48,1.13L218.9,48a.87.87,0,0,1-1.13.48l-2.9-1.18a.87.87,0,0,1-.48-1.13l1.34-3.3a.87.87,0,0,1,1.13-.48"/>
              <path class="cls-9" d="M211,40l2.9,1.18a.87.87,0,0,1,.48,1.13L213,45.59a.87.87,0,0,1-1.13.48L209,44.89a.87.87,0,0,1-.48-1.13l1.34-3.3A.87.87,0,0,1,211,40"/>
              <path class="cls-9" d="M205.17,37.6l2.9,1.18a.87.87,0,0,1,.48,1.13l-1.34,3.3a.87.87,0,0,1-1.13.48l-2.9-1.18a.87.87,0,0,1-.48-1.13l1.34-3.3a.87.87,0,0,1,1.13-.48"/>
              <path class="cls-9" d="M199.32,35.22l2.9,1.18a.87.87,0,0,1,.48,1.13l-1.34,3.3a.87.87,0,0,1-1.13.48l-2.9-1.18a.87.87,0,0,1-.48-1.13l1.34-3.3a.87.87,0,0,1,1.13-.48"/>
              <path class="cls-9" d="M193.47,32.85l2.9,1.18a.87.87,0,0,1,.48,1.13l-1.34,3.3a.87.87,0,0,1-1.13.48l-2.9-1.18a.87.87,0,0,1-.48-1.13l1.34-3.3a.87.87,0,0,1,1.13-.48"/>
              <path class="cls-9" d="M187.62,30.47l2.9,1.18a.87.87,0,0,1,.48,1.13l-1.34,3.3a.87.87,0,0,1-1.13.48l-2.9-1.18a.87.87,0,0,1-.48-1.13l1.34-3.3a.87.87,0,0,1,1.13-.48"/>
              <path class="cls-9" d="M181.77,28.09l2.9,1.18a.87.87,0,0,1,.48,1.13l-1.34,3.3a.87.87,0,0,1-1.13.48L179.77,33a.87.87,0,0,1-.48-1.13l1.34-3.3a.87.87,0,0,1,1.13-.48"/>
              <path class="cls-9" d="M175.92,25.71l2.9,1.18A.87.87,0,0,1,179.3,28L178,31.33a.87.87,0,0,1-1.13.48l-2.9-1.18a.87.87,0,0,1-.48-1.13l1.34-3.3a.87.87,0,0,1,1.13-.48"/>
              <path class="cls-9" d="M170.07,23.34l2.9,1.18a.87.87,0,0,1,.48,1.13L172.11,29a.87.87,0,0,1-1.13.48l-2.9-1.18a.87.87,0,0,1-.48-1.13l1.34-3.3a.87.87,0,0,1,1.13-.48"/>
              <path class="cls-9" d="M164,20.88l3,1.2a.89.89,0,0,1,.49,1.15l-1.33,3.27A.89.89,0,0,1,165,27l-3-1.2a.89.89,0,0,1-.49-1.15l1.33-3.27a.89.89,0,0,1,1.15-.49"/>
              <path class="cls-9" d="M161.75,26.67l6.07,2.47a1,1,0,0,1,.52,1.23l-1.28,3.16a1,1,0,0,1-1.24.52l-6.07-2.47a1,1,0,0,1-.52-1.24l1.28-3.16a1,1,0,0,1,1.23-.52"/>
              <path class="cls-9" d="M159.41,32.44l7.22,2.94a1,1,0,0,1,.52,1.23l-1.28,3.16a1,1,0,0,1-1.23.52l-7.22-2.94a1,1,0,0,1-.52-1.23L158.17,33a1,1,0,0,1,1.23-.52"/>
              <path class="cls-9" d="M157.06,38.2l10.36,4.21a1,1,0,0,1,.52,1.23l-1.28,3.16a1,1,0,0,1-1.23.52l-10.36-4.21a1,1,0,0,1-.52-1.23l1.28-3.16a1,1,0,0,1,1.23-.52"/>
              <path class="cls-9" d="M154.72,44l4.3,1.75a1,1,0,0,1,.52,1.24l-1.28,3.16a1,1,0,0,1-1.23.52l-4.3-1.75a1,1,0,0,1-.52-1.23l1.28-3.16a1,1,0,0,1,1.24-.52"/>
              <path class="cls-9" d="M170.29,30.14l3.1,1.26a.93.93,0,0,1,.51,1.21l-1.3,3.19a.93.93,0,0,1-1.21.51l-3.1-1.26a.93.93,0,0,1-.51-1.21l1.3-3.19a.93.93,0,0,1,1.21-.51"/>
              <path class="cls-9" d="M176.25,32.57l3.1,1.26a.93.93,0,0,1,.51,1.21l-1.3,3.19a.93.93,0,0,1-1.21.51l-3.1-1.26a.93.93,0,0,1-.51-1.21l1.3-3.19a.93.93,0,0,1,1.21-.51"/>
              <path class="cls-9" d="M182.21,35l3.1,1.26a.93.93,0,0,1,.51,1.21l-1.3,3.19a.93.93,0,0,1-1.21.51l-3.1-1.26a.93.93,0,0,1-.51-1.21L181,35.5a.93.93,0,0,1,1.21-.51"/>
              <path class="cls-9" d="M188.17,37.41l3.1,1.26a.93.93,0,0,1,.51,1.21l-1.3,3.19a.93.93,0,0,1-1.21.51l-3.1-1.26a.93.93,0,0,1-.51-1.21l1.3-3.19a.93.93,0,0,1,1.21-.51"/>
              <path class="cls-9" d="M194.13,39.83l3.1,1.26a.93.93,0,0,1,.51,1.21l-1.3,3.19a.93.93,0,0,1-1.21.51l-3.1-1.26a.93.93,0,0,1-.51-1.21l1.3-3.19a.93.93,0,0,1,1.21-.51"/>
              <path class="cls-9" d="M200.09,42.25l3.1,1.26a.93.93,0,0,1,.51,1.21l-1.3,3.19a.93.93,0,0,1-1.21.51l-3.1-1.26a.93.93,0,0,1-.51-1.21l1.3-3.19a.93.93,0,0,1,1.21-.51"/>
              <path class="cls-9" d="M206,44.67l3.1,1.26a.93.93,0,0,1,.51,1.21l-1.3,3.19a.93.93,0,0,1-1.21.51L204,49.59a.93.93,0,0,1-.51-1.21l1.3-3.19a.93.93,0,0,1,1.21-.51"/>
              <path class="cls-9" d="M212,47.09l3.1,1.26a.93.93,0,0,1,.51,1.21l-1.3,3.19a.93.93,0,0,1-1.21.51L210,52a.93.93,0,0,1-.51-1.21l1.3-3.19a.93.93,0,0,1,1.21-.51"/>
              <path class="cls-9" d="M218,49.52l3.1,1.26a.93.93,0,0,1,.51,1.21l-1.3,3.19a.93.93,0,0,1-1.21.51L216,54.43a.93.93,0,0,1-.51-1.21l1.3-3.19a.93.93,0,0,1,1.21-.51"/>
              <path class="cls-9" d="M223.92,51.94,227,53.2a.93.93,0,0,1,.51,1.21l-1.3,3.19a.93.93,0,0,1-1.21.51l-3.1-1.26a.93.93,0,0,1-.51-1.21l1.3-3.19a.93.93,0,0,1,1.21-.51"/>
              <path class="cls-9" d="M229.88,54.36l3.1,1.26a.93.93,0,0,1,.51,1.21L232.2,60a.93.93,0,0,1-1.21.51l-3.1-1.26a.93.93,0,0,1-.51-1.21l1.3-3.19a.93.93,0,0,1,1.21-.51"/>
              <path class="cls-9" d="M235.84,56.78l3.1,1.26a.93.93,0,0,1,.51,1.21l-1.3,3.19a.93.93,0,0,1-1.21.51l-3.1-1.26a.93.93,0,0,1-.51-1.21l1.3-3.19a.93.93,0,0,1,1.21-.51"/>
              <path class="cls-9" d="M169.61,36.58l3.1,1.26a.93.93,0,0,1,.51,1.21l-1.3,3.19a.93.93,0,0,1-1.21.51l-3.1-1.26a.93.93,0,0,1-.51-1.21l1.3-3.19a.93.93,0,0,1,1.21-.51"/>
              <path class="cls-9" d="M175.57,39l3.1,1.26a.93.93,0,0,1,.51,1.21l-1.3,3.19a.93.93,0,0,1-1.21.51l-3.1-1.26a.93.93,0,0,1-.51-1.21l1.3-3.19a.93.93,0,0,1,1.21-.51"/>
              <path class="cls-9" d="M181.53,41.42l3.1,1.26a.93.93,0,0,1,.51,1.21l-1.3,3.19a.93.93,0,0,1-1.21.51l-3.1-1.26a.93.93,0,0,1-.51-1.21l1.3-3.19a.93.93,0,0,1,1.21-.51"/>
              <path class="cls-9" d="M187.48,43.85l3.1,1.26a.93.93,0,0,1,.51,1.21l-1.3,3.19a.93.93,0,0,1-1.21.51l-3.1-1.26a.93.93,0,0,1-.51-1.21l1.3-3.19a.93.93,0,0,1,1.21-.51"/>
              <path class="cls-9" d="M193.44,46.27l3.1,1.26a.93.93,0,0,1,.51,1.21l-1.3,3.19a.93.93,0,0,1-1.21.51l-3.1-1.26a.93.93,0,0,1-.51-1.21l1.3-3.19a.93.93,0,0,1,1.21-.51"/>
              <path class="cls-9" d="M199.4,48.69l3.1,1.26a.93.93,0,0,1,.51,1.21l-1.3,3.19a.93.93,0,0,1-1.21.51l-3.1-1.26a.93.93,0,0,1-.51-1.21l1.3-3.19a.93.93,0,0,1,1.21-.51"/>
              <path class="cls-9" d="M205.36,51.11l3.1,1.26a.93.93,0,0,1,.51,1.21l-1.3,3.19a.93.93,0,0,1-1.21.51L203.36,56a.93.93,0,0,1-.51-1.21l1.3-3.19a.93.93,0,0,1,1.21-.51"/>
              <path class="cls-9" d="M211.32,53.53l3.1,1.26a.93.93,0,0,1,.51,1.21l-1.3,3.19a.93.93,0,0,1-1.21.51l-3.1-1.26a.93.93,0,0,1-.51-1.21l1.3-3.19a.93.93,0,0,1,1.21-.51"/>
              <path class="cls-9" d="M217.28,56l3.1,1.26a.93.93,0,0,1,.51,1.21l-1.3,3.19a.93.93,0,0,1-1.21.51l-3.1-1.26a.93.93,0,0,1-.51-1.21l1.3-3.19a.93.93,0,0,1,1.21-.51"/>
              <path class="cls-9" d="M223.24,58.38l3.1,1.26a.93.93,0,0,1,.51,1.21L225.56,64a.93.93,0,0,1-1.21.51l-3.1-1.26a.93.93,0,0,1-.51-1.21l1.3-3.19a.93.93,0,0,1,1.21-.51"/>
              <path class="cls-9" d="M229.19,60.8l3.1,1.26a.93.93,0,0,1,.51,1.21l-1.3,3.19a.93.93,0,0,1-1.22.51l-3.1-1.26a.93.93,0,0,1-.51-1.21l1.3-3.19a.93.93,0,0,1,1.21-.51"/>
              <path class="cls-9" d="M170.39,43.61l3.1,1.26a.93.93,0,0,1,.51,1.21l-1.3,3.19a.93.93,0,0,1-1.21.51l-3.1-1.26a.93.93,0,0,1-.51-1.21l1.3-3.19a.93.93,0,0,1,1.21-.51"/>
              <path class="cls-9" d="M176.35,46l3.1,1.26a.93.93,0,0,1,.51,1.21l-1.3,3.19a.93.93,0,0,1-1.21.51l-3.1-1.26a.93.93,0,0,1-.51-1.21l1.3-3.19a.93.93,0,0,1,1.21-.51"/>
              <path class="cls-9" d="M182.3,48.46l3.1,1.26a.93.93,0,0,1,.51,1.21l-1.3,3.19a.93.93,0,0,1-1.21.51l-3.1-1.26a.93.93,0,0,1-.51-1.21l1.3-3.19a.93.93,0,0,1,1.21-.51"/>
              <path class="cls-9" d="M188.26,50.88l3.1,1.26a.93.93,0,0,1,.51,1.21l-1.3,3.19a.93.93,0,0,1-1.21.51l-3.1-1.26a.93.93,0,0,1-.51-1.21l1.3-3.19a.93.93,0,0,1,1.21-.51"/>
              <path class="cls-9" d="M194.22,53.3l3.1,1.26a.93.93,0,0,1,.51,1.21L196.54,59a.93.93,0,0,1-1.21.51l-3.1-1.26a.93.93,0,0,1-.51-1.21l1.3-3.19a.93.93,0,0,1,1.21-.51"/>
              <path class="cls-9" d="M200.18,55.72l3.1,1.26a.93.93,0,0,1,.51,1.21l-1.3,3.19a.93.93,0,0,1-1.21.51l-3.1-1.26a.93.93,0,0,1-.51-1.21l1.3-3.19a.93.93,0,0,1,1.21-.51"/>
              <path class="cls-9" d="M206.14,58.14l3.1,1.26a.93.93,0,0,1,.51,1.21l-1.3,3.19a.93.93,0,0,1-1.21.51l-3.1-1.26a.93.93,0,0,1-.51-1.21l1.3-3.19a.93.93,0,0,1,1.21-.51"/>
              <path class="cls-9" d="M212.1,60.56l3.1,1.26a.93.93,0,0,1,.51,1.21l-1.3,3.19a.93.93,0,0,1-1.21.51l-3.1-1.26a.93.93,0,0,1-.51-1.21l1.3-3.19a.93.93,0,0,1,1.21-.51"/>
              <path class="cls-9" d="M218.06,63l3.1,1.26a.93.93,0,0,1,.51,1.21l-1.3,3.19a.93.93,0,0,1-1.21.51l-3.1-1.26a.93.93,0,0,1-.51-1.21l1.3-3.19a.93.93,0,0,1,1.21-.51"/>
              <path class="cls-9" d="M224,65.41l3.1,1.26a.93.93,0,0,1,.51,1.21l-1.3,3.19a.93.93,0,0,1-1.21.51L222,70.32a.93.93,0,0,1-.51-1.21l1.3-3.19a.93.93,0,0,1,1.21-.51"/>
              <path class="cls-9" d="M230,67.83l5.61,2.28a1,1,0,0,1,.52,1.23l-1.28,3.16a1,1,0,0,1-1.23.52L228,72.75a1,1,0,0,1-.52-1.23l1.28-3.16a1,1,0,0,1,1.24-.52"/>
              <path class="cls-9" d="M162,46.91l3.1,1.26a.93.93,0,0,1,.51,1.21l-1.3,3.19a.93.93,0,0,1-1.21.51L160,51.83a.93.93,0,0,1-.51-1.21l1.3-3.19a.93.93,0,0,1,1.21-.51"/>
              <path class="cls-9" d="M167.95,49.34l3.1,1.26a.93.93,0,0,1,.51,1.21L170.27,55a.93.93,0,0,1-1.21.51L166,54.25a.93.93,0,0,1-.51-1.21l1.3-3.19a.93.93,0,0,1,1.21-.51"/>
              <path class="cls-9" d="M173.91,51.76,177,53a.93.93,0,0,1,.51,1.21l-1.3,3.19a.93.93,0,0,1-1.21.51l-3.1-1.26a.93.93,0,0,1-.51-1.21l1.3-3.19a.93.93,0,0,1,1.21-.51"/>
              <path class="cls-9" d="M179.86,54.18,206.75,65.1a.93.93,0,0,1,.51,1.21L206,69.51a.93.93,0,0,1-1.21.51L177.87,59.09a.93.93,0,0,1-.51-1.21l1.3-3.19a.93.93,0,0,1,1.21-.51"/>
              <path class="cls-9" d="M209.66,66.29l3.1,1.26a.94.94,0,0,1,.51,1.21L212,71.95a.93.93,0,0,1-1.21.51l-3.1-1.26a.93.93,0,0,1-.51-1.21l1.3-3.19a.93.93,0,0,1,1.21-.51"/>
              <path class="cls-9" d="M215.62,68.71,218.72,70a.93.93,0,0,1,.51,1.21l-1.3,3.19a.93.93,0,0,1-1.21.51l-3.11-1.26a.93.93,0,0,1-.51-1.21l1.3-3.19a.93.93,0,0,1,1.21-.51"/>
              <path class="cls-9" d="M221.59,71.14l5.61,2.28a1,1,0,0,1,.52,1.23l-1.28,3.16a1,1,0,0,1-1.23.52L219.59,76a1,1,0,0,1-.52-1.23l1.28-3.16a1,1,0,0,1,1.23-.52"/>
              <path class="cls-9" d="M230.36,74.7l3,1.2a.89.89,0,0,1,.49,1.15l-1.33,3.27a.89.89,0,0,1-1.15.49l-3-1.2a.89.89,0,0,1-.49-1.15l1.33-3.27a.89.89,0,0,1,1.15-.49"/>
              <path class="cls-10" d="M181.89,65.61l27.38,11.12a.82.82,0,0,1,.45,1.07L204.36,91a.82.82,0,0,1-1.07.45L175.92,80.29a.82.82,0,0,1-.45-1.07l5.35-13.16a.82.82,0,0,1,1.07-.45"/>
              <path class="cls-10" d="M174.92,81l13.61,5.53a.17.17,0,0,1,.09.22l-1.11,2.73a.17.17,0,0,1-.22.09l-13.61-5.53a.17.17,0,0,1-.09-.22l1.11-2.73a.17.17,0,0,1,.22-.09"/>
              <path class="cls-10" d="M189.88,87.11l13.61,5.53a.17.17,0,0,1,.09.22l-1.11,2.73a.17.17,0,0,1-.22.09l-13.61-5.53a.17.17,0,0,1-.09-.22l1.11-2.73a.17.17,0,0,1,.22-.09"/>
            </g>
          </g>
          <g>
            <path class="cls-9" d="M170.1-33.93,287.77,13.88c2.83,1.15,3.07,3,1,4.67L266.68,44.8,163.57,2.89l2.77-32c-.5-4.41.64-6.13,3.76-4.86"/>
            <polygon class="cls-11" points="282.06 17.93 265.06 39.22 168.71 0.06 171.31 -27.08 282.06 17.93"/>
            <path class="cls-10" d="M172,3.9l4.1,1.67a.56.56,0,0,1,.25.74l-2.28,5.62a.56.56,0,0,1-.7.36l-4.1-1.67a.56.56,0,0,1-.25-.74l2.28-5.62a.56.56,0,0,1,.7-.36"/>
            <path class="cls-10" d="M256.1,38.07l4.1,1.67a.56.56,0,0,1,.25.74l-2.28,5.62a.56.56,0,0,1-.7.36l-4.1-1.67a.56.56,0,0,1-.25-.74l2.28-5.62a.56.56,0,0,1,.7-.36"/>
          </g>
        </g>
      </g>
      <g>
        <path class="cls-12" d="M93.68,25.69,78.94,123.52l74.41,11.17L168.09,36.9Zm22.21,82.59-27.18-4.09.51-3.38,27.18,4.09Zm1-6.61L89.7,97.58l.51-3.38,27.18,4.09Zm1-6.61L90.7,91l.51-3.38,27.18,4.1Zm1-6.61L91.7,84.35,92.2,81l27.19,4.1ZM92.8,77l2.92-19.34,27.18,4.1L120,81.1Zm56.91,36.37-27.18-4.1L125.44,90,152.62,94Zm3.52-23.33L126,86l.51-3.38,27.19,4.1Zm1-6.61L127,79.34l.51-3.38,27.18,4.1Zm1-6.62L128,72.73l.51-3.38,27.18,4.09Zm1-6.58L129,66.15l.51-3.38,27.18,4.09Zm1-6.85-61-9.19.17-1.11,61,9.19Zm.34-2.26-61-9.19.17-1.12,61,9.19ZM97.39,46.56,99.27,34.1l51.36,7.74,9.64,1.45-1.88,12.46Z"/>
        <rect class="cls-12" x="100.84" y="90.81" width="3.42" height="27.49" transform="translate(-16.1 190.4) rotate(-81.44)"/>
        <rect class="cls-12" x="101.83" y="84.2" width="3.42" height="27.49" transform="translate(-8.72 185.75) rotate(-81.44)"/>
        <rect class="cls-12" x="102.83" y="77.58" width="3.42" height="27.49" transform="translate(-1.36 181.07) rotate(-81.42)"/>
        <polygon class="cls-12" points="92.2 80.97 119.39 85.08 118.88 88.45 91.7 84.36 92.2 80.97"/>
        <polygon class="cls-12" points="122.9 61.77 119.98 81.11 92.8 77.02 95.72 57.67 122.9 61.77"/>
        <polygon class="cls-12" points="125.44 89.95 152.62 94.05 149.71 113.39 122.53 109.28 125.44 89.95"/>
        <rect class="cls-12" x="138.18" y="72.57" width="3.42" height="27.5" transform="translate(33.68 211.77) rotate(-81.43)"/>
        <rect class="cls-12" x="139.17" y="65.96" width="3.42" height="27.49" transform="translate(41.05 207.12) rotate(-81.42)"/>
        <rect class="cls-12" x="140.17" y="59.35" width="3.42" height="27.49" transform="translate(48.49 202.51) rotate(-81.44)"/>
        <rect class="cls-12" x="141.16" y="52.77" width="3.42" height="27.49" transform="translate(55.84 197.89) rotate(-81.44)"/>
        <polygon class="cls-12" points="96.41 53.09 157.41 62.28 157.24 63.4 96.24 54.2 96.41 53.09"/>
        <polygon class="cls-12" points="96.75 50.83 157.75 60.02 157.58 61.13 96.58 51.95 96.75 50.83"/>
        <polygon class="cls-12" points="160.27 43.3 158.39 55.76 97.39 46.56 99.27 34.1 150.63 41.84 160.27 43.3"/>
        <g>
          <path class="cls-13" d="M112.53,36.38l2.67.4-1.8,12-2.67-.4L106.16,40,105,47.48l-2.67-.4,1.8-12,2.5.38,4.72,8.58Z"/>
          <path class="cls-13" d="M126.76,38.52l-.36,2.38L120.46,40l-.37,2.47,5.35.81-.34,2.26-5.35-.81-.37,2.47,6.14.93-.35,2.35-8.82-1.33,1.8-12,8.61,1.3Z"/>
          <path class="cls-13" d="M132,46.34l3.15-6.56,2.79.42L139,47.4l3.42-6.52,2.88.43-6,11.33-2-.3L136,43.64l-3.84,7.93-2-.3-2.37-12.59,2.88.43Z"/>
          <path class="cls-13" d="M149.08,44.32a1,1,0,0,0-.51.77,1,1,0,0,0,.35.89A9.23,9.23,0,0,0,151,47a6.24,6.24,0,0,1,2.45,1.66,3.18,3.18,0,0,1,.57,2.58,3.34,3.34,0,0,1-1.6,2.43,4.78,4.78,0,0,1-3.32.52,7.44,7.44,0,0,1-4.79-2.89l1.88-1.7a5.79,5.79,0,0,0,3.33,2.24,1.86,1.86,0,0,0,1.19-.15,1,1,0,0,0,.54-.79,1,1,0,0,0-.31-.92,6.5,6.5,0,0,0-1.67-.91,7.76,7.76,0,0,1-2.86-1.75,3.57,3.57,0,0,1,1-5.07,5,5,0,0,1,3.19-.45,7.6,7.6,0,0,1,2.32.77,5.89,5.89,0,0,1,1.91,1.49l-1.64,1.74a5.26,5.26,0,0,0-3-1.66A1.53,1.53,0,0,0,149.08,44.32Z"/>
        </g>
        <g>
          <polygon class="cls-14" points="157.41 62.28 157.24 63.4 96.24 54.2 96.41 53.09 157.41 62.28"/>
          <polygon class="cls-14" points="157.75 60.02 157.58 61.13 96.58 51.95 96.75 50.83 157.75 60.02"/>
        </g>
        <polygon class="cls-15" points="122.9 61.77 119.98 81.11 92.8 77.02 95.72 57.67 122.9 61.77"/>
        <g>
          <polygon class="cls-14" points="119.39 85.08 118.88 88.45 91.7 84.36 92.2 80.97 119.39 85.08"/>
          <rect class="cls-14" x="102.83" y="77.58" width="3.42" height="27.49" transform="translate(-1.36 181.07) rotate(-81.42)"/>
          <rect class="cls-14" x="101.83" y="84.2" width="3.42" height="27.49" transform="translate(-8.75 185.71) rotate(-81.42)"/>
          <rect class="cls-14" x="100.84" y="90.81" width="3.42" height="27.49" transform="translate(-16.13 190.35) rotate(-81.42)"/>
        </g>
        <polygon class="cls-15" points="152.62 94.05 149.71 113.39 122.53 109.28 125.44 89.95 152.62 94.05"/>
        <g>
          <rect class="cls-14" x="138.18" y="72.57" width="3.42" height="27.5" transform="translate(33.67 211.76) rotate(-81.42)"/>
          <rect class="cls-14" x="139.17" y="65.96" width="3.42" height="27.49" transform="translate(41.05 207.12) rotate(-81.42)"/>
          <rect class="cls-14" x="140.17" y="59.35" width="3.42" height="27.49" transform="translate(48.44 202.48) rotate(-81.42)"/>
          <rect class="cls-14" x="141.16" y="52.77" width="3.42" height="27.49" transform="translate(55.79 197.86) rotate(-81.42)"/>
        </g>
        <polygon class="cls-16" points="160.27 43.3 158.39 55.76 97.39 46.56 99.27 34.1 150.63 41.84 160.27 43.3"/>
      </g>
      <g>
        <g>
          <polygon class="cls-12" points="178.45 137.93 178.66 122 194.56 122.21 195.66 39.25 120.42 38.25 119.11 137.14 178.45 137.93"/>
          <polygon class="cls-14" points="178.45 137.93 194.56 122.21 178.66 122 178.45 137.93"/>
          <g>
            <path class="cls-13" d="M175.32,46.74l-2.7,0-.16,12.09,2.7,0,5.87-7.5-.1,7.58,2.7,0,.16-12.09-2.53,0-6,7.71Z"/>
            <path class="cls-13" d="M160.94,46.55l0,2.41,6,.08,0,2.5-5.41-.07,0,2.29,5.41.07,0,2.5-6.21-.08,0,2.38,8.91.12.16-12.09-8.71-.12Z"/>
            <path class="cls-13" d="M154.49,53.41l-2-7-2.82,0-2.23,6.92-2.31-7-2.91,0,4.06,12.15,2,0L151,50.1l2.5,8.44,2,0,4.38-12-2.91,0Z"/>
            <path class="cls-13" d="M138,48.65a1,1,0,0,1,.38.84,1,1,0,0,1-.49.83,9.23,9.23,0,0,1-2.21.71A6.24,6.24,0,0,0,133,52.27a3.18,3.18,0,0,0-1,2.45,3.34,3.34,0,0,0,1.18,2.66,4.78,4.78,0,0,0,3.2,1.05,7.44,7.44,0,0,0,5.2-2.07l-1.58-2a5.79,5.79,0,0,1-3.65,1.68,1.86,1.86,0,0,1-1.15-.34,1,1,0,0,1-.4-.87,1,1,0,0,1,.46-.86,6.5,6.5,0,0,1,1.79-.63,7.76,7.76,0,0,0,3.11-1.27,3.57,3.57,0,0,0-.2-5.17,5,5,0,0,0-3.08-1,7.6,7.6,0,0,0-2.41.38,5.89,5.89,0,0,0-2.13,1.16l1.34,2a5.26,5.26,0,0,1,3.25-1.15A1.53,1.53,0,0,1,138,48.65Z"/>
          </g>
          <g>
            <rect class="cls-14" x="157.11" y="35.15" width="1.13" height="61.69" transform="translate(89.59 222.79) rotate(-89.24)"/>
            <rect class="cls-14" x="157.14" y="32.86" width="1.13" height="61.69" transform="translate(91.91 220.56) rotate(-89.24)"/>
          </g>
          <rect class="cls-15" x="164.82" y="66.33" width="19.55" height="27.49" transform="translate(92.21 253.59) rotate(-89.24)"/>
          <g>
            <rect class="cls-14" x="172.68" y="81.82" width="3.42" height="27.49" transform="translate(76.52 268.68) rotate(-89.24)"/>
            <rect class="cls-14" x="172.59" y="88.51" width="3.42" height="27.49" transform="translate(69.74 275.19) rotate(-89.24)"/>
            <rect class="cls-14" x="172.5" y="95.2" width="3.42" height="27.49" transform="translate(62.97 281.69) rotate(-89.24)"/>
            <rect class="cls-14" x="172.42" y="101.88" width="3.42" height="27.49" transform="translate(56.2 288.2) rotate(-89.24)"/>
          </g>
          <rect class="cls-15" x="130.25" y="93.36" width="19.55" height="27.49" transform="translate(31.08 245.7) rotate(-89.24)"/>
          <g>
            <rect class="cls-14" x="138.53" y="77.84" width="3.42" height="27.49" transform="matrix(0.01, -1, 1, 0.01, 46.8, 230.59)"/>
            <rect class="cls-14" x="138.62" y="71.15" width="3.42" height="27.49" transform="translate(53.58 224.08) rotate(-89.24)"/>
            <rect class="cls-14" x="138.7" y="64.46" width="3.42" height="27.49" transform="translate(60.35 217.57) rotate(-89.24)"/>
            <rect class="cls-14" x="138.79" y="57.81" width="3.42" height="27.49" transform="translate(67.09 211.09) rotate(-89.24)"/>
          </g>
          <rect class="cls-13" x="127.01" y="46.24" width="61.69" height="12.6" transform="translate(315 107.17) rotate(-179.24)"/>
        </g>
        <path class="cls-17" d="M148.16,63.72c3.74,2.31,7.83,4.84,9.93,8.87,2.35,4.51,1.81,10.07-.62,14.42-4.39,7.88-15.34,13.65-24.27,10.82-11.18-3.55-10.8-15.71-3.8-23.17,5.92-6.31,14.45-8.73,22.67-10.36.76-.15.44-1.31-.32-1.16-10.59,2.1-22.4,6-27.3,16.63-3.94,8.51.62,17.63,9.85,19.58,9.65,2,20.86-4.3,24.91-13.12,4.81-10.5-1.9-18.28-10.45-23.54-.66-.41-1.26.63-.61,1Z"/>
      </g>
      <g>
        <path class="cls-18" d="M85.62,113.72,92.56,115l-3.77-6L45.09,79.63a1.56,1.56,0,0,0-2.15.42L41.5,82.2a1.56,1.56,0,0,0,.42,2.15Z"/>
        <path class="cls-19" d="M85.62,113.72,92.56,115,87,111.21,42.22,81.13,41.5,82.2a1.56,1.56,0,0,0,.42,2.15Z"/>
        <path class="cls-20" d="M85.62,113.72,92.56,115l-3.77-6L47,80.91a16.31,16.31,0,0,0-3.17,4.72Z"/>
        <path class="cls-21" d="M85.62,113.72,92.56,115,87,111.21,45.2,83.13a15.71,15.71,0,0,0-1.38,2.5Z"/>
        <path class="cls-22" d="M85.62,113.72,92.56,115l-3.77-6L48.5,81.92a15.25,15.25,0,0,0-3.17,4.72Z"/>
        <path class="cls-23" d="M85.62,113.72,92.56,115,87,111.21,46.69,84.13a14.61,14.61,0,0,0-1.36,2.51Z"/>
        <path class="cls-24" d="M85.62,113.72,92.56,115l-3.77-6a15.83,15.83,0,0,0-3.17,4.72Z"/>
        <path class="cls-25" d="M85.62,113.72,92.56,115,87,111.21A15.63,15.63,0,0,0,85.62,113.72Z"/>
        <path class="cls-26" d="M90.27,114.54l2.29.41-1.25-2a5.23,5.23,0,0,0-1,1.56Z"/>
      </g>
      <g>
        <g>
          <circle class="cls-27" cx="63.37" cy="26.25" r="26.55" transform="translate(0 52.5) rotate(-45)"/>
          <circle class="cls-28" cx="63.37" cy="26.25" r="16.92" transform="translate(0 52.5) rotate(-45)"/>
          <circle class="cls-29" cx="63.37" cy="26.25" r="14.36" transform="translate(0 52.5) rotate(-45)"/>
          <path class="cls-30" d="M71.39,15.95A14.36,14.36,0,0,1,61.33,40.47a14.36,14.36,0,1,0,1.93-28.58A14.3,14.3,0,0,1,71.39,15.95Z"/>
          <path class="cls-28" d="M44.93,44.68a2.8,2.8,0,0,1,0-4l5.7-5.7,4,4-5.7,5.7a2.8,2.8,0,0,1-4,0Z"/>
        </g>
        <circle class="cls-30" cx="70.95" cy="32.91" r="1.38" transform="translate(-2.49 59.81) rotate(-45)"/>
        <circle class="cls-30" cx="72.8" cy="30.83" r="0.58" transform="translate(-0.48 60.51) rotate(-45)"/>
        <circle class="cls-30" cx="72.59" cy="28.05" r="1.04" transform="translate(1.43 59.54) rotate(-45)"/>
        <circle class="cls-30" cx="73.9" cy="29.84" r="0.5" transform="translate(0.55 61) rotate(-45)"/>
        <circle class="cls-30" cx="73.75" cy="26.02" r="0.84" transform="translate(3.2 59.77) rotate(-45)"/>
      </g>
    </g>
  </g>
  <g class="cls-31">
    <g>
      <g class="cls-31">
        <path class="cls-32" d="M0,74.5c15,0,15,1,30,1s15-1,30-1,15,1,30,1,15-1,30-1,15,1,30,1,15-1,30-1,15,1,30,1,15-1,30-1,15,1,30,1,15-1,30-1"/>
      </g>
      <path class="cls-32" d="M0,74.5c15,0,15,1,30,1s15-1,30-1,15,1,30,1,15-1,30-1,15,1,30,1,15-1,30-1,15,1,30,1,15-1,30-1,15,1,30,1,15-1,30-1"/>
    </g>
  </g>
</svg>
