<svg xmlns="http://www.w3.org/2000/svg" xmlns:xlink="http://www.w3.org/1999/xlink" viewBox="0 0 300 150">
  <defs>
    <style>
      .cls-1 {
        fill: none;
      }

      .cls-2 {
        isolation: isolate;
      }

      .cls-3 {
        clip-path: url(#clip-path);
      }

      .cls-4 {
        fill: #b39a87;
      }

      .cls-5 {
        clip-path: url(#clip-path-2);
      }

      .cls-6 {
        fill: #958171;
      }

      .cls-7 {
        fill: #505050;
      }

      .cls-8 {
        fill: #010101;
      }

      .cls-9 {
        fill: url(#radial-gradient);
      }

      .cls-10 {
        fill: url(#linear-gradient);
      }

      .cls-11 {
        fill: url(#radial-gradient-2);
      }

      .cls-12 {
        fill: #2e2f2f;
      }

      .cls-13 {
        fill: #405569;
      }

      .cls-14, .cls-15, .cls-17 {
        fill: #fff;
      }

      .cls-14 {
        opacity: 0.2;
      }

      .cls-14, .cls-17 {
        mix-blend-mode: overlay;
      }

      .cls-16 {
        fill: #e57c25;
      }

      .cls-17 {
        opacity: 0.29;
      }

      .cls-18 {
        fill: #49c1ba;
      }

      .cls-19 {
        fill: #e0e1e3;
      }

      .cls-20 {
        fill: #edf0f1;
      }

      .cls-21 {
        fill: #fbb426;
      }

      .cls-22 {
        fill: #137886;
      }

      .cls-23 {
        fill: #d1d2d4;
      }
    </style>
    <clipPath id="clip-path">
      <rect class="cls-1" width="300" height="150"/>
    </clipPath>
    <clipPath id="clip-path-2">
      <rect class="cls-1" x="-3.58" y="-2" width="303.58" height="153.81"/>
    </clipPath>
    <radialGradient id="radial-gradient" cx="149.45" cy="-8.89" r="1.16" gradientTransform="translate(211.96 -137.82) rotate(90)" gradientUnits="userSpaceOnUse">
      <stop offset="0.07" stop-color="#464b51"/>
      <stop offset="0.33" stop-color="#2a2d31"/>
      <stop offset="0.58" stop-color="#161719"/>
      <stop offset="0.73" stop-color="#0e0f10"/>
      <stop offset="1" stop-color="#010101"/>
    </radialGradient>
    <linearGradient id="linear-gradient" x1="148.99" y1="-8.89" x2="149.91" y2="-8.89" gradientTransform="translate(72.93 -11.51) rotate(12.29)" gradientUnits="userSpaceOnUse">
      <stop offset="0" stop-color="#34383b"/>
      <stop offset="0.04" stop-color="#393e41"/>
      <stop offset="0.08" stop-color="#484e53"/>
      <stop offset="0.14" stop-color="#61686f"/>
      <stop offset="0.2" stop-color="#838d97"/>
      <stop offset="0.25" stop-color="#a6b2bf"/>
      <stop offset="0.36" stop-color="#6b737b"/>
      <stop offset="0.47" stop-color="#34383b"/>
      <stop offset="0.6" stop-color="#545b60"/>
      <stop offset="0.77" stop-color="#778189"/>
      <stop offset="0.85" stop-color="#859099"/>
      <stop offset="0.87" stop-color="#6b737a"/>
      <stop offset="0.89" stop-color="#4d5358"/>
      <stop offset="0.92" stop-color="#363a3e"/>
      <stop offset="0.95" stop-color="#26282b"/>
      <stop offset="0.97" stop-color="#1c1d20"/>
      <stop offset="1" stop-color="#191a1c"/>
    </linearGradient>
    <radialGradient id="radial-gradient-2" cx="149.45" cy="-8.89" r="0.62" gradientTransform="translate(211.96 -137.82) rotate(90)" gradientUnits="userSpaceOnUse">
      <stop offset="0.07" stop-color="#98c2cf"/>
      <stop offset="0.24" stop-color="#69858e"/>
      <stop offset="0.41" stop-color="#425258"/>
      <stop offset="0.55" stop-color="#262e31"/>
      <stop offset="0.66" stop-color="#141719"/>
      <stop offset="0.73" stop-color="#0e0f10"/>
      <stop offset="1" stop-color="#010101"/>
    </radialGradient>
  </defs>
  <title>Language Learning</title>
  <g class="cls-2">
    <g id="Layer_1" data-name="Layer 1">
      <g class="cls-3">
        <g>
          <rect class="cls-4" width="300" height="150"/>
          <g class="cls-5">
            <g>
              <path class="cls-6" d="M.78-52.3H2.47C4-43.86,6.63-35.68,3.73-26.9c-.88,2.66-2.16,5.29-2.39,8-.24,2.9.74,5.79,1.61,8.65,16.16,53.51-4.76,108.76,2.77,163,.62,4.45,1.4,9,1,13.48H4.13c1.93-8.94-1.46-18.28-2.7-27.41C.38,131.16.88,123,.8,115.21a268.81,268.81,0,0,1,1.49-27.6C4,69.22,6.51,50.79,4.85,32.37c-.43-4.81-1.14-9.62-1.09-14.43.07-7.17,1.84-14.4,0-21.48-1.34-5-4.5-9.89-4.23-15,.22-4.17,2.74-8.16,3.65-12.29,1-4.47.06-9-.93-13.48C1.62-46.86,1.32-49.59.78-52.3Z"/>
              <path class="cls-6" d="M9.5-52.3h2.76l3.5,34.91c.77,7.64.39,15.09.2,22.74a78.56,78.56,0,0,0,1.2,12.79,322,322,0,0,1,3,37.38,8.3,8.3,0,0,1-1.09,5.07c-.8,1.2-2.14,2.23-2.95,3.42-1.43,2.11-1,4.5-.69,6.78a167.57,167.57,0,0,1,1.69,36.37c-.34,5.36-1.62,10.8-.88,16.16.72,5.17,3.3,10.28,2.31,15.51-.57,3-2.29,5.81-2.9,8.77-1.3,6.23,2.39,12.44,3.78,18.65H13.53a37.48,37.48,0,0,0-.06-6c-.65-4.17-1-8.35-1.24-12.54-.21-3.34,1.87-5.32,2.79-8.49.74-2.53-1.41-5-1.57-7.61a18.66,18.66,0,0,1,.58-4c.53-3.39-.56-6.74-.92-10.11-.32-3.07.7-5.8,1.08-8.8.81-6.48,1.44-13.4.37-19.89-1-6.27.91-12.45-1.37-18.74-.63-1.74-1.46-3.57-.59-5.27a13,13,0,0,1,2-2.43c4.74-5.3,2.54-11.07,1.61-16.73S16.07,34.26,16,28.62c-.11-4.87-.28-9.75-.7-14.62C15,10.61,13,7.81,13.86,4.39A18.08,18.08,0,0,0,14.16-1c-.27-5.79-.55-11.6-2.24-17.3C9.68-25.9,9.46-32.75,9.81-40.44A58,58,0,0,0,9.5-52.3Z"/>
              <path class="cls-6" d="M101.69-52.3h2.75L108-17.4c.77,7.64.4,15.09.2,22.74a79.59,79.59,0,0,0,1.2,12.79,322,322,0,0,1,3,37.38,8.3,8.3,0,0,1-1.09,5.07c-.8,1.2-2.14,2.23-2.95,3.42-1.42,2.11-1,4.5-.69,6.78a167.57,167.57,0,0,1,1.69,36.37c-.34,5.36-1.61,10.8-.87,16.16.72,5.17,3.29,10.28,2.3,15.51-.57,3-2.29,5.81-2.9,8.77-1.3,6.23,2.39,12.44,3.78,18.65h-5.89a37.48,37.48,0,0,0-.06-6c-.65-4.17-1-8.35-1.24-12.54-.21-3.34,1.87-5.32,2.79-8.49.75-2.53-1.41-5-1.57-7.61a18.66,18.66,0,0,1,.58-4c.53-3.39-.56-6.74-.91-10.11-.33-3.07.69-5.8,1.08-8.8.81-6.48,1.43-13.4.36-19.89-1-6.27.91-12.45-1.37-18.74-.63-1.74-1.46-3.57-.59-5.27a13.36,13.36,0,0,1,2-2.43c4.74-5.3,2.54-11.07,1.61-16.73s-.14-11.44-.26-17.08c-.11-4.87-.28-9.75-.7-14.62-.28-3.39-2.27-6.2-1.39-9.61A17.79,17.79,0,0,0,106.35-1c-.27-5.79-.55-11.6-2.24-17.3-2.24-7.57-2.46-14.42-2.12-22.11A58,58,0,0,0,101.69-52.3Z"/>
              <path class="cls-6" d="M22.29-52.3h2.38c1.58,4.93,6.29,9.69,6.12,14.78C30.71-35.32,29.72-33.17,29-31c-2.31,6.83-1.87,13.88-.56,20.77,1.18,6.17,4.35,12.17,4.42,18.36C33,27.55,21.41,45.9,30.47,64.5A30,30,0,0,1,30.14,92a37.5,37.5,0,0,0-2.95,6.17,17.81,17.81,0,0,0-.41,6.29c.87,13.29,5.18,26.51,3.85,39.78-.3,3-.9,6.09-1,9.14-.09,4.29.88,8.57,1.09,12.85H27.3q-.11-13.77-.23-27.54c0-5.17-.09-10.37-1.33-15.48-.63-2.61-1.58-5.23-1.23-7.86.23-1.69,1-3.39.58-5.07-.36-1.51-1.62-2.87-2.3-4.33A3,3,0,0,1,24,101.71c1.5-4.35,1.81-8.2,3.31-12.55,1.41-4.1,2.84-8.27,2.52-12.47-.25-3.27-1.55-6.48-2.25-9.73a53.46,53.46,0,0,1-.85-11c0-5.64-.07-11.29,0-16.93q.3-16.09,2.2-32.14a11.16,11.16,0,0,0-.18-5.09C28.21.12,26.87-1.4,26.1-3A15.08,15.08,0,0,1,25-8.7l-.66-10.46a26.42,26.42,0,0,1,.4-8.6c.48-1.81,1.35-3.59,1.55-5.42.26-2.45-.68-4.87-1.47-7.27C23.53-44.33,23.18-48.37,22.29-52.3Z"/>
              <path class="cls-6" d="M36.05-52.3h3.8l1.86,5.84a26.18,26.18,0,0,1,1.67,8c0,2.63-.88,5.23-1.46,7.83a55.86,55.86,0,0,0-1,14.72c.17,3.6.52,7.2.77,10.8a198,198,0,0,1-3.38,52.44c-.74,3.72-1.66,7.54-.91,11.29.61,3,2.78,5.46,3.23,8.57a209.23,209.23,0,0,1,2,22.85,45.63,45.63,0,0,1-.52,10.22c-.56,2.87-1.59,5.69-2.12,8.56a48.83,48.83,0,0,0-.26,11.65q1,18.21,2.09,36.43a41,41,0,0,1-.18,9.34H39.93c.79-1.16,1.39-2.31.64-3.39a21,21,0,0,0-1.66-1.6c-2.06-2.33,1.17-5.16.82-7.82A8.42,8.42,0,0,0,39,151.3a13.13,13.13,0,0,1-.79-8.26c.87-3.75.57-5.77-.45-9.51-2.18-8-3.29-16.12-1.56-24.13.5-2.29,1.23-4.56,1.73-6.85,1.25-5.67,1.11-11.42,1-17.14l-.19-7.51a41.92,41.92,0,0,0-1.28-11.14C36,62.17,33.08,57.62,34,53a33.46,33.46,0,0,1,2.34-6c4.21-10.17.69-20.72,2.78-31,.57-2.77,1.6-5.56,1.06-8.33-.39-2-1.61-4-1.78-6-.26-3.32,1.35-6.58,1.09-9.95-.24-2.94-1.94-5.84-1-8.79a13,13,0,0,0,1-3.37,9.4,9.4,0,0,0-.85-3.17,12.58,12.58,0,0,1,0-8.44,16.89,16.89,0,0,0,1.2-3.85A10.68,10.68,0,0,0,39-40.08,66.8,66.8,0,0,1,36.05-52.3Z"/>
              <path class="cls-6" d="M45.19-52.3h6.26c.05,1.41.26,2.83.35,4.24.52,8-2.81,15.88-3,23.87C48.64-16.74,50.68-9.14,51-1.63q.3,7.66.62,15.33a81.24,81.24,0,0,1-.09,11.64c-.7,6.72-3.09,13.37-3,20.12.07,6.08,4.26,11.55,3.26,17.66-.68,4.16-2.49,8.22-3,12.38-1.12,8.64,3.25,17.23,3,25.9-.11,4-1.2,7.89-1.68,11.84-1.33,10.79,1.77,21.58,2.62,32.39a123.55,123.55,0,0,1-.47,20.61H50.33a4.25,4.25,0,0,0,.07-.58c.11-1.87-1.09-3.67-1.47-5.52-.45-2.24.8-4.27.95-6.46.21-3.42-.95-7.09-1.4-10.5q-1.4-10.49-2.78-21a29.74,29.74,0,0,1-.3-8.53c.3-1.88,1-3.73,1.36-5.61,2-9.69-3.22-19.48-1.92-29.21.87-6.47,4.62-12.84,3.49-19.3-.59-3.41-2.64-6.64-2.55-10,.1-3.7.83-7.51,1.13-11.23a108.13,108.13,0,0,0,.46-16.57c-.13-1.74-.35-3.47-.46-5.21-.15-2.33-.11-4.66-.07-7l.22-14.17c0-9.31.28-18.61.43-27.92C47.6-39.4,46.28-45.71,45.19-52.3Z"/>
              <path class="cls-6" d="M62.62-52.3h2.68c-.56,1.45-1.18,2.9-1.84,4.33A13.16,13.16,0,0,0,62-43.71c-.2,2.38,1.16,4.68,2.08,7,3.64,9.16.4,18.75-1.42,28.12C60.4,3,60.37,14.69,61.07,26.34c.33,5.46,1.81,11.22,1,16.65-.66,4.59,1.29,9.11.53,13.72-.9,5.43-5.95,10.31-7.12,15.72-1.58,7.23,3.9,14.39,3.56,21.68-.22,4.46-2.61,8.85-2,13.29.38,3,2.12,5.88,2.9,8.85,1.73,6.52-1.1,13.19-.58,19.79.45,5.69,3.38,11.24,3.24,16.94-.11,4.44-2.1,8.84-1.94,13.26h-1c0-.06,0-.12,0-.18q.51-7.74,1-15.48c.35-5.38-2.76-9.8-3-15a31,31,0,0,1,.16-6,49.43,49.43,0,0,0,.89-5c.16-2.82-1-5.58-1.77-8.35A39.26,39.26,0,0,1,56.19,97c1-4.58-.73-7.8-2.5-12.24s-.88-9.39.11-14.07c.52-2.49.84-5.2,2.16-7.59,1.2-2.16,3.49-3.67,4.27-5.93C62,52,58.12,46.61,58,41.42c-.1-3.68,1.51-7.3,1.8-11a36.43,36.43,0,0,0-.5-7.51c-.68-5.62-.9-11.26-1.12-16.9C57.87-1,57.62-8.19,59.93-15.11c.94-2.79,2.31-5.58,2.13-8.44-.16-2.57-1.57-5.17-.53-7.66a6.15,6.15,0,0,0,.95-2.54C62.4-35,60.88-36.1,60-37.27c-3.33-4.37.12-8.84,2.07-13A6.48,6.48,0,0,0,62.62-52.3Z"/>
              <path class="cls-6" d="M73.18-52.3h1.65q-.15.5-.27,1A31.73,31.73,0,0,0,74-44.06q0,11.9,0,23.81c0,6.39-1.15,13.46-.49,19.73.54,5.14,2.13,9.14,1.76,14.71-.42,6.55-2.36,12.94-1.9,19.49.42,5.84,2.74,11.33,2.4,17.19-.21,3.62-1.41,6.94-2.14,10.42-.93,4.5-1,9.28-1.88,13.83-.36,2-.88,4-1.1,6a45,45,0,0,0-.08,6.37q.62,17.61,1.21,35.21c.19,5.62.39,11.24.76,16.84a69.78,69.78,0,0,1,.25,8.51c-.22,3.76-1.14,7.5-.72,11.23a53.69,53.69,0,0,0,1.67,7H73a.12.12,0,0,0,0-.06,11,11,0,0,0-1.25-2.39c-1-2-.26-8.76-.35-11.41s-.38-5.62-.2-8.32.86-4.79.3-7.43c-.19-.93-.52-1.79-.77-2.7a17.12,17.12,0,0,1-.27-7.55,9,9,0,0,0,.32-3.18,13.37,13.37,0,0,0-.55-1.72c-.77-2.42.22-6.62.08-9.38-.17-3.73-.59-7.43-.57-11.17,0-4.47,1.2-9.34-.39-13.18a7.47,7.47,0,0,1-.82-2.49,5.8,5.8,0,0,1,.22-1.59C70.12,78,70.33,72.76,71,66.8a34.8,34.8,0,0,1,1.21-6.63c.52-1.65,1.27-3.15,1.67-4.87,1.26-5.29-.32-14-1.42-19.23-1.3-6.09-.5-10.64.58-16.82.88-5,1.45-10.5-.18-15.06A18,18,0,0,1,72.08,2,13.47,13.47,0,0,1,72-2.26q.49-5.52,1-11a65.21,65.21,0,0,0,.38-8.54c-.23-5.69-.3-11.3-.57-17C72.6-43.33,72.28-48,73.18-52.3Z"/>
              <path class="cls-6" d="M81.59-52.3h2.68c0,.79-.08,1.57-.12,2.36-.21,4.23-.42,8.46-.51,12.69a222.11,222.11,0,0,0,1.3,28.91q.82,7.4,2.14,14.78c.66,3.7,3.12,7,3.57,10.73.61,5,2.32,11.59-.34,16.45-.49.91-1.2,1.79-1.67,2.7-2.12,4.16-.88,9.25-1,13.52l-.9,37.08c-.13,4.9,1.75,9.32-.47,14.11-2.44,5.24-5.17,10.5-2.3,15.85,1.56,2.9,4.21,5.93,2.26,8.78-.71,1-2,2-2.85,3-2.15,2.54-1.5,5.38-1.92,8.1-.4,2.5-1.73,5-1.65,7.47.06,2.26,1.28,4.48,2.18,6.7a39,39,0,0,1,2.46,15.36H79.95c-.05-3.78,2.52-7.64,2-11.46-.58-4.53-5.46-8.83-5-13.36.36-3.82,4.47-7.53,3.27-11.31-.54-1.68-2-3.57,0-5,.9-.6,2.34-1,3.27-1.59,2.35-1.51.66-3.58-.65-5.34-5.7-7.69-.41-14.46.13-22,1.25-17.45,2.51-34.92,1.13-52.37-.25-3.07-.57-6.14.08-9.19.57-2.74,1.93-5.44,2.58-8.18,1.65-7-1.34-14-3.39-21-4.49-15.23-4.48-30.67-3.36-46A73.9,73.9,0,0,1,81.59-52.3Z"/>
              <path class="cls-6" d="M298.51,199.73h-2.38C294.55,194.8,289.84,190,290,185c.08-2.21,1.08-4.35,1.81-6.52,2.31-6.83,1.87-13.88.56-20.77-1.18-6.17-4.35-12.17-4.42-18.36-.18-19.43,11.44-37.78,2.38-56.38a30,30,0,0,1,.33-27.52,37.5,37.5,0,0,0,2.95-6.17,17.81,17.81,0,0,0,.41-6.29c-.87-13.29-5.18-26.51-3.85-39.78.3-3,.9-6.09,1-9.14.09-4.29-.88-8.57-1.09-12.85h3.45q.11,13.77.23,27.54c0,5.17.09,10.37,1.33,15.48.63,2.61,1.58,5.23,1.23,7.86-.23,1.69-1,3.39-.58,5.07.36,1.51,1.62,2.87,2.3,4.33a3,3,0,0,1-1.21,4.26c-1.5,4.35-1.81,8.2-3.31,12.55-1.41,4.1-2.84,8.27-2.52,12.47.25,3.27,1.55,6.48,2.25,9.73a53.46,53.46,0,0,1,.85,11c0,5.64.07,11.29,0,16.93q-.3,16.09-2.2,32.14a11.16,11.16,0,0,0,.18,5.09c.57,1.65,1.92,3.17,2.69,4.79a15.08,15.08,0,0,1,1.11,5.69l.66,10.46a26.42,26.42,0,0,1-.4,8.6c-.48,1.81-1.35,3.59-1.55,5.42-.26,2.45.68,4.87,1.47,7.27C297.27,191.75,297.63,195.8,298.51,199.73Z"/>
              <path class="cls-6" d="M284.75,199.73H281l-1.86-5.84a26.18,26.18,0,0,1-1.67-8c0-2.63.88-5.23,1.46-7.83a55.86,55.86,0,0,0,1-14.72c-.17-3.6-.52-7.2-.77-10.8a198,198,0,0,1,3.38-52.44c.74-3.72,1.66-7.54.91-11.29-.61-3-2.78-5.46-3.23-8.57a209.23,209.23,0,0,1-2-22.85,45.63,45.63,0,0,1,.52-10.22c.56-2.87,1.59-5.69,2.12-8.56a48.83,48.83,0,0,0,.26-11.65Q280,8.72,279-9.49a41,41,0,0,1,.18-9.34h1.72c-.79,1.16-1.39,2.31-.64,3.39a21,21,0,0,0,1.66,1.6c2.06,2.33-1.17,5.16-.82,7.82a8.42,8.42,0,0,0,.78,2.14,13.13,13.13,0,0,1,.79,8.26c-.87,3.75-.57,5.77.45,9.51,2.18,8,3.29,16.12,1.56,24.13-.5,2.29-1.23,4.56-1.73,6.85-1.25,5.67-1.11,11.42-1,17.14l.19,7.51a41.92,41.92,0,0,0,1.28,11.14c1.37,4.59,4.31,9.14,3.4,13.78a33.46,33.46,0,0,1-2.34,6c-4.21,10.17-.69,20.72-2.78,31-.57,2.77-1.6,5.56-1.06,8.33.39,2,1.61,4,1.78,6,.26,3.32-1.35,6.58-1.09,9.95.24,2.94,1.94,5.84,1,8.79a13,13,0,0,0-1,3.37,9.4,9.4,0,0,0,.85,3.17,12.58,12.58,0,0,1,0,8.44,16.89,16.89,0,0,0-1.19,3.85,10.68,10.68,0,0,0,.87,4.19A66.8,66.8,0,0,1,284.75,199.73Z"/>
              <path class="cls-6" d="M275.61,199.73h-6.26c-.05-1.41-.26-2.83-.35-4.24-.52-8,2.81-15.88,3-23.87.16-7.45-1.88-15.06-2.18-22.57q-.3-7.66-.62-15.33a81.24,81.24,0,0,1,.09-11.64c.7-6.72,3.09-13.37,3-20.12C272.23,95.88,268,90.42,269,84.3c.68-4.16,2.49-8.22,3-12.38,1.12-8.64-3.25-17.23-3-25.9.11-4,1.2-7.89,1.68-11.84,1.33-10.79-1.77-21.58-2.62-32.39a123.55,123.55,0,0,1,.47-20.61h1.86a4.25,4.25,0,0,0-.07.58c-.11,1.87,1.09,3.67,1.47,5.52.45,2.24-.8,4.27-.95,6.46-.21,3.42.95,7.09,1.4,10.5q1.4,10.49,2.78,21a29.74,29.74,0,0,1,.3,8.53c-.3,1.88-1,3.73-1.36,5.61-2,9.69,3.22,19.48,1.92,29.21-.87,6.47-4.62,12.84-3.49,19.3.59,3.41,2.64,6.64,2.55,10-.1,3.7-.83,7.51-1.13,11.23a108.13,108.13,0,0,0-.46,16.57c.13,1.74.35,3.47.46,5.21.15,2.33.11,4.66.07,7l-.22,14.17c0,9.31-.28,18.61-.43,27.92C273.21,186.83,274.53,193.14,275.61,199.73Z"/>
              <path class="cls-6" d="M258.18,199.73H255.5c.56-1.45,1.18-2.9,1.84-4.33a13.16,13.16,0,0,0,1.47-4.26c.2-2.38-1.16-4.68-2.08-7-3.64-9.16-.4-18.75,1.42-28.12,2.25-11.59,2.28-23.29,1.58-34.94-.33-5.46-1.81-11.22-1-16.65.66-4.59-1.29-9.11-.53-13.72.9-5.43,5.95-10.31,7.12-15.72,1.58-7.23-3.9-14.39-3.56-21.68.22-4.46,2.61-8.85,2-13.29-.38-3-2.12-5.88-2.9-8.85-1.73-6.52,1.1-13.19.58-19.79C261,5.69,258.07.13,258.22-5.56c.11-4.44,2.1-8.84,1.94-13.26h1c0,.06,0,.12,0,.18q-.51,7.74-1,15.48c-.35,5.38,2.76,9.8,3,15a31,31,0,0,1-.16,6,49.43,49.43,0,0,0-.89,5c-.16,2.82,1,5.58,1.77,8.35a39.26,39.26,0,0,1,.78,19.17c-1,4.58.73,7.8,2.5,12.24S268,72,267,76.7c-.52,2.49-.84,5.2-2.16,7.59-1.19,2.16-3.49,3.67-4.27,5.93-1.77,5.18,2.12,10.6,2.26,15.79.1,3.68-1.51,7.3-1.8,11a36.43,36.43,0,0,0,.5,7.51c.68,5.62.9,11.26,1.12,16.9.27,7.07.53,14.22-1.79,21.14-.94,2.79-2.31,5.58-2.13,8.44.16,2.57,1.57,5.17.53,7.66a6.15,6.15,0,0,0-.95,2.54c.07,1.29,1.6,2.35,2.49,3.52,3.33,4.37-.12,8.84-2.07,13A6.48,6.48,0,0,0,258.18,199.73Z"/>
              <path class="cls-6" d="M247.63,199.73H246q.15-.5.27-1a31.73,31.73,0,0,0,.53-7.24q0-11.9,0-23.81c0-6.39,1.15-13.46.49-19.73-.54-5.14-2.13-9.14-1.76-14.71.42-6.55,2.36-12.94,1.9-19.49-.42-5.84-2.74-11.33-2.4-17.19.21-3.62,1.41-6.94,2.14-10.42.93-4.5,1-9.28,1.88-13.83.37-2,.88-4,1.1-6a45,45,0,0,0,.08-6.37q-.62-17.61-1.21-35.21c-.19-5.62-.39-11.24-.76-16.84A69.78,69.78,0,0,1,248-.63c.22-3.76,1.14-7.5.72-11.23a53.69,53.69,0,0,0-1.67-7h.77a.12.12,0,0,0,0,.06A11,11,0,0,0,249-16.38c1,2,.26,8.76.35,11.41s.38,5.62.2,8.32-.86,4.79-.3,7.43c.19.93.52,1.79.77,2.7a17.12,17.12,0,0,1,.27,7.55,9,9,0,0,0-.32,3.18,13.37,13.37,0,0,0,.55,1.72c.77,2.42-.22,6.62-.08,9.38.17,3.73.59,7.43.57,11.17,0,4.47-1.2,9.34.39,13.18a7.47,7.47,0,0,1,.82,2.49,5.8,5.8,0,0,1-.22,1.59c-1.34,5.72-1.55,10.94-2.2,16.9a34.8,34.8,0,0,1-1.21,6.63c-.52,1.65-1.27,3.15-1.67,4.87-1.26,5.29.32,14,1.42,19.23,1.3,6.09.5,10.64-.58,16.82-.88,5-1.45,10.5.18,15.06a18,18,0,0,1,.76,2.22,13.47,13.47,0,0,1,.07,4.24q-.49,5.52-1,11a65.21,65.21,0,0,0-.38,8.54c.23,5.69.3,11.3.57,17C248.2,190.76,248.52,195.38,247.63,199.73Z"/>
              <path class="cls-6" d="M239.22,199.73h-2.68c0-.79.08-1.57.12-2.36.21-4.23.42-8.46.51-12.69a222.11,222.11,0,0,0-1.3-28.91q-.82-7.4-2.14-14.78c-.66-3.7-3.12-7-3.57-10.73-.61-5-2.32-11.59.34-16.45.49-.91,1.2-1.79,1.67-2.7,2.12-4.16.88-9.25,1-13.52l.9-37.08c.13-4.9-1.75-9.32.47-14.11,2.44-5.24,5.17-10.5,2.3-15.85-1.56-2.9-4.21-5.93-2.26-8.78.71-1,2-2,2.85-3,2.15-2.54,1.5-5.38,1.92-8.1.4-2.5,1.73-5,1.65-7.47-.06-2.26-1.28-4.48-2.18-6.7a39,39,0,0,1-2.46-15.36h4.52c.05,3.78-2.52,7.64-2,11.46.58,4.53,5.46,8.83,5,13.36-.36,3.82-4.47,7.53-3.27,11.31.54,1.68,2,3.57,0,5-.9.6-2.34,1-3.27,1.59-2.35,1.51-.66,3.58.65,5.34,5.7,7.69.41,14.46-.13,22-1.25,17.45-2.51,34.92-1.13,52.37.25,3.07.57,6.14-.08,9.19-.57,2.74-1.93,5.44-2.58,8.18-1.65,7,1.34,14,3.39,21,4.49,15.23,4.48,30.67,3.36,46A73.9,73.9,0,0,1,239.22,199.73Z"/>
              <path class="cls-6" d="M91.11-52.3h3.65a11.76,11.76,0,0,0,2.95,5.77c4.45,5,4.32,6.53.95,11.45-4.31,6.27,1,13,1.51,19.58.21,2.59-.34,5.18-.57,7.77-.53,5.63.39,11.25,1.3,16.87q1.44,8.87,2.88,17.76c1.51,9.24,2.75,18.88-1.5,28-1.57,3.39-3.92,6.75-3.87,10.22,0,2.5,1.33,4.95,1.92,7.43,1.42,6-3.37,11.61-3.11,17.44.23,5.45,4,10.84,3.86,16.38-.08,3-1.06,6-1.65,9a72.12,72.12,0,0,0-.85,15q.25,18,.47,35.92H95a9.27,9.27,0,0,0-1.35-4.54,8.1,8.1,0,0,1-1.44-2.77c-.19-1.44,1.1-2.82,1.76-4.23a10.32,10.32,0,0,0,.78-3.68l1-11.57a15.27,15.27,0,0,0-.34-6.23c-.47-1.39-1.31-2.75-1.69-4.14a12.46,12.46,0,0,1,0-5l2.38-16.42c.57-4,1.14-8-.32-11.88-.7-1.9-1.88-3.78-1.72-5.7s1.53-3.64,2.46-5.45a11.83,11.83,0,0,0-.36-11.81c-2.47-4.27-2.55-5.9,1.12-9.68s.29-8,2.24-12.08c.66-1.37,2-2.65,2.58-4,1-2.36-.07-4.79-.6-7.19-1.6-7.22,2.09-14.77-2.86-21.65-1.08-1.51-2.58-3-2.91-4.56-.41-2,1-3.9,1.24-5.86C97.53,3.46,92.57-.72,93.76-5c.48-1.74,2-3.39,2.31-5.14.75-3.94-4.43-7.63-4.75-11.58-.17-2.14,1.09-4.24,2-6.35a19.81,19.81,0,0,0,.38-15.32C92.58-46.34,90.74-49.32,91.11-52.3Z"/>
            </g>
            <g>
              <path class="cls-6" d="M116.78-52.3h1.69c1.55,8.44,4.16,16.63,1.26,25.41-.88,2.66-2.16,5.29-2.39,8-.24,2.9.74,5.79,1.61,8.65,16.16,53.51-4.76,108.76,2.77,163,.62,4.45,1.4,9,1,13.48h-2.56c1.93-8.94-1.46-18.28-2.7-27.41-1-7.67-.55-15.84-.63-23.62a268.81,268.81,0,0,1,1.49-27.6c1.74-18.39,4.22-36.82,2.56-55.24-.43-4.81-1.14-9.62-1.09-14.43.07-7.17,1.84-14.4,0-21.48-1.34-5-4.5-9.89-4.23-15,.22-4.17,2.74-8.16,3.65-12.29,1-4.47.06-9-.93-13.48C117.62-46.86,117.32-49.59,116.78-52.3Z"/>
              <path class="cls-6" d="M125.5-52.3h2.76l3.5,34.91c.77,7.64.39,15.09.2,22.74a78.56,78.56,0,0,0,1.2,12.79,322,322,0,0,1,3,37.38,8.3,8.3,0,0,1-1.09,5.07c-.8,1.2-2.14,2.23-2.95,3.42-1.43,2.11-1,4.5-.69,6.78a167.57,167.57,0,0,1,1.69,36.37c-.34,5.36-1.62,10.8-.88,16.16.72,5.17,3.3,10.28,2.31,15.51-.57,3-2.29,5.81-2.9,8.77-1.3,6.23,2.39,12.44,3.78,18.65h-5.89a37.48,37.48,0,0,0-.06-6c-.65-4.17-1-8.35-1.24-12.54-.21-3.34,1.87-5.32,2.79-8.49.74-2.53-1.41-5-1.57-7.61a18.66,18.66,0,0,1,.58-4c.53-3.39-.56-6.74-.92-10.11-.32-3.07.7-5.8,1.08-8.8.81-6.48,1.44-13.4.37-19.89-1-6.27.91-12.45-1.37-18.74-.63-1.74-1.46-3.57-.59-5.27a13,13,0,0,1,2-2.43c4.74-5.3,2.54-11.07,1.61-16.73s-.15-11.44-.26-17.08c-.11-4.87-.28-9.75-.7-14.62-.28-3.39-2.28-6.2-1.39-9.61A18.08,18.08,0,0,0,130.16-1c-.27-5.79-.55-11.6-2.24-17.3-2.24-7.57-2.46-14.42-2.12-22.11A58,58,0,0,0,125.5-52.3Z"/>
              <path class="cls-6" d="M217.69-52.3h2.76L224-17.4c.77,7.64.4,15.09.2,22.74a79.59,79.59,0,0,0,1.2,12.79,322,322,0,0,1,3,37.38,8.3,8.3,0,0,1-1.09,5.07c-.8,1.2-2.14,2.23-2.95,3.42-1.42,2.11-1,4.5-.69,6.78a167.57,167.57,0,0,1,1.69,36.37c-.34,5.36-1.61,10.8-.87,16.16.72,5.17,3.29,10.28,2.3,15.51-.57,3-2.29,5.81-2.9,8.77-1.3,6.23,2.39,12.44,3.78,18.65h-5.89a37.48,37.48,0,0,0-.06-6c-.65-4.17-1-8.35-1.24-12.54-.21-3.34,1.87-5.32,2.79-8.49.75-2.53-1.41-5-1.57-7.61a18.66,18.66,0,0,1,.58-4c.53-3.39-.56-6.74-.91-10.11-.33-3.07.69-5.8,1.08-8.8.81-6.48,1.43-13.4.36-19.89-1-6.27.91-12.45-1.37-18.74-.63-1.74-1.46-3.57-.59-5.27a13.36,13.36,0,0,1,2-2.43c4.74-5.3,2.54-11.07,1.61-16.73s-.14-11.44-.26-17.08c-.11-4.87-.28-9.75-.7-14.62-.28-3.39-2.27-6.2-1.39-9.61A17.79,17.79,0,0,0,222.35-1c-.27-5.79-.55-11.6-2.24-17.3-2.24-7.57-2.46-14.42-2.12-22.11A58,58,0,0,0,217.69-52.3Z"/>
              <path class="cls-6" d="M138.29-52.3h2.38c1.58,4.93,6.29,9.69,6.12,14.78-.08,2.21-1.08,4.35-1.81,6.52-2.31,6.83-1.87,13.88-.56,20.77,1.18,6.17,4.35,12.17,4.42,18.36.18,19.43-11.44,37.78-2.38,56.38A30,30,0,0,1,146.14,92a37.5,37.5,0,0,0-2.95,6.17,17.81,17.81,0,0,0-.41,6.29c.87,13.29,5.18,26.51,3.85,39.78-.3,3-.9,6.09-1,9.14-.09,4.29.88,8.57,1.09,12.85H143.3q-.11-13.77-.23-27.54c0-5.17-.09-10.37-1.33-15.48-.63-2.61-1.58-5.23-1.23-7.86.23-1.69,1-3.39.58-5.07-.36-1.51-1.62-2.87-2.3-4.33a3,3,0,0,1,1.21-4.26c1.5-4.35,1.81-8.2,3.31-12.55,1.41-4.1,2.84-8.27,2.52-12.47-.25-3.27-1.55-6.48-2.25-9.73a53.46,53.46,0,0,1-.85-11c0-5.64-.07-11.29,0-16.93q.3-16.09,2.2-32.14a11.16,11.16,0,0,0-.18-5.09C144.21.12,142.87-1.4,142.1-3A15.08,15.08,0,0,1,141-8.7l-.66-10.46a26.42,26.42,0,0,1,.4-8.6c.48-1.81,1.35-3.59,1.55-5.42.26-2.45-.68-4.87-1.47-7.27C139.53-44.33,139.18-48.37,138.29-52.3Z"/>
              <path class="cls-6" d="M152.05-52.3h3.8l1.86,5.84a26.18,26.18,0,0,1,1.67,8c0,2.63-.88,5.23-1.46,7.83a55.86,55.86,0,0,0-1,14.72c.17,3.6.52,7.2.77,10.8a198,198,0,0,1-3.38,52.44c-.74,3.72-1.66,7.54-.91,11.29.61,3,2.78,5.46,3.23,8.57a209.23,209.23,0,0,1,2,22.85,45.63,45.63,0,0,1-.52,10.22c-.56,2.87-1.59,5.69-2.12,8.56a48.83,48.83,0,0,0-.26,11.65q1,18.21,2.09,36.43a41,41,0,0,1-.18,9.34h-1.72c.79-1.16,1.39-2.31.64-3.39a21,21,0,0,0-1.66-1.6c-2.06-2.33,1.17-5.16.82-7.82a8.42,8.42,0,0,0-.78-2.14,13.13,13.13,0,0,1-.79-8.26c.87-3.75.57-5.77-.45-9.51-2.18-8-3.29-16.12-1.56-24.13.5-2.29,1.23-4.56,1.73-6.85,1.25-5.67,1.11-11.42,1-17.14l-.19-7.51a41.92,41.92,0,0,0-1.28-11.14C152,62.17,149.08,57.62,150,53a33.46,33.46,0,0,1,2.34-6c4.21-10.17.69-20.72,2.78-31,.57-2.77,1.6-5.56,1.06-8.33-.39-2-1.61-4-1.78-6-.26-3.32,1.35-6.58,1.09-9.95-.24-2.94-1.94-5.84-1-8.79a13,13,0,0,0,1-3.37,9.4,9.4,0,0,0-.85-3.17,12.58,12.58,0,0,1,0-8.44,16.89,16.89,0,0,0,1.2-3.85,10.68,10.68,0,0,0-.87-4.19A66.8,66.8,0,0,1,152.05-52.3Z"/>
              <path class="cls-6" d="M161.19-52.3h6.26c.05,1.41.26,2.83.35,4.24.52,8-2.81,15.88-3,23.87-.16,7.45,1.88,15.06,2.18,22.57q.3,7.66.62,15.33a81.24,81.24,0,0,1-.09,11.64c-.7,6.72-3.09,13.37-3,20.12.07,6.08,4.26,11.55,3.26,17.66-.68,4.16-2.49,8.22-3,12.38-1.12,8.64,3.25,17.23,3,25.9-.11,4-1.2,7.89-1.68,11.84-1.33,10.79,1.77,21.58,2.62,32.39a123.55,123.55,0,0,1-.47,20.61h-1.86a4.25,4.25,0,0,0,.07-.58c.11-1.87-1.09-3.67-1.47-5.52-.45-2.24.8-4.27.95-6.46.21-3.42-.95-7.09-1.4-10.5q-1.4-10.49-2.78-21a29.74,29.74,0,0,1-.3-8.53c.3-1.88,1-3.73,1.36-5.61,2-9.69-3.22-19.48-1.92-29.21.87-6.47,4.62-12.84,3.49-19.3-.59-3.41-2.64-6.64-2.54-10,.1-3.7.83-7.51,1.13-11.23a108.13,108.13,0,0,0,.46-16.57c-.13-1.74-.35-3.47-.46-5.21-.15-2.33-.11-4.66-.07-7l.22-14.17c0-9.31.28-18.61.43-27.92C163.6-39.4,162.28-45.71,161.19-52.3Z"/>
              <path class="cls-6" d="M178.62-52.3h2.68c-.56,1.45-1.18,2.9-1.84,4.33A13.16,13.16,0,0,0,178-43.71c-.2,2.38,1.16,4.68,2.08,7,3.64,9.16.4,18.75-1.42,28.12C176.4,3,176.37,14.69,177.07,26.34c.33,5.46,1.81,11.22,1,16.65-.66,4.59,1.29,9.11.53,13.72-.9,5.43-5.95,10.31-7.12,15.72-1.58,7.23,3.9,14.39,3.56,21.68-.22,4.46-2.61,8.85-2,13.29.38,3,2.12,5.88,2.9,8.85,1.73,6.52-1.1,13.19-.58,19.79.45,5.69,3.38,11.24,3.24,16.94-.11,4.44-2.1,8.84-1.94,13.26h-1c0-.06,0-.12,0-.18q.51-7.74,1-15.48c.35-5.38-2.76-9.8-3-15a31,31,0,0,1,.16-6,49.43,49.43,0,0,0,.89-5c.16-2.82-1-5.58-1.77-8.35A39.26,39.26,0,0,1,172.19,97c1-4.58-.73-7.8-2.5-12.24s-.88-9.39.11-14.07c.52-2.49.84-5.2,2.16-7.59,1.19-2.16,3.49-3.67,4.27-5.93C178,52,174.12,46.61,174,41.42c-.1-3.68,1.51-7.3,1.8-11a36.43,36.43,0,0,0-.5-7.51c-.68-5.62-.9-11.26-1.12-16.9-.27-7.07-.53-14.22,1.79-21.14.94-2.79,2.31-5.58,2.13-8.44-.16-2.57-1.57-5.17-.53-7.66a6.15,6.15,0,0,0,.95-2.54c-.07-1.29-1.6-2.35-2.49-3.52-3.33-4.37.12-8.84,2.07-13A6.48,6.48,0,0,0,178.62-52.3Z"/>
              <path class="cls-6" d="M189.18-52.3h1.65q-.15.5-.27,1a31.73,31.73,0,0,0-.53,7.24q0,11.9,0,23.81c0,6.39-1.15,13.46-.49,19.73.54,5.14,2.13,9.14,1.76,14.71-.42,6.55-2.36,12.94-1.9,19.49.42,5.84,2.74,11.33,2.4,17.19-.21,3.62-1.41,6.94-2.14,10.42-.93,4.5-1,9.28-1.88,13.83-.37,2-.88,4-1.1,6a45,45,0,0,0-.08,6.37q.62,17.61,1.21,35.21c.19,5.62.39,11.24.76,16.84a69.78,69.78,0,0,1,.25,8.51c-.22,3.76-1.14,7.5-.72,11.23a53.69,53.69,0,0,0,1.67,7H189a.12.12,0,0,0,0-.06,11,11,0,0,0-1.25-2.39c-1-2-.26-8.76-.35-11.41s-.38-5.62-.2-8.32.86-4.79.3-7.43c-.19-.93-.52-1.79-.77-2.7a17.12,17.12,0,0,1-.27-7.55,9,9,0,0,0,.32-3.18,13.37,13.37,0,0,0-.55-1.72c-.77-2.42.22-6.62.08-9.38-.17-3.73-.59-7.43-.57-11.17,0-4.47,1.2-9.34-.39-13.18a7.47,7.47,0,0,1-.82-2.49,5.8,5.8,0,0,1,.22-1.59c1.34-5.72,1.55-10.94,2.2-16.9a34.8,34.8,0,0,1,1.21-6.63c.52-1.65,1.27-3.15,1.67-4.87,1.26-5.29-.32-14-1.42-19.23-1.3-6.09-.5-10.64.58-16.82.88-5,1.45-10.5-.18-15.06A18,18,0,0,1,188.08,2,13.47,13.47,0,0,1,188-2.26q.49-5.52,1-11a65.21,65.21,0,0,0,.38-8.54c-.23-5.69-.3-11.3-.57-17C188.6-43.33,188.28-48,189.18-52.3Z"/>
              <path class="cls-6" d="M197.59-52.3h2.68c0,.79-.08,1.57-.12,2.36-.21,4.23-.42,8.46-.51,12.69a222.11,222.11,0,0,0,1.3,28.91q.82,7.4,2.14,14.78c.66,3.7,3.12,7,3.57,10.73.61,5,2.32,11.59-.34,16.45-.49.91-1.2,1.79-1.67,2.7-2.12,4.16-.88,9.25-1,13.52l-.9,37.08c-.13,4.9,1.75,9.32-.47,14.11-2.44,5.24-5.17,10.5-2.3,15.85,1.56,2.9,4.21,5.93,2.26,8.78-.71,1-2,2-2.85,3-2.15,2.54-1.5,5.38-1.92,8.1-.4,2.5-1.73,5-1.65,7.47.06,2.26,1.28,4.48,2.18,6.7a39,39,0,0,1,2.46,15.36h-4.52c-.05-3.78,2.52-7.64,2-11.46-.58-4.53-5.46-8.83-5-13.36.36-3.82,4.47-7.53,3.27-11.31-.54-1.68-2-3.57,0-5,.9-.6,2.34-1,3.27-1.59,2.35-1.51.66-3.58-.65-5.34-5.7-7.69-.41-14.46.13-22,1.25-17.45,2.51-34.92,1.13-52.37-.25-3.07-.57-6.14.08-9.19.57-2.74,1.93-5.44,2.58-8.18,1.65-7-1.34-14-3.39-21-4.49-15.23-4.48-30.67-3.36-46A73.9,73.9,0,0,1,197.59-52.3Z"/>
              <path class="cls-6" d="M207.11-52.3h3.65a11.76,11.76,0,0,0,2.95,5.77c4.45,5,4.32,6.53.95,11.45-4.31,6.27,1,13,1.51,19.58.21,2.59-.34,5.18-.57,7.77-.53,5.63.39,11.25,1.3,16.87q1.44,8.87,2.88,17.76c1.51,9.24,2.75,18.88-1.5,28-1.57,3.39-3.92,6.75-3.87,10.22,0,2.5,1.33,4.95,1.92,7.43,1.42,6-3.37,11.61-3.11,17.44.23,5.45,4,10.84,3.86,16.38-.08,3-1.06,6-1.65,9a72.12,72.12,0,0,0-.85,15q.25,18,.47,35.92H211a9.27,9.27,0,0,0-1.35-4.54,8.1,8.1,0,0,1-1.44-2.77c-.19-1.44,1.1-2.82,1.76-4.23a10.32,10.32,0,0,0,.78-3.68l1-11.57a15.27,15.27,0,0,0-.34-6.23c-.47-1.39-1.31-2.75-1.69-4.14a12.46,12.46,0,0,1,0-5l2.38-16.42c.57-4,1.14-8-.32-11.88-.7-1.9-1.88-3.78-1.72-5.7s1.53-3.64,2.46-5.45a11.83,11.83,0,0,0-.36-11.81c-2.47-4.27-2.55-5.9,1.12-9.68s.29-8,2.24-12.08c.66-1.37,2-2.65,2.58-4,1-2.36-.07-4.79-.6-7.19-1.6-7.22,2.09-14.77-2.86-21.65-1.08-1.51-2.58-3-2.91-4.56-.41-2,1-3.9,1.24-5.86.55-4.29-4.42-8.47-3.23-12.73.48-1.74,2-3.39,2.31-5.14.75-3.94-4.43-7.63-4.75-11.58-.17-2.14,1.09-4.24,2-6.35a19.81,19.81,0,0,0,.38-15.32C208.58-46.34,206.74-49.32,207.11-52.3Z"/>
            </g>
          </g>
          <g>
            <path class="cls-7" d="M244.1,12.88,199.18,3.09a4.79,4.79,0,0,0-5.73,3.61L178,77.72a4.79,4.79,0,0,0,3.71,5.66l44.92,9.79a4.79,4.79,0,0,0,5.73-3.61l15.48-71A4.79,4.79,0,0,0,244.1,12.88ZM226.7,92.72l-44.92-9.79a4.33,4.33,0,0,1-3.36-5.12l15.48-71a4.33,4.33,0,0,1,5.18-3.26L244,13.33a4.33,4.33,0,0,1,3.36,5.12l-15.48,71A4.33,4.33,0,0,1,226.7,92.72Z"/>
            <path class="cls-8" d="M243.89,13.18,199.24,3.45a4.62,4.62,0,0,0-5.51,3.49l-15.4,70.67a4.62,4.62,0,0,0,3.56,5.47l44.65,9.73a4.62,4.62,0,0,0,5.51-3.49l15.4-70.67A4.62,4.62,0,0,0,243.89,13.18Z"/>
            <g>
              <circle class="cls-9" cx="220.85" cy="11.62" r="0.85" transform="translate(162.47 224.93) rotate(-77.71)"/>
              <g>
                <path class="cls-10" d="M220.75,12.07a.46.46,0,1,1,.55-.35A.46.46,0,0,1,220.75,12.07Zm.19-.85a.41.41,0,1,0,.32.49A.41.41,0,0,0,220.93,11.22Z"/>
                <circle class="cls-11" cx="220.85" cy="11.62" r="0.45" transform="translate(162.47 224.93) rotate(-77.71)"/>
              </g>
            </g>
            <circle class="cls-12" cx="205.27" cy="83.1" r="2.94" transform="translate(80.37 265.97) rotate(-77.71)"/>
            <rect class="cls-13" x="180.96" y="22.25" width="64.42" height="49.21" transform="translate(122 245.16) rotate(-77.71)"/>
            <polygon class="cls-14" points="221.78 15.75 186.79 52.27 182.25 73.11 187.87 74.33 240.16 19.75 221.78 15.75"/>
          </g>
          <g>
            <g>
              <path class="cls-15" d="M218.59,92.09c1.73,4.09,4,8,4.43,12.42s-1.26,8.31-2,12.35a13.42,13.42,0,0,0,1.65,9.78A14.4,14.4,0,0,0,233,132.77a10.71,10.71,0,0,0,9.83-3.6c2.2-2.74,2.49-6.27,1.7-9.8-.83-3.69-2.63-7.19-3.87-10.79-1.61-4.66-3.35-9.44-3.57-14.29-.11-2.39.66-6.18,3.86-5.5,2.45.53,3.29,3.31,2.77,5.3-.15.57.79.8.94.23,1.33-5.09-5.57-9.29-7.95-4-1.55,3.46-.12,8.29.91,11.92A127.85,127.85,0,0,0,242,114.59c1.56,3.92,2.86,8.12,1.28,12-1.94,4.7-7.29,6.11-12.22,4.9a12.16,12.16,0,0,1-9.3-10.14c-.43-3.88,1-7.68,1.75-11.34a19.06,19.06,0,0,0-.22-9c-.87-3.15-2.55-6.12-3.83-9.15-.24-.58-1.13-.33-.89.25Z"/>
              <path class="cls-16" d="M245,91.9s2.14,6.72,1.84,7.06-5,1.32-4.17-1.05,1.77-2,1.77-2S242.6,92.45,245,91.9Z"/>
            </g>
            <path class="cls-15" d="M219.95,92.22c.13,5.59-.52,11.27,1.38,16.64,1.84,5.2,6.06,9.29,9.1,13.79,2.5,3.7,4,7.8,3.32,12.3-.81,5.19-4.68,9.4-9.23,11.72a14.93,14.93,0,0,1-13.93,0c-4.17-2.29-6.45-6.35-7.41-10.88-1-4.73-.72-9.66-1.16-14.46-.58-6.22-1.07-12.64-3.43-18.48-1.16-2.88-4.17-7-7.69-4.84-2.69,1.68-2.2,5.35-.49,7.48.49.61-.53,1.29-1,.68-4.39-5.46,1.72-13.42,7.48-8.2,3.77,3.42,4.66,9.77,5.39,14.52A154.8,154.8,0,0,1,203.67,129c.24,5.32.94,10.86,5,14.74,4.92,4.73,12.2,4.08,17.54.52a14,14,0,0,0,5.8-16c-1.59-4.78-5.43-8.65-8.3-12.68A25,25,0,0,1,219,104.81c-.66-4.11-.23-8.36-.32-12.5,0-.79,1.2-.88,1.22-.09Z"/>
            <path class="cls-16" d="M187.67,103.44s1.05,8.89,1.61,9.16,6.76-.58,4.5-3.05-3.22-1.57-3.22-1.57S190.92,103,187.67,103.44Z"/>
          </g>
          <rect class="cls-17" x="217.43" y="-1.84" width="2.24" height="44.12" transform="translate(152.71 229.6) rotate(-77.83)"/>
          <polygon class="cls-17" points="193.41 32.15 193.41 32.15 236.54 41.45 236.07 43.64 192.94 34.34 193.41 32.15"/>
          <polygon class="cls-17" points="194.36 27.73 194.36 27.73 237.49 37.03 237.02 39.22 193.89 29.92 194.36 27.73"/>
          <polygon class="cls-17" points="195.31 23.31 195.31 23.31 238.45 32.61 237.97 34.8 194.84 25.5 195.31 23.31"/>
          <polygon class="cls-17" points="196.27 18.89 196.27 18.89 239.4 28.19 238.93 30.38 195.8 21.08 196.27 18.89"/>
          <rect class="cls-17" x="212.43" y="20.16" width="2.24" height="44.12" transform="translate(127.26 242.07) rotate(-77.83)"/>
          <polygon class="cls-17" points="188.41 54.15 188.41 54.15 231.54 63.45 231.07 65.64 187.94 56.34 188.41 54.15"/>
          <polygon class="cls-17" points="189.36 49.73 189.36 49.73 232.49 59.03 232.02 61.22 188.89 51.92 189.36 49.73"/>
          <polygon class="cls-17" points="190.31 45.31 190.31 45.31 233.45 54.61 232.97 56.8 189.84 47.5 190.31 45.31"/>
          <polygon class="cls-17" points="191.27 40.89 191.27 40.89 234.4 50.19 233.93 52.38 190.8 43.08 191.27 40.89"/>
          <g>
            <path class="cls-18" d="M32.65,130.26l149.67-28.18-18.45-98L14.2,32.27Z"/>
            <path class="cls-19" d="M160.93,4.64,89,18.18l17.69,94,71.89-13.54Z"/>
            <path class="cls-15" d="M158.39,5.12,89,18.18l16.57,88L175,93.15Z"/>
            <path class="cls-19" d="M17.14,31.71,89,18.18l17.69,94-71.9,13.54Z"/>
            <path class="cls-15" d="M19.69,31.24,89,18.18l16.57,88L36.26,119.26Z"/>
            <path class="cls-20" d="M87.86,18.4,90.21,18l16.57,88-2.35.44-16.57-88Z"/>
            <path class="cls-21" d="M28.49,47.08,87,36.07l-.36-1.92-58.47,11Z"/>
            <path class="cls-21" d="M99.49,34.08l58.47-11-.36-1.92-58.47,11Z"/>
            <path class="cls-20" d="M34.83,79.1,88.36,69l.51,2.72L35.35,81.82Zm71.33-13.43h0L159.7,55.59l.51,2.72L106.68,68.39Zm-1.59-8.44h0L128,52.82l.51,2.72-23.44,4.41Zm-1-5.48h0l53.53-10.08.51,2.72L104.06,54.47Zm-1-5.48h0L156,36.19l.51,2.72L103,49Zm-1-5.48h0l23.44-4.41.51,2.72L102,43.5Zm-1-5.48h0L154,25.22l.51,2.72L101,38Zm10.88,57.79h0l18.42-3.47.51,2.72-18.42,3.47-.51-2.72Zm-1-5.48h0l53.53-10.08.51,2.72L110.81,90.32Zm-1-5.48h0L162.8,72l.51,2.72L109.78,84.84Zm-1-5.48h0l53.53-10.08.51,2.72L108.74,79.36Zm-1-5.48h0l53.53-10.08.51,2.72L107.71,73.87Zm-74-.5h0l23.44-4.41L57.2,69,33.76,73.38Zm-1-5.48h0L85.74,55.1l.51,2.72L32.72,67.89Zm-1-5.48h0L84.71,49.62l.51,2.72L31.69,62.41Zm-1-5.48h0L83.68,44.13l.51,2.72L30.66,56.93Zm-1-5.48h0L82.65,38.65l.51,2.72L29.63,51.45ZM40,106.52h0L58.42,103l.51,2.72-18.42,3.47ZM39,101h0L92.49,91,93,93.67,39.48,103.75Zm-1-5.48h0L91.46,85.47,92,88.19,38.44,98.27Zm-1-5.48h0L90.43,80l.51,2.72L37.41,92.79Zm-1-5.48h0L89.4,74.51l.51,2.72L36.38,87.3Z"/>
            <path class="cls-22" d="M91.84,33a37.51,37.51,0,0,1,26.4,66.58l2.76,4-4.22,2.87-2.71-4A37.51,37.51,0,1,1,91.84,33Zm.33,4.36h0A33.14,33.14,0,1,0,127.7,67.94,33.14,33.14,0,0,0,92.16,37.39Z"/>
            <path class="cls-21" d="M115.17,107.59l7.36-5a2.43,2.43,0,0,1,3.37.64l23.42,34.49a2.44,2.44,0,0,1-.64,3.37l-7.36,5a2.43,2.43,0,0,1-3.37-.64L114.53,111a2.44,2.44,0,0,1,.64-3.37Z"/>
            <path class="cls-20" d="M97.36,37.27A33.28,33.28,0,1,1,61.49,67.73,33.28,33.28,0,0,1,97.36,37.27Z"/>
            <path class="cls-23" d="M61.73,75.32l23-4.33.73,3.89L62.54,79.2A33,33,0,0,1,61.73,75.32ZM105.1,38.83h0a33,33,0,0,1,5.71,2.5l-5.06,1Zm10.45,5.7h0a33.47,33.47,0,0,1,3.58,3.36l-11.91,2.24-.73-3.89,9.06-1.71ZM122,51.46h0a33.24,33.24,0,0,1,2.19,3.62L108.7,58,108,54.1ZM127.1,63h0a33,33,0,0,1,.65,3.91L111,70.08l-.73-3.89Zm.82,8h0c0,.71,0,1.43-.1,2.15s-.13,1.3-.22,1.94l-15.15,2.85L111.73,74l16.2-3Zm-1.21,8.36h0a33.14,33.14,0,0,1-1.52,4.32l-11.26,2.12-.73-3.89,13.52-2.54Zm-3.93,8.87h0a33.31,33.31,0,0,1-3.61,4.71l-3.77.71-.73-3.89Zm-16.27,13.32h0a33.09,33.09,0,0,1-3.38,1.09L90.86,37.37a33.28,33.28,0,0,1,3.55-.21Zm-15.65,2h0q-1.65-.19-3.24-.53l3-.57ZM80,100.31h0a33.09,33.09,0,0,1-5.06-3.08l14.27-2.69.73,3.89ZM71,93.86h0a33.55,33.55,0,0,1-3-3.47l19.68-3.7.73,3.89Zm-5.38-7.12h0A33.49,33.49,0,0,1,63.85,83l22.38-4.21L87,82.73Zm-2-28.4h0a33.05,33.05,0,0,1,2.12-4.43L81,51l.73,3.89ZM69,49.19h0a33.44,33.44,0,0,1,5.16-5l5.32-1,.73,3.89Z"/>
            <path class="cls-15" d="M66.49,74.42A30,30,0,0,1,88.11,42.76a2.44,2.44,0,0,1,3.07,1.89l.05.28a2.44,2.44,0,0,1-1.73,2.81A24.79,24.79,0,0,0,71.64,73.91a2.44,2.44,0,0,1-2,2.63l-.29.05a2.44,2.44,0,0,1-2.88-2.17Zm4.69,4.69h0a2.66,2.66,0,1,1-3.7.69A2.66,2.66,0,0,1,71.18,79.12Z"/>
            <g>
              <path class="cls-21" d="M28,43l-1.27-7,4.83-.87.22,1.19-3.41.62.3,1.67L31.61,38l.21,1.19-2.94.53.54,3Z"/>
              <path class="cls-21" d="M34,41.91l-1.27-7,3-.54a5.19,5.19,0,0,1,1.67-.11,1.64,1.64,0,0,1,.94.53,2.07,2.07,0,0,1,.51,1.05,1.91,1.91,0,0,1-.23,1.39,2.28,2.28,0,0,1-1.28.9,3.36,3.36,0,0,1,.87.45,8.08,8.08,0,0,1,1,1l1.11,1.22-1.7.31-1.3-1.35a10.22,10.22,0,0,0-.94-.9,1.11,1.11,0,0,0-.48-.22,2.38,2.38,0,0,0-.73,0l-.29.05.53,2.94Zm.69-4.32,1.05-.19A5.49,5.49,0,0,0,37,37.08a.77.77,0,0,0,.34-.37.92.92,0,0,0,0-.55.86.86,0,0,0-.29-.54.88.88,0,0,0-.58-.18q-.18,0-1,.16l-1.11.2Z"/>
              <path class="cls-21" d="M41.12,40.63l-1.27-7,5.22-.94.22,1.19-3.8.69.28,1.56,3.54-.64.21,1.19L42,37.26l.35,1.92,3.94-.71.21,1.19Z"/>
              <path class="cls-21" d="M47.69,39.44l-1.27-7,1.38-.25,3.73,4.18-.85-4.7L52,31.38l1.27,7-1.43.26L48.19,34.6,49,39.2Z"/>
              <path class="cls-21" d="M58.83,34.75l1.46.19a3.15,3.15,0,0,1-.75,1.9,3.37,3.37,0,0,1-4.25.36,3.72,3.72,0,0,1-1.38-2.46,3.91,3.91,0,0,1,.41-2.9,3.16,3.16,0,0,1,2.21-1.4,3,3,0,0,1,2.24.38,2.83,2.83,0,0,1,1,1.17l-1.35.59a1.48,1.48,0,0,0-1.7-.91,1.63,1.63,0,0,0-1.17.79,2.81,2.81,0,0,0-.16,1.91,3,3,0,0,0,.82,1.82,1.59,1.59,0,0,0,1.35.34,1.45,1.45,0,0,0,.91-.54A2.13,2.13,0,0,0,58.83,34.75Z"/>
              <path class="cls-21" d="M61.9,36.87l-1.27-7L62,29.57l.5,2.77,2.79-.5-.5-2.77,1.42-.26,1.27,7-1.42.26L65.55,33l-2.79.5.56,3.08Z"/>
            </g>
            <g>
              <path class="cls-21" d="M99.45,28.82l-1.3-7,4.83-.89.22,1.19-3.4.63.31,1.67,2.94-.54.22,1.19-2.94.54.55,3Z"/>
              <path class="cls-21" d="M105.45,27.71l-1.3-7,3-.55a5.22,5.22,0,0,1,1.67-.11,1.65,1.65,0,0,1,.94.52,2.07,2.07,0,0,1,.51,1.05A1.91,1.91,0,0,1,110,23a2.27,2.27,0,0,1-1.27.91,3.35,3.35,0,0,1,.87.45,8.15,8.15,0,0,1,1,1l1.11,1.21-1.7.31-1.31-1.34a10.44,10.44,0,0,0-.94-.9,1.12,1.12,0,0,0-.48-.21,2.43,2.43,0,0,0-.73.05l-.29.05.54,2.94Zm.67-4.33,1.05-.19a5.54,5.54,0,0,0,1.26-.32.77.77,0,0,0,.34-.37.92.92,0,0,0,0-.55.86.86,0,0,0-.3-.54.88.88,0,0,0-.59-.18q-.18,0-1,.17l-1.11.21Z"/>
              <path class="cls-21" d="M118.89,25.23l-1.55.29L116.44,24l-2.81.52-.29,1.71-1.51.28L113.27,19l1.5-.28Zm-3.13-2.3-1.45-2.43-.47,2.79Z"/>
              <path class="cls-21" d="M119.66,25.09l-1.3-7,1.38-.26L123.49,22l-.87-4.7,1.32-.24,1.3,7-1.43.26-3.69-4.07.85,4.59Z"/>
              <path class="cls-21" d="M130.77,20.36l1.46.18a3.14,3.14,0,0,1-.74,1.91,3.37,3.37,0,0,1-4.25.37,3.73,3.73,0,0,1-1.39-2.45,3.92,3.92,0,0,1,.4-2.9,3.17,3.17,0,0,1,2.21-1.41,3,3,0,0,1,2.24.38,2.84,2.84,0,0,1,1,1.16l-1.34.6a1.48,1.48,0,0,0-1.7-.91,1.63,1.63,0,0,0-1.17.8,2.79,2.79,0,0,0-.15,1.91,3,3,0,0,0,.83,1.81,1.59,1.59,0,0,0,1.35.34,1.44,1.44,0,0,0,.91-.54A2.12,2.12,0,0,0,130.77,20.36Zm-2.15,5.08-.1-.57a8.7,8.7,0,0,0,.92-.11,1.08,1.08,0,0,0,.61-.27.36.36,0,0,0,.1-.33.36.36,0,0,0-.2-.26.74.74,0,0,0-.48,0,2.25,2.25,0,0,0-.61.21l0-.5a2.47,2.47,0,0,1,.78-.28,1.4,1.4,0,0,1,1,.1.83.83,0,0,1,.43.58.84.84,0,0,1-.22.75,2.18,2.18,0,0,1-1.27.61A4.38,4.38,0,0,1,128.62,25.43Z"/>
              <path class="cls-21" d="M140.2,21.29l-1.55.29-.91-1.49-2.81.52-.29,1.71-1.51.28,1.44-7.54,1.5-.28ZM137.07,19l-1.45-2.43-.47,2.79Z"/>
              <path class="cls-21" d="M140.91,21.16l-1.3-7,1.42-.26,1.3,7Z"/>
              <path class="cls-21" d="M142.9,18.43l1.36-.39a1.72,1.72,0,0,0,.7.93,1.56,1.56,0,0,0,1.09.14,1.61,1.61,0,0,0,1-.48.88.88,0,0,0,.22-.74.66.66,0,0,0-.23-.4,1.2,1.2,0,0,0-.57-.21c-.18,0-.58-.06-1.2-.1a3.94,3.94,0,0,1-1.73-.4,1.88,1.88,0,0,1-.79-2.36,1.94,1.94,0,0,1,.75-.88,3.59,3.59,0,0,1,1.34-.5,3,3,0,0,1,2.1.21,2.09,2.09,0,0,1,1,1.42l-1.41.33a1.22,1.22,0,0,0-.54-.71,1.45,1.45,0,0,0-.94-.07,1.66,1.66,0,0,0-.92.43.52.52,0,0,0-.14.48.55.55,0,0,0,.29.39,3.79,3.79,0,0,0,1.39.23,7.05,7.05,0,0,1,1.63.22,2,2,0,0,1,.91.57,2.25,2.25,0,0,1,.36,2.26,2,2,0,0,1-.81,1,4,4,0,0,1-1.48.54,3.1,3.1,0,0,1-2.17-.24A2.74,2.74,0,0,1,142.9,18.43Z"/>
            </g>
          </g>
        </g>
      </g>
    </g>
  </g>
</svg>
