<svg id="Layer_1" data-name="Layer 1" xmlns="http://www.w3.org/2000/svg" xmlns:xlink="http://www.w3.org/1999/xlink" viewBox="0 0 300 150">
  <defs>
    <style>
      .cls-1, .cls-11, .cls-8 {
        fill: none;
      }

      .cls-2 {
        clip-path: url(#clip-path);
      }

      .cls-3 {
        fill: #55b0d4;
      }

      .cls-4 {
        fill: #f8f8f9;
      }

      .cls-5 {
        fill: #464547;
      }

      .cls-6, .cls-7 {
        fill: #ed2024;
      }

      .cls-6 {
        fill-rule: evenodd;
      }

      .cls-8 {
        stroke: #000;
        stroke-width: 0.25px;
      }

      .cls-11, .cls-8 {
        stroke-miterlimit: 10;
      }

      .cls-9 {
        fill: #4ea1c2;
      }

      .cls-10 {
        clip-path: url(#clip-path-3);
      }

      .cls-11 {
        stroke: #0090cf;
      }
    </style>
    <clipPath id="clip-path">
      <rect class="cls-1" width="300" height="150"/>
    </clipPath>
    <clipPath id="clip-path-3">
      <rect class="cls-1" x="-1355.94" y="355.44" width="300" height="150"/>
    </clipPath>
  </defs>
  <title>Newcomers</title>
  <g class="cls-2">
    <g>
      <rect class="cls-3" width="300" height="150"/>
      <g>
        <polygon class="cls-4" points="219.45 66.33 65.52 66.33 65.52 19.12 219.45 19.12 242.77 42.72 219.45 66.33"/>
        <polygon class="cls-4" points="216.77 63.49 70.44 63.49 70.44 22.33 216.77 22.33 237.86 42.91 216.77 63.49"/>
        <g>
          <path class="cls-5" d="M88.3,45.06l2.8.89A6.29,6.29,0,0,1,89,49.43a6.74,6.74,0,0,1-8.49-.81,7.46,7.46,0,0,1-1.84-5.33,7.83,7.83,0,0,1,1.85-5.55,6.33,6.33,0,0,1,4.85-2,6,6,0,0,1,4.27,1.55A5.64,5.64,0,0,1,91.06,40l-2.86.68a3,3,0,0,0-3-2.4,3.26,3.26,0,0,0-2.58,1.14,5.6,5.6,0,0,0-1,3.7,6,6,0,0,0,1,3.87,3.17,3.17,0,0,0,2.54,1.15,2.9,2.9,0,0,0,2-.73A4.26,4.26,0,0,0,88.3,45.06Z"/>
          <path class="cls-5" d="M106.49,50.33h-3.14l-1.25-3.25H96.37l-1.18,3.25H92.12L97.7,36h3.06Zm-5.32-5.66-2-5.31-1.93,5.31Z"/>
          <path class="cls-5" d="M108.05,50.33V36h2.81l5.86,9.56V36h2.69V50.33h-2.9L110.74,41v9.34Z"/>
          <path class="cls-5" d="M135.38,50.33h-3.14L131,47.08h-5.72l-1.18,3.25H121L126.59,36h3.06Zm-5.32-5.66-2-5.31-1.93,5.31Z"/>
          <path class="cls-5" d="M136.9,36h5.28a10.3,10.3,0,0,1,2.72.27,4.78,4.78,0,0,1,2.16,1.32,6.26,6.26,0,0,1,1.37,2.32,10.57,10.57,0,0,1,.47,3.38,9.41,9.41,0,0,1-.44,3,6.31,6.31,0,0,1-1.53,2.53,5.08,5.08,0,0,1-2,1.14,8.73,8.73,0,0,1-2.56.3H136.9Zm2.89,2.42v9.48h2.16a7.9,7.9,0,0,0,1.75-.14,2.67,2.67,0,0,0,1.17-.6,3,3,0,0,0,.76-1.38,9.34,9.34,0,0,0,.29-2.62,8.56,8.56,0,0,0-.29-2.55,3.27,3.27,0,0,0-.82-1.39,2.75,2.75,0,0,0-1.34-.67,13.13,13.13,0,0,0-2.37-.14Z"/>
          <path class="cls-5" d="M164.26,50.33h-3.14l-1.25-3.25h-5.72L153,50.33H149.9L155.47,36h3.06Zm-5.32-5.66-2-5.31L155,44.66Z"/>
        </g>
        <path class="cls-6" d="M201.47,54.68l-.86,0c0-.7,0-3.85,0-5.43a.47.47,0,0,0-.55-.49c-1.33.22-4.08.71-5.1.89.29-1.13.32-1.24.37-1.42a.73.73,0,0,0-.3-.86c-.14-.11-5.11-3.85-5.33-4l1-.52c.36-.18.42-.3.29-.7-.49-1.58-.85-2.7-1-3.29,1.7.28.81.13,2.92.5.42.07.61-.05.71-.47a12.23,12.23,0,0,1,.36-1.25c.19.22.55.65,2.43,2.6.24.25.49.35.67.24s.24-.42.19-.67c-.2-.93-.34-1.53-1.24-5.56a10.1,10.1,0,0,1,1.44.66c.52.24.77.15,1-.36l1.7-3.45c.18.29-.18-.31,2,3.35a.62.62,0,0,0,1,.27c.66-.36,1.18-.68,1.43-.79-.33,2.29-.46,3-.83,5.51-.09.58.13,1,.57.75a29.47,29.47,0,0,0,2.59-3c.12.35.23.67.32,1,.2.75.42.73,1,.57.14,0,2.44-.62,2.64-.64-.12.56-.37,1.57-.77,3.3-.11.48-.06.56.39.75l1,.42c-.34.34-4.87,4.25-5.1,4.48a.67.67,0,0,0-.18.74c.37,1.1.35,1,.49,1.45l-5.05-.52a.48.48,0,0,0-.58.57C201.52,55.38,201.44,53.8,201.47,54.68Z"/>
        <polygon class="cls-6" points="216.77 63.49 216.77 63.49 216.77 22.33 216.77 22.33 237.86 42.91 216.77 63.49"/>
        <rect class="cls-7" x="172.05" y="22.33" width="12.56" height="41.17"/>
        <polygon class="cls-8" points="216.77 63.49 70.44 63.49 70.44 22.33 216.77 22.33 237.86 42.91 216.77 63.49"/>
      </g>
      <g class="cls-2">
        <g>
          <path class="cls-9" d="M142.92,78.12a1.17,1.17,0,0,0,.6.21V79.9a3.7,3.7,0,0,1-.6-.1Z"/>
          <path class="cls-9" d="M145.67,77.93v1.59h-.09a1.74,1.74,0,0,0-.49,0V78c.22,0,.4,0,.49-.06Z"/>
          <g id="EUwXWQ">
            <path class="cls-9" d="M144.33,79.4v-.22s0,0,0,0h0a.09.09,0,0,0-.06,0h-.15s0,0,0-.06,0,0,0,0L144,79l-.1-.09h0a0,0,0,0,0,0,0s0,0,0,0,0-.07,0-.1h0l.1,0s0,0,0,0,0,0,0-.06h0l.09.1h0a0,0,0,0,0,0,0h0v0s0-.06,0-.09,0-.06,0-.09h0l.06,0h0s0,0,0,0h0a.82.82,0,0,1,.07-.12h0l.07.13h0a0,0,0,0,0,0,0h0s0,.06,0,.09,0,.06,0,.09v0h0a0,0,0,0,0,0,0,0,0,0,0,0,0,0l.09-.1h0a.05.05,0,0,0,0,0,0,0,0,0,0,0,0l.12,0h0s0,.07,0,.12h0s0,0,0,0h0l-.21.16s0,0,0,0,0,0,0,.06h0a379434,379434,0,0,0-.12,0h-.09v.19Z"/>
          </g>
          <path class="cls-9" d="M358.62,149.92v84H-83.76v-84h3.34l1.25-1.25v-3.34L-76.8,143v-3.19l1.46-1.46,1.88,1.88v3.47h2.93v3.14h1.6l1.6-1.6v-3.9H-65v7.38h3.19v-5.29h1.53v2.37h4v-2.93h4v2.37h3.75V133.5h2.5v10h1.66v-5h2.37v5h3.62v-11h4.59v5h3.19v-7.66h2.22v4.46h2.93V126h1.66v-3.34h1.25v10.72h2.65V137H-17v-5.43h2.5v4.31h4.18v-2.5h4v-2.09h4v-7.66H-.71v5.29H1.51V126.8H8.06v-1.94h3.47v1.94h3.9v-4.18h2.09V125h7.37l1.25-1.25h4v-2.09h2.22V123h7v-2.78h5.56v1.52h.41v-1.94h1.06V118h.47v-1.69h.26v3.61h1.44v2h.74v-1h1.06v.85H52v-.56h.56v-.9h1.4v-2.58h1.24v-3.67H60.3v-3.17h.41v1.83h1v-.56h.87v.56h.59v-.57H64v.57h1.24v-.59h.38v.6h.51v-.59h1.22v.44h.78V112h.85v.5h1v-.37h.63v.26h3v1.65h4.11s-.13-2.47,1.57-2.44,1.49,2.46,1.49,2.46h.65v2h1.47v1.32h1.6v5.26h.94v-1.5h1.32v1.56h.69v-3.93h1.32v2.43L91.83,118h2.31v-1.47H98v-.77h3.13v1H106l.53.77v2.75H107v-4.62h1l.74-4h1.43v-1h2.71l.79,3.8h.84v.9h.56v-11.2l.77-.31.69-2.61h.9l.66,2.43.59.41v9.13h.66l2.19-1.43,1.5,1.4.49,0s.28-1.5.66-1.63v-3.24h1.5v3.06a1.17,1.17,0,0,1,.49.56h.35v-7.27l1.35-3h.84l1.21,3v7.57h2.31v-2.56l1,0v2.56H142V100.45h-.66v-.6H142V96h.54V94.22h.56v-1.9h.51l1.9-10.16h.09V79.5h.09V77.93h.37v4.24h.09L148,92h.37V93.9h.74v1.77h.6v3.58h.88v.6h-.88v12.2h1.16l2.37-3.06.69-5.61h1.12l.41,1.94.74-1.06v-3.53h.51l2.5-7.29V86h.57V93.4l3.4,7.73v2.75h.56v1.53h.49v-1.22h.94v3.7h1v1.78l1.74,2.19h1.29v-2.37h1.6v3.14h4.69V110.9h1.32v2.43h1.66v-6.92l1-2.83h.74l1.25,2.86v1.07h.66v.69h-.63v4.52h3.55l2.28,2.28v-8.41L189,104h.63l1.28,2.59v11.87h1.19v-1.56h1v1.15l2.37.35,10.58.28v.69h.69v-5.61l.34-.13v-3.09h.56v.31h.49l1.43-10h1.12l2,11.07h.28v-3.3h.59l.51,6v4.62h.49v-4.24h.69l.31,1.66V120h.31v-1h5.36v-2.33l.34-1.72h.56l.35,1.74v2.25h5.43v-.49h3.66v1.88h4v2.78h7v-1.41h2.22v2.09h4L250,125h7.37v-2.37h2.09v4.18h3.9v-1.94h3.47v1.94h6.53v2.09h2.22v-5.29h1.53v7.66h4v2.09h4v2.5h4.18v-4.31h2.5V137h2.78v-3.62h2.65V122.64h1.25V126h1.66v8.35h2.93v-4.46h2.22v7.66h3.19v-5h4.59v11h3.62v-5h2.37v5h1.66v-10h2.5v11.69H327v-2.37h4v2.93h4v-2.37h1.53v5.29h3.19v-7.38h2.37v3.9l1.6,1.6h1.6v-3.14h2.93v-3.47l1.88-1.88,1.46,1.46v3.19l2.37,2.37v3.34l1.25,1.25h3.33Z"/>
        </g>
      </g>
      <path class="cls-4" d="M67.44,9.71V154.49h-8V9.71a4,4,0,0,1,8,0Z"/>
    </g>
  </g>
  <g class="cls-10">
    <g>
      <g class="cls-10">
        <path class="cls-11" d="M0,74.5c15,0,15,1,30,1s15-1,30-1,15,1,30,1,15-1,30-1,15,1,30,1,15-1,30-1,15,1,30,1,15-1,30-1,15,1,30,1,15-1,30-1"/>
      </g>
      <path class="cls-11" d="M0,74.5c15,0,15,1,30,1s15-1,30-1,15,1,30,1,15-1,30-1,15,1,30,1,15-1,30-1,15,1,30,1,15-1,30-1,15,1,30,1,15-1,30-1"/>
    </g>
  </g>
</svg>
