<svg id="Layer_1" data-name="Layer 1" xmlns="http://www.w3.org/2000/svg" xmlns:xlink="http://www.w3.org/1999/xlink" viewBox="0 0 300 150">
  <defs>
    <style>
      .cls-1 {
        fill: none;
      }

      .cls-2 {
        fill: #5b486f;
      }

      .cls-3 {
        fill: #fff;
      }

      .cls-4 {
        clip-path: url(#clip-path);
      }

      .cls-5 {
        fill: #8f593c;
      }

      .cls-6 {
        fill: #7d472f;
      }

      .cls-7 {
        fill: #f8f1e9;
      }

      .cls-8 {
        fill: #7c4933;
      }

      .cls-9 {
        fill: #fcc6a0;
      }

      .cls-10 {
        fill: #dca27c;
      }

      .cls-11 {
        fill: #fedeca;
      }

      .cls-12 {
        fill: #d88e69;
      }

      .cls-13 {
        fill: #bd6f4b;
      }

      .cls-14 {
        fill: #e8b695;
      }

      .cls-15 {
        fill: #fed4aa;
      }

      .cls-16 {
        fill: #e9a985;
      }

      .cls-17 {
        fill: #d39e72;
      }

      .cls-18 {
        fill: #bf8b64;
      }

      .cls-19 {
        fill: url(#radial-gradient);
      }

      .cls-20 {
        fill: #503e62;
      }
    </style>
    <clipPath id="clip-path">
      <ellipse id="_Clipping_Path_" data-name="&lt;Clipping Path&gt;" class="cls-1" cx="148.47" cy="76.57" rx="69.6" ry="69.88"/>
    </clipPath>
    <radialGradient id="radial-gradient" cx="161.18" cy="70.34" r="35.47" gradientTransform="translate(0 0.62)" gradientUnits="userSpaceOnUse">
      <stop offset="0.18" stop-color="#cc2027"/>
      <stop offset="0.61" stop-color="#cc2027"/>
    </radialGradient>
  </defs>
  <title>Social Service</title>
  <g>
    <rect class="cls-2" width="300" height="150"/>
    <g id="_Group_" data-name="&lt;Group&gt;">
      <g id="_Group_2" data-name="&lt;Group&gt;">
        <g id="_Group_3" data-name="&lt;Group&gt;">
          <g id="_Group_4" data-name="&lt;Group&gt;">
            <ellipse class="cls-3" cx="148.47" cy="76.57" rx="69.89" ry="70.17"/>
          </g>
          <g id="_Group_5" data-name="&lt;Group&gt;">
            <g id="_Clip_Group_" data-name="&lt;Clip Group&gt;">
              <g class="cls-4">
                <g id="_Group_6" data-name="&lt;Group&gt;">
                  <g id="_Group_7" data-name="&lt;Group&gt;">
                    <g id="_Group_8" data-name="&lt;Group&gt;">
                      <g id="_Group_9" data-name="&lt;Group&gt;">
                        <path id="_Path_" data-name="&lt;Path&gt;" class="cls-5" d="M158.11,6.5c-3.67,12-5.57,19.67-4.84,26.56s7.1,13.4,11.76,15.49,6.74,1.48,8.57,4.55,4.41,8,6.86,12.17,4.29,4.06,4.29,4.06-1.71,7.5-1.59,11.19,1.22,6.15,3.31,7,2.57-2.83,3.67-8.61,3.55-9.84,2.69-13.53-2.45-12.54-2.45-15.74-1-2.83-4.78-7.25-12-12.05-12.54-16.48S179.6,6.5,179.6,6.5Z"/>
                        <path id="_Path_2" data-name="&lt;Path&gt;" class="cls-6" d="M183.15,80.53c-.12-3.69,1.59-11.19,1.59-11.19s-1.53.09-3.65-3.05h0l.15.22c-.72,4.67.87,9.34.93,10.57s-.06,2.21,0,3.07,0,1.84,0,1.84a7.75,7.75,0,0,0-2.47,5.66c.18,3.32,2.82,3.63,3.12,3.63s2.11-2.75,2.8-4.2h0C184.1,86,183.26,83.7,183.15,80.53Z"/>
                        <path id="_Path_3" data-name="&lt;Path&gt;" class="cls-7" d="M186.31,61.37c-1.56-.37-3.44.92-3.62,1.11s-.13,1.57.95,3.55,2.59,2.91,4.19,1.89S186.31,61.37,186.31,61.37Z"/>
                        <path id="_Path_4" data-name="&lt;Path&gt;" class="cls-8" d="M178.83,39.81c0-.23-.56-.1-.53.14.5,4.76,3,9.34,5,13.62,1,2.13,2.09,4.19,3.05,6.32A35.19,35.19,0,0,1,188.12,64c1.35,4.37-.83,5.33-3.37,5.31l0,.17c6.6.35,3.75-6.24,1.92-10.21C183.79,53.16,179.54,46.67,178.83,39.81Z"/>
                      </g>
                      <g id="_Group_10" data-name="&lt;Group&gt;">
                        <path id="_Path_5" data-name="&lt;Path&gt;" class="cls-9" d="M92.85,33.15c8.5,9.19,14.18,14.68,20.49,17.49s15.11.53,19.24-2.48S137.22,43,140.79,43s9.1.16,13.93.12,5.64-1.7,5.64-1.7,5.61,5.24,8.86,7,5.92,2,7.7.63-1.15-3.65-5.59-7.5-6.71-8-10.32-9.11-12-4.14-14.8-5.74-2.93-.56-8.65.53-16.38,4.39-20.48,2.67-13.49-15.4-13.49-15.4Z"/>
                        <path id="_Path_6" data-name="&lt;Path&gt;" class="cls-10" d="M169.22,48.39c-3.24-1.74-8.86-7-8.86-7s-.68,1.37-4.46,1.65h0l.27,0c3.67,3,8.49,3.92,9.59,4.48s1.88,1.16,2.65,1.54S170,50,170,50a7.74,7.74,0,0,0,3.65,5c3,1.5,4.54-.64,4.69-.9s-1.32-3.21-2.23-4.54h0C174.38,50.29,172,49.88,169.22,48.39Z"/>
                        <path id="_Path_7" data-name="&lt;Path&gt;" class="cls-11" d="M154.28,36.07c-1.1,1.17-.92,3.45-.86,3.7s1.29.89,3.54,1,3.8-.8,3.73-2.7S154.28,36.07,154.28,36.07Z"/>
                        <path id="_Path_8" data-name="&lt;Path&gt;" class="cls-10" d="M131.94,31.79c-.21-.09-.37.43-.14.53,4.36,2,9.55,2.08,14.23,2.51,2.32.21,4.66.28,7,.51a34.85,34.85,0,0,1,4.48.49c4.45,1,4.19,3.39,2.89,5.58l.13.12c3.61-5.57-3.51-6.38-7.85-6.77C145.93,34.15,138.22,34.6,131.94,31.79Z"/>
                      </g>
                      <g id="_Group_11" data-name="&lt;Group&gt;">
                        <path id="_Path_9" data-name="&lt;Path&gt;" class="cls-12" d="M83.2,103.22c12.18-2.8,19.76-5,25.33-9.07s8-12.88,7.49-18-2.1-6.59-.36-9.73,4.69-7.83,7.07-12.05,1.36-5.76,1.36-5.76,7.33-2.26,10.45-4.21,4.69-4.14,4.39-6.38-3.73-.82-9.26,1.11-10.26,1.83-13,4.42-9.59,8.4-12.35,10-1.95,2.27-3.87,7.78S96,77.81,92.49,80.51s-20,4-20,4Z"/>
                        <path id="_Path_10" data-name="&lt;Path&gt;" class="cls-13" d="M134.53,44.43c-3.12,2-10.45,4.21-10.45,4.21s.84,1.28-.81,4.7h0l.11-.24c4.39-1.71,7.63-5.43,8.66-6.09S134,46,134.7,45.47s1.58-.94,1.58-.94a7.68,7.68,0,0,0,6.11-.68c2.77-1.82,1.72-4.26,1.57-4.53s-3.43-.46-5-.33h0C138.75,40.9,137.22,42.76,134.53,44.43Z"/>
                        <path id="_Path_11" data-name="&lt;Path&gt;" class="cls-14" d="M116.44,51.27c.46,1.54,2.51,2.53,2.77,2.6s1.42-.67,2.59-2.6,1.21-3.7-.47-4.59S116.44,51.27,116.44,51.27Z"/>
                        <path id="_Path_12" data-name="&lt;Path&gt;" class="cls-13" d="M101.58,68.55c-.19.14.19.54.39.39,3.86-2.81,6.57-7.26,9.28-11.12,1.34-1.91,2.57-3.91,3.93-5.82a35.12,35.12,0,0,1,2.67-3.65c3.1-3.36,5-1.95,6.26.28l.17-.05c-3-5.92-7.26-.13-9.77,3.44C110.61,57.57,107.14,64.5,101.58,68.55Z"/>
                      </g>
                      <g id="_Group_12" data-name="&lt;Group&gt;">
                        <path id="_Path_13" data-name="&lt;Path&gt;" class="cls-15" d="M138.83,146.64c3.67-12,5.57-19.67,4.84-26.56s-7.1-13.4-11.76-15.49-6.74-1.48-8.57-4.55-4.41-8-6.86-12.17-4.29-4.06-4.29-4.06,1.71-7.5,1.59-11.19-1.22-6.15-3.31-7-2.57,2.83-3.67,8.61-3.55,9.84-2.69,13.53,2.45,12.54,2.45,15.74,1,2.83,4.78,7.25,12,12.05,12.54,16.48-6.54,19.43-6.54,19.43Z"/>
                        <path id="_Path_14" data-name="&lt;Path&gt;" class="cls-10" d="M113.78,72.62c.12,3.69-1.59,11.19-1.59,11.19s1.53-.09,3.65,3.05h0l-.15-.22c.72-4.67-.87-9.34-.93-10.57s.06-2.21,0-3.07,0-1.84,0-1.84a7.75,7.75,0,0,0,2.47-5.66c-.18-3.32-2.82-3.63-3.12-3.63s-2.11,2.75-2.8,4.2h0C112.84,67.19,113.67,69.44,113.78,72.62Z"/>
                        <path id="_Path_15" data-name="&lt;Path&gt;" class="cls-11" d="M110.63,91.77c1.56.37,3.44-.92,3.62-1.11s.13-1.57-.95-3.55-2.59-2.91-4.19-1.89S110.63,91.77,110.63,91.77Z"/>
                        <path id="_Path_16" data-name="&lt;Path&gt;" class="cls-10" d="M118.11,113.33c0,.23.56.1.53-.14-.5-4.76-3-9.34-5-13.62-1-2.13-2.09-4.19-3.05-6.32a35.2,35.2,0,0,1-1.82-4.14c-1.35-4.37.83-5.33,3.37-5.31l0-.17c-6.6-.35-3.75,6.24-1.92,10.21C113.14,100,117.39,106.47,118.11,113.33Z"/>
                      </g>
                      <g id="_Group_13" data-name="&lt;Group&gt;">
                        <path id="_Path_17" data-name="&lt;Path&gt;" class="cls-16" d="M204.09,120c-8.5-9.19-14.18-14.68-20.49-17.49S168.48,102,164.35,105s-4.64,5.12-8.21,5.18S147,110,142.21,110s-5.64,1.7-5.64,1.7-5.61-5.24-8.86-7-5.92-2-7.7-.63,1.15,3.65,5.59,7.5,6.71,8,10.32,9.11,12,4.14,14.8,5.74,2.93.56,8.65-.53,16.38-4.39,20.48-2.67,13.49,15.4,13.49,15.4Z"/>
                        <path id="_Path_18" data-name="&lt;Path&gt;" class="cls-12" d="M127.71,104.75c3.24,1.74,8.86,7,8.86,7s.68-1.37,4.46-1.65h0l-.27,0c-3.67-3-8.49-3.92-9.59-4.48s-1.88-1.16-2.65-1.54-1.6-.91-1.6-.91a7.74,7.74,0,0,0-3.65-5c-3-1.5-4.54.64-4.69.9s1.32,3.21,2.23,4.54h0C122.56,102.86,124.92,103.26,127.71,104.75Z"/>
                        <path id="_Path_19" data-name="&lt;Path&gt;" class="cls-14" d="M142.66,117.07c1.1-1.17.92-3.45.86-3.7s-1.29-.89-3.54-1-3.8.8-3.73,2.7S142.66,117.07,142.66,117.07Z"/>
                        <path id="_Path_20" data-name="&lt;Path&gt;" class="cls-12" d="M165,121.35c.21.09.37-.43.14-.53-4.36-2-9.55-2.08-14.23-2.51-2.32-.21-4.66-.28-7-.51a34.85,34.85,0,0,1-4.48-.49c-4.45-1-4.19-3.39-2.89-5.58l-.13-.12c-3.61,5.57,3.51,6.38,7.85,6.77C151,119,158.72,118.54,165,121.35Z"/>
                      </g>
                      <g id="_Group_14" data-name="&lt;Group&gt;">
                        <path id="_Path_21" data-name="&lt;Path&gt;" class="cls-17" d="M213.73,49.92c-12.18,2.8-19.76,5-25.33,9.07s-8,12.88-7.49,18,2.1,6.59.36,9.73-4.69,7.83-7.07,12.05-1.36,5.76-1.36,5.76-7.33,2.26-10.45,4.21-4.69,4.14-4.39,6.38,3.73.82,9.26-1.11,10.26-1.83,13-4.42,9.59-8.4,12.35-10,1.95-2.27,3.87-7.78,4.4-16.44,7.94-19.14,20-4,20-4Z"/>
                        <path id="_Path_22" data-name="&lt;Path&gt;" class="cls-18" d="M162.4,108.71c3.12-2,10.45-4.21,10.45-4.21s-.84-1.28.81-4.7h0l-.11.24c-4.39,1.71-7.63,5.43-8.66,6.09s-1.94,1.05-2.65,1.54-1.58.94-1.58.94a7.68,7.68,0,0,0-6.11.68c-2.77,1.82-1.72,4.26-1.57,4.53s3.43.46,5,.33h0C158.19,112.24,159.72,110.39,162.4,108.71Z"/>
                        <path id="_Path_23" data-name="&lt;Path&gt;" class="cls-14" d="M180.5,101.87c-.46-1.54-2.51-2.53-2.77-2.6s-1.42.67-2.59,2.6-1.21,3.7.47,4.59S180.5,101.87,180.5,101.87Z"/>
                        <path id="_Path_24" data-name="&lt;Path&gt;" class="cls-18" d="M195.35,84.59c.19-.14-.19-.54-.39-.39-3.86,2.81-6.57,7.26-9.28,11.12-1.34,1.91-2.57,3.91-3.93,5.82a35.12,35.12,0,0,1-2.67,3.65c-3.1,3.36-5,1.95-6.26-.28l-.17.05c3,5.92,7.26.13,9.77-3.44C186.33,95.58,189.79,88.64,195.35,84.59Z"/>
                      </g>
                    </g>
                  </g>
                  <path id="_Path_25" data-name="&lt;Path&gt;" class="cls-19" d="M165.3,58.81c-6-2.26-12.63,0-16.83,5.07-4.2-5.1-10.86-7.34-16.83-5.07-7.72,2.92-11.36,12.24-8.14,20.81s25,24,25,24,21.75-15.43,25-24S173,61.73,165.3,58.81Z"/>
                </g>
              </g>
            </g>
          </g>
          <g id="_Group_15" data-name="&lt;Group&gt;">
            <path class="cls-20" d="M220.85,76.57c-.29-30.15-18.92-57.51-47.27-68.16C145-2.32,111.74,6.88,92.51,30.49s-21.77,57.63-6,83.69a73.06,73.06,0,0,0,76.2,33.64c33.74-6.65,57.8-37.23,58.13-71.25,0-3.22-5-3.22-5,0-.27,28-17.66,53.9-44.22,63.57A67.59,67.59,0,0,1,90.5,42c14.35-24.25,43.18-37.39,70.89-31.9,31.58,6.25,54.15,34.47,54.46,66.43C215.89,79.79,220.89,79.8,220.85,76.57Z"/>
          </g>
        </g>
      </g>
    </g>
  </g>
  <rect class="cls-1" x="32.75" y="-4.37" width="234.5" height="158.37"/>
</svg>
