<svg id="Layer_1" data-name="Layer 1" xmlns="http://www.w3.org/2000/svg" xmlns:xlink="http://www.w3.org/1999/xlink" viewBox="0 0 300 150">
  <defs>
    <style>
      .cls-1 {
        fill: none;
      }

      .cls-2 {
        clip-path: url(#clip-path);
      }

      .cls-3 {
        fill: #2f70a0;
      }

      .cls-4 {
        fill: #00a2cc;
      }

      .cls-5 {
        fill: #26895e;
      }

      .cls-6 {
        fill: #fbb426;
      }

      .cls-7 {
        fill: #fff;
      }

      .cls-8 {
        fill: #c8cacb;
      }

      .cls-9 {
        fill: #24bbb1;
      }

      .cls-10 {
        fill: url(#linear-gradient);
      }

      .cls-11 {
        fill: url(#linear-gradient-2);
      }

      .cls-12 {
        fill: url(#linear-gradient-3);
      }

      .cls-13 {
        fill: url(#linear-gradient-4);
      }

      .cls-14 {
        fill: url(#linear-gradient-5);
      }

      .cls-15 {
        fill: url(#linear-gradient-6);
      }

      .cls-16 {
        fill: url(#linear-gradient-7);
      }

      .cls-17 {
        fill: url(#linear-gradient-8);
      }

      .cls-18 {
        fill: url(#linear-gradient-9);
      }

      .cls-19 {
        fill: url(#linear-gradient-10);
      }
    </style>
    <clipPath id="clip-path">
      <rect class="cls-1" width="300" height="150"/>
    </clipPath>
    <linearGradient id="linear-gradient" x1="46.09" y1="6.48" x2="46.09" y2="37.95" gradientUnits="userSpaceOnUse">
      <stop offset="0" stop-color="#fff"/>
      <stop offset="0.49" stop-color="#fdfdfd"/>
      <stop offset="0.76" stop-color="#f5f5f5"/>
      <stop offset="0.98" stop-color="#e8e8e7"/>
      <stop offset="1" stop-color="#e6e6e5"/>
    </linearGradient>
    <linearGradient id="linear-gradient-2" x1="28.07" y1="17.62" x2="28.07" y2="47.71" xlink:href="#linear-gradient"/>
    <linearGradient id="linear-gradient-3" x1="225.17" y1="11.18" x2="225.17" y2="48.07" xlink:href="#linear-gradient"/>
    <linearGradient id="linear-gradient-4" x1="205.72" y1="78.5" x2="205.72" y2="115.38" xlink:href="#linear-gradient"/>
    <linearGradient id="linear-gradient-5" x1="259.97" y1="31.29" x2="259.97" y2="65.96" xlink:href="#linear-gradient"/>
    <linearGradient id="linear-gradient-6" x1="135.91" y1="89.37" x2="135.91" y2="128.46" xlink:href="#linear-gradient"/>
    <linearGradient id="linear-gradient-7" x1="172.69" y1="79.06" x2="172.69" y2="112.92" xlink:href="#linear-gradient"/>
    <linearGradient id="linear-gradient-8" x1="195.94" y1="27.1" x2="195.94" y2="63.98" xlink:href="#linear-gradient"/>
    <linearGradient id="linear-gradient-9" x1="234.25" y1="26.29" x2="234.25" y2="60.96" xlink:href="#linear-gradient"/>
    <linearGradient id="linear-gradient-10" x1="207.94" y1="87.15" x2="207.94" y2="142" xlink:href="#linear-gradient"/>
  </defs>
  <title>Travel</title>
  <g class="cls-2">
    <g>
      <g>
        <rect class="cls-3" width="300" height="150"/>
        <path class="cls-4" d="M90.27,52.58A78.09,78.09,0,0,1,119,159.21,79.42,79.42,0,0,1,114.7,166,88.27,88.27,0,0,1-20,88.51a79,79,0,0,1,3.64-7.16A78.09,78.09,0,0,1,90.27,52.58Z"/>
        <path class="cls-5" d="M124,91.74a78,78,0,0,1,.74,55.16,6.81,6.81,0,0,1,.14-1.69,15.47,15.47,0,0,1-3.34-1l-.12.06c-1.13.53-.26.53-1.88.82-1.93.35-3.63,1.35-5.59,1.4-1.06,1.44-1,2-2.41,3.58-.54.59-2.35,2-3.16,1.33-.25-.21.25-3.85.44-4.83a36.05,36.05,0,0,1,.94-4.79c.3-1,1.1-2.67,1.24-3.35-1-.4-1.31.22-1.84-.92-.37-.81.07-.93.11-1.81-.34-1.12-.7-2.25-1.05-3.38-.48-.53-2.92-1.49-3.82-2.15-1.62-1.14-1.83-1.12-2.06-3.08-1.85-.95-2.09-.18-3-2.7-.59-1.63.53-3.07-1.65-3.14-.88,1.39-.37,2.1-.12,3.12a5.48,5.48,0,0,1,.38,2.25s-.25.74-.28.83c1.57,1,2.4.48,3.67.34.4,1.31-.53,1,.36,2.33.71,1.08.68.67.86,1.86-.3,1.28-4.57,2.78-5.72,2.83-.89,0-1.1-.4-2-.25-1.29.23-.25.69-2.09.37s-4.29,0-6.06-.9c.21-1.22.43-2.45.65-3.69.92-4.11.19-2.73.12-5.18-.07-1.08.44-1.46.49-2.35.06-.66-.18-1.1-.14-1.92.07-1.28.37-3.16-.86-3.66-.69.64-.9,4-.95,4.86s.32,1.41-.06,2.41c-.51,1.39-.68,1.08-.48,2.33.45,2.59-.89,1.4.37,4.42.95,2.26.3,2.39,0,4.52.93.95,5.07,1.37,5.38,2.12,0,1.58-2.56,2.66-3.53,3.49-3.22,2.79-5.32,1.52-8.48,3.26a29,29,0,0,0-4.06,2.15c-2.06,1.42-2.37,8.48-5.36,9.78-.67.31-2-.07-4.44.66-2.57.81-.78,1.45-3,4-.86.39-1.46.08-2.32.22-.6.55-.74,1.19-1.59,1.81-1,.78-.72.21-1.76.7a13.77,13.77,0,0,1-1.7,1,7,7,0,0,1-1.62.46c-2.88.65-7-1.63-7.17-2.07-.49-1.36.28-1.2.71-2.48a11.12,11.12,0,0,0,.3-3.32v-.11A6.9,6.9,0,0,1,47.4,156c.64-2.91,2-4.62,2.07-7.91.14-4.21,3.78-4.36,4.72-6.25.24-.51.23-.9.41-1.31.83-2.2,1.68-4.12,1.24-6.47-.49-2.57-.64-1.85,1.46-4.4,2.47-2.9.61-2.86-1.29-4.07.74-3.5-2-3.13-4.31-3.33-1.48-.14-1.51-1.08-2.95-1.65-3.18-1.3-1.59,1.31-3.74-4.09-.9-2.25-.17-1-.21-3.15a27.74,27.74,0,0,0-.65-3c-.42-2.73,2.45-3.6,3.42-5.91,1.84-4.25-.81-1.16,4.2-4.7,2.65-1.89,4.43-.89,5.55-1.77s1.14-1.68,2.41-2.19c1.09-.39,1.93.3,3-.68,1.37-1.18.48-1.94-.58-2.6.43-1.81.21-1.42,1.38-2.65.66-.69.7-1.17,1.33-1.87,1.58-1.75,3.85,2.19,5.29,1.93a2.68,2.68,0,0,0,1.44-2.5c-.07-1.13-.85-1.44-.77-2.43,1.14-.08.26.06,1.06.31s1,0,2.09.37,2-.15,3.21-.21c1.69-.09,1.52-1.14,3.15-.52,2.65,1,1,.14,2.59-2,.45.07.88.11,1.32.16.19,1.43-.53.48,0,1.66.32,0,.68,0,1,0,.49-1.15-.13-1.23.31-2.75-1.3-.5-2.31.26-3.06-.65s0-2.24.68-3.33c.82-.63,2.82-.09,3.61.09,1.3.26,1.56-.56,3.13-1,2-.55.34.22,1.93-1.1,1.46.77.82.33,1.91.38h.16c.63.06,1.31.38,2.09.53,2.84.57,3.59,1.53,4.91,3.24,1,1.33,5.07,3.68,4.39,5.55-1.56.46-2.06-.82-3.53-1.54-.5,1.47-.39,1.53.59,2.58.56-.51.13-.43.69-.64.34.31.69.61,1,.9,1.16-1.11,1.5-.66,2.92-.06.31-1-.08-.92.84-1.36,1.29.93.25.17.29,1.65,1,.43,2.57-.1,4,.52.87.39.65.68,1.89,1.22,1,.45,1.17.07,1.9,1,.71-.44.36-.63,1.29-.3,1.43.52,2.1,2,3.25,2.86-.27-1.68-1.29-2,1-3.21,1.62.54,1.63.82,1.63,2.28a9.78,9.78,0,0,0,1-.11ZM-2.71,143.46h0Q-5.24,140-7.42,136.4a3.36,3.36,0,0,1,.1-.34c.78-2.11,1.73-1.85,2.66-5.59C-4,128-.9,123.12,0,120.17a4.76,4.76,0,0,0,.22-1.24c0-1.31-1.2-2.58-1.9-4a.22.22,0,0,1-.09-.14c-.94-2,.07-7.24-.26-9.59-.13-1.12-.7-1-.25-2.36s.69-.85,1.6-1.58c.11-4.65,4.5-2.06,6-6.83a5.49,5.49,0,0,0,0-2.93c-1.14-.12-.84.35-1.75.84-.5-.84-1-1.68-1.47-2.51-1-3.44-.7-1.19-.52-3C2,83.12-.27,84-1,81.66c-.37-1,.05-2.05-1.24-2.56-1.94-.79-1.1.06-2.47-1.88A21.09,21.09,0,0,1-7.57,72.1c.86-1.59,1.46-1.33,1.32-3.35a9.13,9.13,0,0,0-.13-1.09A78,78,0,0,1,34.46,44,8.62,8.62,0,0,0,37,45.6c.58-.36,1-.71,1.62-.62a2.29,2.29,0,0,1,.8.37c-.11.28-.19.58-.27.88,0,0-.07.22-.07.17s0,.13,0,.19c1.83,0,.69-.69,2.25-1.71-1-.89-.95-.66-1.24-1.8a4.58,4.58,0,0,1,3.58.79c-.47.66-.78.45-.86,1.19,1.06,0,2.35-1,3.47-.06.14.31.33.63.5.93-1,.23-2-.29-3-.43-2.54,3.56.84,1.29-1.17,3.58a3.31,3.31,0,0,0,3-.18c-.09-.65-.59-.94-.56-1.64a2.87,2.87,0,0,1,2.23-.76,4.25,4.25,0,0,1,1.77.59c6.86,4,3.41,2.44,5,4.64.36.48,1.14,1.07,1.18,1.65.05.91-.72,1.3-.32,2.22s.7.38.93,1.85a1.73,1.73,0,0,1-2.11.36c-1.18-.66,0-1.06-1.36-1.66-.65,1.19.25,2.32-1.2,2.33-1.28,0-.23-.41-1.17-.42h-.15a.67.67,0,0,0-.18.06l-.57.19c-1.46-1.47-1.26-1.07-1.64-2.81-.14-.66-.14-.8-.87-1.15-.44-.23-1.12-.37-1.31-1,1.45-.57,1.28.69,2.87.77a18.41,18.41,0,0,0,2.61-.37c.11-1,0-.17-.19-1-.51-1.93-1-1.82-2.68-2.76-1.28.44-2.49,1.21-3.61,1.21a2.32,2.32,0,0,1-1.92-1.08c-.49,1.71,1.12,1.11.17,3C42,52.6,41.8,52.1,41,52c-1.69-.28-.42.38-.47.72,0,0,.6.46-.19.33s0-.2-.95-1.81l1.2-.74a33.08,33.08,0,0,0-4.75-.67,20.06,20.06,0,0,0-5.12.22c-.77,1.29,0,.56-.79,2.18,1.95,1.28.95,1.51,2.63,3.24.33.33.77.72,1.32,1.17-.56,1-1.85,1.2-1.82,2.56.84,1.8,2-.1,3-1.13,5.34,1.75,3.85-1,6.59-2.89a6.75,6.75,0,0,1,1.55-.79c.36.23,1.76,1.25,2,1.5,1,.81.24.74,1.11,1.93-.56.93-1.74,1.87-.22,2.44,1.17.42,1.41-.55,2.83,0-.2,1.71-.7,2.21-1.38,4,2.42,3,.47,3.2-1.45,5.13.28.42.59.83.91,1.24l-1.18,1.91c-.06,0-2.93-2.63-3.11-2.83,1.32-1.14,2.24-.63,3.66-1.75-1.29-.47-1.41-.05-2.41-.28a14.33,14.33,0,0,1-2.24-1.06c-.82.77.45-.83-.15.42-.22.48.25.17-.33.48-.8-1.13.25-2.09-2.39-2.16.34.47.68.92,1,1.39-.83,1.3-.36.23-1.15,1-2,1.87,1.39,2,2.13,2.22-.86,1.1-1.6.67-2.83.4s-2,0-3-.36c.82-1.42-.09-.35,1.11-1a9.37,9.37,0,0,0-2.95-.54l-.1,0c-1.37-.19-1.58-.22-2.53,1.13a7.43,7.43,0,0,0-3.49-.25L24.12,70l-.23.05c-.79,1.92-1,1.82-2.53,1.89a13.66,13.66,0,0,0-2.82.13c-4.11.87-2.16.49-4.41,4.76-.46-.5-.89-1-1.31-1.49,1.18-3,1.22-1.77-.64-3.7-2-2.08-2.36-.71-3.48-1.08s-1.07-2-3.27-1.84c-1.24.1-2.31,0-3.15,1C1.27,70.88.14,71.5-.61,73c-2.09,4,1.33,6.26,3.29,5C4,77.09,4.22,76.34,6,77.79a5.58,5.58,0,0,1-1.87,2.39c-.44.37-1.41.94-1.54,1.73,1.08,1.38,1.74.33,3,2.51-.94,1.93-3.11,3.45-2.3,5.35.64,1.45,1.12.76,2.19,1.15s.61,1,1.52,1.73a2.73,2.73,0,0,0,1.33-.71c1.5-1.1,1.27-.31,3.33-.32l.59,0c0,.46,0,.92-.07,1.37,1.9-.69,1.28.69,2.37,1.8a5.89,5.89,0,0,0,1.14.94c.94.56,1.3.15,2.33,1.35a4.72,4.72,0,0,0,.42.48s.07.08,0,.12l.06.15a5.9,5.9,0,0,1,0,1l1.19,4.05c1.32,1.66,2.05.39,2.92,3.41.37,1.25,0,1-.11,2.29,0,.2,0,.42,0,.67-.1.57-.16,1.13-.22,1.69.22,1.67,1.85,1.64,2.4,3.55.32,1.11-.11.59,1.32,1.77,2.22,1.81,1.4,1,2.45,3.51.42.93.76.74,1.17,1.57a3.7,3.7,0,0,1-2.3,3.8c-4.42,2.12-3.27,2-5,4.74-1,1.55-3.36,4.58-5.08,4.12-6.32-1.6-3.76,1.28-6.74,3.15-.85.53-1.27.54-1.87,1-2.54,1.91-2.27,3.2-5.15.78a9,9,0,0,0,0,.9c.11,2-.38,3.22-2.54,2.46-1.81-.62-.93-.54-2.12,1.18-.78-.1-.91-.52-1.56-.34v.37ZM35.58,43.8h0c.45.19.55,0,1.81.37a1.17,1.17,0,0,0,.05-.64v-.09l-1.86.36ZM82,97.24h0l0-.06a4.1,4.1,0,0,1-.24-.58c-.46-1.4-.22-2.28-1.39-2.69a1.74,1.74,0,0,0-.3,1.63c.42,2.69.32,1.8,1.08,3.14l0,0a14,14,0,0,1,.62,1.27c-2.22.45-.93,1.38-2.1,1.29h-.05l-.3,0c.13-.94.6-.19.46-1.75a3.86,3.86,0,0,0-.91-1.93c-1.23-1.77-.66-2.27-1.1-3.91-1.19-.64-1.14-.12-2.2-.18-1.28-.09-.8-.57-2-1.14-1.92,1.14.25.52-2.28.91-3,.42-2.26,3.09-5.89,1.67a2.47,2.47,0,0,0-.61-.24c-.76-.14-.28-.12-.86,0-.1.82-.43.49.61,1.3,1.9,1.46,2.89.34,4.57.89a55.38,55.38,0,0,1,5.83,3c.36,1.69-.91,2-1.45,2.93.76,1.2,2.21,2.22,2.5,3.17s0,.78.32,1.1l0,0c.11.11.26.29.52.6.7.79.55.94,1.45,1.55,2.47-2.34,1.43-2.55,4.76,1.1,3.45,3.83,2.27,1.47,4,2.69.84.6.44.74,1.77,1.29.52-.35,4.81-3.75,2.21-4.5-.77-.21-.45.29-1.27-.5s.22-.47-1-1-3-.26-2-4c.36-1.37.36-2.73-2-1.71,0,.81.21,1,.26,1.81a9.33,9.33,0,0,1-1,.4c-1.15.31.09.56-1.2,0-.37-.86.12-1.41,0-2.64-.18-2.25.11-1.09.43-3A19,19,0,0,0,82,97.24h0Zm-3.72,60h0c-1.23-.06-2,1-3.08,1.19s-2-.66-3.1.48c-1.34,1.42,0,1.52-2.39,3-.87.56-2,2.54-1.75,3.5.84,2.9,4.5-1.11,5.76-2.3.91-.84,1.89-1.82,2.78-2.58S78.41,159.14,78.23,157.28ZM103,107.06h0c-1.07,2.21-.28,3.74.05,5.23-.69.95-.78.55-1.56,2,.62,1.38,1.13,2.29,2.74,2.71,1.17-1.59.58-1.82.73-3.28a2.08,2.08,0,0,1,.57-.14c.69-.29.08.32.78-.45-.83-.91-1.88-2.9-1.22-4.35.73-.11.44,0,.94,0,1.1-.06,0,.39,1-.22,0-1-.33-1.44-1.55-1.61a15.14,15.14,0,0,0-2.5.13Zm-9.19-4.54h0c-.13-1.32.18-1.77-1.1-2.55A7.58,7.58,0,0,0,90,101.4c-1.17,1-.36.32-1.12,1.74-.05,0-.07.12-.1.17-.5.82-.13-.28-.44.56,1.14.38.35-.05,1.25.14s3.42.77,4,1.29c1.3,1.21,1.87,3.11,4.24,2.9.78-1.56-.71-3.18-1.59-4.56.86-1.35.6,0,1.28-1.43a2.49,2.49,0,0,0-1.16-.55c-1.22-.13-.75.31-.84.46-.39.77,1.07.4-.46.75a2.29,2.29,0,0,1-1.24-.35h0ZM74.5,77.44h0c-1.44,2.41-.12,2.08,0,3.73-1,.81-.56,0-1.58.8s0,.14-1.09,1.54a26.12,26.12,0,0,0,2.53,1.11c1.23.57,1.27.45,2.37-.51-.19-1.17-.38-2.34-.6-3.53-.11-1.77.23-.4.59-1.63,0-.49.07-1,.12-1.46A3.72,3.72,0,0,0,74.5,77.44Z"/>
        <path class="cls-6" d="M105,83.76l-.56-.91-2.29-3.77-.56-.91c-2.61.33-6.55,3.52-8.34,5.7l.28.46,2.29,3.77.28.46c2.76-.58,7.4-2.62,8.89-4.79Z"/>
        <path class="cls-7" d="M105,83.76l-.56-.91-2.29-3.77-.56-.91a6.77,6.77,0,0,0-2,.64l3.91,6.42A6.77,6.77,0,0,0,105,83.77h0Z"/>
        <path class="cls-6" d="M106.57,99.4l-.56-.91-2.29-3.77-.56-.91c-2.61.33-6.55,3.52-8.34,5.7l.28.46,2.29,3.77.28.46c2.76-.58,7.4-2.62,8.89-4.79Z"/>
        <path class="cls-7" d="M106.57,99.4l-.56-.91-2.29-3.77-.56-.91a6.69,6.69,0,0,0-2,.64l3.91,6.42a6.71,6.71,0,0,0,1.47-1.47h0Z"/>
        <path class="cls-6" d="M77.54,38.66l.56.91,2.29,3.77.56.91c-1.49,2.17-6.13,4.21-8.89,4.79l-.28-.46-2.29-3.77-.28-.46c1.78-2.18,5.73-5.38,8.34-5.7Z"/>
        <path class="cls-7" d="M77.54,38.66l.56.91,2.29,3.77.56.91a6.67,6.67,0,0,1-1.47,1.47L75.56,39.3A6.67,6.67,0,0,1,77.54,38.66Z"/>
        <path class="cls-6" d="M64.37,30.09l.56.91,2.29,3.77.56.91c-1.49,2.17-6.13,4.21-8.89,4.79L58.61,40l-2.29-3.77L56,35.79c1.78-2.18,5.73-5.38,8.34-5.7Z"/>
        <g>
          <path class="cls-7" d="M65.45,30.09,66,31l2.29,3.77.55.91a6.7,6.7,0,0,1-1.47,1.47l-3.91-6.42A6.65,6.65,0,0,1,65.45,30.09Z"/>
          <path class="cls-7" d="M38.09,95.76l5.82,14.8,3.67-2.74-1.8-14.51A27.36,27.36,0,0,0,48.25,92c3.16-1.7,17.12-9.42,29.49-15.3L97.27,126l3.37-2.05-3.7-56.42c8.07-3.91,14.34-7.06,16.13-8.32,5.47-3.85,10.94-9.44,9.36-16.3-5.38-4.55-12.84-2.26-18.78.83-1.94,1-7.63,5.14-14.8,10.51L40.44,25.05l-3.37,2.05,34.82,40C61,75.37,47.72,84.23,44.75,86.26a26.56,26.56,0,0,0-2.3,1.6L30.39,79.6l-4.12,2,10.47,12c-1.95,2-1.35,3,1.34,2.2h0Z"/>
        </g>
        <g>
          <path class="cls-8" d="M37,95.76l5.82,14.8.88-.66L38.13,95.33,37,95.76h0Z"/>
          <path class="cls-8" d="M26.19,81.12l-1,.48,10.47,12,.89-.79L26.19,81.12Z"/>
          <path class="cls-8" d="M76.67,76.7,96.19,126l1.3-.79L78.77,75.69Z"/>
          <path class="cls-8" d="M37.28,26.31l-1.3.79,34.82,40,1.86-1.41L37.28,26.31Z"/>
        </g>
        <path class="cls-9" d="M118.18,44.83a5.32,5.32,0,0,0-1.83-1.8l-.82,1.25a7.57,7.57,0,0,1,1.92,3.16l1.49-.16a5.34,5.34,0,0,0-.76-2.45h0Zm-2.87-2.3h0a8.63,8.63,0,0,0-4.11-.4,8,8,0,0,1,3.45,1.41Zm2.39,6h0a8,8,0,0,1-.33,3.71,8.61,8.61,0,0,0,1.53-3.84Z"/>
        <path class="cls-7" d="M36.9,95.54h0l.22-.13.22-.13.22-.13.22-.13.22-.13.23-.13.23-.13.23-.13.23-.13.23-.13.23-.13.23-.14.23-.14.23-.14.23-.14.23-.14.24-.14.24-.14.24-.14.24-.14.24-.14.24-.14.24-.14.24-.14.24-.14.24-.14.24-.14.24-.15.25-.15.25-.15L43.09,90l-.24.15-.24.15-.24.14-.24.15-.24.14-.24.14-.24.14-.24.14-.24.14-.24.14-.24.14-.24.14-.24.14-.24.14-.23.14-.23.14-.23.14-.23.13-.23.14-.23.13-.23.13-.23.13-.23.13-.23.13-.23.13L37,93.6l-.22.13-.22.13-.22.13-.22.13h0l.82,1.4ZM48.17,90h0l.22-.13.22-.13.22-.13.22-.13.22-.13.23-.13.23-.13L50,89l.23-.13.23-.13.23-.13.23-.14.23-.14.23-.14.23-.14.23-.14.24-.14.24-.14.24-.14.24-.14.24-.14.24-.14.24-.14.24-.14.24-.14.24-.14.24-.14.24-.15.25-.15.25-.15-.83-1.39-.24.15-.24.15-.24.14-.24.15-.24.14-.24.14-.24.14-.24.14-.24.14-.24.14-.24.14-.24.14-.24.14-.24.14-.23.14-.23.14-.23.14-.23.13-.23.14-.23.13-.23.13-.23.13-.23.13-.23.13-.23.13-.23.13-.22.13-.22.13-.22.13-.22.13h0l.82,1.4Zm11.13-6.13h0l.22-.13.22-.13.22-.13.22-.13.22-.13.23-.13.23-.13.23-.13.23-.13.23-.13.23-.13L62,82.3l.23-.14.23-.14.23-.14.23-.14.24-.14.24-.14.24-.14.24-.14.24-.14.24-.14.24-.14.24-.14.24-.14.24-.14.24-.14.24-.15.25-.15.25-.15-.83-1.39-.24.15-.24.15-.24.14-.24.15-.24.14-.24.14-.24.14-.24.14-.24.14-.24.14-.24.14-.24.14-.24.14-.24.14-.23.14-.23.14-.23.14-.23.13L61,81l-.23.13-.23.13-.23.13-.23.13-.23.13-.23.13-.23.13-.22.13-.22.13-.22.13-.22.13h0l.82,1.4ZM69,78.55h0l.22-.13.22-.13.22-.13.22-.13.22-.13.23-.13.23-.13.23-.13.23-.13.23-.13.23-.13.23-.14.23-.14.23-.14.23-.14.23-.14.24-.14.24-.14.24-.14.24-.14.24-.14.24-.14.24-.14.24-.14.24-.14.24-.14.24-.14.24-.15.25-.15.25-.15L75.21,73l-.24.15-.24.15-.24.14-.24.15-.24.14-.24.14-.24.14-.24.14-.24.14-.24.14-.24.14-.24.14-.24.14-.24.14-.23.14-.23.14-.23.14-.23.13-.23.14-.23.13-.23.13-.23.13-.23.13-.23.13-.23.13-.23.13-.22.13-.22.13-.22.13-.22.13h0l.82,1.4Zm56.48,37.84h0l-.31.44-.3.44-.3.43-.3.42-.3.42-.3.41-.3.4-.3.39-.29.39-.29.38-.29.37-.29.37-.29.36-.29.35v0l1.25,1,0,0,.29-.36.3-.37.3-.38.3-.38.3-.39.3-.4.3-.4.3-.41.3-.41.31-.42.31-.43.31-.44.31-.44.31-.45-1.34-.92Zm-7.37,9.17h0l-.14.14-.27.27-.27.27-.27.26-.27.25-.27.25-.27.24-.26.24-.26.23-.26.22-.26.22-.26.21-.26.21-.26.2-.26.2-.26.19-.25.19-.25.18-.25.18-.25.17-.25.17-.25.16-.25.16-.25.15,0,0,.83,1.4.06,0,.26-.16.26-.17.26-.17.27-.18.27-.18.27-.19.27-.19.27-.2.27-.2.27-.21.27-.21.27-.22.27-.22.27-.23.27-.24.27-.24.27-.25.28-.25.28-.26.28-.26.28-.27.28-.28.28-.28.14-.14-1.16-1.14Zm-10.37,7h0l-.23.07-.23.07-.23.07-.23.06-.23.06-.23.05-.23.05-.23,0-.23,0-.23,0-.23,0-.23,0-.23,0-.23,0-.23,0-.23,0-.22,0-.22,0-.23,0H101l-.22,0-.22,0-.22,0-.22,0h0l-.18,1.62h0l.24,0,.24,0,.24,0,.24,0h2.66l.24,0,.24,0,.25,0,.25,0,.24,0,.25,0,.25,0,.25,0,.25,0,.25,0,.25,0,.25-.05.25-.06.25-.06.25-.06.25-.07.25-.07.25-.07.25-.08h0l-.5-1.55Zm-12.38-.14h0l-.23-.06-.23-.06-.23-.06-.23-.06-.23-.06L94,132l-.23-.06-.23-.06-.23-.06-.23-.06-.23-.06-.23-.07-.23-.07-.23-.07-.23-.07-.23-.07-.23-.07-.23-.07-.24-.07-.24-.07-.24-.07-.24-.07L90,130.9l-.24-.07-.24-.07-.24-.07-.24-.07-.24-.07-.24-.07-.24-.07-.24-.07-.24-.07-.24-.06h0l-.41,1.57h0l.24.06.24.06.24.06.24.07.24.07.24.07.24.07.24.07.24.07.24.07.24.07.24.07.24.07.24.07.24.07.24.07.24.07.24.07.24.07.23.07.23.07.24.07.23.06.23.07.23.07.24.06.24.06.24.06.23.06.23.06.23.06.23.06L95,134h0l.39-1.58Zm-12.66-3.23h0l-.21,0-.26,0L82,129l-.26,0-.27,0-.27,0-.27,0-.27,0-.27,0-.27,0-.27,0-.27,0-.27,0-.27,0H75.64l-.29,0-.29,0-.29,0-.3,0h0l.17,1.62h0l.28,0,.28,0,.28,0,.27,0h3.21l.26,0,.26,0,.26,0,.26,0,.26,0,.26,0,.26,0,.26,0,.25,0,.25,0,.26,0,.25,0,.25,0,.21,0,.26-1.6Zm-13.23.59h0l-.24.07-.32.09-.32.1-.32.1-.32.11-.32.11-.33.11-.33.12-.33.12-.33.13-.33.13-.33.14-.33.14-.33.14-.34.15-.34.16-.34.16-.34.16-.34.17-.35.17-.35.18-.35.18-.35.19-.09,0,.8,1.42.07,0,.34-.18.33-.18.33-.17.33-.17.33-.16.33-.16.32-.15.32-.15.32-.14.32-.14.32-.14.32-.13.32-.12.31-.12.31-.12.31-.11.31-.11.31-.1.31-.1.31-.1.3-.09.3-.09.24-.07-.45-1.56Zm-11.86,5.81h0l0,0-.37.26-.36.26-.36.25-.36.25-.36.24-.36.24-.36.24-.35.23-.35.23L54,138l-.35.22-.35.22-.35.21-.34.21-.34.21-.34.2-.34.2-.34.2-.34.19-.06,0,.79,1.42.07,0,.35-.2.35-.2.35-.2.35-.21.35-.21.35-.22.35-.22.36-.22.36-.23.36-.23.36-.23.36-.24.36-.24.36-.24.37-.25.37-.25.37-.26.37-.26.36-.25,0,0-.93-1.33Zm-11,6.54h0l-.23.1-.31.14-.31.14-.31.14-.31.13-.31.13-.31.13-.31.12-.3.12-.3.12-.3.11-.3.11-.3.11-.3.11-.29.1-.29.1-.29.1-.29.09-.29.09-.29.09-.29.08-.28.08-.28.08-.28.07-.28.07-.13,0,.38,1.58.15,0,.29-.08.29-.08.29-.08.3-.08.3-.09.3-.09.3-.09.3-.1.3-.1.31-.1.31-.1.31-.11.31-.11.31-.11.31-.12.31-.12.32-.12.32-.13.32-.13.32-.13.32-.14.32-.14.33-.14.32-.15.23-.1-.67-1.48Zm-12.17,3.47h0l-.22,0-.25,0H30.84l-.23,0-.23,0-.23,0-.23,0-.22,0-.22,0-.22,0-.22,0-.22,0-.22,0-.21,0-.21,0-.21,0-.21,0-.21,0-.21,0-.21,0-.21-.05-.2-.05-.08,0-.44,1.56.1,0,.22.06.22.06.22.05.23.05.23,0,.23,0,.23,0,.23,0,.23,0,.23,0,.23,0,.24,0,.24,0,.24,0,.24,0,.24,0,.24,0,.24,0,.25,0,.25,0H33.8l.26,0,.27,0,.22,0-.12-1.62Zm-12.09-2.42h0l-.07,0-.17-.1-.17-.1-.17-.1-.17-.1-.16-.11-.16-.11-.16-.11-.16-.11-.16-.11-.16-.11-.16-.11-.15-.11-.15-.12L20,141.6l-.15-.12-.15-.12-.15-.12-.15-.12L19.3,141l-.14-.12-.14-.13-.14-.13-.14-.13-.14-.13-.14-.13-.14-.13-.13-.13-.13-.14-.13-.14-.13-.14-.13-.14-.13-.14-.12-.14-.12-.14-.12-.14-.12-.14-.12-.15-.12-.15-.12-.15-.12-.15-.05-.07-1.29,1,.06.08.13.16.13.16.13.16.13.16.13.16.13.15.13.15.14.15.14.15.14.15.14.15.14.15.14.15.14.14.15.14.15.14.15.14.15.14.15.14.15.14.16.14.16.13.16.13.16.13.16.13.16.13.16.13.17.13.17.12.17.12.17.12.17.12.17.12.17.12.18.11.18.11.18.11.18.11.18.11.18.11.07,0,.81-1.41h0ZM14.06,134h0l0-.1-.08-.17-.08-.17-.08-.17-.08-.17-.07-.17-.07-.17-.07-.17-.07-.17-.07-.17-.07-.17-.07-.17-.07-.17-.06-.18-.06-.18-.06-.18-.06-.18-.06-.18-.06-.18-.06-.18-.05-.18-.05-.18-.05-.18-.05-.18,0-.18,0-.18,0-.18,0-.18,0-.18,0-.18,0-.18,0-.18,0-.18,0-.18,0-.18,0-.18,0-.18,0-.18,0-.18,0-.18,0-.18,0-.18,0-.15-1.61.21,0,.16,0,.19,0,.19,0,.19,0,.19,0,.19,0,.19,0,.19,0,.19,0,.19,0,.19,0,.19,0,.19,0,.19,0,.19,0,.19.05.19.05.19.05.19.05.19.06.19.06.19.06.19.06.19.06.19.06.19.06.19.06.19.07.19.07.19.07.19.07.19.07.19.07.18.08.19.08.18.08.18.08.18.08.18.08.18.08.18.09.18,0,.1,1.47-.7h0Zm-2.42-12.22h0a19.51,19.51,0,0,1,1.85-7.53L12,113.56a21.1,21.1,0,0,0-2,8.15l1.62.09h0ZM16,110.36h0A33.15,33.15,0,0,1,21.85,105l-1-1.3a34.39,34.39,0,0,0-6.09,5.64Zm9.77-8.13h0l.17-.11.17-.11.17-.11.17-.11.17-.11.17-.11.17-.11.18-.11.18-.11.18-.11.18-.11.18-.11.18-.11.18-.11.18-.11.18-.11.18-.11.18-.11.18-.11.19-.11.19-.11.19-.11.19-.11.19-.11.19-.12.19-.12.19-.12.19-.12.2-.12.2-.12.2-.12.2-.12.2-.12.2-.12.2-.12.2-.12.2-.12h0l-.83-1.4h0l-.2.12-.2.12-.2.12-.2.12-.2.12-.2.12-.2.12-.2.12-.2.12-.2.12-.2.12-.19.12-.19.12-.19.12-.19.12-.19.11-.19.12-.19.12-.19.11L28,99l-.18.11-.18.11-.18.11-.18.11-.18.11-.18.11-.18.11-.18.11-.18.11-.18.11-.18.11-.18.11-.17.11-.17.11-.17.11-.17.11-.17.11h0l.89,1.36h0Z"/>
      </g>
      <g class="cls-2">
        <g>
          <path class="cls-10" d="M61.19,21.33h0a7.05,7.05,0,0,0-2-4.89,5.87,5.87,0,0,0-7.56-8.23A7.07,7.07,0,0,0,41.61,9,9.52,9.52,0,0,0,29.82,19.34a7.08,7.08,0,0,0,4.12,13.53,9.53,9.53,0,0,0,15.61,1.81A7.08,7.08,0,0,0,60.13,33a5.88,5.88,0,1,0,1.06-11.65Z"/>
          <path class="cls-11" d="M44.27,28.33a7.07,7.07,0,0,0-5.81-3h-.18a9.53,9.53,0,0,0-17.13-3.65,7.08,7.08,0,0,0-9.65,6.6c0,.05,0,.1,0,.16A7.08,7.08,0,1,0,15,42.1a5.7,5.7,0,0,0,6.9,2.73,8,8,0,0,0,12.57-.34,5.69,5.69,0,0,0,7.57-2.17,7.08,7.08,0,0,0,2.2-14Z"/>
          <path class="cls-12" d="M208.28,40.83A8.67,8.67,0,0,0,213,39.47a8.71,8.71,0,0,0,11.41,4.1A8.71,8.71,0,0,0,240.53,41a8.71,8.71,0,1,0,3-17.15A8.71,8.71,0,0,0,230.72,18a12.23,12.23,0,0,0-23.2,5.4v0a8.71,8.71,0,0,0,.76,17.39Z"/>
          <path class="cls-13" d="M188.84,108.15a8.67,8.67,0,0,0,4.67-1.36,8.71,8.71,0,0,0,11.41,4.1,8.71,8.71,0,0,0,16.17-2.54,8.71,8.71,0,1,0,3-17.15,8.71,8.71,0,0,0-12.84-5.87,12.23,12.23,0,0,0-23.2,5.4v0a8.71,8.71,0,0,0,.76,17.39Z"/>
          <path class="cls-14" d="M243,59.93a8.76,8.76,0,0,0,1.41-.12,11.72,11.72,0,0,0,18.82,2.48A11.73,11.73,0,0,0,275,61.35a8.71,8.71,0,1,0,2.28-17.18,11.7,11.7,0,0,0-9-4.18,11.84,11.84,0,0,0-1.36.08s0-.05,0-.08a8.71,8.71,0,0,0-16.62-3.66,11.74,11.74,0,0,0-8.07,6.2A8.71,8.71,0,0,0,243,59.93Z"/>
          <path class="cls-15" d="M155.36,106l-.61,0v0a8.14,8.14,0,0,0-9.35-8,11,11,0,0,0-20.52-2.41,8.14,8.14,0,0,0-10.79,6.13,11,11,0,0,0,7.2,20.42,8.14,8.14,0,0,0,8.47,2.42,8.14,8.14,0,0,0,14.45-.86,8.14,8.14,0,0,0,8.1-2A8.14,8.14,0,1,0,155.36,106Z"/>
          <path class="cls-16" d="M193.08,92.32c0-.06,0-.13,0-.19A8.71,8.71,0,0,0,181.21,84a11.72,11.72,0,0,0-21.07,4.49h-.22a8.7,8.7,0,0,0-7.15,3.74,8.71,8.71,0,0,0,2.71,17.21,7,7,0,0,0,11.57.78,7,7,0,0,0,5-.78,7,7,0,0,0,5,.78,7,7,0,0,0,11.72-1,8.71,8.71,0,1,0,4.33-16.86Z"/>
          <path class="cls-17" d="M179.06,56.74a8.67,8.67,0,0,0,4.67-1.36,8.71,8.71,0,0,0,11.41,4.1,8.71,8.71,0,0,0,16.17-2.54,8.71,8.71,0,1,0,3-17.15,8.71,8.71,0,0,0-12.84-5.87,12.23,12.23,0,0,0-23.2,5.4v0a8.71,8.71,0,0,0,.76,17.39Z"/>
          <path class="cls-18" d="M217.24,54.93a8.76,8.76,0,0,0,1.41-.12,11.72,11.72,0,0,0,18.82,2.48,11.73,11.73,0,0,0,11.77-.95,8.71,8.71,0,1,0,2.28-17.18,11.7,11.7,0,0,0-9-4.18,11.84,11.84,0,0,0-1.36.08s0-.05,0-.08a8.71,8.71,0,0,0-16.62-3.66,11.74,11.74,0,0,0-8.07,6.2,8.71,8.71,0,0,0,.74,17.39Z"/>
          <path class="cls-19" d="M235.23,110.43c-.29,0-.58,0-.86,0v0a11.42,11.42,0,0,0-13.11-11.29,15.37,15.37,0,0,0-28.79-3.39,11.43,11.43,0,0,0-15.14,8.6A15.37,15.37,0,0,0,187.43,133a11.42,11.42,0,0,0,11.89,3.4,11.42,11.42,0,0,0,20.27-1.2,11.42,11.42,0,0,0,11.37-2.77,11.42,11.42,0,1,0,4.28-22Z"/>
        </g>
      </g>
    </g>
  </g>
</svg>
